<?xml version="1.0" encoding="utf-8"?>
<!-- Generator: Adobe Illustrator 21.1.0, SVG Export Plug-In . SVG Version: 6.00 Build 0)  -->
<svg version="1.1" id="Layer_1" xmlns="http://www.w3.org/2000/svg" xmlns:xlink="http://www.w3.org/1999/xlink" x="0px" y="0px"
	 viewBox="0 0 88.2 88" style="enable-background:new 0 0 88.2 88;" xml:space="preserve">
<style type="text/css">
	.st0{opacity:0.24;}
	.st1{fill:#3F7D97;stroke:#000000;stroke-width:0.75;stroke-miterlimit:10;}
</style>
<title>Untitled</title>
<desc>Created with Sketch.</desc>
<g id="Page-1_1_">
	<g id="passengerAirport" transform="translate(1.000000, 0.000000)">
		<g id="Page-1">
			<g id="pin-shadow-01" transform="translate(9.000000, 68.000000)" class="st0">
				<path id="Shape" d="M49.3,0.9C28.5-0.6,7.1,1.3,1.3,5.3s-0.7,8.1,20,14.6l1.3,0.1c33.7-2.6,48.6-5.4,54.3-9.4
					C82.6,6.7,70.1,2.3,49.3,0.9L49.3,0.9z"/>
			</g>
			<g id="pin">
				<path id="Shape_1_" class="st1" d="M32.1,0.4c-18,0-32.7,14.4-32.7,32.5c0,17.9,8.6,31.5,32.2,54.5h1.1
					c23.6-23,32.2-36.5,32.2-54.5C64.9,14.8,50.1,0.4,32.1,0.4L32.1,0.4z"/>
			</g>
		</g>
	</g>
</g>
</svg>
