<?xml version="1.0" encoding="utf-8"?>
<!-- Generator: Adobe Illustrator 21.0.2, SVG Export Plug-In . SVG Version: 6.00 Build 0)  -->
<svg version="1.1"
	 id="svg2" xmlns:cc="http://creativecommons.org/ns#" xmlns:dc="http://purl.org/dc/elements/1.1/" xmlns:rdf="http://www.w3.org/1999/02/22-rdf-syntax-ns#" xmlns:svg="http://www.w3.org/2000/svg"
	 xmlns="http://www.w3.org/2000/svg" xmlns:xlink="http://www.w3.org/1999/xlink" x="0px" y="0px" viewBox="0 0 1097.3 419.7"
	 style="enable-background:new 0 0 1097.3 419.7;" xml:space="preserve">
<style type="text/css">
	.st0{fill:#F7F7ED;stroke:#9C9C9C;stroke-width:2.6575;}
	.st1{fill:none;stroke:#FFAA00;stroke-width:3.5433;}
	.st2{fill:none;stroke:#77AAFF;stroke-width:5.315;}
	.st3{fill:none;stroke:#FF0000;stroke-width:5.315;stroke-linecap:round;stroke-miterlimit:1.81;}
	.st4{fill:none;stroke:#FF0000;stroke-width:4.4291;}
	.st5{fill:none;stroke:#9C9C9C;stroke-width:2.6575;}
</style>
<path id="State_Line-Background" class="st0" d="M335.4,1.4c-0.6,1,0.8,3.7-1.6,2.9c-0.4,1.2,0.6,2.6-0.9,3.6c0,1.5-2,1-1.4,2.6
	c1.4,1.7,0.8,3.8,1.2,5.6c-0.4,1.6,0.9,4.1-1.6,4.2c-1.3,0.6-0.7,2.3-0.9,2.9c0.1,1-0.9,1.4-0.4,2.5c-0.8,0.9-1.9,1.8-2.9,2.1
	c0.1,1.3,0,2.5,1.4,2.9c-0.2,1.3-1,2.3,0.3,3.4c0.5,1.4,0.2,3.6,2.3,3.6c0.8,2.5-1.9,1-3.1,0.4c-1.1,0.1-2.4,1.2-3.6,0.2
	c-1.2,0.2-1.8-1.8-3.3-1.3c-0.2-0.9-0.3-2.8-1.4-1.4c-1.6,1.5-4,0.9-5.5,2.4c-2.4,0.8-3.2,3.6-5.4,4.6c-2.4-0.1-3.1,2.5-4.2,4.2
	c-2.5,4.4-5.4,8.5-7.9,12.9c-1.8,3.1-3.6,6.2-5.5,9.2c-0.2,2.7-2.3,0-3.5,0.6c0,1.9-2.1,2.2-3.4,2.8c-1.9-0.2-3.3-0.4-5.1,0.1
	c-2-0.7-1.1-3.2-1.7-4.7c-0.2-1.5-1.1-2.8-2.7-1.8c-1.2-0.3-2.6,1.4-3-0.7c-1.5,0.4-3.2-3-4.5-0.6c-0.8,1.2-2.2,3.1-3.5,3.1
	c-1.1-1.1-1.7,1.6-3.1,0.4c-1-0.8-2.2-1.5-3.4-0.2c-1.1,1.3-2.8,1.8-4.4,2.1c-1.8-0.8-3.1,1.2-4.7,1.7c-1.3,1.1-3.1,1.5-4.1,3
	c-2.1,3.6-4.3,7.2-6.4,10.9c-2.2,1-3.6,2.5-5.4,4.1c-1.5,0.8-3.4,0.8-4.9,1.6c-1.4,0.9-2.1,2.9-3.9,1.3c-0.4-2-2.8-0.7-4.2-1.4
	c-1-1.6,1.9-3.5-0.5-4.5c-0.2-1.4,1-2.6,1.4-3.6c0.2-1,3-2.4,0.5-2.4c-0.9-1.3-2.5-1.7-2.4-3.3c-1-1.2-2.4-1.8-3.5-0.3
	c-2.4,0.3-4,1.8-5.7,3.1c-1.5,0.5-2.4,1.4-3.3,2.4c-2.1,0.2-3.3,2.6-5.6,2.4c-1.6,0.3-2.7,2.4-2.2,3.9c1.6,0.3,0.8,1.5-0.2,2
	c0.3,2.1-2.4,2.2-2.7,4c1.1,1.4-1.3,1.8-2.2,1.8c-0.7-1.6-2.4-4-4.2-3.9c-1.4-0.7-2.6-0.9-3.9,0.1c-2.3-0.2-0.1,3.8-2.6,2.7
	c-1.1-1-1.2,0.6-0.2,0.7c-0.3,1.7,1.1,3.2,1,5c-1,0.8-0.1,1.4,0.6,1.6c-0.3,2.2-4,0.6-2.9,3.1c-0.7,1.2,1.2,2.9-1,2.9
	c-0.9,0.7-1.4,1.9-2.6,2.3c-1.4,1.4-1.5,3.9-2.7,4.9c-1.4,0.5-2.1,2.6-3.9,2.3c-1.3-1-3.3-2.2-5-2.1c-1.4-0.9-2.9,0.1-4.4-0.7
	c-1.5,0.8-2.6,2.3-4.4,2.7c-1.6,0.9-3.8,0.5-5.6,0.7c-1.5,0.5-0.8,3-2.7,3.2c-0.4,1.8-2.1,2.7-3.7,2.4c-1.8,0.1-3.7-0.9-5.1,0.6
	c-1.5,1.3,0,4.6-2.7,5.3c-0.9,1.2-3.2,0.9-2.9,2.9c-0.8,1.9-3.1,1.5-3.9-0.1c-1.5-0.4-4,0-4.1,2c-0.9,1.6-2.5,1.8-4,2.3
	c-0.5,2-2.9,1.7-4.2,2.9c-1.5,0.8-3.3-0.9-3.9,1.3c-1,1.8-3.4,1.8-3.7,4c-0.7,1.6-2.8,2-4.4,1.7c-1.9-0.9-4.5-0.1-6.6-0.7
	c-2.5,1.9-2.7-2.9-5-2c-1.2,1.1-3.2,1.8-4.8,1.4c-1.7-0.6-3.5-0.5-5.3-0.5c-1.9-0.8-3.7,1.7-5.3,0.2c-1.6,1.1-4.2-0.7-5,1.4
	c-1.1,1.5-3.4,1.2-4.3,2.9c-1.5,1.4-3.3,1.7-5.2,1.9c-1.4-0.5-3.8-0.7-4.3,1.2c-1.3,1.4-2.6,2.7-3.2,4.5c-0.9,1.8-3.8,0-4.6,2.3
	c-0.9,0.7-2.1-1.2-2.1,0.8c-1.6,0.4-2.3,2.2-4,2.9c-0.8,1.5-2,3.6-3.8,3.7c-0.4,1.7,2.4,2.3,1.3,4c1.1,1.9-0.9,3.3-1.9,4.5
	c-1.1-0.1-2.1,0.7-1.4,1.7c-0.5,1,1.4,1.3,0.2,2.4c-0.6,1.3-0.6,2.3,0.7,2.8c1.5,2.2-2.2,2.6-2.5,4.5c-1.1,1.8-3.7,1.2-4.9,2.6
	c-0.7,1.2-2.1,1.8-3.2,1c-0.8,0.1-2.6-0.6-2.3,1.1c-1.2-0.3-3.2-1.4-4.6-0.5c-1.4-0.7-2.6,1.4-3.9,0c-1.5-0.9-0.8-4.6-3.6-4
	c-1.3,1.2-2.6,2.4-4.1,3.2c-1.2,1.4-3.8,2-4.3,3.6c-0.9,6.6-2.4,13.2-3.3,19.8c-0.8,4.9-1.5,9.9-2.4,14.8
	c23.1,1.4,46.2,2.6,69.3,3.6c5.9,0.3,11.7,0.7,17.6,1c0.1-1.8,3.1-0.3,4.4-0.7c16.2,0.6,32.5,1,48.7,1.1c3.4,0,6.7,0.2,10.1,0.2
	c5-1.2,10-2.8,15-4.1c8.6-2.4,17.2-4.6,25.7-7c2.5,0.1-1.2,3.9,1.6,3.1c1.1-0.4,2.5-0.3,2.7-1.8c2.1,0.7,2.1-2.8,3.8-2.1
	c1.2,0.3,2.1-1.5,2.8-0.4c1-0.9,1.7-2,0.4-2.7c0.3-0.7,1.1-0.8,1.2-1.7c1.8-0.9,0.7,2,2.3,1.1c1.7,0.7,3-3.2,4.1-0.8
	c1.4-0.8,2.7-2.6,4.7-1.7c1.3-1,3.1-0.2,4.1-1.8c1.8,0.5,0.3-2,2.2-1.7c1.3,0.2,0.9,1.9,2.5,1c1.3-1.5,2.8-0.5,4.1-1.4
	c1-1.6,3.2-0.9,4.6-1.4c1.1,0.7-1.4,2.4,0.8,1.8c2.8,0.3,2.4-3,3.6-4.6c1.3-0.9,2.8-1.1,3.6-2.7c1.8,0.6,1.5,2.9,1.5,4.3
	c0.7,1.5,2,0.5,2.4-0.5c1.9-0.9,3.2,0.7,4.7,1c1.4-1.4,3.5-1.3,5.2-2c2.8,0.1,5.5,0.7,8.3,0.9c5.6,0.6,11.2,0.8,16.8,1.4
	c14.4,0.9,28.8,2.1,43.2,3c12.5,0.9,25.1,1.9,37.6,2.8c14.1,1,28.3,1.9,42.4,3.2c1.2,0.4,3.8-0.1,4.2,0.8c-1,1-1.2,2.9,0.5,3.2
	c1.2,1.5,1.1,4-1.2,4c-1.6,2-1.9,5.4,0.1,7.2c0.9,2.1,2.9-1.1,4.4-1.5c3.2-2.2,6.5-4.3,9.6-6.7c4.1,5.5,8,11,11.8,16.7
	c2.2,3.2,4.4,6.3,6.7,9.5c-0.7,5.8-1.5,11.6-2.2,17.4c13.1,0.3,26.3,0.8,39.4,1.1c10,0.4,20,0.7,30,1c15.5,0.5,31,1.2,46.5,1.6
	c7.3,0,14.5,0,21.8,0.3c2.4-0.5,3.5,2.3,5.2,3.6c7.4,7.5,15,14.8,22.3,22.4c4.3,4,8.3,8.3,12.5,12.4c7.6,7.8,14.7,15.9,22.4,23.5
	c19.3,19.7,38.9,39.3,58.2,59c5.3,5.2,10.5,10.6,15.7,15.9c2.2,2.3,4.5,4.6,6.7,6.9c2.4-1.3,4.8-2.6,7.4-3.3
	c3.7-1.4,7.5-2.6,11.3-3.8c1.4-1.3,3.3-0.2,4.9-1c4.7-0.9,9.6-1.1,14.3-1.7c1.8,0.8,3.8,0.1,5.7,0.2c4.6-0.1,9.2,0.2,13.6,1.3
	c2.7,0.6,5.4,1.6,8.1,2.4c2.2,0.3,3.5,1.6,1.5,3.2c0.5,1.9,2.9,2.1,4.5,2.8c0.8,0.6,2.2,1.3,1.8-0.5c0.2-3.6,0.6-7.4,2.2-10.7
	c1-2.2,1.9-4.4,2.6-6.8c1.3-2.2,1.7-4.9,2.6-7.4c1.2-3.9,2.4-7.9,3.8-11.8c2.1-4.8,3.9-9.8,6.9-14.2c2.8-4.7,5.8-9.3,9.2-13.6
	c2.2-2,4-4.5,5.9-6.8c1.6-2.1,4-3.4,5.8-5.2c4-3.8,7.8-7.8,12.3-11c5.2-4.1,10.8-7.7,16.5-11c3.3-1.9,6.8-3.5,9.9-5.8
	c3.6-2.1,6.4-5.3,10-7.6c0.9-0.3,2.7-2.2,0.7-1.4c-0.5-1.6,2.3-2.7,3.1-4.1c0.8-1.6,2.1-2.6,3.8-3.3c1.6-1.1,3.9-2.4,4-4.1
	c1-0.1,2.6-0.1,1.9-1.4c1-1.4,2.8-1.8,3.4,0c2,1.4,3.4-0.1,5.3-0.4c1.3,0.1,1.3-0.5,1.4-1.3c1,1.4,1.8-1.4,2.2,0.6
	c1.2,1,1.1-1.6,2.5-0.9c-0.3-1.2,1-1.4,1.4-0.6c1.5-0.9,3.2-1.4,4.4-2.4c1.5,0.4,3.2-0.9,4.5-1.4c1.9,0,3.3-1.9,5.2-1.4
	c2.2-0.3,4.7-0.5,6.9-0.6c2.4,0.4,4.9,0.3,7.3,0.4c2.3,0.6,4.7,0,7,0.8c1.6,0.6,3.8-0.4,4.7,1.5c0.7,0.5,0.1-2,1.4-0.9
	c2,0.8,4.4,0.7,6.6,1.2c1.3-1.4-2.4-2.3-0.5-3.7c-0.7-1.7,0.6-3.1,0.4-4.9c0.5-1.3,0.1-2.8,0.2-4c2.3-1.5,1.7,2.3,3.5,2.5
	c1.9-1.3,1.8,1.8,0.4,1.8c0.2,1.4,2.2,2.9,0.5,4.1c0.2,2.2,2.5,1.1,3.9,0.9c1.2,1.6,2.4-0.5,3.8,0.7c1.3,0.2,1.7-1.6,2.6-1.9
	c0-1.6-1.4-2.1-1.9-3.3c1.3-0.7,2.8-2.5,3.4-0.2c0.5-1.3,1.7-2.2,2.1-3.7c1.2-1.4,1.7-3.5,2.2-5.3c1.8-0.1,1.8-2.8,3.3-2.7
	c1,1.5,1.4-0.5,1.1-1.3c0.8-1.9,0.4-4.3,0.8-6.4c0.6-1.8,2.8,1.1,1.2,1.8c-0.8,1.7,2.1,3,2.2,0.8c0.6-2,3-1,4.1-1.9
	c1.4-1.2,2.7-2.6,3.6-4.2c0.3-1.5-4.2-0.3-2.6-2.6c0-0.1-1.5-2.1,0.4-2.2c1.3-0.1,4.3,3.1,4.6,0.6c-0.8-1.6,2.8-0.6,1.9-2.6
	c1.5-1.7-0.9-2.6-1.7-3.8c-0.4-1.3-2.6-3.1-0.1-3.3c1.7-0.3,2.8,1.8,3.9,2.8c1.7-0.1,3.3-3.6,0.9-4c-2.4-0.5-4.9-0.7-7-2.1
	c-2-0.7-3.8-1.8-5.9-2.5c-1.8-1-1.4,1.1-0.2,1.5c1.3,1.2,1.7,3,2.8,4.3c0.9,1.4,2.4,2.7,2.3,4.5c-0.9,2.1-1.3-2-2.2-0.2
	c-0.8-0.5-2.4-1.2-3.1-1c-0.2,1.9-2.8-2.1-2.3,0.1c0.2,1.4-0.8,4.5-2,3.9c0.1-1.3-0.9-3.4-1.7-1.4c-1.1,2.4-2.5-1-1.9-2.1
	c1.2-1.1,0.4-3.8-0.1-4.4c-1.8,0.4-1.7-2.6-1.2-3.7c0.5-0.6,2.5-0.2,0.7-1c-1.4-1,0.7-4.3-1.8-4.1c-1-0.3-2-3.7-3.5-2
	c-0.1,1-1.2,2.3,0.3,2.4c1.2,1-0.2,2.6-0.9,2.5c-1.1-1.6-1.6,2-1.9,2.7c2.3,0.7-1.8,1.9,0.2,3.1c0.2,1.2,2.2,2.1,0,2.5
	c-1.4,0-2-1.9-2.6-2.9c-2.4,0.8-5.2,0.1-7.1,1.9c-2.2,0.1,0.8,2.5-1.4,2.6c-1.9-0.4-3.5-1.9-5.5-1.7c-2.1,0.5-4.2,0.9-5.4,2.7
	c-1.3,0.3,0.3,3.4-2,2.3c-2.3-0.7-2.9,1.6-3.7,3.2c-0.6,1.5-1.8,1.3-2.9,0.7c-0.5,0.6,0,1.5-1.1,1.6c-1.3,1.8-3-0.8-4.5-1.1
	c-1.6-0.5-2.9-1.8-4.7-1.7c-1.6,0.4-3.3,1.3-4.1-0.3c-1.3-1.3-4.4,0.5-4.6-1.8c-1.4-1-3.2-1.6-4.8-2.3c-1.4-1.8-3.6-2.7-5.2-4.4
	c-0.9-1.7-1.3-3.6-1.8-5.5c-0.3-2.1-2.9-3.1-3.4-5.1c0-1.7-2.3-1.9-2.7-3.6c0.5-1.5,0-3.3-1.6-4.3c-0.6-0.4-0.3-1.9-1.5-2.3
	c0.1-2.1,2.9,0.4,3.7,1.1c0.7,1.5,2,3,1.8,4.6c1.9,0.5,1.6,3.7,3.4,4.7c0.7,1.2,2.2,2.4,3.9,2c1.8-0.3,1.4,2.7,3.3,2
	c0.8,0.6-0.5,2.2,1.5,2.1c0.8,1,2.1-0.7,2.8,1.1c1.5,1.4,3,2.9,5,3.5c2.2,1.2,3.5,3.6,6,4.3c0.8,0.2,0.9,0.9,1.4-0.3
	c1.9-1,4-0.9,4.9-3.2c1.6-0.4,3.2-1.9,5-2.2c1.8-0.2,1.6-3,3.6-3.4c1.5-0.6,3-1.3,4-2.8c1.7-0.6,2.2-2.5,4-3
	c1.8-0.4,4.3-1.6,3.6-3.8c-0.2-2.1,4-0.5,3.4-3.3c1.2-1.7,1.4-4.3,3.2-5.8c0.4-1.9-1.4,0.8-1.6-1c-1.1-0.8-1.5-2-2.3-2.7
	c-1.3-0.2-2.9,0.4-1.8,2c-0.4,1.6-2.3,0.8-2.9-0.2c-1.6-0.1-4,1.1-3.4-1.7c1.7-0.5,3.1-1.5,4.2-2.5c-1.1-2.3,3.2-2.4,4.3-1
	c1.2,0.8,2,0.7,3.1,0.3c0.1,1,1.7,2,1.9,0.3c0.8-1.2,0.8-2.6-0.9-2.8c-0.6-2.2-3.6-1.2-4.2-2.9c1.8-1.3,4.5-0.2,6.3,0.7
	c1.1,0.2,3.4,1.7,2.4-0.5c-0.9-1.2-1.6-2.6,0.5-2.9c2.6,0.5-0.9-2.2,1.1-3c0.6,0.5,2.2,1,1.2-0.2c-1.9-0.9,1.3-2-0.7-2.8
	c-1.3-0.5,0.2,1.8-1.5,1.3c-1.9-0.2-0.2-2.2-1.4-3c-0.4-1.7,1.2-1.2,2-1.7c-0.8-1.8-3.6-0.9-5.2-1.6c-1.6-0.5-3.3-1.1-5-1.1
	c-1.8-0.8-4.2,0.4-5.6-0.5c-0.5-2.2-3.3-1.5-4.7-1.2c-1.3,0.5-2.5-0.9-3.9-1c-1.2-1.4-2.3-2.3-4.1-2.9c-1.5-1.7-4.2-0.6-6.2-1.8
	c-1.5,0.1-1.3-2.3-3.1-1.3c-1.6,0.2-3.8-0.8-4.5-1.9c-0.5-1.5-2.2-2.4-3.5-3.2c-2.2,0.1-4.3,0.3-6.2-1.1c-2.2-0.1-3-3.3-5.2-1.5
	c-1.3,0.4-3.4,2.8-3.6,0.2c-0.4-1.7-1-3.7-2.6-4.4c-2.4-0.4-4.5-2.2-6.3-3.7c-1.5-2,1.4-0.6,2.2-0.1c0.3-1.5-1.9-3.1-3.1-3.9
	c-2.1-1,0.5-2.7,1.4-0.9c1.3,1.3,3.2,2,3.8,3.8c1.1,1.1,2.6,1.9,3.3,3.3c1.6,0.2,3.1-0.2,4.2,1.3c1.8-0.3,3,1.5,4.6,2
	c1.6,0.1,3.3-0.3,4.9,0.4c1.9,0.9,4.2,1.8,6.1,0.5c0.9,2.3,3.9,2.4,5.7,3.6c1.2,0.4,1.8,1.8,3,0.6c1.4-1,3.5-0.4,4.9-0.7
	c1.3,0.9,3,2,4.6,1.4c0.6-0.3,0.8-2,1.4-0.6c-0.6,1.7,1.4,3,3,3c2,0.4,3.8,1.1,5.7,1.7c0.8,0.2,2.9,0.3,1.6-1
	c-0.3-1.3-1-2.5-1.5-3.5c0.6-1.2-0.9-1.8-0.7-2.8c-2-0.8-1.2-2.9-0.9-4.4c-0.3-1.1,1.2-2.5-0.7-2.6c-2-0.5-1.8-3.2-3.7-3.9
	c1-1.8,3-3.6,5-4.4c1.8-0.6,4,0.6,5,1.4c1.1-1.2,2.1,0.7,3.3-0.5c1.5,1.1,2.4-1.6,4.1-0.3c2.2-0.3,1.2-3.5,3.5-3.7
	c1,0.5,1.8,1.5,0.4,2.3c-1.1,1.3,0,3.1-1.2,4.4c-1.5,1.8-4.3,2.1-6.3,1c-1.9-0.2-3.8,0.2-5.6-0.1c-0.8,0.3-2.7-0.1-1.3,1.2
	c1.6,0.7,3.2,1.8,2.4,3.8c0.1,1.5,3.7,2.6,0.8,3.2c-2.1,0.8,0.5,3.2,1.8,3c2.7,0.1,0,3,0.7,4.2c0.9,1.4,2.4,1.9,3.6,1.6
	c1.1,1.5,2.8,3.8,4.8,3.3c0-1.6-1.4-3.3-1.4-4.7c1-0.6,1.7,1,2.4,0c0.8,0.1,0.7,2.9,1.5,1.6c0.7-1.2,2,1.7,1.7-0.4
	c-0.8-1.8,2.4-2.4,2.1-4.4c1.1-1.5,3.8-1.5,3.9,0.7c0.9,1.6-2.7,2-0.4,3.3c0.7,0.7,0.3,2.2,1.8,1.7c1.7,0.1,2.4,3.9,0.4,3.4
	c-1.5-1.2-3.5-1.3-5.3-1.8c-1.5,0.8-0.8,2.3,0.6,2.4c-0.8,2,1.1,2.4,2.2,1c0-1.9,3-1.1,1.9,0.6c-0.5,1.8,1,2.1,2.1,1
	c1.3,0.3,3.2,0.1,2.2-1.6c0.5-2.1-2.9-4-1-5.4c0.8-1.3,3.9,0.1,3.5,1.7c0,1.6,2.8,0.5,2.2,2.8c1.1,0.9,3.1,2.2,4.8,2.3
	c1.5-0.4,2.1-1.9,0.7-2.8c-0.2-2.2,3.5-1,3.6,0.5c0.7,1,1,2.9,2.4,1.4c1.3-0.6,0.5,2.1,1.7,0.7c1.5-0.1,2.7-1.8,4.3-0.5
	c1.4,0.4,0.6,1.9,0,2.2c1.2,0.4,1.9-0.4,1.9-1.6c1.5-0.4,1.4-1,0.7-2.2c0.9-1.9,3.5,0.9,4.6-1.3c1.6,0.1,1.8-2.6,3.7-1.7
	c0.7-0.3,2.2-2.9,0.2-2.1c-2.3-0.1-1-2.1,0.3-2.1c-0.3-1-0.5-1.7,0.8-1.9c-0.5-0.6-0.2-1.7,1-1.5c-1.3-0.8-0.7-2.7,0.8-1.7
	c1.5,0.5,1.5,1.9,2,3.1c1.6,0.4,2.4-2.3,1.9-3.7c-0.7-2,2.9-2.8,1.9-5.1c-0.2-2.7,3.1-3,4.2-4.4c-0.2-1.7-3.5-1.2-1.5-2.8
	c0.7-0.8,1.9,0.7,2.2-0.9c-0.7-2.2,2.7-2.1,4-2.8c1-0.1,2.3-2.7,0.4-2c-1.4-1.8,2.1-1.3,2.1-2.8c1.2-0.7,3.3-0.6,1.6-2.5
	c-1.3-1.2-0.7-2.8,1.2-2.5c2-0.6,2.3,1.6,2.9,2.7c1.3,1.3,2.7,2.8,4.8,1.9c1.5-0.4,4.1-0.7,4.7-1.6c-1.4-0.8-1.2-3.5,0.8-2.8
	c0.8-1.3,2.8-0.7,2.5-2.5c0.5-1.3,2.7-1.7,1.3-3.3c-0.1-1.3-0.6-2.2-1.9-1.7c-1.4-0.7-3.3-3.2-1.4-4.2c-2,0-2.9-2.1-1.1-3.2
	c0.3-2.5,4.5-0.5,4.1,1.4c-0.6,2.5,3.4-0.7,2.4-2.1c-0.2-1.6-2.1-2.8-1.5-4.8c0.8-1.4-2.5-2-0.9-3.7c-0.1-1.3-1.8-2.4-0.1-3.4
	c0-1.3-0.7-2.7,0.5-3.8c0-1.1-0.9-2,0.1-2.9c-0.3-1.7-1.7-2.7-2.9-3.8c0.8-1.7-0.8-3.3,0.1-4.9c-0.9-0.7-2.1-1-2.2-2.4
	c-0.8-0.8,0.4-2.3-1.4-2.1c-0.9-1.2-0.2-3.3-2.1-3.7c-0.9-0.7-1.7-1.1-1.6-2.4c-1.7-1.6-4.2-2.2-6.4-2.9c-1.6-0.6-3,0.6-4.7,0.2
	c-2.1,0.3-4,1.4-5.8,2.4c-0.5,1.4,2.3,1.9,2.7,3.4c0,2.1-3.2,1.8-3.6,3.9c-0.3,2.4-3.7,1.9-3.7,4.1c0.9,1.4,0.5,2.8-0.3,3.9
	c1,1.7,2.2,3.7,0.4,5.3c-1.1,1.6-1,3.7,0.3,5.2c0.2,1.7,0.3,3.3-0.3,4.9c0.1,1.7-0.4,3.2-1.1,4.7c-0.7,1.3,0.3,2.6-0.1,4
	c0,1.7-0.5,3.3-1.3,4.8c0.5,2-1.8,4.1-3.7,3.5c-1.2-1.4,0-3.4,0.3-5c0.7-1.4-0.5-3.3-1.8-3.5c-2.1-0.9,0.2-3,0.1-4.5
	c1.1-2-1.4-3.7-0.5-5.7c0-1.8,0.1-3.6,0.2-5.3c-0.9-1.3-1.9-2.8-1.7-4.5c0.2-1.9,0-4,2-5.1c0-1.8,0.3-3.9,2-5.1
	c-0.5-1.6,2.9-2.3,1.4-3.8c-1.1-1.4,0.6-3.2,0.3-4.6c-1.5-2.1-3.9-3.4-6.1-4.7c-2.1,0.4-4.2-0.1-6.4,0.1c-2.3,0.7-4.4-0.6-6.8-0.2
	c-1.2,1.3-3.1,1.2-4.7,1.3c-1.4,0.5-3,1.3-4.3,1.4c-1.4,0.9-3.2,0.8-4.5,1.7c-1.4,0.8-2.6,1.9-3.8,3c-0.6,1.9-2.8,1.5-4.3,1.1
	c-0.9,0.8-2.9,2-3,0c-1.3-0.4-1.1-1.3-0.2-1.9c-1.2-1.2-1.1-3.6-3.2-3.9c-2.4,0.4-4.8,1.5-7.1,2.3c-1.8,1.5-4,1-5.7,2.6
	c-2.4,1.1-5.1,2-7.8,1.5c-2.4-0.4-4.4,1.1-6.7,1c-2-0.4-3.8,1.1-5.7,0.5c-1.5-0.7-3.3-1.8-4.9-1.1c-2.4,1.3-2.2-2.5-0.7-3.5
	c1.5-1.2,4.1-2.3,4-4.6c0.2-1.9-1.7-1.8-2.6-2.5c-0.3-1.6,0.1-4-1.1-4.9c-1.6-0.9-2.2-3-2.3-4.7c0.3-1.6,0.7-3.3-0.8-4.5
	c-0.5-2-2.1-3.5-2.3-5.6c-0.6-1.8,0.3-3.5-0.1-5.3c0.1-1.7,0.6-3,0.3-4.6c1.1-0.9,0.5-4.5,2.5-3.5c1.2,0.4,0.3-2.5,1.8-2.7
	c0.8-1.1,1.2-2.6,1.9-3.7c-0.7-1.1-0.2-1.9,0.9-0.8c1.5,0.4,3.1,1.2,1.4,2.8c-1.1,1.2-1.3,3-2.3,4.2c-1.5,1.3-2,3.4-2.3,5.3
	c0.2,2.6-0.5,5.2-0.2,7.7c2.3,1.1,0.5,5.2,2.9,5.8c2.5-0.4,0.5,2.6,1.1,3.7c-0.1,1.5-0.4,3.2,0.9,4.5c0.6,1.8,2.5,1.6,3.8,2.6
	c2.3,0.6,3.5-1.8,4.9-3.1c1.8,0.4,0.5,3.4,2.3,4.2c0.6,1.7,2.2,3.2,4.1,2.4c2-0.1,3.9,0.3,5.8,0.5c1.7-1.8,4.5-1.9,6.5-3
	c0.5-2.4,2.8-3.5,4.1-5.4c0.9-0.7,2.6-0.9,1.5-2.3c0.2-1.5,2.8-0.2,3.9-1.2c1.9-0.4,4.4-1.8,6-0.4c1-0.4,1.8-1.2,3-1.5
	c1.3-2-2.6-0.6-3.4-2c-1.5-0.5-1.5-2.9-3.6-1.9c-2.1,1.3-2.5-1.8-4.1-2.4c-0.9-1.4-2.6-2.7-4-3.5c-1.5-0.1-1.1-2.4-2.8-2.6
	c-2-1.2,0-2.9,1.6-1.9c1.1,1.8,3.4,1.9,4.8,3.6c1.8,0.7,1.5,3.4,3.3,4.2c1.9-0.5,3.7,0,5.6,0.4c1.4,0.5,2.5,1.8,4.2,1.9
	c1.4,1.5,3.4,2.1,5.3,2.6c0.9-0.4,1.6,1.4,2.6,0.6c1.6,1.1,3-0.6,4.4-1.3c-1.5-0.9-3.9-1.4-4.4-3.3c-1.5-1.5-1.2-4.2-3.5-5
	c-1.3-1-2.7-2.2-2.9-3.8c1-0.3,2.6,0.1,3.5,0.7c-0.5,2,2.6,1.5,2.5,3.5c1.8,1.3,2.4,3.5,4.5,4.4c1.2,1.1,3.3,1.1,4.7,0.3
	c2-0.9,4.3-0.5,6.4-1.3c1.8-0.6,4.2-0.5,5.2-2.3c-0.2-1.6-1.5-2.8-1.8-4.4c-0.5-1.7-0.6-3.6-2.7-4c-1.8-0.8-3.6-1.1-3.8-3.5
	c-1.5-1.4-1.1-3.8-3-4.7c-1.4-1-3.5,0.5-4-1.8c-1.1-1-2.6-4.1-0.2-4.2c2-0.4,2.1,2.4,4.3,1.8c2.1-0.3,3.7,1.5,4.9,2.6
	c-0.1,2.4,3.1,2.4,3.2,4.5c1,0.9,3.6,0,4.1,1.8c0,2.6,3,3,3.5,5.3c1.2,1.6,3.5,1.9,5.3,2.4c2.5,0.5,5,1.6,7.5,1.2
	c2.1-0.4-1.7-2-2.5-2.5c-1.3-1.2-3.1-2.4-1.7-4.3c1.1-2.1-0.2-4.2-1.4-5.9c-1.2-1.2,2.1-1.5,2.6-0.4c2.3,0.7,3.1,2.9,3.4,5.1
	c0.7,2.1,2.8,3.6,4.5,5c0.7,2.3,2.5,4.3,1.5,6.9c-0.4,2,1.4,3.5,2.3,5.1c1.9,1.9,4.3,3.3,6.5,4.7c0.6-0.7,1.1-1.7,0.2-2.7
	c-1.2-1.1-1.1-2.7-0.7-4.2c-1.5-0.9-1.5-3.2-3-4.3c-0.4-1.4,0.6-2.9-1.3-3.3c-1.1-1-1.6-3.7-0.8-4.4c0.4,0.7,1.5,2,1.1,0.4
	c-0.6-1-1.3-3.5-1.9-3.3c-1.5,0.8-2.5-2.2-2.5-3.5c-0.7-0.6-1.4-2.1,0.3-2.2c0.8-0.9,0.7-3.4,0-4.2c-1.5,0.3-3.4,0.4-3.6-1.8
	c-0.4-1.8-0.7-3.7-1.9-5.1c-0.6-1.8-1.9-3.2-2.6-5c0.4-1.8,1.2-3.7,0-5.4c0.3-1.5,0.2-4.7-1.8-4c-0.3,1.5-1.4,2.8-1,4.5
	c-2.3-0.3-1.7-3.3-2.8-4.9c-0.5-1-0.9-1.8-1.7-0.8c-1.8-0.1-3.7-1-4.5-2.7c-1.1-1.9-1.7-3.9-2.5-5.9c-1.2-1.6-0.8-2.9,1-3.4
	c0.5-1.2-2-3.8,0.7-3.2c1.4-0.1,2.7,0,3.2,1.5c2.2,0.4,1.9,3.7,0.9,5c1,0.1,1.9,2,1.9,0.1c1.3-0.3,3.3,0.2,4.8,0.3
	c0.8,2.3,4.1-1.2,4.3,1.9c-0.2,1.9,1.9,2.9,1.5,4.9c0.2,2.1,3.2-0.6,3.1,1.8c0.9,1.3,3.3,1.3,2,3.4c-0.8,1.6,1.9,1.9,0.5,3.7
	c-1.5,1.4,3.2,1.7,1.5,3.7c1,1.5,1.5,3.2,1.3,5.1c-0.6,0.6-3-2.5-3.4-0.1c-0.1,1.5,0.7,3.3,1.8,4.4c1.3,0.9,4,0,3.9,2.5
	c1.2,1.8-2,4.3,0.4,5.2c0.7,1.6,1.5,4.4,3.4,3.7c1.4,1,1.4,3.3,2.1,4.8c0.5,1.9,0.6,3.8,1.7,5.5c0.8,1.4,0.4,2.9-0.3,4.1
	c0.8,3.3,2.2,6.6,1.6,10.1c0.5,1.1,0.4,3.4,1.8,1.4c1.7-1,2.9,0.9,2.1,2.3c-0.3,1.3-2.9,0.7-2,2.8c-0.9,2.2,2.5,0.5,3.2,2.2
	c1.2,0.4,2.8-0.6,3.6,1.2c0.9,1.1,0.3,3,2.3,2.9c2.4,0.6,3,3.4,4.5,5.2c0.8,1.2,1.2,3.4,0.7,4.4c-2,1.1,0.5,2.7,1.2,3.9
	c1.7,1.2,1.1,4,3,5.3c1.2,0.9,2.1,1.8,1.3,3.1c0.8,0.8,0.7,1.8,1.5,2.5c0.3,1.5,2.7,1.3,2.1,3.3c0.9,1.3,2.7,0.8,1.7-1
	c-1.5-3.2-3.1-6.4-4.2-9.7c-2.4-5.5-5.4-10.8-8-16.3c-2.3-4.7-4.6-9.4-7.4-13.8c-2.7-4.5-5.1-9.2-7.1-14.1c-1.6-4-3-8.2-4.9-12.1
	c-2.6-7.3-5.1-14.6-6.9-22.1c-1.7-8.1-4.4-16-5.7-24.2c-0.1-2.6-3.7-0.7-5.5-1.1c-24.9,0.8-49.8,1.4-74.7,2.1c-10,0.2-20,0.4-30,0.7
	c-5.8,0.1-11.7,0.1-17.5,0.2c0.3,2.4-3,0.8-4.6,1.3c-7.9,0.1-15.7,0.2-23.6,0.4c-2.2-0.4-4.4-0.5-6.5,0c-4.5,0.2-8.9,0.2-13.4,0.3
	c-25.3,0.4-50.6,0.6-75.9,1.1c-13.2,0.2-26.4,0.4-39.5,0.4c-11.1,0.1-22.3,0.4-33.4,0.7c-8.9,0.1-17.8-0.2-26.6,0
	c-16.2,0-32.3,0-48.5,0.1c-12.3,0.1-24.7,0-37,0c-12.8,0-25.5-0.3-38.3-0.4c-11.9-0.2-23.9-0.2-35.8-0.4c-9.5-0.1-19.1-0.4-28.6-0.6
	c-14.7-1-29.3-2-44-3c-4.2-0.5-8.4-0.5-12.6-0.3c-2.7-0.1-5.4-0.2-8.1,0c-6.4-0.4-12.8-0.9-19.2-1c-4-0.4-8-0.7-12.1-0.9
	c-3.8-0.3-7.7-0.5-11.5-0.9c-6.7-0.2-13.4-0.9-20.1-0.9c-4.5-0.2-9-0.3-13.5-1c-2.7-0.1-5.5-0.1-8.2-0.5c-4.5-0.6-9-1.2-13.5-1.3
	C338,1.5,336.7,1.4,335.4,1.4z M1062.5,96.8c-2.5,1,0.4,3,1.8,3.4c1.4,1.1,0.9,3.1,2.5,4.2c1.3,0.8,2.8,1.8,3.1,3.6
	c0,1.5,1,3.6-0.7,4.4c-1.9,1.5,1.9,2.1,3,2.1c1.3,0.7,4.1,2.6,3.6-0.4c-0.7-2.1-0.3-4.3-0.8-6.3c-0.6-1.8-1.3-3.6-2.6-5.2
	c-0.3-2.2-3.2,0-3-2.3c0.8-1.5-1.8-2.1-3-2.8C1065.5,96.6,1063.8,96.8,1062.5,96.8z M1087.2,121c-1.4,0.7,0.9,2.9,0.8,4.3
	c0.2,1.7,0.9,3.2,1.2,4.9c1.5,1.8,1.6,4.1,2.2,6.3c0.7,2.3,1.5,4.5,2.7,6.5c0.5,1.6,0.3,3.3,0.4,5c1,2-0.5,4.1,0.1,6.2
	c0.2,2.2-1.4,3.3-1.6,5.4c-0.2,1.8,1.1,3.6,0.4,5.5c0.1,2.5,0,5-0.5,7.4c0.2,2-0.6,4-0.3,6c0.5,2.6-2.3,4.2-2,6.7
	c-0.7,2.2,0.3,4.2-0.1,6.4c0.6,1.7-1,3.3-0.5,5c-0.7,0.7-2.1-0.5-3,0.5c-2,0.4-4,1.8-5.8,0.4c-0.8,0.4,0,2.3-1.5,2.4
	c-2.1,0.8-2.9,3.5-5.1,4c-1.3,1.3-4.3,2.2-4-0.6c-1.8,0.3-1.8,3.2-3.5,3.8c-1.1,1.2-2.8,0.7-3.9,2c-1-0.1-2.5,1.4-0.7,1.1
	c3-1.3,5.8-2.9,8.9-4.1c3.8-1.9,7.9-3.2,12.1-3.7c2.2-0.1,4.6,0.2,6.1,1.9c-0.1-2,0.3-3.9,0.9-5.7c0.7-6.8,1.7-13.6,3.1-20.4
	c0.4-3.7,0.2-7.5,0.4-11.3c0.1-6.5,2.8-12.9,1.6-19.4c-1.3-7.1-2.6-14.3-5.5-20.9C1089.3,124.5,1088.5,122.5,1087.2,121z
	 M996.5,190.5c0,1.2-1.1,2.8,0.9,3C999.6,193.6,997.4,190.6,996.5,190.5z M1058.6,209.6c-0.2,2.3-3.1,1.6-4.4,3
	c-2.4,0.7-4.3,2.2-6.5,3.1c-2.5,1-4.7,2.8-7.2,3.7c-1.6,1.3-3.2,2.8-5.3,2c-2-1.4-2.5,1.8-1.7,2.9c-0.4,2-2.3,2.9-3.5,4.3
	c1.6,1.9,2-1.7,3.4-2.2c6.2-6,14-9.8,21.5-13.7c1.3-1.1,4.7-1,4.6-2.9C1059.3,209.9,1058.9,209.7,1058.6,209.6z M1023.9,228.5
	c-1.7,0.1-1.7,2-2.7,3.2c0.6,1.9-2.7,2-2.9,3.7c-0.6,1.7-2.7,2.3-3.7,3.7c-0.7,1-1.3,1.9-1.5,3c-2-0.1-2.4,2-3.8,2.9
	c-1.4,1-1.6,2.8-3,3.8c-1.2,1.5-2.4,3.1-3.8,4.4c-1.3,1.2-2.6,2.4-3.8,3.9c-0.4,1-1.5,1.2-1.7,0c-1,1.4-1.2,3.4-2.9,4.4
	c-0.7,0.9-1.3,1.8-2.2,2.1c1.6,0.4,2.9-2.8,4.4-3.6c3.4-3,6.8-6.1,9.7-9.6c4.5-4.8,9.3-9.4,14-14c1.6-1.7,3.5-3.1,5.6-4.2
	c1.6-0.5,2.5-2.1,0.6-2.9C1025.5,228.6,1024.7,228.8,1023.9,228.5z M991.1,264.7c-0.7,1.5-2.6,1.6-3.3,3c-0.6,1.3-1.5,2.8-2.6,4
	c-0.8,0.7-2.4-0.4-2.1,1.3c-2.4,0.1,0.1,4.1-2.6,3.3c-2.4-0.7-1.4,2.7-1.9,3.6c0.2,2.2-2.5,2.1-3,3.8c-1.4,0.7-0.5,2.1-2,2.9
	c-0.8,1.3-1.4,2.9-2.3,3.8c1.2,1.4-1.2,3.2-1.3,4.9c-1.1,1.5-1.4,3.5-2.6,4.6c-0.5-0.8-2.7-0.3-2-2.2c0.1-2.3-1,1.3,0,2
	c0.9,0.9,2.2,4.3,2.4,1.5c0.9-2.9,2.6-5.4,3.7-8.2c1.8-3.4,4.2-6.5,6.2-9.8c3.7-5.3,7.3-10.6,11.4-15.6
	C989.8,266.6,991,265.9,991.1,264.7z M961.6,284.3c-2.2,0.1-0.1,3.3,1.5,2.8c1.7,0.2,3.8,1.5,5.2,1.3c0.2-1.9-2.7-1.2-3.7-1.8
	c-0.6-0.5-1.6-0.6-0.7-1.6C963.4,284.1,962.4,284.6,961.6,284.3z M965.8,284.4c-1.3,1.9,3.1,2.8,3.2,1
	C969,284.3,966.6,284.8,965.8,284.4z M946.7,284.9c-1.2,0.3,0.4,2.9-1.4,1.3c-1.2-0.4-3,1.4-3.1-0.7c-1.2-1.3-1.5,0-1.6,1
	c-1.8,0.3-3.2-0.1-5-0.1c-2.1,0.3-4.5-0.6-6.1,0.9c-1.9,1-4.1,0.6-6,1.4c-2-0.4-3.7,1.6-6,1.4c-2.3,0.7-4.7,0.6-7.1,1.3
	c-1.3,0.3-2.4,0.3-3.4-0.2c-1.6,0.7-3.3,0.9-5,1.6c-1.6,0.4-3.7,1.4-4.6,2.2c-1.2,2.4,2.9-0.3,4.1-0.4c8.6-2.9,17.6-4.6,26.6-6.1
	c6.3-1,12.8-1.8,19.2-0.9c0.9,0.4,3.3-0.6,1.3-0.8C947.8,286.8,947.6,285.4,946.7,284.9z M951.7,288.1c-1.6,0.3,1.6,1.8,2.3,1.8
	c4.1,0.9,8.4,1.9,11.8,4.6c0.4,0.6,2.3,3.4,2.2,1.5c0.2-1.8-2-2.3-3.4-2.8c-1.5-0.9-3.1-2-4.5-2.4c-2.2-0.1-4-2.1-6.3-2.2
	C953,288.7,952.5,288,951.7,288.1z M894.4,295.7c-1.8,1.4-4.1,1.9-5.9,3.3c-0.9,1.5,1.9-0.4,2.6-0.6c1.3-0.9,4.1-0.8,4.5-2.4
	C895.2,295.8,894.8,295.8,894.4,295.7z M887,300c-2,1.2-4.3,1.9-5.9,3.5c1.8-0.4,3.6-2.2,5.5-2.9C886.7,300.4,887.8,300.1,887,300z"
	/>
<path id="US_Routes" class="st1" d="M860.1,117.6c-0.3,0.8,0.3,1.5,0.6,2.1c0.3,0.4,0.4,0.9,0.3,1.4c0,0.6,0.1,1.2-0.2,1.8
	c-0.1,0.6-0.5,1.2-0.4,1.8c0.6,2.5,1.1,5,1.7,7.4c0.3,0.7,0,1.4-0.2,2.1c-0.1,0.7-0.4,1.3-0.7,1.9c-0.1,0.6,0,1.2,0,1.8
	c0,1.1,0.1,2.3,0.3,3.4c0.3,0.6,0.6,1.3,0.3,1.9c-0.2,1.3-0.6,2.6-1.2,3.7c-0.3,0.4-0.8,0.7-0.9,1.3c-0.3,0.6-0.7,1.1-1.1,1.6
	c-0.5,0.5-0.6,1.3-0.8,2c-0.3,0.4,0,0.9-0.1,1.2c-0.4,0.2-0.9,0.5-1.2,0.9c-0.4,0.3-0.4,0.8-0.8,1.1c-0.9,0.5-1.7,1-2.6,1.4
	c-0.8,0.3-1.4,0.8-2.1,1.2c-0.9,0.5-1.5,1.3-2.4,1.7c-0.9,0.4-1.8,0.8-2.7,1.1c-0.7,0.2-1.5,0.3-2.2,0.7c-0.6,0.5-1.4,0.5-2.2,0.7
	c-0.5,0.2-1-0.2-1.4-0.5c-0.4-0.2-0.9,0.1-1.4,0.1c-0.4,0.3-0.9,0.5-1.4,0.6c-0.6,0.1-1.3-0.1-1.9,0.1c-0.8,0-1.5,0.4-2.1,0.8
	c-0.4,0.2-1,0-1.3,0.4c-0.5,0.4-0.9,1-1.1,1.7c-0.2,1-0.5,1.9-1,2.8c-0.6,1-1,2-1.7,2.9c-0.2,0.6-0.9,0.6-1.5,0.6
	c-0.6-0.1-1,0.5-1.3,1c-0.2,0.6-0.7,1-1.1,1.4c-0.6,0.7-1.3,1.2-2.1,1.8c-0.4,0-0.8-0.6-1.3-0.5c-0.5-0.4-1.2-0.5-1.7-0.2
	c-0.5,0.3-1.1,0.5-1.7,0.5c-0.7,0-1,0.7-1.6,1.1c-0.9,0.3-1.6,1.2-2.5,1.4c-0.7,0.1-1.5,0.5-2.2,0.2c-1.2-0.1-2.3-0.6-3.5-0.6
	c-1.5-0.1-2.9,0.4-4.4,0.1c-0.6-0.2-1.2,0.1-1.8,0.2c-1,0.5-2,1-3,1.5c-0.5,0.3-1.2,0.4-1.5,1c-0.4,0.8-1,1.5-0.9,2.5
	c0.1,0.5-0.4,0.9-0.8,1.2c-1.3,1-2.5,2.1-3.9,3.1c-0.4-0.1-0.4-1.1-1-1.3c-1.5-0.7-3-1.3-4.6-1.9c-0.6-0.2-1.2,0.2-1.8,0.2
	c-0.5,0-0.9,0.4-1.2,0.7c-0.3,0.5-0.6,1-1,1.4c-0.2,0.5,0.1,1.1,0.1,1.6c0.1,0.9,0.4,1.7,0.1,2.6c-0.1,0.6-0.7,0.9-1.1,1.3
	c-0.4,0.4-1,0.7-1.3,1.1c-0.3,0.6-0.2,1.3-0.5,1.9c-1,0.4-2,0.8-3,1.2c-0.7,0.2-1.3,0.7-1.9,1.2c-0.6,0.3-0.7,0.9-0.7,1.4
	c-0.1,0.5-0.7,0.7-1.2,0.9c-0.9,0.2-1.7,0.5-2.6,0.6c-1.1,0.1-2.2-0.1-3.3-0.2c-0.9,0-1.8-0.2-2.7-0.4c-0.6-0.1-1.2,0.3-1.8,0.4
	c-1.1,0.2-2.3,0.3-3.5,0.4c-0.7,0.1-1.3,0-2-0.1c-0.5,0-1.1-0.2-1.6-0.1c-0.8,0.3-1.5,0.6-2.3,1c-0.9,0.6-2,1.1-3,1.6
	c-1,0.3-2.1,0.3-3.1,0.5c-1.1,0.5-2.1,1-3.2,1.5c-1,0.8-2,1.6-3,2.4c-1.6,1.2-3.4,2.4-5,3.6c-0.8,0.5-1.5,1.2-2.3,1.8
	c-0.8,0.5-1.7,0.8-2.6,1.2c-1.3,0.2-2.5,0.3-3.8,0.4c-0.7,0-1.3,0.3-2,0.5c-1.1,0.5-2.4,0.7-3.6,1c-0.9,0.4-1.8,0.8-2.7,1.3
	c-0.7,0.3-1.4,0.4-2,0.9c-0.5,0.5-1.1,0.8-1.7,1.1c-0.6,0.2-1.2,0.2-1.8,0.4c-0.6,0.1-0.9,0.7-1.3,1.1c-0.6,0.2-1.2,0.4-1.9,0.5
	c-0.8,0.1-1.7-0.2-2.5,0.1c-1,0.4-2,0.1-3,0.1c-0.9,0.2-1.4,1-2.2,1.3c-0.4,0.3-1,0.2-1.5,0.4c-1,0.4-1.8,1.1-2.7,1.8
	c-0.6,0.4-0.9,1.1-1.4,1.5c-0.5,0.4-1.1,0.3-1.7,0.3c-0.6-0.1-1.2-0.4-1.9-0.3c-0.8,0-1.5,0.1-2.3,0 M933.5,8.3
	c0,0.4-0.3,0.6-0.5,0.9c-0.6,0.7-1,1.5-1.8,2c-1.1,0.8-2.1,1.8-3.3,2.4c-0.7,0.4-0.7,1.3-0.9,2c-0.4,0.7-0.9,1.3-1.3,2
	c-0.5,0.5-1.2,0.5-1.6,1.2c-0.9,0.9-1.4,2-2.1,3.1c-0.5,0.9-1.2,1.7-2,2.4c-0.5,0.4-0.8,1.1-1.5,1.2c-0.6,0.1-1,0.5-1.4,0.9
	c-0.5,0.2-0.9,0.7-1.2,1.1c-1.5,1.5-3,2.9-4.5,4.3c-0.7,0.7-0.9,1.6-1.2,2.5c-0.3,0.6-0.4,1.4-0.8,2c-0.5,0.6-1.2,1-1.8,1.6
	c-0.6,0.3-0.9,0.9-0.9,1.5c-0.3,1-0.2,2.1-0.2,3.2c0.1,0.6-0.3,1.1-0.5,1.7c0,0.6,0,1.2,0,1.8c0,0.6,0.1,1.1,0.1,1.7
	c-0.2,0.5-0.6,1-1,1.4c0.8,0.5,1.6,1.1,2.5,1.5c0.8,0.3,0.9,1.2,1.3,1.9c0.3,0.7,1.1,0.9,1.6,1.4c0.3,0.5,0.4,1.1,0.9,1.5
	c0.3,0.5,0.4,1.1,0.6,1.7c0.1,0.5,0.5,1,0.2,1.5c-0.3,0.4-0.6,0.7-0.6,1.2c0.1,0.9-0.6,1.6-1,2.3c-0.5,0.5-0.4,1.2-0.4,1.8
	c-0.1,0.6,0,1.1-0.2,1.7c-0.4,0.9-0.7,1.8-0.6,2.8c0,0.5,0.2,1.1,0.6,1.4c0.4,0.3,0.6,0.9,0.4,1.4c-0.3,1.1-0.6,2.3-1.4,3.2
	c-0.3,0.5-0.5,1.1-0.4,1.7c0.1,0.6,0.2,1.3,0,1.9c-0.1,0.7-0.8,1.1-0.7,1.8c0.3,0.6,0.6,1.2,0.7,1.9c0.2,0.6-0.1,1.2,0,1.8
	c0.2,0.7,0.6,1.3,0.9,2c0.2,0.7,0.8,1.1,1.1,1.7c0.2,0.8,0.3,1.7,0.4,2.5c0.2,0.5,0,0.8-0.4,1.1c-0.3,0.5-0.6,1-0.8,1.5
	c-0.2,0.8,0.6,1.2,0.9,1.8c0.2,0.4,0.2,0.9,0.2,1.3c0,0.7,0.5,1.3,0.6,2c0,0.7-0.4,1.4-0.6,2c-0.2,0.5-0.3,1.2-0.9,1.4
	c-0.6,0.3-1.2,0.8-1.8,1c-0.7,0.1-1.5,0.2-2.2,0.6c-0.4,0.3-0.9,0.6-1.2,1.1c-0.4,1.3-0.7,2.7-1,4c0,0.5-0.4,0.9-0.7,1.3
	c-0.7,1.3-1.3,2.7-2,4c-0.2,0.6-0.7,1.1-1.1,1.7c-0.5,0.5-0.5,1.1-0.6,1.7 M997.9,43.6c1.7,0.7,4.2,1.3,5.4-0.6
	c1.4-1,1.6-2.6,2.7-3.8c0.9-1.5,1.6-2.9,3.4-3.3c3.2-1.9,6.5-3.9,9.7-5.8c3.2,0,6.5,0.4,9.7,0.5c1.2,1.3,0.6,3.4,2.2,4.6
	c0,2.3,2.6,3.6,3.1,5.9c1.1,1.9,2,3.9,3.1,5.8c0.8,1.9,2.6,3.2,3.8,4.7c1.7,1.1,1.7,3.9,2.3,5.7c0.1,2.3,0.5,4.6,1,6.8
	c0.7,2,2.9,3.1,3.2,5.5c1.1,1.8,2.6,3.3,3.8,4.9c0.6,2.3,2.8,1,4.3,0.4c2.1-0.8,4.2-1.6,6.4-2.3c1.6,1.3,2.1,3.8,3.4,5.5
	c2.5,4.4,4.9,8.9,7,13.4c1.6,1.2,1.8,3.2,2.8,4.9c0.7,1.5,1.5,2.9,2.2,4.4l0,0.3l-0.1,0.2 M921.6,22.6c1.8,0.3,4.1-1.7,5.6-0.3
	c1.4,1.6,3.4,2.2,5,3.2c2.2,0.4,4.5,0.8,6.5-0.6c1.6-1.8,4.2-2.1,6.4-1.9c1.8,0.2,3.8,0.4,5.3,1.5c2-0.4,3.8,0.9,5.7-0.4
	c1.7-0.2,3.4-0.1,5.1,0.3c3.2,0.3,6.4,1.3,9.6,1.1c2.3,0.3,4.2,1.7,6.5,2c2,0.2,4.2-1.5,6.3,0l0.4,0.2l0.4,0.2 M758.3,26.8
	c0.8,1.7,3,2.1,4.6,1.5c1.8-0.7,3.7,0.5,5.6-0.1c1.7,0.1,2.9,0.2,4.4-0.8c2-0.7,3.7,1,5.5,1.6c2-0.6,3.6,0.4,5.1,1.3
	c1.7,0,2.7-2.1,4.7-1.8c2.2-0.1,4.5,0.6,6.3-1.2c1.8-1.6,3.9-2.8,5.9-4.1c2.7-0.6,4.9,1.5,7.4,2c2,0,3.8,1.7,5.8,0.9
	c1.8-0.9,3.4,0,5.3,0c2,0,4,0.6,5.9,1.2c1.9,0.6,3.5,1.2,5.4,0.9c1.6,1.2,2.7-0.7,4.2-1.3c1.6-1.1,3.8-0.5,4.8,1.1
	c1.8,1.4,3.5,2.7,5.4,3.9c1.7,0.9,1.7,2.9,3.7,3.4c1.8,2,3.2-1.7,5.2-1.3c2.9,0.9,1.1-3.1,3-4.1c1.9-1.2,2.4-4.4,5.2-3.5
	c1.8-0.5,3.6-1.2,5.5-0.8c1.7,0.4,3.3,1.1,5.1,1.2c2.5,0.3,5-0.5,7.5-0.5c1.9-0.9,3.9-0.1,5.9-0.1c2.5,0.2,4.4,2.3,7,2.3
	c2.3-0.8,4.8-1,7.2-0.7c1.2,2.2,3.4,3.3,5.8,2.8c1.6,0.9,3.9,0.4,5.3,1.6 M662.7,37.3c0.7,1.7,2.9,2.4,4.6,2.9
	c1.8-1.1,3.6,1.2,5.2,1.8c1.5,0.8,3.2,1.6,4.8,0.9c1.5,0.5,2.8-0.3,4.2,0.5c1.5-0.5,2.6-0.1,3.9,0.6c1.8-0.3,4.2-0.6,5.6,0.7
	c1.1,1.5,2.2,2.8,4.2,2.3c2.2,0.3,4.1-1.3,6.3-1.5c2-0.3,4,0.3,6-0.1c1.2-1.7,3.2-2.7,4.9-1c1.3,0.2,2.9,0.8,2.8,2.4
	c1.6-0.6,3.7,0.3,5.3-0.8c2-1.5,4.5-1.9,6.7-2.7c2.4-0.3,4.8-0.3,7-1.3c2.1-0.2,2.9-2,4.3-3.1 M514.5,78.2c1-1.3,1.4-3,2.8-4.1
	c2.5-2.9,4.7-6,7.5-8.5c2.2-1.2,4.5-2.1,6.1-4.2c1.5-1.1,3-2.4,4.9-2.4c1.7-0.1,3.2-2.6,4.7-1.7c1.5,2.3,4.6,0.6,6.7,0.2
	c1.3-1.4,3.2-1.3,4.9-2c1.9-0.3,3.4-1.5,5.2-1.9c2.4-0.8,4.9-2,7.4-0.9c2.7,0.4,4-2.5,6.6-2.3c1.5-1.4,2.2-3.5,2.7-5.5
	c0.6-1.4,3-0.6,2.4-2.6c-0.1-2.3,1.8-4.3,3.6-5.5c1.8,0.3,2.5,3,4.6,3c1.2-0.9,2.6-1.4,4-2.1c0.4-1.1,1.9-0.3,2.6-1.5
	c0.9-1.7,3.1-1.2,4.6-2c2.1-0.8,3.1,2,5.2,1.8c1.6,0.9,3.4-0.8,4.8,1c1.6,1.1,4.1,1.6,5.6,0.3c0.8-1.5,3.2-1.9,2.3-4.1
	c1.3-1,3.8-2.9,5.1-1.3c0.8,1.4,2.6,0.8,3.8,1.1c2.1-0.5,3.2,1.7,4.8,2.6c2.1,1.1,2-2.2,4-2c1.8-0.4,3.6,0.1,5,0.7
	c1.6,0.8,3.2,0.1,4.9,0.8c2-1,2.9,1.8,4.9,1.3c2-0.5,4,0.6,5.9,0.8c2.1-2.3,5.2-0.5,7.8-1.4c0.9,0.2,1.8-1.1,2.4-0.5 M469.3,109.1
	c0.6-1.6,2.9-2.8,2-5c-0.1-1.7,1-4,2.8-4.1c2.8-0.6,3.3-4.1,5.7-5c2.1-0.3,3.5-1.9,5.2-2.8c1.5-0.2,2.4-1.8,4-2
	c2,0.7,3.8-1.5,5.7-0.6c1.7,0.3,3.1-1.9,3.6-3.3c0.9-1.4,2.8-2.4,3.1-4.3c0.6-1.3,2-1.8,3-2.8 M122,206.8c0.9-1.2-0.8-3.3,0.1-4.8
	c-0.4-2,1.4-4.2,3.3-4.5c1.6-0.5,2.3-1.9,2.5-3.3c1,0.1,2.5,0.1,1.9-1c2.1-0.4,1.5-4.4,4.2-3.9c2.1-1.5,0-3.9,1.3-5.7
	c1.9-0.9-1.2-3.1,1-4.1c0.5-1.6-0.6-2.9-1.7-3.7c-0.6-2.3-1.9,2.1-3-0.3c-0.8-1-1-1.9,0.1-2.6c-0.5-1.3-2,0.3-3.1-0.5
	c-1.4,0-1.2-2.1-1.9-2.7c1.5-0.7,0.5-3.4,2.8-3.3c2-1.3-1.9-3.2-1.9-4.7 M117.9,233.7c0.1-1.6-1.1-3,0.2-4.3c-0.4-2.1,0-4.3-0.5-6.4
	c0.8-2.4,1.1-4.9,0.2-7.3c-1-2.2-0.9-4.4,0.1-6.6c-0.1-0.5-0.1-0.7,0-0.9c0-0.3,0-0.4,0.1-0.4 M128.7,161.5c1.1-1.1,0.3-4.1,2.6-3.3
	c0.8-0.9-1.4-1.4-0.6-2.6c-0.1-1.3,0.8-2.6,1-3.8c-1.3-0.7-1-2.4-2.8-2.6c-1.9-1.3-2.3-3.7-4.6-4.5c-1.9-0.7-3.9-1.3-5.6-2.1
	c-1.9-1.4,0.6,1.4,1.2,1.7c-0.7,1.2-1.3-1.4-2.4-1.2c-0.2-1-3.5-1.7-1.3-2.2 M835.4,206.9c1.2,1,2.6,1.5,4.3,1.6
	c2.1,1,4.3,2.9,6.8,2c2.1-1,4.7-0.6,6.5,0.9c3.6,2.4,7.3,4.6,10.6,7.5c1.6,1.5,3.9,1.2,5.9,0.9c2.7-0.2,5.5-0.7,8.2-0.7
	c3.2,0.8,6.3,2.1,9.4,3.1c2.7,1,5.5,1.7,8.1,3c1.7,1,3,3.3,5.2,2.2c2.5,0.1,3.9,2.2,4.5,4.4c2.1,4.5,4.5,8.8,6.2,13.4
	c0.4,1.7,2.1,2.2,3.2,3.2c1.2,1.7-0.2,4.1,1.1,5.8c1,1.7,1.8,3.6,3.3,4.9c1.9,0.8,2.4,2.8,2.9,4.6c1.6,1.4,2.6,3.8,2.4,5.8
	c-0.4,2,0.2,4.2,0.9,6.2c1.6,1.8,3.4,3.8,5.6,4.9c2.3,1,4.8,1.2,7.1,2.3c1.7,0.7,3.5,0.4,5.3,0.7c2.2,0.2,4.5,0.3,6.7-0.1
	c1.4-0.1,2.7,1.3,3.7-0.6c2.1-1.3,1.1-3.9,2-5.7c0.5-1.6-0.5-3.7,1.9-3.9c2.2-0.6,3.6,1.5,5.9,1.3c1.4,1.2,3.1,2,4.6,2.7
	c2.1-0.2,0.6-3,2.4-4c-0.3-1.8,2.1-2.3,3.5-3.2c1,0.3,2.7,2.3,2.5,0.2c0.4-2.4,2.7-3.3,4-5.2c1.6-1.3,0.7-3.3,1.2-5.1
	c-1-1.7,2.4-4.4,2.6-1.8c0.1,1.2,1.5,2.4,2.3,0.9c1.2-1.2,2.5,1.8,3.7-0.3l0.2-0.1l0.4-0.3 M791.8,187.2c0.9,1.5,1.1,3.5,2.4,4.7
	c1.7,0.7,3.2,1.7,4.7,2.5c1.5,0.6,2.8,1.6,4.4,2.1c2.3,1.1,4.3,2.9,6.6,3.9c1.5,0.2,3.3-1,4.4,0.6c1,1.2,2,2.5,3.6,2.9
	c2.1,1.5,4.5,0.2,6.6-0.1c1.2,0.9,2.6,0.8,3.9,0.2 M714,148.6c0.9,2,3.6,0.8,5.3,1.5c1.9,1,4,1.2,5.9,2.1c1.7,0.2,3,1.5,4.7,1.5
	c1.7-0.3,2.9,0.8,4.2,1.7c1.7,0.1,3.4,0.6,4.6,2c1.3,1.1,3.1,1.1,4.1,2.6c1.4,1.1,3.4,2,2.8,4.2c0.7,1.9,3.9,1.9,3.5,4.4
	c0.3,1.9,2.5,2.6,4.1,3.2c2.5-0.2,3.7,2.6,6.3,2.2c1.6-0.5,3.4-1.4,5.1-0.5c1.3,1.5,2.7,3.1,4.9,3.5c1.9,0.9,4,1.1,5.8,2.1
	c1,1.8,3.3,2.3,4.7,3.7c1,0.9,2.4,1.3,3.7,1.8 M676.3,92.3c2,1.1,0.5,4,2.1,5.5c1.5,1.6,1.5,4.4,3.8,5.3c2.6,2,4.9,4.3,7.5,6.3
	c2.7,2.1,4.9,4.6,7.6,6.7c1.2,1.4,3.1,1.9,4.2,3.4c0,1.5,0.7,2.5,2,2.9c0.9,1.9,1.3,3.2,1.1,5.3c-0.7,1.8-0.9,3.7-0.8,5.7
	c-1.1,2.5,1.9,3.4,3.5,4.5c1.8,1,3.7,1.9,5.7,2.3 M609,79.1c-0.9-1-2.1,0.4-2.5,1.2 M606.6,80.2c1-1.2,2.2-1.8,3.5-0.6
	c1.6,0.1,3.6,1.8,4.9,0.4c1.7-1,3.9,1.1,5.8-0.1c2-0.3,4-0.8,6-0.4c2.4,0.2,4.4,1.9,6.8,1.7c1.7,0.1,3.2,0.9,4.9,0.8
	c2,0.2,4-0.6,5.9-0.2c2.2-1,5-0.9,7,0.5c1.5,1.1,2.2,2.9,3.8,3.8c1.7,0.4,3,1.6,4.5,2.4 M606.6,80.2L606.6,80.2 M567,80.8
	c2.2,0,4.5,0,6.7,0.2c2.1-1.3,4.2,0.7,6.4,0.3c2.1-0.1,2.9,2.5,4.8,2.7c1.8,1.6,3.7-0.3,5.5-0.9c1.6-0.9,3.6-0.9,5.4-1
	c2.1,0,4.1,0.1,6.2,0c1.9,0,3.3-0.4,4.6-1.7 M329.9,130.5c0.2-0.1,0.4-0.2,0.6-0.4c1.4-0.1,1-1.6,2.2-1.4c1.4-1.3,3.3-2.3,4.8-0.6
	c2.2,1.5,4.6-1,6.9,0.3c2,1.1,4,0.4,6,1c2-0.9,3.8,0.4,5.2,1.8c2.6,0.5,4.8,2.5,7.5,2.3c2.4,0.2,4.6-1.3,7.1-0.9
	c1.6-0.2,3,0.8,4.3,1.6c1.6,0.3,3,0.9,4.4,1.7c2.2,0.8,4.7,1.1,7,1.2c2.3-0.2,4.1-1.6,6.4-0.9c1.9-0.3,3.5-1.7,5.5-2
	c1.8-0.4,3.5-0.4,5.3-0.6c1.8,0.8,3.7,0.4,5.7,0.3c0.6-1.8,2.7-0.9,3.1-2.9c1.1-2,3.6-2.4,5.4-3.5c2-1,4.2-1.5,6.3-2.1
	c1.2-0.9,2.3-1,3.3,0.2c1.6,1.1,3.7,0.4,5.5,0.9c1.6,1.1,3.4,1.7,5.2,2.4c2.5,0.7,5.2,1.1,7.8,1.3c1.8,0,3.9,0.1,5.1,1.6
	c2.2,1.7,5.1,2.2,7.6,3.1c2,1.1,4-0.3,6,0c1.4,1.1,3.5,0.3,4.9,1.3c1.2,1.4,3.3,1.5,4.9,2.4c0.3,0.1,0.6,0.2,0.9,0.3 M267.9,144.7
	c1.3-0.8,2.7-1.1,3.6-2.4c1.6-1.2,2.6-3.2,4.9-2.7c1.7-1.8,3.9-3,6.2-4.2c1.6-0.8,3.5-0.1,4.4-1.9c2.1-1.9,2,2.2,3.9,2.5
	c1.4,0.1,2.9-1.7,4.4-2.3c1.7-0.1,4,0,5.4-1c1.5-0.2,3.2,0.1,4.8,0.2c1.2,1.7,2.2-1.3,3.8-0.2c2,0,2.4,3.4,4.7,1.7
	c2.2-1,3.7-3.3,5.9-4c1.9,0.5,3.8-0.6,5.7-0.8c1-0.8,1.8-0.2,2.6,0.3 M227.5,149.1c2-0.3,3.6-0.5,5.7,0.1c2,1.1,3.6-1.2,5.7-0.9
	c2.2-0.4,4.4-1.7,6.6-0.7c1.9-0.5,3.8-1.2,5.8-1.6c1.3-0.4,1.5-1.7,3.1-1 M809.6,362c1.3-0.5,2.9,0.7,3.1-1.4c0.3-0.6,0.8-1.1,1-1.7
	 M791,356.8c1.8,0.7,2.8-2.3,4.7-1c2.2,0.8,4.4,0.5,6.6,0.6c0.3,1.9,2.2,2.3,3.6,3.2c0.4,0.2,0.7,0.5,1.1,0.7 M654.7,308.2
	c1.6,0.8,2.9,2,3,3.9c0.6,2.4,1.2,4.9,2.6,7c1.7,3,2.7,6.4,4.8,9.2c2.1,1.3,2.6,3.9,4.4,5.5c2.9,2.3,6.8,2.9,9.9,4.8
	c2,1.8,3.5,4.1,5.5,5.9 M529.7,249.7c2.7,0.1,5.5,0,8.2,0.3c2.5,0.2,5.2-0.4,7.5,1c1.8,0.6,3.5,1.2,5.3,1.8c2.2-0.2,5.2-1.3,6.2,1.6
	c1.8,1.1,3.6,2.2,5.4,3.3c0.9,1.7-0.3,4.4,2.3,5.2c1.6,1,3.2,2,4.4,3.5c1.9,1,4.3-0.1,6.5-0.2c1.7-0.6,3.2-2.1,5.2-1.7
	c2.1,1.3,3.9,3.2,5.9,4.8c0.7,1.7,2.5,2.6,4.1,3.5c2.1,0.4,3.3,2.4,5.5,2.4c1.9,0.8,2.5,2.8,3.5,4.4c0.8,1.8,2.8,2.6,4.7,2.2
	c3.1,0.2,6.1-1.8,9.3-0.8c2.2,0.8,4.9,1.3,6.4,3.2c0.9,1.1,1.8,2.2,2.3,3.6 M434.5,209.6c2,0.1,3.5,1.3,4.8,2.7
	c2.6,0,3.8,2.4,5.1,4.3c0.9,1.8,2.3,3.2,3.4,4.9c2.3,3.5,5.2,6.5,7.8,9.7c2.5,2.9,5.6,5.3,8.3,8c2.2,1.9,4.2,4.1,6.6,5.7
	c1,1.5,2.2,3.6,4.2,2.1c2.3-0.7,4.8-0.8,7.2-0.6c2,0.5,4-0.4,6-0.3c2.1,0,4.2-0.2,6.2-0.4c3,0.5,6-0.4,9.1-0.2
	c3.3,0.4,6.2-2.2,9.6-1.7c2.1,1.2,4.5,1.9,6.8,2.9c1.7,0.9,3.5,0.7,5.3,0.8l0.2,0l0.2,0.1 M428.6,209c0.6,0.1,1.2,0.2,1.7-0.1
	 M263.8,200.6c1.6,0.4,2.6-1.4,4.3-1.1c1.3-1.7,3.4-1.2,5.2-1.8c1.4-1.1,3.4-1,4.8-2.3c2.5-0.7,5.2,1.4,7.9,0.7
	c2.5-1.3,5.4-0.1,7.9-1.4c1.3-0.9,2.8-2.3,4.6-1.7c2,0.5,4,0.5,6-0.1c2.2-0.4,4.3-0.6,6.5-0.6c1.8-1.3,3.6,0.5,5.3,1.1
	c2.3,1.2,4.9,1.5,7.4,2.2c1.7-0.1,3.5-1.7,5.3-0.5c1.7,0.9,3.6,0.7,5.3,1.3c2.2,0.4,4.5-0.2,6.7,0c1.8-0.5,3.3,0.2,4.2,1.8
	c1.8,0.7,3.6,1.9,5.7,1.6c1.7-0.2,3,1.2,4.6,1.5c1.6,0.5,2.1,2.5,4,2.7c1.6-0.4,3.6,0.8,4.9-0.7c1.5-0.6,3.3-1.5,4.9-0.8
	c1.6,0.9,3.4,1.5,4.9,2.3c0.6-0.1,1.4,0.1,1.9-0.4 M136,176.7c1.9,1.3,4.2,0,5.2-1.7c1.5-1.5,3,1.2,4.8-0.2c1.6-0.2,3.5,0.9,4.9-0.1
	c0.7-0.3,1.8,0.2,1.5-1.3c1.6-1,1.7-3,3.6-3.6c0.7-0.9,2.4,0.6,2.7-1.1c1.4-2.3,3.8-2.4,6.1-2.8c2.7,0.4,1.3-2.9,2.5-4.1
	c0.8-1.4,1.5-3.4,3.3-3.6c2-0.4,3.3-2.6,5.5-2.4c2.2,0.8,1.7-1.6,3.1-2.2 M109,173.2c0.9-2.2,3.6-2.3,5-4.2c1.6-0.7,3.9,0.3,5.3-1.5
	c2.5-1,4.2,0.4,5.9,2c0.5,0.1,1-0.2,1.4,0.4 M792.6,360.9c2-0.7,3.6,0.4,5.2,1.3c1.7,1,3.8,1,5.7,1.1c2,0.2,3.4-0.7,3.5-2.8
	c1.3,0.4,3.6,1.8,4.1,2.9c-0.6,0.9-1.1,2.2-1.8,2.8 M655.5,354.2c0.2-1.9-0.4-3.9,0.1-5.7c1.9-0.9,3.8-1.9,6-2c1.8,0.1,3.4-1,5.1-1
	c2-0.3,3.7,1.3,5.6,0.4c1.8-0.7,3.8-0.1,5.5-0.7c2-0.7,4.2,0.3,6.3-0.8c2.6,0.3,5.2-0.1,7.8-0.2c2.6-0.2,5-2.2,7.7-1.6
	c2.7,0,5.5,0.1,7.9,1.5c2.2,1.4,4.8,1,7.3,1.1c2.7,0.3,5.5,0.4,8.2,0.3c2.1,0.3,4,1.6,6.2,1.1c2.3,0.1,4.3-2,6.6-1.1
	c1.9,0.2,3.7,1.2,5.6,1.5c5.4,0.2,10.8,0.4,16.2,0.4c3.4,0.9,6.3,3.1,9.6,4.3c2.3,0.1,3.6,2.4,5.8,3c1.6,1.1,3.5,1.4,5.4,1.5
	c1.9,0.7,3.1,2.6,4.8,3.7c0.4,0.3,0.8,0.8,1.4,0.8 M892.9,28.5c0.3-2.1,0.3-4.9,2.5-6c1.2-1.3,3-1.8,4.3-3c2.1-1.3,3.1-3.9,5.4-4.8
	c1-1.5,1.4-3.4,2.5-4.9 M832.5,163.3c-0.1-2.2-0.1-4.4,1.2-6.3c-0.3-1.5,1.3,0,2-1c1.8,0.1,2.5-0.9,2.4-2.6 M840,109.9
	c1.4-0.2,2.7-1.3,4.2-1.8c2.3-1.2,1.3-4,0.6-5.8c-0.9-2-0.2-4.2,0.9-6c1.3-2.4-1.4-4.1-1.5-6.3c-0.1-2.3,1.2-4.4,1.3-6.6
	c1.1-1.8,2.6-3.2,3.7-5c1.2-1.3,2.6-2.3,3.9-3.4c0.4-2.1,0.6-4.2,1.8-5.9c0.1-1.9,1.2-3.6,1.7-5.5c0.5-2.3,2.8-3.4,3.9-5.4
	c1.1-1.4,2.9-1.9,4.2-3c1.5-1,4.2-0.2,4.5-2.5c1-1.5,1.6-3.2,2.4-4.8c0.6-2.5,3.2-3.2,5.2-4.2c2-0.9,3.2-2.6,4.5-4.3
	c1.8-1.2,3.6-2.9,3.6-5.3c1-2.5,1.3-5.3,2.6-7.6 M832.1,150.6c-1.7-1.1-2.5-3.1-3-5c-0.4-2-2.6-4.2-1.3-6.2c1.6-1.7,0.1-4,0.7-5.9
	c1.2-2.2,1.2-5,3.1-6.9c1.1-1.5,2.4-3.2,2.2-5.2c0.9-2.2,2.2-4.1,3-6.3c1.3-1.5,0.7-3.9,2.3-5.1 M853.3,280.7
	c-2.1-0.5-5-0.2-5.2-3.1c-0.7-1.9-1.2-3.9-2.4-5.5c-1.5-1.8-2.7-3.8-3.6-5.9c-1.3-1.8-1.9-4.1-1.3-6.3c-0.2-2.1-2.6-2.7-4.4-3
	c-2.1-0.4-2-3.2-3.2-4.5c-0.5-1.6-1.7-2.8-2.9-4c-1.7-1.9-1.2-4.2-0.9-6.5c0-1.9-0.4-3.8-0.2-5.8c-0.2-1.7-0.2-3.4-0.6-5.1
	c0.8-2,0.5-4-0.1-6c-0.4-2.2,0.8-4.2,1-6.3c0.1-1.9,2.3-3.2,1.1-5.3c-0.6-2,1.4-3.4,2.4-4.9c0.7-0.8,3.4-1.6,1.2-2.2
	c-1.4-1.5-3.8-2.9-5.8-2.3c-0.8-1.3-0.5-3.3-0.7-4.9c-0.1-2.6-2.8-4.3-1.7-7.1c-0.3-2.7-1.7-5.3-0.7-8.1c-0.3-2.3,0.4-4.6,0.2-6.8
	c-0.1-1.4-1.4-1.8-0.9-3.1 M203.2,195c-1.3-1-3-2.4-4.8-1.9c-0.9-0.8-1.3,0.4-1,0.9c-1.1-0.5-0.7-1.7-2.1-2c0.5-0.6,0.3-1.4-0.4-2
	c-0.5,0.9-1.6-1.1-1.7-1.5c-0.5-1.1-0.1-2.5,0.4-3.5c-0.7-0.8,2-2,0.9-3.5c-0.5-1,0.7-0.9-0.7-0.9c0.6,0.7-1.7,1.1-0.4,0.3
	c-0.1-1.4-0.2-0.6-0.8-0.2c-0.5,0-0.9,0-1.4-0.6c-0.7,0.2-1.6,1.7-1.1-0.2c0.6-0.5,1.4-1.1,0.2-1.8c0.3-1-0.2-2.3,0.7-2.9
	c-1.1-0.7,1.1-1.5-0.3-1.7c0.4-1.4,0.1-3.2-0.1-4.6c-0.8-0.2-0.7-1.6-1.7-0.8c-1.5-0.3-1.8-2-3.5-2.2c-1.7,0.5-3.1-2.2-5.2-1.3
	c-2-0.6-4-0.3-5.9-0.8c-1.6-0.5-3.6-0.7-4.6-2.2c0.7-1.2-0.1-2.1-0.5-3.2c0.7-0.7,0.7-1.6,0.8-2.5 M210.6,217.1
	c0.6-1.1-0.7-1.3-0.6-2.4c-1.9-1.2-4.7,0.4-6.8-1c-1.4-1.3-4-1.5-4.4-3.7c0.7-1.1,2-1.8,2.1-3.4c1.5-1.7,0.4-3.3-0.8-4.7
	c-0.5-0.5-0.7-0.6-0.7-0.8 M164.9,156.3c-0.1-2.3,1.2-4.2,1.2-6.5c0.8-1.9,1.8-3.8,1.9-5.8 M835.7,26.5c0.4-1.6,0.8-3.3,1.3-5
	c0.3-1.8,1-3.6,1.3-5.3c-0.3-1.6,0.5-3.3,1-4.8l0-0.4 M659.9,294.6c-1.5-1.5-1.3-3.6-0.4-5.3c0.9-1.8,2.9-3.3,2.6-5.5
	c0.2-2.7,0.4-5.3,0.7-8c1.6-2.2,0.5-4.8,0.3-7.2c0.1-2.4,0.9-4.6,0.5-7c0.1-1.7,1.9-2.8,2.7-4.3c1.4-1.9,2.8-3.8,3.9-5.9
	c1-1.4,1.7-3,2.2-4.6c1-2,0.1-4.9,2.4-6.1c1.6-0.9,2.6-2,2.7-3.9c1.1-1.3,3.3-0.8,4.4-2.3c1.5-1.3,3.4-2.1,4.9-3.3
	c1.5-2.5,2.9-5.2,5.3-7c0.5-1.6,1.6-2.9,2.4-4.4c0.9-2.1,3.6-2.6,4.3-4.9c0.9-1.9,2-3.4,4.1-3.8c2.4-0.3,1.4-3.5,2.9-4.9
	c0.5-2.3,0.9-4.6,2.4-6.5c0.6-1.1,2.2-2.1,0.8-3c1.6-1.3,2.9-3.1,4-4.8c1.8-1.6,2.6-3.9,4.2-5.7c2.4,0,3.1-2.9,5.2-3.8
	c1.6-1.7,4.1-1.5,5.9-2.9c2.5-1.3,4.9-2.9,7.5-3.9c0.2-2.2,2.4-3.1,3.7-4.6c0.8-1.6,2.2-2.5,3.3-3.7c1.9-0.8,4.1-1.3,5.5-2.9
	c1.1-1.9,2.5-4.2,5-3.8c2.1-0.2,4.3-0.2,6.2-1.3c2.4-0.5,4-2.3,6-3.5c2.7-0.5,4.7-2.4,7.1-3.6c1.7-1.4,3.6-2.3,5.7-3.1
	c3.4-1.8,6.8-3.5,10.2-5.3c1-1.4,1.2-3.5,2.8-4.5c1.2-1.8,3.9-1.1,5.1-2.9c0.5-1.8,2.2-2.8,2.9-4.6c1-1.4,2-2.9,1.7-4.7
	c-0.7-2.1,1.3-3.9,0.7-5.9c-1.3-2-0.5-4.8,1.7-5.7c0.5-1.8,2-3.5,1.7-5.4c-0.5-1.9-1.6-3.7-1.1-5.7c0-2.2,0.2-4.5,2-6.1
	c1.4-0.9,3.3-1.3,3.8-3.1c1.4-2.4,1.2-5.3,2.4-7.8c2.3-1.5,1-4.5,2-6.5c1.2-1.7,3.6-2,4.1-4.2c0.6-1.5,1.7-2.8,2.1-4.4
	c-0.6-2.5,1.5-3.8,2.9-5.4c1.4-1.7,3-3.3,4.5-4.9c0.2-1.9,2-2.8,2.9-4.5c1-2.1,0.6-4.5,1.2-6.7c-0.2-1.7,1.1-3.5,0.1-5.1
	c1-2.1-1-4-0.7-6.1c0.8-1.9,1.7-3.8,0.5-5.8c-1.4-2,0.5-3.4,0.2-5.3 M622.3,320c0.2-2,1.1-3.8,2.2-5.6c0.5-1.7,2.4-2.1,3.8-2.9
	c1.5-0.6,2.7-1.8,4.2-2.2c2.7,1.3,4.6-1.3,7.2-1.2c1-0.1,1.6-0.3,2.2,0.6 M559.8,123.7c-1.5-0.8-2.3-2.6-4.1-2.9 M546.5,31
	c1.5-0.6,3.1-0.7,4.6-1.6c2.2,0,3.6-2.2,5.1-3.5c1.9-0.8,3.8-1.6,5.6-2.4c0.9-1.3,2.8-1.6,3,0.4c1.6,2.2,4-1,6.1-0.7
	c0.7-0.7-0.5-2.2-0.2-3.3c-0.5-1.3-0.9-2.7,1-2.7c2.2-1.1,5-1.2,6.8-3c1-1,3.2,0.8,4.2-0.8c0.6,0.1,0.9-0.7,1.5-0.8 M509.6,77.5
	c1.8,1.4,3.3-1,3.8-2.6c0.6-2.1,2.9-3,3.7-5c0.6-1.6,3.6-2.2,2.6-3.9c-1.2-0.7-0.9-2.6-1.7-3.8c0.7-1.5-0.7-3.3,1.4-4.2
	c1.1-2,1.9-4.4,1.7-6.8c-0.2-1.1,0.8-1.9,0.5-3.2c-0.6-2.2,2.2-2.3,3.7-2.6c1.6,0,2.8-2.1,4.5-2.6c1.7,0.1,3.1-0.2,4.1-1.7
	c2.4,0.3,0.7-3.5,3.2-3.5c1.6-2,4.2-1.1,6.3-1.8c1.7-0.5,1.8,0.7,2.7,1.6 M388.8,218.1c1.5-2.4-1.6-3.9-1.2-6.3
	c0.4-1.3,1.6-2.2,1.4-3.7c0.9-1.7,1-3.5,1.7-5.3c-0.3-3.1,0-6.2,0.1-9.3c-0.4-2.8-2.2-5.2-1.7-8.1c-0.2-1.9-1.1-3.7-0.8-5.8
	c0.2-1.8,0.8-3.6-0.5-5.3c-0.4-1.8-0.8-3.4-1.8-4.9c-0.2-2,1.6-3.8,1.2-5.9c0.4-2-1.4-3.4-2.2-5c-2.1-1.5,1.1-5.4-2.1-6.1
	c-1.8-0.7-1.8-3.3-3.5-4.2c-0.6-2.3-2.5-4-3.8-5.9c-1.5-1.6-3-3.6-3.7-5.6c0.1-1.5-0.2-3.3-0.8-4.6c-1.3-1.3-0.1-3.7-2.1-4.8
	c-1.3-1.6-2.2-3.5-3.9-4.8c-1.8-1.4-2.4-3.7-4.1-5.1c-1.9-2.2-4.1-4.2-5.8-6.7c-1.9-1.6-3.4-3.4-3.7-6c0-1.8,0.5-4.6-2-5.1
	c-0.6-1.2-1.2-2.5-2.6-3.2c-0.5-1.7,0.5-3.3-0.9-4.7c0.7-1.8,0.4-3.7-0.6-5.2c-1.4-0.4-2.8-1.9-1.7-3.2c-0.2-2.2-2.4-2.7-3.5-4.2
	c-0.9-1.5-1.8-3-2.7-4.7c-0.6-0.5-2.7-1.2-0.9-1.7c-0.9-0.8-2.9-0.7-2.1-2.6c-0.1-2.1,2-2.7,3.2-3.5c0.4-1.3-0.1-2.5-0.3-3.9
	c-1.1-1.1,0.3-2.3-1.6-3c-0.7-0.5-1.8-1.2-1.4-2.2 M322.7,51.4c-0.9-0.9-2.1,0.4-3.1,0c-1.4,0.1-2.6-0.2-3.7,1
	c-0.6-0.9-1.5-1.4-2.8-1.5c-0.7,0.7-1.4-0.3-2.2,0.1c0.1-1.1-1.6-1.1-2.1-2c-0.9,0.6-1.7,1.3-1.5-0.2c-0.4-1.5-2-1-2.8-2.3
	 M704.7,125.1c1-1.4,3-0.7,3.8-2.5c1.7-0.9,3.3-1.9,3.6-3.9c1.9-1.4,4-2.9,4.6-5.4c1.6-1.3,2.8-3,4.8-3.6c2.4-0.8,3.8-2.8,5.8-4.1
	c1.1-1.4,3.6-1.4,3.9-3.4c1.1-1.7,2.9-3,4.2-4.7c1.5-1.1,2.7-2.8,3.2-4.6c1.2-1.7,0.9-3.9,2.1-5.6c0.7-1.9,1.2-3.8,3-4.9
	c1.4-0.8,2.8-1.6,3.2-3.4c0.5-2.1-0.7-4.2,0-6.2c-0.3-1.6-0.1-3.3-0.3-4.9c1.9-0.8,1.6-2.8,2.3-4.4c1-1.5-0.3-3.3,1-4.7
	c1.3-2.2,3.4-4,4.2-6.6c0.8-1.6,1.6-3.2,1.7-5c1.1-1.6,0.3-3.4,0.6-5c2.1-0.4,3.5-1.7,4.7-3.5c1.4-1.3,1.9-3.1,2.5-4.9
	c-1.4-0.6-2.1-2.3-2.9-3.7c-0.3-0.4-0.4-0.8-0.6-1.3 M603.8,275.4c3-0.5,4.3-3.4,6.1-5.3c1.9-1.9,1.9-4.9,4.1-6.8
	c1-2.1,3-3.1,4.6-4.6c1.8-2.5,3.7-5.1,6.6-6.5c2-1.6,5.5-2.2,6.3-4.8c-0.1-2.4,2.7-2.6,4.5-2.9c1.7-0.8,4.2-0.3,5.2-2.2
	c1.2-1.7,3.2-2.6,5.3-2.3c2.7,0.2,5.6-0.8,8,0.7c2.1,0.1,3.7-1.6,5.8-1.7c1.6-0.9,3.8-0.4,3.8-2.6c0.5-1.8,1.4-3.3,2.8-4.6
	c1.6-0.1,3.7,0.2,4.4-1.8c1.3-0.8,3.6-0.3,4.4-1.4c-0.6-1.9,0.2-3.9,0.8-5.7c0.1-1.9,1.3-3.5,2-5.3c1.1-1.7,0.3-3.9,1.6-5.5
	c0.4-1.8,1.4-3.4,3.2-4.1c1.2-2.1,4.3-0.6,4.9-2.9c1.5-2,0.8-4.2-0.8-5.8c-0.3-1.7-0.2-3.5-0.4-5.2c-1.1-1.9-2.6-3.7-3.3-5.8
	c-1.2-1.9-0.9-4.2,0.6-5.8c0.8-1.6-3.8-1.7-2.6-4c-0.4-2.1-0.5-4.5,1-6.2c1-2.1,0.6-4.5,0.8-6.7c-0.8-1.7-0.4-3.3,0.6-4.8
	c0.7-1.2,0.6-2.5,2.2-2.2c0.9-1.5,1.1-3.2,3.3-3.3c2.1-1.3,3.6-3.6,5.6-5.1c1.1-1.9,1.1-4.5,2.9-6c0.9-1.6,1.8-2.9,2.8-4.5
	c1.6-0.9,2-2.7,2.5-4.3 M793.6,400.8c1.7-0.5,3.5-1.7,3.7-3.9c0.5-2.5,1.7-5,2.1-7.5c-0.9-1.7-1-3.6-0.4-5.4c0.6-2-0.6-3.9-0.6-5.9
	c-0.6-2.1,2-4.4-0.5-6c-1.6-1.7-2.8-3.6-3.7-5.7c-1-1.8-1.7-3.4-1.6-5.4c-1.7-0.3-2.3-1.3-1.6-2.9c0-2.1,0.4-4.5-1.1-6.3
	c-2.8-4.2-5.5-8.4-7.4-13c-0.6-2.1-2.4-3.5-2.9-5.6c-0.6-2-0.7-4.1-0.7-6.2c0.4-1.8,0.4-3.7-0.4-5.4c0.5-2.1-1.6-3.5-1.7-5.5
	c-0.6-2.1-1.5-4.3-3.4-5.5c-0.9-2.3-0.9-4.9-2.2-7.1c-0.6-1.9,1.1-4-0.3-5.8c-1.1-1.5-3.3-1.7-4.1-3.4c-1.5-1.5-2.2-3.5-3.2-5.4
	c-0.4-2.1-3-2.4-3.2-4.6c-1.4-2.7-1.2-5.7-1.9-8.6c-0.1-2.4-2.5-3.6-3.9-5.3c-2.3-1.8-2.8-4.9-2.4-7.6c0.1-2.2,1.8-4.5,0.5-6.7
	c-1-2-3.1-2.8-4.5-4.3c-0.2-0.9-0.8-1.4-1.4-1.9 M742.4,243.9c-0.5-1.5-1.1-3-1.7-4.5c-0.9-1.7-2.9-2.4-3.6-4.2
	c-0.5-1.9-0.7-3.8-1.5-5.6c-1-2-3-3.3-4.6-4.9c-1.6-1.3-4.3-1.7-4.8-4c-1.2-1.9-0.9-4.3-2.6-6c-0.8-2.1-3-2.8-4.2-4.5
	c-2.6-0.4-3.7-2.6-5-4.5c-2.3-1-4.3-3-4.1-5.7c-1.3-1.5-3.2-2.6-5-3.6c-2-0.7-4.3-1.3-5.3-3.3c-2-1.1-2.7-3.5-4-5.2
	c-2-1.1-2.3-4.5-4.9-4.4c-2.1,0-4.5-0.3-6.2-1.6 M683.3,184.8c-1.6-0.7-3.5-0.8-5.1-1.5c-1.5-1-3.1-1.9-4.9-1.3
	c-2.7,0.3-5.3-0.4-7.9-1.2c-3.5-0.7-7.1-1.8-10.7-2c-2.1,0.3-4.1-0.2-6.2-0.3c-1.5-0.5-3.4-0.9-2.5-2.8c0.5-2.2-2.4-3.2-2.9-5.2
	c-0.7-1.9-2.9-1.9-4.5-2.3c-1.9-0.3-3.4-1.4-4.6-2.8c-1.6-1.8-4.1-2.1-6-3.5c-1.6-0.9-3.7-0.7-4.5-2.7c-1.8-1.2-1.1-4-2.7-5.3
	c-1.5-0.7-2.9-1.4-4.1-2.6c-1.8-1.7-3.1-3.8-5-5.4c-1.7-1.7-2.6-4-3.8-5.9c-0.3-2.2,0.2-4.6-0.8-6.6c-1.3-1.4-3.1-2.3-4.7-3.5
	c-1.9-1.4-4.2-2.3-6.1-3.7c-1.8-1.4-2.8-3.7-5-4.5c-1.7-1-3-2.5-4.4-3.9c-1-1.6-2.7-2.6-3.6-4.2c-0.7-3-4.7-3.4-5.4-6.4
	c-0.9-2.3-1.3-4.8-2.7-6.9c-1.6-1.7-4.3-2.2-5.4-4.4c-0.4-0.6-0.8-1.2-1.3-1.7 M536.9,79.1c-1.6-0.8-3.4-1.3-5.2-1.8
	c-1.2-1.8-3.1,0.5-4.6-0.4c-2.6-0.3-5.2-0.5-7.8-0.6c-2.2,0.9-4.4,1.7-6.7,2.5c-1.8,0.8-3.9,0-5.7,1c-1.8-0.7-3.8-0.7-5.5,0.4
	c-1.5,1.1-3,2.6-5.1,2c-2.3,0-4.6-0.5-6.8-1.2c-2.5-1.6-5.5-2.2-8.2-3.3c-1.8-0.5-3.8,0.1-5.5-0.7c-1.8-0.4-3.1-2.6-5.1-1.8
	c-1.7,0.9-3.5,0.5-5.2,0.1c-5.6-0.9-11.3-1.1-16.9-0.7c-2-0.1-3.9,0.4-5.9-0.1c-2.2-0.2-4.4-0.7-6.4-1.8c-2-0.6-3.8-2.3-6-2
	c-2.3-0.8-4.7-1.3-6.6-2.9c-1.6-0.6-3.6-0.1-5.3-0.4c-1.1,1.6-3.1,1.6-4.9,1.6c-2.1,0.3-4.2,0.7-6.2,1.4c-2.3,0.2-4.6,0.7-6.9,1
	c-2.5-0.2-5-0.8-6.6-2.8c-2.7,0-5.4-0.1-8-0.1c-2,0.1-4.1,1.2-6.1,0.6c-1.9-0.1-3.4-1.3-5.2-1.8c-1.3-0.8-3.4-0.2-3.6-2.4
	c-0.8-2-3.4-1.2-4.4-3c-1.8-0.8-3.2-2.4-5.3-2.8c-1.9-0.1-3.1-1.3-4.2-2.8c-1-0.2-1.5-1.1-2.3-1.6 M335,57.4
	c-1.9-0.4-3.9-0.9-5.6-1.8c-1.6-1.2-3.6-1.3-5.3-2.1c-1.9-0.6-1.5-3.1,0-3.9c-0.1-1.5,0.7-2.4,1.8-3.1c0.5-1.7,0.6-3.5,0.8-5
	c0.9-0.9,1.2-1.9,0.1-2.8 M672.2,91.2c0-1.9-0.3-3.8,0.3-5.6c-0.4-1.7-1.3-3.4-0.9-5.2c-0.6-2.1,2-4,0.8-6c-0.3-2-0.2-4,0-6
	c-0.1-1.7,0.8-3.5-1.2-4.5c-1.6-1.7-2.1-4.1-2.6-6.3c-1.8-1.8-0.4-4.9-3-6.3c-1.5-1.2-1.3-3.1-1.5-4.7c-0.5-1.8-1.7-3.5-1.3-5.6
	c0.4-2.1-0.7-4.1-0.6-6c1.1-1.5,2.3-2.9,2.4-4.8c-0.2-3,3-2.7,4.9-3.9c2.3-1.9,0.4-4.9,1.5-7.3c0.8-2.1,1.1-4.2,1.6-6.3
	 M624.4,314.6c-1.6-0.5-2-2.3-2.8-3.6c-0.1-2.2-1.2-4-1.9-6c-0.8-1.6-0.2-3.8-1.7-5.1c-3.6-2.8-7.5-5.2-11.3-7.7
	c-0.9-2-2-3.8-2.6-5.9c-0.2-1.5-1.2-3-0.5-4.5 M484.7,271.4c-3.3-7.4-6.6-14.9-10.2-22.2c-0.4-0.8-1.4-0.8-1.8-1.6 M478.7,146.8
	c-2.1-0.4-2.8-2.3-2.3-4.1c-1-1.8-2.3-4-0.1-5.5c1-0.6,1.6-0.8,0.5-1.7c-0.6-1.7-1.1-3.4-1.2-5.2c-1.7-1.6,1.8-3.1-0.1-4.5
	c0.4-2.1-0.2-4.6-1.8-6.1c-1-1.5-3-2.6-3-4.5c0.6-2.2-1.5-3.7-1.5-5.6l0-0.4 M468.9,243.6c1.1-2,0.7-4.7,2.2-6.7
	c0.5-3.3,0.2-6.6-0.6-9.8c0.4-2.3-0.4-4.6,0.3-6.8c-1.2-2.1-1-4.5,0.8-6.1c0.6-1.7,1.4-3.3,2.5-4.8c0.9-2,1.5-4.2,1.1-6.3
	c0.6-2.2-2.3-3.8-1.4-6.3c-0.1-2.1,0.2-4.9-2.3-5.8c-0.2-1.9-2.1-3.1-2.6-4.8c-1.9-0.4-4.1-0.2-5.7-1.6c-0.6-0.3-0.6-1-0.8-1.5
	 M467.4,107.5c0.2-2.4-2.8-3.6-2.9-5.9c-0.2-2-3.1-3.4-2.3-5.9c0.3-2.4,0.5-4.9,0.5-7.4c-1.2-2.9-3-5.4-4.1-8.3
	c-0.2-2.1-0.9-4.1-0.8-6.1c0.5-1.6-0.2-2.6-1.5-3.4c-0.8-2.4-1-5-2.2-7.2c-0.1-2.5-2.3-4.4-2.1-7c-1.1-1.4-2.4-4.4-0.8-5.6
	c0.2-1.1-0.9-2.4,0.1-3.6c0.6-1.7-1.1-3.9-0.1-5.3c0.9-3.2,1.1-6.6,2.2-9.7c1.5-1.8,2.8-3.9,4.5-5.6c2.1-1.9,4.9-3.3,6.2-6l0.2-0.3
	l0.2-0.3 M540.4,273.3c-0.4-1.6-1.7-2.7-2.1-4.2c0.1-2.3-2-3.8-2.4-5.9c-1-2.4-2.8-4.5-4.2-6.7c-0.6-1.8-1.3-3.5-2.4-5.1
	c1.2-1.4-0.3-3.1-1.9-2.4c-2.3-1.2-1.9-3.4-1.5-5.6c0.6-2.2-0.7-4.4,0.2-6.5c-1.1-1.8-1.4-3.8-1.7-5.9c-1.2-1.8,0.1-3.7-0.7-5.5
	c-0.6-2.2-0.5-4.5-0.4-6.8c-0.2-2.2,0.2-4.2,0.1-6.4c0-2.4-2.9-2.9-4.3-4.4c-1.2-1.6-2.1-3.4-2.6-5.3c0.8-1.8,1.1-4.6-0.9-5.7
	c-1.6-0.3-3.5-2.1-2.8-3.8c-0.9-1.5-0.9-3.1,0.1-4.5c1.7-1.8,0-3.5-0.1-5.4c-0.4-1.7-1.7-3-1.8-4.8c-1.5-1.5-2.5-3.4-4.5-4.4
	c-1.8-0.5-2.6-2.5-4.3-3c-2.2-0.6-2.9-3.1-4.6-4.3c-1.6-1.6-3.2-3.2-5.3-4.2c-1.3-2-4.4-0.4-5.4-2.7c-0.6-2.5-1.1-4.9-1.7-7.4
	c-0.7-1.3-3-0.6-2.2-2.6c0.5-1.9-1-3.3-1.4-5 M502.9,121.4c0.6-1.9-0.1-4.3,1.4-5.9c0.4-2.7,2.9-3,5-3.6c1.2-1.6-0.5-3.8,0.1-5.7
	c1-2.2-0.9-4.5,0.3-6.6c1-2-0.7-3.8-0.7-5.8c0.4-2,0.5-4.1-0.1-6.1c0.2-1.6,1.1-3.1,1.4-4.7c-0.4-1.6,0.3-3.3-0.9-4.7
	c-0.4-2,1.2-3.7-0.3-5.4c0-2.3-2.7-3.4-3.4-5.7c-0.7-1.3-1.8-2.6-2.9-3.8c-1.5-1.8-2.5-4.2-4.8-5.2c-3.2-2-4.4-6-7.6-7.9
	c-1.6-1.5-2.8-3.3-4.6-4.5c-1.9-1-2.4-3.1-3.5-4.8c-1.7-2-3.3-4.2-3.3-6.9c0.1-2.1-1.8-3.2-3-4.7c-2.1-2.3-4.4-4.5-6.3-6.9
	c-1.7-2-5.3-1.5-6.3-4.1c-0.8-2.2,0-4.8-1.6-6.7c-0.7-1-2.4-1.8-2.2-3.3 M234,211.3c1.8-1.2-1-4.2,1-5.6c0.1-2.3,3.1-2.4,4.2-4.1
	c0-1.7,0.8-3.3,1.5-4.8c0.1-0.8,0-1.5,0.2-2.2 M228.2,177.1c-1.6-1.9,1.8-3.3,1-5.5c-0.8-2.1-1.3-4.3-2.4-6.4
	c-0.5-1.6,1.1-3.1-0.1-4.7c-0.7-2,0.3-4.1-0.9-5.9c-0.5-1.8-1.3-3.8-1.8-5.7c0.1-2-0.5-4-0.1-6.1c0.8-2.3-3.2-0.9-3.1-3l-0.1,0
	 M222,130.9c-1.2-0.9-1.8-2.3-3.4-2.5c-0.8-1.9-3.2-3.7-1.5-6c1-1.6-2.5-1.6-2.2-3.3c-1.3-0.7-3-0.7-2.5-2.7c-0.6-1-1.8-1.6-2.5-2.5
	c-1.6,0-4.2-0.2-3.4-2.5c-1.2-1.5-3.5-1.9-3.7-4c0.4-1.7,0.5-4.1-1.2-5c-0.6-1,0.3-3.3-0.9-3.6c-0.8-0.9-2.7-0.9-4.1-0.1
	c-1.8,0.1-1.8,3.3-3.2,3c-1.4-0.9-2.4,0.4-3.5-1.2c-0.8-1.3-2.7,0.6-3.3-1.3c-1.8,0.6-2.9-1-4.1-2c-0.2-0.7-0.7,0.1-1.1-0.1
	 M566.4,87.1c0.9-2.1,0.3-4.6,0.7-6.9c0.1-2,1.4-3.6,2.3-5.3c2.6-4.1,4.9-8.3,7.1-12.6c1.7-2.8,2.9-6.1,5.4-8.3
	c1.3-2,0.7-4.9,0.1-7.1c0-2.3,0.9-4.5,2-6.6c0.6-2.2,2.2-3.7,3.6-5.3c-0.2-2.8,3.1-3.7,3.4-6.1c-0.2-2.6,3-2.8,4.4-4.2
	c1.2-1.8,3.5-1.8,4.9-3.3c1.9-1.5,2.2-4,2.9-6.1c0.3-0.9,0.3-2,1-2.7 M555.6,93.6c2-1.2,4-2.4,5.9-3.7c0.4-0.3,0.5-0.8,1.1-0.9
	 M508.3,118.3c0.9,0,1.7-0.1,2.5-0.8c2.6-1,4.3-3.7,7.1-4.3c2.5-0.8,4.6-2.2,6.9-3.4c1.4-1.1,2.9-2.3,4.8-2.4
	c2.6-0.4,5.4-0.8,7.4-2.6c1.6-1.2,3.5-1.8,4.9-3.2c2.1-0.3,3.9-1.8,5.5-3.1c1.6-1.3,3.5-2.1,5.4-2.8 M497.5,128
	c1.5-1.6,3.7-2.7,4.6-4.7c0.7-1.6,1.5-3.4,2.9-4.4 M376.5,204.2c1.8,0.4,3.1-1,5-1c1.7-0.2,3.5-0.1,5.2-0.3c2.9-0.6,5.8-0.4,8.7-0.2
	c1.8,0,3.5,0.8,5.3,0.9c1.8,0,3.1,0.9,4.7,1.4c1.7-0.1,3.4-1.2,5.1-0.3c1.8,0.7,3.4,1.7,5.3,1.5c2.1,0.4,4.1,1.1,6.2,1.3
	c1.8,0.3,3.2,1.8,5.1,1.5c1.7,0.3,3.5-1.5,4.9,0.1c0.6-1.5,2.3-2.2,3.6-2.6c1.5-2.4,4.3-1.9,6.3-3c0.9-1.5,0.9-3.4,2.2-4.7
	c0.6-2.4,2.8-3.9,4.2-5.7c2.4-0.4,3.6-2.6,5.5-3.7c1.7-0.9,2.2-3.3,4.3-3.9c1.3-1.2,5.3-0.9,4.1-3.4c-0.6-1.4-0.9-3.1,0.9-3.7
	c-0.7-1.8-0.4-4-0.7-6.1c-0.5-2.3,0.9-4.7-0.1-7c-0.1-2.3,1.8-3.6,3.3-4.9c0.6-1.3,1.9-2.6,2.6-3.5c0.7-1.3,2.1-2.4,2.8-3.8
	c0.8-1.8,1.7-3.7,3.4-5c1.3-2,3.2-3.2,5.2-4.3c1.3-1.5,3-2.5,4.6-3.4c2.2-0.8,3-3.1,4.6-4.6c1-0.7,2.6-1.6,3.1-2.1 M357.7,215.9
	c1.6-1.4,4.1-1.4,5.3-3.2c0.5-0.9,1.5-0.7,2.4-0.9 M430.6,123.1c0.3-0.4,0.5-0.8,0-1.6c0.1-1.9-0.1-4.1,1.3-5.6
	c1.5-1.5,3.2-3.1,4.8-4.2c0.2-1.5,1.1-2.8,0.3-4.3c1.3-1.1,3.4-1.3,4.1-3.1c1.4-1.2,2.5-2.4,2.6-4.4c-0.4-2.1,1.6-3.2,1.3-5.2
	c-0.1-1.5-0.8-3.2,0.3-4.6c0.2-1.9-0.3-4.3,1.1-5.8c1.1-1.1,1.5-2.3,0.2-3.5c-1.1-1.1-0.2-2.8-1.4-3.9c-1-1.4-1.2-3.1-1.5-4.8
	c-0.4-1.9-2.4-3.2-3-5.1c-0.6-1.4-0.7-2.8-0.9-4.3 M432.1,159.4c1.4-1.1,2.1-3.6,2.6-5.4c-0.7-2.1,0.6-3.9,1.8-5.4
	c0.2-2-2.8-2.3-2.6-4.5c-1-2.1-1.4-4.5-3.4-6c-1.8-0.9-3.3-2.7-2.6-4.8c-0.6-1.6,0.4-3.1,1.1-4.5c0.7-1.3,0.5-3,0.4-4.1
	 M432.6,196.5c2.5-0.1-0.2-3.2,0.8-4.7c-0.1-1.6,0.9-3.3,0.2-4.8c-0.5-2.4-1.4-4.8-1.9-7.2c-1.1-2-0.8-4.4-1.4-6.5
	c-0.8-0.9-0.2-2.8-0.6-3.3 M438.1,52.8c-1.2-1.4-2.6-2.8-3.3-4.6c-0.7-2-0.7-4.5-2.5-5.9c-1.9-1.4-3.3-3.5-5.4-4.8
	c-1.6-0.9-4.6,0.6-4.7-2.3c0.5-1.8-2-1.7-1.9-0.7c-0.1,0.6-1.6,1.8-1.1,0.5c0.5-0.9-1.5-1.3-0.4-2.4c0.9-2.1-2.1-2.5-2.5-4.2
	c-0.7-1.5-0.9-3.6-2.6-4.6c-1.7-1.4-3.1-3.1-4.8-4.4c-2.1,0.3-3.8-1.2-4.7-3c-1.5-1-2.8-2.6-4.7-3.2c-0.6-0.4-1-1-1.7-1.3
	 M228.7,110.9c2.1,0.5,4.2-1.3,4.8-3.2c0.8-1.7,0.9-3.5,1.7-5.2c-0.5-2.5,2.1-3.1,4-2.3c1.8-0.3,3.6,0,5.4,0 M177.6,155.8
	c1.8-1.4,3.9,0.5,5.9-0.2c1.9-0.2,3.9,0.6,5.7-0.2c1.9,0,3.8-0.2,5.8-0.2c2-0.1,3.9-0.3,5.8-0.7c2.3-0.1,4.6,0.1,6.9,0.1
	c2,0.1,4.5,0.2,5.5-1.9c1.5-0.8,3-2,4-3.3c0.9-1.1,2.3-0.4,3.4-1 M38.7,216.8c1-1.6,2.4-3.2,3.2-5c1.4-1.6,3.2-2.7,4.6-4.4
	c1.4-1.8,4.1-1.6,5.4-3.7c1.3-1.6,3.3-1.2,5-1.8c2.2-0.5,4.4-0.9,6.2-2.5c1.7-0.5,3.3-0.2,4.3,1.2c2.1,1.4,3.6-0.3,5.2-1.5
	c1.5-0.6,2.3-3.7,4.1-2.3c1.6-0.9,3-2.3,4.1-3.7c1.4-1.7,1.8-3.9,3.9-5c1.1-1.6,2.7-2.7,3.9-4.2c1.1-0.9,1-3.2,2.9-2.8
	c1.3,1,2.6,0.5,3.6,0.5c0.7,0.6,1.2,0.8,1.5-0.4c1.6,0,2.9-2.2,2.7-3.5c0.2-0.9,1.6-1.8,2.5-2c1.4-0.9,3.4,1.3,4.2-0.4
	c0.9-1.6,3.4-1.5,3.5-3.7c1.2-0.4,1.2-1.3,1.3-2.3c1.7-0.3,2.7-2.4,4.7-1.9c1.2,1.1,2.1-0.8,3.2-1.3c-0.7-1.8,1.5-2,2.2-0.7
	c1,0,1.1-2.2,2.5-1.4c1.7-0.1,0.8-2.2,2.6-2.3c1.6-0.4,3-0.6,4.2,0.7c2.1,0.2,4.4,1,6.5,0.3c1.4-1,1.4,1,2.5,0.8
	c0.4-1.7,2.9-0.3,2.7-1.7c1.4-0.3,2.3-1,3.1-2.1c0.5-0.3,1.6,0.4,2.4-0.2c0.2-1.1,0.4,1.5,1.3,0.1c1.3-0.9,1.9-2.7,3.5-2.8
	c0.9-1.2,2.4-2.1,3.6-0.7c2,0.1,3.5,1.9,5.4,0.5c2-0.6,4.2-0.4,6.1-1.4c1.8-0.5,3.3,0.8,4.6,1.6l0.3,0l0.2-0.1 M32.3,230.8
	c0.8-1.8-1.9-2.2-1.3-4.1c-0.8-1-1.4-1.8-1.7-2.9 M910.6,94c1-1.1,1.9-1.4,3.1-0.7c2.4-0.3,4.3-2.4,5.3-4.4c1.9-1.5,4,0.8,5.9-0.1
	c2,0,3.7-1.5,5.6-2.2c1.7-0.9,3.5-0.9,5.3-1.2c2.3,0.3,4.7,0.5,6.6-1.3c2.7-2,5.9-3.1,9.1-3.9c2.2-1.1,4-3,6.5-3.4
	c1.9-0.1,3.9-0.6,5.1-2.1c1.3-1.4,2.6-2.9,3.9-4.3c0.8-1.8,0.5-4.2,2.4-5.3c1.8-1.2,1.7-3.7,2.8-5.4c1.3-2.9,4.2-0.2,6.1-1
	c1.3-2.1,3.8-2.6,5.9-3.4c1.6-1.9,3.8-3.1,5.6-4.8c1.5-1.4,2.6-3.6,4.4-4.4c2.1,0.3,2.7-2.4,4.4-3.2c2.3-0.6,0.3-3.3-0.9-3.9
	c-1.8-0.7-3.7-1.4-5.1-2.8c-2.1-1.4-4.2-2.9-5.7-5c-1.3-1.3-2.7-2.8-2.8-4.7c0.3-1.8,0.2-3.7,1-5.4c0.4-1.6-1.5-2.9-1.7-4.6
	c-0.5-2.2-1.8-4-2.6-6c-0.4-1.1-0.9-2.2-1.4-3.3 M902.7,228.1c1.9,0.4,6-1.3,3.4-3.5c-1.6-1.3-1.6-3.5-2.5-5.2
	c-1.6-3.9-2.9-7.9-4.8-11.6c-0.4-1.6-2-2.6-3-3.8c-1.4-1.6-3.1-2.9-4.1-4.8c-0.3-2.9-3.1-5-2.9-8c0.2-2.7-0.3-5.6,0.9-8.2
	c0.9-2.8,2.1-5.5,2.3-8.4c0.2-2,0.6-4,1.8-5.7c0.2-2.3,3.3-2.5,2.7-5.1c0.4-2.3,0-5,1.9-6.7c0.7-1.7-0.5-3.6,0.2-5.4
	c0.6-2.3,0.4-4.9-0.6-7.1c-0.3-1.8-1.3-3.5-1.4-5.4c0.2-1.7,1.5-3.5,0.7-5.3c-0.5-1.6-0.1-3.3-0.3-5c-0.2-2.1,1.9-3.4,1.9-5.4
	c0.2-1.5-0.6-2.8-0.8-4.3 M801.6,346.7c2.3-0.5,4.2,1.2,6.5,1.2c2.2,0.5,4.8,1.8,6.1-1c1.3-1.7,3.3-2.7,4.4-4.4
	c1.4-1.5,2.8-3,4.1-4.5c2.3-2.6,5.3-4.5,7.3-7.4c1.4-1.2,1.8-3.1,3.3-4.1c1.6-1.3,3.7-2.1,4.9-3.9c1.6-2.3,3.8-3.9,5.9-5.7
	c2.5-0.7,2.8-3.3,3.6-5.5c0.6-2.1,1.9-4,2.2-6.2c-0.2-2-0.9-4-0.2-6c0.3-2.2,0.9-4.4,1.5-6.6c-1.2-2.1-2.1-4.7-1.3-7.1
	c0.1-1.8,2.7-4.4,4-2c1.7,1.6,3.7-0.1,4.3-1.7c1.3-0.9,2.7-1.8,1.7-3.6c0.2-2,2.7-2.8,3.9-4.4c1.2-1.5,3.1-2,4.6-3.1
	c3.6-3.1,7.3-6.1,10.8-9.4c0.9-1.7,1.4-4.1,0.4-5.8c0-2.4-1.3-4.6-0.8-6.9c0.2-2.1,1.9-3.6,2.1-5.8c1-2.5,1.5-5.2,1.9-7.9
	c0.2-1.4,2.2-1.3,1.8-2.5c1.7-0.6,2.4-2.3,2.5-4c0.7-1.5,1.7-2.9,2.1-4.6c0.1-0.3,0.2-0.6,0.2-0.9 M711.9,411.1
	c1.5-2,1.6-5.7,4.3-6.5c5.7-1,11.4-2,17.1-3.2c1.6-1.6,2.9-5,5.7-4.5c2.5,0.8,4.7-1.3,7.1-2c2.2-1,4.6-1.8,6.7-3
	c0.9-1.5,1.8-3,3.7-3.5c2-0.6,3.3-2.5,5.3-3.2c2.2-0.5,4.1-1.7,6.3-2.2c1.7-1.2,2.3-3.4,3.6-5c1-1.9,2.9-3.5,2.5-5.8
	c0.4-1.8,0.7-3.6,1.4-5.3c1-1.9,3.8-2.2,5.6-3.2c2.3-1,3-3.3,5.4-4c1.2-0.4,3.1-0.7,4.2,0.1 M689.1,82.3c2.4-0.5,3.8-2.6,5.4-4.2
	c1.5-1.1,3.5-1.4,4.7-2.9c0.7-1,0.3-2.5,1.1-3.6c-0.5-2.7,1.2-5.4,3.1-7.2c1.4-2.1,3.5-3.8,3.9-6.5c0.3-1.7,0.8-3.4,1.1-5.1
	c0.2-1.9,0.8-4.1,2.1-5.4c-1.3-2,0.2-4.2,0-6.5c-0.4-2.4-0.7-4.8-0.2-7.3c0.3-2.5,1.2-4.8,2.6-6.8c0.7-1.8,1.8-3.4,2.2-5.4
	c1.1-1.4,1.5-3.2,2.1-4.9c0.2-1.3-0.4-2.6-0.6-3.9 M638,166.1c-0.7-2.3-1.1-4.6-1.1-7c-0.5-1.9,0-3.9,0-5.8c-0.3-2,1.9-3,1.8-5.2
	c0.8-2-0.3-4.1,0.2-6.2c-0.4-1.8-0.2-3.5-0.1-5.3c0.2-2.1,1.6-3.9,1.6-6.1c1.3-1.3,2.4-2.9,4.3-3.4c1.5-1.1,4.8-1.1,4.5-3.7
	c2-1.3,0.3-3.5,0.4-5.5c0.1-2.3,2.5-3.5,3.3-5.5c0.1-1.5,0.9-2.6,2.7-2.6c2.6-1,1.6-4.3,2.3-6.4c2.1-1.5,4.6-2.7,6.8-4.1
	c1.7-1.5,0.8-3.9,1.1-5.8c0.3-1.1,0.9-2,1.4-3 M609.2,221.8c-0.6-1.6-1.1-3.4-2.6-4.4c-1.4-1.2-1.8-3.1-1.7-4.9
	c-0.1-2.4,1-4.6,1.5-7c0.8-2.2,1.3-4.6,2.6-6.5c0.4-2.2,2-4,2.9-5.8c1.5-0.9,3.3-0.6,4.9-1.1c1.7-1.2,4-1.1,5.5-2.7
	c1.6-1.1,3.5-1.5,4.9-2.9c2.1-0.3,3.5-0.9,5-2.5 M594.4,291.7c1.3-2.7,3-5.3,4.6-7.8c1.9-1,1.8-2.9,1.9-4.7c0.8-1.4,2.1-2.7,2.8-4
	c-0.1-3.6-0.3-7.2,0.5-10.7c0.5-3.3,1.2-6.5,1-9.8c0-4.1,0-8.1,0.1-12.2c1.5-2.4,1.4-5.3,2-8c0.4-2.6,0.5-5.1,0.4-7.7
	c-0.1-0.4-0.4-0.8-0.6-1.1 M712.1,118.6c0.1-2.5-0.8-5.3,1.5-7.1c1.6-1.2,0.8-3.5,2.4-4.7c0.8-1.6,1-3.7,1-5.5
	c-0.5-1.9-0.3-4.3,1.2-5.6c1.4-1.9,1.6-4.4,3.1-6.3c1.9-2.7,2.9-5.8,3.9-8.9c0.4-1.8,2.1-3.1,2.4-4.9c0.6-1.8,0-3.6-0.1-5.4
	c0.9-1.8,0.8-3.7,0.2-5.6c0.4-2.3,1-4.6,1.8-6.8c0.6-2,2-3.8,3.8-4.8c2.1-0.9,1.5-3.7,2-5.5c0.3-2.2,1.6-4,2.9-5.8
	c-0.1-1.9,0.6-3.4,2-4.7c0.4-2.5,3.2-2.9,4.9-4.4c1.5-1.7,3.2-2.2,5.3-2.8c1.7-0.5,3.1-1.6,4.9-2c1.7-0.8,4-0.8,5.1-2.6
	c1.6-1.7,1.7-4.8,0.4-6.7c-0.5-2.3-1.1-4.5-2.4-6.5 M550.2,273.7c-0.9-1.6,0.4-3,1.7-3.9c1.6-1.6,3.5-2.9,4.9-4.7
	c0.1-2,2.9-1.9,3.2-3.8c0.7-1.7,2.4-2.8,3.3-4.3c1.1-1.8,1.3-3.7,3.6-4c2.4-1.7,5.5-1.1,8.2-2.1c1.9-0.1,3.3-1.2,4.6-2.4
	c2.3-0.5,4.9,0.3,7-0.6c1.3-1.1,3.4-1.7,3.7-3.6c0.2-2.1,1-4,3.2-4.7c1.7-0.3,2.6-2,3.9-2.8c2.4-0.2,3-2.6,2.9-4.7
	c1.6-1.8,1.4-5.3,4.6-5.4c2.3-0.2,2.9-2.6,3.9-4.3c1-1.8,1.8-3.6,3.1-5.2c1.3-1.5,3.1-2.5,5.1-2.6c2.3,0,2.9-2.3,4.1-3.8
	c1.1-2.1,3.6-1.8,5.3-3.2c2.1-1.7,1-4.6,2.1-6.7c0.8-1.6,3.1-2.7,3-4.6c-1.1-2,0.8-3.7,0.4-5.8c0.2-2.4,0.2-4.8,0.1-7.2
	c0.6-2.1,2-4,2.2-6.2c1.3-1.5,1.7-3.5,2-5.4c0.5-2,1.4-3.9,1.8-6c0.8-2,2.7-3.2,3.6-5.1c1.4-2.4,4.2-3.5,5.2-6.2
	c1.2-1.8,2.6-3.8,4.9-4.1c2.3-0.6,4.4-1.7,6.7-2.2c1.8-0.2,3.8,0.5,5.5-0.6c2.4-1.4,4.7-3,7.2-4.3c2.8-1.8,5.8-3.4,8.6-5.3
	c1.3-2.1,4.1-1.9,5.7-3.6c0.1-0.1,0.3-0.2,0.4-0.3 M745.2,119c0.5,0,1,0,1.5,0.1c1.5,0.9,2.8,2.1,4.6,2.2c2.9,0.7,5.8,1.5,8.5,2.8
	c2.4,0.6,4.8,0.9,7.1,1.6c2.5,0.3,5,0.4,7.3,1.6c1.9,0.9,4.7,0.6,5.9,2.7c0.4,1.4,1.1,2.7,1.8,3.9 M787.3,140.2c0.8,1,1.7,1.9,3.1,2
	c2.4,0.6,5.1,0.1,7.4,1.1c2.3,0.9,4.6-3.3,6.4-0.8c1.7,1.8,4-0.8,6.1,0.3c1.9,0,3.3,1.2,4.7,2.4c1.7,1.5,2.9,3.5,4.7,4.8
	c2,0.6,4.1,1.1,6.2,1.1c2-0.8,4.4,0.7,6.4-0.7c2.4-1,3.9,2,5.8,2.9c1.9,1.2,3.6-0.6,5.3-1.3c2.3-1.3,4.9,0.4,7.4-0.4
	c1.7,0.5,2.5-0.2,2.3-2c0.5-1.9,1.8-3.4,2.5-5.2c0.7-1.8,2.9-1.7,4.4-1.1c2.3,0.3,4.4,0.9,5.5,3.2c0.9,1,0.5,3,2.4,2.2
	c2.9-0.1,5.7-0.2,8.6,0.3c2.4,0.2,4.8-1.2,7.2-0.6c2.6,0.1,4,3.1,6.6,3.2c1.8,0.3,3.9,0.6,4.7,2.6c1.5,1.5,2.6,3.2,3.9,4.9
	c1.7,1.7,3.8,0.4,5.8,1.3c2.4,0.5,4.8,0.7,7,1.8c1.9,0.1,3.5,1.3,5.3,2c1.4,1.3,3,0.4,3.7-1.1c2.4-0.9,5,0,7.4,0.1
	c2.2,0.2,4.2-0.9,6.3-1.4c1.8,0.3,3.8,0.4,5.4-0.4c1.9-0.5,3.9-1.5,3.8-3.7c0.5-1.4,1.3-3.4,2.9-3.6c1.6-0.2,2.1-2.7,3.8-0.9
	c0.2,1.8,0.4,4,1.8,5.3c1.6-1.8,4.4-0.8,6.5-1.7c1.8-0.9,4.2,1.3,5.6-0.7c1.7-0.9,4-0.9,5.3-2.5c1.7-0.9,3.7,0.9,5.4,1.5
	c2.1,1,0.6,4,0.8,5.9c-0.2,2.2-1.2,4.7,0.2,6.6c0.4,2.4,2.5,3.5,4.8,3.1c2.2-0.2,3.9,0.7,5,2.6c1.3,2.2,4,3.5,6.5,2.7
	c1.8-1.3,3.5-2.6,5.5-2.6c0.6-1.3,1.4-2.8,2.8-1.3c2.1,1.2,4.7,1.5,7.1,1.2c2.5-0.6,5.1-1.3,6.9-3.3c0.4-1.5,1.4-2.6,3-2.6
	c1.4-0.7,3.3-0.1,4.8-0.8c1.7-0.6,4-0.7,4.5-2.8c0.2-1.9,1.2-2.5,2.8-1.5c2,0.3,2.1-3.1,3.8-3.9c1.8-2.1,3.7-4.1,5.4-6.3
	c0.3-2.9,0.3-5.7,0.6-8.6c1.3-1.2,3.1-2.7,5-2.1c1.6,0.3,2.7,1.8,4.1,2.7c1.3,0.9,2.5,2.1,3.9,2.7c2,0.3,3-1.5,3.8-3
	c1.5-3.1,0.2-6.5,0.1-9.7c1.2-1,1.7-2.5,1.4-4c-0.2-3.5-0.2-7-0.5-10.5c-1.7-2.2-3.5-4.3-5.2-6.6c-0.7-1.9,1.3-3.1,2.1-4.7
	c0.3-0.4,0.6-0.8,0.8-1.3 M792.2,365.9c2.5,0.2,4.9-0.6,7.3-1.3c0.6-1.6,0.5-3.6,1.8-5c1-1.8,0.2-4,0.8-5.9 M784.9,184.1
	c0.8-1.4,1.7-2.8,1.3-4.4c-0.1-1.7,0.7-3.4,0.1-5.1c-0.4-2.7-0.2-5.4-0.2-8c-1.1-1.6,0.5-3.2,0.9-4.7c-0.2-1.6-0.2-3.3,0-5
	c0-1.6,0.3-3.3,1.4-4.6c1.1-1.4,1.5-3.2,2.2-4.8c-0.1-1.5,0.6-4.7-1.4-4.9 M802.1,352.6c-0.7-2.5-1.5-5-2.3-7.5
	c-1-1.6-2.7-3.2-1.6-5.3c0.1-1.9,0.5-3.7,0.9-5.5c0.2-2.1,1.1-4,1.2-6c-0.5-1.9-0.7-3.9-1.2-5.8c-0.6-1.6-1.5-3-1.9-4.6
	c-0.1-2.3-0.4-4.7-1.4-6.8c-1.5-1.6-1.1-4.1-1.6-6.1c1.1-2.3,1.2-4.7,1-7.2c-1.2-2-2.8-3.8-3.3-6.2c-1.7-2-3.4-4-5.4-5.6
	c-0.7-1.8-1.2-3.6-1.7-5.4c-0.3-2.3-1.2-4.5-1.7-6.7c-1.1-3.2-1.8-6.6-3.2-9.7c-1.3-1.9-1.8-4.1-2.7-6.2c-1.1-3.6-2.4-7.2-3.3-10.9
	c-0.3-2-1.1-4-2-5.8c-0.9-2.8-1.6-5.6-2.6-8.3c-0.5-2-1.4-3.8-1.7-5.8c0.3-1.7,1.7-2.9,2.8-4.2c0.8-1.4,0-3,1.4-4.3
	c1-2.2,2.2-4.2,3.9-5.9c1.6-1.2,1.1-3.3,1.4-5c0.4-2.2,0.6-4.4,1.2-6.6c-0.3-1.9,0.4-3.5,1.2-5.2c0.1-0.3,0.1-0.7,0.2-1
	 M563.9,255.7c0.1-2,1.1-3.7-0.2-5.6c-0.3-2.2,0.5-4.4,1.2-6.5c0.9-1.7,0.3-3.8,0.8-5.6c-1-2,1.9-3.6,0.6-5.8c0.4-1.7,1-3.5,1.9-5
	c1.2-1.4,1.2-3.7,3.3-4.2c1.1-1.3,0.8-3.7-0.6-4.8c-0.1-2.1,0.3-4.4-0.4-6.4c0.6-1.6,1.6-4.1,0.2-5.4 M559.4,93.5
	c0.3-1.6-0.1-3.3,0.9-4.7l0.1-0.2 M567,80.8c-2-0.3-4.5,0.6-5.9-0.9c-1.2-2.1-3-3.8-4.7-5.5c-1.6-1.5-2.2-3.5-3-5.4
	c-0.8-2.3-1.7-4.6-3.1-6.6c-1.3-2.4-1.7-5.2-2.6-7.8c-0.9-2-1.9-3.9-1.7-6.2c-0.3-2.3-0.8-4.5-0.4-6.7c-0.7-2.1,0.6-4.1,0.4-6.2
	c0.3-1.8,0.4-3.6,0.6-5.3c1.8-1.3-0.1-3.7,1.2-5.3c0.3-2.1,0.1-4.2,0.7-6.3c0.5-2,0.7-4,1.2-5.9c0-0.2,0.1-0.5,0.3-0.6 M334.8,59
	c0.4-1-0.1-2,1.5-2.1c0.9-0.7,2.2,0.3,3.3-0.5c2,0.4,3.8-1.3,5.8-0.7c2-0.7,3.9-1.6,6-1.9c1.4-0.1,3.4,2.2,3.3-0.2
	c2-1.5,0.6-3.8,0.4-5.6c1-1,1.5-2.6,0.1-3.4c-0.9-1.7-1.6-3.5-2.8-5c-1-2,1.1-3,2.3-4.1c1.7-0.2,3.6-1.9,3.5-3.7
	c0.4-1.8,0.6-4.8,3.1-4.5c1.7,1,2.7-0.3,2.4-2c1-1.4,2.9-1.2,4.3-0.6c1.1-0.5,2-1.2,2.1-2.3c0.7-2,2.9-1.3,4.5-1.2
	c0.5-1.1,1.5-0.2,1.7-1.6c1.3-0.1,3.1,0,3.8-1.2c1.3,0.5,1.9-1.8,2.8,0.1c0.6-0.6,0.9-1.8,2-0.8c1.1-1.3,2.7-1.9,4.4-2.5
	c1.8-0.2,1.7-2.6,3.6-2c1.3,0.1,2.4-0.7,3.1-1.4c1.3,0.5,2.5,0.1,2.5-1.5c0.7-1.3,1.6-3.2,0.8-4.4L399,5.6 M309.1,212.3
	c0.4-1.7,1.3-3.2,0.7-5c0.3-2.8-2.2-3.8-4-5.3c-1-1.5-2.3-2.9-2.9-4.6c-1.4-2.1-3-4.1-4.2-6.4c-2-0.7-4.5-2.2-3.3-4.8
	c0.5-1.9,1.2-3.9,0.3-5.7c-0.6-2.6-2.9-4.9-2.4-7.8c0.6-1.6,0.4-3.2,0.2-4.9c0.1-2,0.6-3.9,1.2-5.8c-0.9-2.1,2.1-3.6,1.1-5.5
	c-0.9-0.9,0.1-2-0.9-3.1c-1.2-1.6-1.3-3.6-1.3-5.6c-0.1-1.9-0.2-3.8,0.1-5.7c2.3-0.8,1.1-3.4-0.8-3.6c-1.8,1.6-2.5-0.9-4.1-1.5
	c-0.6-1.5-0.4-3.1-1.2-4.5c-0.2-1.7-1.4-3.1-1.4-4.8c0-1.7,1.7-2.8,1.1-4.6c-0.4-2,1.1-3.7,1.9-5.4c1.6-0.7,2.1-2.8,3.2-4.2
	c1.3-1.3,3.9-0.7,4.8-2.9c1.3-1.9,4.4-3.3,3.4-6c-1-1.8,0.7-3.5,0-5.4c0.5-1.4-1-2.9-0.3-4.2c-0.4-1.1-2.8-1-1.6-2.6
	c-0.2-1.8,2.4-1.9,2.5-4c0.6-1.1,0.5-2.7,2-2.5c0.8-1.2,1.2-2.9,2.7-1.3c2,1,1.4-2.2,2.1-3.2c0.6-1-0.3-3.4,1.9-2.8
	c0.9-0.1,0.7-2.3,2.2-2c1.2-0.1,2.4,0.1,3.3-0.5c0.2,1.1,0.7-1,1.4,0.3c0.4-0.7,0.6-2.2,1.8-1c0.7-1.2,1.5,1.2,2.3-0.3
	c1.9,0.2,0.2-1.7-0.2-1.7c1.5-0.2-0.4-1.8,1.5-1.7c1.1,0.3,2.5-0.6,3.6,0.2c0.2-1.2,2,0.2,2.8-0.9c0.5-1.1,0.2-2,1.3-3
	c1.2-0.3,1.6,1.1,2.7,1.4c1,0.4,1.5,0.6,1.9-0.5 M676.3,375.2c1.7-1.2,1.6-3.9,4-4.2c2-0.6,3.4-2,5.1-3.1c1.8-0.9,4.3-0.3,4.8-2.9
	c0.8-1.5,1.4-3.3,1.3-5.1c-1-1.9,1.3-3.1,1.4-4.8c-0.9-2.7,2.1-3.9,3.2-5.9c1.8-2.2,0.7-5,0.7-7.5c-0.4-2.5-3-4.4-2.7-7.2
	c-0.6-2-0.5-4.9,1.3-6.2c2-0.4,4.2-0.8,5.6-2.5c1.5-1.2,1.2-3.4,2.2-5c0.9-1.5,0.3-3.3,1.2-4.7c1.2-2,0.2-4.6,1.6-6.5
	c0.9-1.9,2.1-3.7,2.4-5.8c0.6-1.8,1.5-3.5,2.6-5c2.2-1.4,5.1-0.5,7.5-1c1.8,0.4,3-2,4.9-1c1.1-1.5-0.2-3.7,1.1-5.2
	c1-2.8,4.7-2.9,5.7-5.7c1.4-2,2.6-4.2,4.3-5.8c0.1-2.3,2-3.4,3.2-5.2c1.1-1.9,3.1-3.2,3-5.6c0.2-2.1,1.2-4,1.9-6
	c0.4-1.8,1.1-3.5,0.7-5.3c-0.3-2.6,1.2-4.9,2.5-6.9c1.6-1.4-1-3-1.8-4.3c-3-1.3-1-4.2-0.8-6.4c0.6-1.8,0.4-3.7,0.5-5.6
	c0.4-2.1,0.4-4.2,1-6.2c0.1-1.8-0.3-3.7-0.5-5.5c-0.5-1.9-0.7-3.9-0.8-5.9c-0.2-2.6-2.3-4.6-2.7-7.1c-0.5-1.8-0.9-3.6-0.9-5.4
	c-0.4-5.5-0.9-11-1.4-16.4c-0.4-2.1-0.9-4.2-2-6.1c-0.6-1.9-0.4-3.9-0.7-5.8l0-0.3l0-0.3 M431.3,240.6c0.6-1.3-0.4-2.6,0.8-3.6
	c-0.4-1.3-0.9-2.8,0-4 M186.9,213.3c1.5,0.3,0.7,1.6,1.3,2.6c-1.4,1.4,0.2,3.1,1.8,3.7c-0.2,0.9-1.7,3.3-0.6,3.7
	c0,0.3,0.1,0.5-0.2,0.7 M233.9,191.2c2.4,0.2,3.8,2.5,4.6,4.5c1.7,1.1,1.2,3.4,1.7,4.7c0.8-0.2,0.6,2.9,2.3,1.9
	c1.5-0.8,3.4,0.4,5,0.1c1-0.3,0.8,1.1,1.5,1c0,0.8-0.2,1.6,0.9,1.2c1.2,0.1,2.8,0,4.3,0c1.7-0.2,3.8-0.5,5.3,0.6
	c1.5,0.9,0.6,3.2,2.4,3.6 M80,193.8c-0.4-1.3,1.9-2.4,1.4-3.7c-1.5,1.3-3.7,0.3-4.8-0.4c-0.1,1.6-1.8-1-2.7,0.5
	c-1.4-1.2-1.6-3.4-3.7-3.7c-2.3-0.3-0.6-2.9-2.1-4c0.4-1.6-2-1.4-1.2-3.1c0.3-1.6-2.8-0.5-1.9-2.3c-0.5-0.7-2.6-0.9-0.8-1.4
	c-0.2-2.4-3.7,0.6-3.6-1.8c-0.8-0.7,1.5-0.6,0.5-1.7c-0.2-1.1-0.2-2.4-1.7-1.9c-1.6-0.8-0.8-4.3-2.6-4c-1.1,0.1-1-2.9-2.9-2.3
	c-1-0.4-2-0.6-1.9-1.9c1.4,0.7,2.5-1.1,2.6-2.1c0.3-0.4-0.2-0.8,0-1.3 M244.6,100.3c0.7-0.4,2-1.1,1-2.2c-0.2-1-0.8-1.7-0.2-2.4
	c-1.2-0.2-0.5-2.4,0.7-1.1c1.8,1.5,0.8-2-0.2-2.4c-1.5-1.1-0.2-3-0.2-4.2c0.9-1.3,1.6,0.2,2.2,0.3c1.4-0.9-1.8-2.6-0.4-2.8
	c0.8,1.1,3.7,3.4,3.7,0.7c-0.1-1.5-2.5-1.6-1.7-3.2c-0.6-1.4-2.3-2.5-3.5-1.2c-2.1,1.1-4,0.4-6.1-0.2 M244.6,100.3
	c1.6,0.6,3.4,0.5,5.1,0.6c1.9-0.5,3.9,0.1,5.8-0.2c1.5-0.5,3.1-0.1,4.6-0.5c1.5,1.6,3.5-0.5,4.9,1.2c2.2,0.5,4.4,0,6.4,1.3
	c2.2,0.3,4.5,0.6,6.7,0.3c2.1,0.8,3.3-1.6,5-1.5c1.5,2,3-0.8,4.5-1.1c1.6-0.5,3.4-0.8,4.7-2c0.9-1.4,2-4.3-0.1-5.2
	c-0.7-1.5-0.8-3.5-1-5.1c-0.3-0.9-0.8-4.2,0.9-2.7c1.7-0.9-0.1-2.5,0.6-3.8c-0.5-0.9-1.9-1.3-0.6-2c0.2-0.7,1.4,0.3,0.8-1
	c-0.5-1.5,1.6,0.6,1.1-1c-1-1.4,1.2-0.7,0.8-2.2c0.9-1.2,1.4-2.4,1.6-4c0.9-1.5,1.6-3.2,2.3-4.9c0-1.3-2.3-0.7-2.8-2
	c-0.8-0.1-0.8-0.8-1.4-1.1"/>
<path id="Interstates" class="st2" d="M622.1,287.6c1.3,2,3.5,3.3,4.6,5.5c2.2,2.8,4.5,5.4,6.6,8.2c1.4,1.8,2.8,4,5.1,4.6
	c1.7,0.2,3.3-0.7,5-0.6c1.7,0.3,3.4,1,5.2,1.1c1.7-0.7,3.6-0.2,5,1c0.4,0.3,0.8,0.5,1.2,0.8 M515.4,83.8c1.5,1.4,3.7,1.4,5.6,1.5
	c1.9,0.5,3.1,2.7,5.3,2.5c1.7,0.2,3.2,1.2,4.8,1.8c1.5,0.7,2.4,2.4,3.9,3c1.3-0.4,2.7-0.6,3.8,0.4c0.9,1.1,1.9,2.2,2.6,3.5
	c0.2,1.2-0.2,2.4-0.2,3.7c-0.2,1.3,0.7,2.7,2,3.1c1.2,0.3,2.8-0.4,3.8,0.8c1,1.3,2,2.8,2,4.5c-0.8,1.5-0.3,3.6,1.2,4.4
	c1.3,1.4,2.5,3,4,4.3c1.1,1.3,1.6,3.1,1.8,4.7c0.5,1.6,2.2,2.3,2.8,3.8c0.2,2.6,0.3,5.2,0.6,7.8c0.2,1.5-0.2,3.1-0.7,4.5
	c-0.9,1.8,0.7,3.6-0.2,5.3c-1.1,1.4,0,2.9-0.2,4.4c-0.4,1.6,0.4,2.9,1.3,4.1c0.7,1.5,0.1,3.2,1.4,4.4c0.8,1.2,0.2,2.7,0.8,4
	c0.8,2.6,2.5,4.9,2.6,7.6c0.1,1.9,0.1,3.9-0.5,5.8c-0.3,1.9,1,3.5,1.1,5.3c0.6,3.4,1,6.9,1,10.3c0,1.4,0.2,2.9,1.2,4
	c1,1.4,2.2,2.7,3,4.2c0.5,1.4,0.3,3,0.4,4.6c0.1,1.8,0.3,3.6-0.6,5.2c-0.9,2.1,1.1,4.2,0.6,6.3c-0.7,2,1.8,3.1,1.6,4.9
	c-0.5,1.7,0,3.4,0,5.2c-0.1,1.7-0.9,3.4-1.1,5.1c-0.3,1.1-0.1,2.2-0.7,3.2c-0.5,1.2-0.7,2.7-1.9,3.4c-1.5,0.3-2.6,1.7-3.1,3l0,0.3
	 M448.8,17.5c0.9,1.6,3.1,1.4,4.2,2.9c1.7,1.3,3.6,2.2,5.6,2.9c1.6,0.3,3.2,0.3,4.5,1.4c1.3,1.1,3,1.9,4.7,1.8c1.6,0,3.3-1,4.8-0.8
	l0.2,0.2 M644.9,85.4c1.7-0.4,3.4,0.9,5,0.1c1.6-0.1,2.9,1,4.4,1.5c1.6,0.7,3.3,1.6,5.1,1.5c1.6,0.1,3.2-0.1,4.7,0.3
	c1.2,0.6,2.4,2.4,3.9,1.4c1.6-1,3.1,0.6,4.5,1.1c1.5,0.7,3.4,1.4,4.9,0.4c1.3-0.8,2.1-2.3,3.6-2.8c2.7-1.7,5.2-3.7,7.5-5.9
	c1.3-1.3,1.6-3.2,2.4-4.9c0.8-2.2,2-4.3,3.5-6.1c1.4-1.8,2.3-3.9,3.9-5.6c0.8-0.9,1.4-1.9,1.7-3c1-1.8,2.9-2.8,4.3-4.3
	c1.6-1.5,2.9-3.2,3.9-5.1c1.6-2.3,3.5-4.3,5.9-5.7c1.9-1.3,4.1-2.7,6.5-2.5c1.7,0,3.5,0.4,5.2,0.2c1.7-0.5,2.9-1.9,4.4-2.8
	c1.7-0.1,3.6-0.4,4.7-1.8c1.5-1.5,3.3-2.6,4.6-4.3c1.3-1.4,2.2-3,3.3-4.5c1.8-2,4-3.5,5.9-5.5c1.1-1.1,1.8-2.4,3-3.4
	c3.2-2.7,5.2-6.5,7.3-10.1c0.3-0.5,0.6-1.1,0.9-1.6 M216.5,153.2c0.8-1.3,3-0.9,3.4-2.5c-0.3-1.4,0.6-2.8,2.2-2.9
	c1.3-1,3.8-1.8,4.7,0c0.8,1.5,1.3,4,3.4,4.2c0.3,0,0.6-0.1,0.8-0.3 M622.2,319.9c2.5-2.2,5.2-4.6,8.6-5.5c2-0.8,4-1.6,5.9-2.5
	c3-1.7,5.6-4.3,9-5.1c1.5-0.7,2-2.6,3.7-2.9c1.8-0.5,3.1-1.8,4.8-2.4c1.6-0.8,3.7-1.4,4.5-3.2c0.7-1.5,0.8-3.2,1.3-4.7
	c0.6-2,0.9-4,0.8-6c0.1-4-0.1-8.1,0.6-12c0.6-1.5,1.1-3.1,1.3-4.8c0.9-1.7,2-3.4,2.2-5.4c0.4-2.3,0.5-4.7,1.2-6.9
	c0.8-1.6,1.8-3.4,3.5-4.1c1.4-0.6,2.6-1.5,3.6-2.7c1-1.2,2.2-2.3,3.8-2.7c2.5-1.1,4.5-3.1,5.9-5.4c0.8-1.5,1.8-3,1.9-4.8
	c0.2-1.6,1.2-2.8,1.5-4.4c0.3-1.5,1-2.9,1.9-4.2c0.9-1.6,1.9-3.2,3.2-4.5c4.3-4.9,8.5-10,13-14.7c1.3-2,2.1-4.2,3.2-6.3
	c0.8-1.6,1.5-3.4,2.5-4.9c1.7-1.6,3.7-3,4.5-5.3c0.9-2,1.3-4.3,2.5-6.2c1.4-1.3,3-2.2,4.5-3.3c1.4-0.8,2.9-1.5,4.1-2.5
	c1.9-1.2,4.4-1.6,5.9-3.6c1.3-1,3.2-1.2,4.1-2.8c1.6-2.1,3.3-4.2,5.7-5.6c2.6-1.6,5.3-3.2,7.9-4.8c4.2-2.6,8.7-4.5,13.2-6.5
	c1.8-0.7,3.5-1.7,4.6-3.3c0.6-0.9,0.5-2.1,1.1-3c0.7-1.7,1.7-3.2,2.9-4.6c0.9-1.1,0.7-2.7,1.7-3.7c1.5-1.7,3.6-2.9,4.6-5
	c0.8-1.6,1.5-3.5,3.2-4.4c1.8-1.1,2.6-3.3,2.4-5.3c-0.2-1.7,0.2-3.6,1.3-5c0.8-1.5,0.8-3.1,1-4.7c0.7-1.6,1.6-3.2,2.2-4.9
	c1-1.9,2.2-3.8,3.7-5.4c0.9-1.1,1.5-2.5,2.2-3.7c1.2-1.8,2.9-3.3,3.4-5.5c0.8-2.2,1.6-4.4,2.1-6.7c0.5-1.8,1.3-3.8,3.1-4.6
	c1.8-1.3,1.5-3.8,2.7-5.4c1-1.5,2-3.2,1.9-5.1c0.1-1.9,0.7-3.7,1.7-5.3c0.9-1.9,0.8-4.2,2.2-5.9c1.3-1.6,1.4-3.8,2.1-5.7
	c0.4-1.7,1.4-3.2,2.4-4.6c0.8-1.3,1.3-2.7,1.5-4.2c0.5-2.4,1.6-4.6,1.9-7c0.2-1.5,0.8-3,1.9-4.2c1.1-1.4,1.9-3,2.8-4.6
	c1.1-1.5,2.5-2.8,2.9-4.7c0.6-1.7,1.7-3.3,1.7-5.2c0.3-1.7,1.8-2.9,2.1-4.7c0.4-1.8,1.4-3.2,1.7-5c0.6-1.7,1.5-3.2,1.6-5
	c0.1-0.7,0.6-1.2,0.8-1.9 M789.6,351.2c1.1-1.4,2-2.9,3.2-4.2c1.6-0.8,3.3,0.3,4.8,0.9c1.5,0.2,2.5-1.4,4-1.2l0,0 M430.3,208.9
	c1.5-0.7,2.5,2.4,4,1c1.4-1.4-0.8-2.5-1.4-3.6c-0.1-0.1-0.2-0.2-0.3-0.3 M358.7,215.9c1.6-0.2,3.2-0.9,4.2-2.2
	c1.1-1.2,2.6-2.2,4.3-2.2c1.9-0.5,3-2.3,4.5-3.4c1.4-1.2,3.1-2,4.2-3.5c1.2-1.2,2.5-2.4,4.4-2.4c1.6-0.4,3.1-1.3,4.7-1.9
	c1.3-0.4,2.5-1.2,3.8-1.4c1.3,0,2.6,0.3,3.8,0.6c1,0.9,1.9,2,3.3,2.3c1.4,0.5,2.8,0.6,4.2,1.1c1.5,0.2,2.9-0.7,4.4-0.5
	c1.7-0.3,3.1,1,4.7,1.3c2.5-0.1,5.1-0.5,7.4,0.8c1.3,0.6,2.5,1.4,3.9,1.8c1.7-0.4,3.5,1.1,5.1,0.1c1.2-1.1,2.1-2.5,3.4-3.4
	c2-1.3,4.5-1,6.8-1.5c1.7-0.3,3.4-0.2,5-1c1.7-0.7,2.3-2.7,2.8-4.3c1-1.4,1.9-2.8,2.4-4.4c1.5-2.3,4.1-4.1,4.6-7
	c0.3-1,0.5-2.3,1.4-2.9c1.6-0.6,2.8-1.9,3.5-3.5c1.3-1.5,3.4-1,5.1-1.6c1.7-0.4,3.5-1,4.2-2.8c1-1.9,2-3.8,3.3-5.5
	c0.6-1.5-1-2.8-1-4.3c-0.4-2.2,0.2-4.6,1.6-6.4c0.7-1.7,2-3.1,3.4-4.3c3-3,5.9-6.2,9.2-8.9c2-1.4,4.4-2.1,6.3-3.6
	c1.5-1.9,1.1-4.8,3.1-6.4c1.8-1.8,4-3.2,5.4-5.3c1.5-1.9,4-2.4,6.3-2.3c1.5,0.1,3-0.1,4.4-0.7c1.4-0.5,2.9-0.8,4.1-1.7
	c1.3-0.8,2.9-1.1,4.2-1.9c1.2-1,1.7-2.9,3.5-3.2c1.4-0.5,2.7-1.4,3.7-2.5c1.5-1.3,3.7-1,5.2-2c1.6-0.7,3.4,0.6,5-0.4
	c1.6-0.8,3.6-0.6,4.9-2c0.9-0.9,1.8-1.8,3-2.4c0.9-0.5,1.9-0.9,2.9-1.2c1-1.2,1.3-2.9,2.9-3.5c1.4-0.9,2.9-1.7,3.9-3
	c1-1.7,1.2-3.7,1.9-5.6c1.2-1.4,2.7-2.5,4.3-3.3c2.6-0.4,5.2,0.7,7.8,0.4c1.6,0,3.4,1.3,4.9,0.1c1.7-1.1,1.6-3.7,3.6-4.5
	c1.4-0.4,3.8,0,3.8-2.1c0.2-0.9,0.5-2.2,1.6-2.3 M421.7,227c0.9-1.7,1.7-3.5,2.9-5c1.1-1.1,2.2-2.3,2.4-3.9c0.9-1.6-0.1-3.6,1-5.2
	c0.9-1.9,1.8-3.8,3.2-5.3c0.8-1.1,1.8-2.2,2-3.6c-0.1-1.4-0.5-2.7-0.8-4c-0.6-2,0.5-4,0.2-6c-0.1-1.8-0.2-3.8,0.7-5.4
	c0.1-1.8-0.9-3.5-1.2-5.2c-0.5-1.7-0.6-3.6-1.4-5.2c-0.5-1.8-0.4-3.6-1-5.4c-0.1-1.3-0.1-2.6,0.3-3.9c0.5-1.1,1-2.2,0.9-3.4
	c0.2-2.5,1.2-4.8,1-7.3c0.4-1.5,0.4-3.1,0-4.6c-0.1-1.8,0.7-3.7-0.1-5.5c-0.7-1.7-0.2-3.4,0.3-5.1c0.3-1.7,1.5-3.3,0.5-5
	c-0.3-1.3,0.4-2.8,0.1-4.2c-0.3-2.8-0.5-5.5-0.6-8.3c0.2-3.1,0.5-6.3,0.6-9.4c0.3-1.7-0.8-3.2-0.7-4.9c-0.4-1.9,1.1-3.4,1.5-5.1
	c0.2-1.8-0.4-3.7,0.4-5.4c0.4-1.6,0.9-3.3,1.8-4.7c0.1-1.5-0.3-3.1,0.6-4.5c0.3-1.5,1.6-2.5,2-3.9c0.2-1.5-0.7-3-0.3-4.5
	c-0.2-1.8,0.9-3.4,1.3-5c0.2-1.7-0.5-3.5,0.2-5.1c0.6-2.4,0.8-5.1,0.2-7.5c-0.3-2.3,0.6-4.5,0-6.8c-0.4-2.1-1.1-4.2-1.4-6.4
	c-0.1-2,1.4-3.5,2.1-5.3c0.5-1.2,1.2-2.3,1.7-3.5c0.5-1.7-0.1-3.4-0.3-5.1c0.2-1.7,1.4-3.1,1.4-4.9c0.2-1.8,1.3-3.2,1.5-5
	c-0.3-1.8,0.1-3.7,1.3-5.2c1.4-1.3,1.7-3.1,2.6-4.7c1-1.5,0.6-3.6,0-5.2c-1.1-1.6,0.5-3.2,0.6-4.8c0-0.3-0.1-0.5-0.2-0.8 M576.8,86
	c-0.1-1.5-1-2.8-1.1-4.3c-0.1-0.4-0.3-0.8-0.4-1.2 M557.2,93.4c-1.2-0.5-0.9-3.7-2.8-2.5c-2.2,0-2.1-2.8-3.6-3.6
	c-1.6-0.4-3.1-1.6-2.6-3.4c0.6-1.5,0.6-3.1,0.6-4.7c0-1.1,0.6-2,0.9-3 M693.1,129.4c1.9-0.7,4.2-1.6,4.9-3.8c0.3-1.4,0.1-3,0.9-4.2
	c0.7-1.5,2.3-2.9,4-2.6c1.5,0.1,3.2,0.4,4.2,1.7c2.3,0.8,2.8,3.7,5,4.6c0.6,0.5,0.9,1.2,0.9,2 M710,131.3c0.5,0.5,0.8,1.1,0.8,1.8
	c0.6,1.6,1.1,3.2,0.9,4.9c0.4,1.7,1.8,2.9,2.3,4.6c0.5,1.8,0,3.7,0,5.5c-0.1,1.4-0.2,2.8-0.2,4.1c1,1.5,0,3.2-0.9,4.4
	c-0.4,1.7,0.2,3.6-0.6,5.2c0.1,1.7,1.5,2.8,2.2,4.3c1.1,1.7,0.9,3.7,1.3,5.6c0.2,1.2,0.3,2.6,1.2,3.5c1.2,1.1,0.9,2.7,1,4.2
	c0.3,1.7,1.2,3.2,1.2,4.9c0.4,2,2,3.4,3.4,4.8c1.4,1.1,1.8,3.1,3.5,4c1.1,1.5,3,2.4,4.8,2.4c1.9,0.5,1.1,3.1,2.5,4.2
	c0.7,1.4,1.1,3,2.2,4.3c0.9,1.2,1.8,2.4,2.3,3.8c0.6,1.5,2,2.3,3.4,2.8c1.5,0.9,2.6,2.3,4.3,2.8c1.2,0.5,2.5,1.1,3.3,2.1
	c1.6,1.4,3.8,2.3,4.9,4.2c1.5,1.5,3.7,2.1,4.8,4c1.3,1.4,2.7,2.9,3.2,4.8c0.9,2.1,1.1,4.4,2.4,6.3c1.5,2.8,2.5,6,3.4,9
	c0.5,1.3,0.1,2.9,1.1,3.9c0.9,1,2.1,1.7,3,2.7c1.4,1.2,3.2,1.7,4.9,2.2c1.2,0.8,2.3,1.7,3.5,2.5c1.7,1.5,2.8,3.6,4.1,5.5
	c0.7,1.7-0.4,3.7,0.6,5.3c0.5,1.8-0.3,3.7,0.4,5.4c0.4,1.4,0.9,2.8,1.9,3.9c0.7,1.2,1,2.7,2,3.7c1.1,1.3,2.6,2.5,2.5,4.4
	c0,2.2-0.1,4.4,0,6.6c-0.5,1.6-0.5,3.2,0.3,4.7c0.5,2.3,0.3,4.9,2,6.7c1.2,1.2,1.9,2.6,2.5,4.2c0.7,1.8,1.3,3.6,1.8,5.5
	c0.2,1.7-0.3,3.7,1,5.1c0.9,1.2,1.6,2.8,1.2,4.4c-0.3,2.3-0.5,4.8,0.3,7c0.5,1.8,1.1,3.8,0.6,5.7c-0.2,1.8-0.9,3.5-1.7,5
	c-0.7,1.4,0,2.9,0.6,4.2c0.7,1.6,1.3,3.2,1.3,4.9c0.6,1.3,1.8,2.9,0.5,4.2c-0.2,0.6,0,1.3-0.1,2 M157.9,117.7c1.7,0.4,2.8,2,3.5,3.5
	c1,1.3,1.9-1,2.9-0.1c1-0.4,1.8,0.1,1.3,1.2c-0.5,0.9,0.2,1.5,1,1.5c0.8,1.1-0.1,2.6-1.4,2.5c0,0.9,1.8,2.4,0,2.7
	c-1.2,0-1.4,1.3-0.2,1.6c1,0.8,0.6,2.7,2.3,2.8c1.2,0.4,4,0.7,3,2.6c-0.7,1-0.7,2.1,0,3c-0.4,1.5-2.7,1.2-2.6,3.1
	c-0.4,1.3,0.7,2.3,1.1,3.4c0.6,1.3,1.8,2.3,3,3.1c1.5,0.3,3.1,0.9,3.2,2.7c1.1,1.2,2.6,2.6,4.4,2.2c1.5-0.5,3-0.5,4.4-1
	c1.9-0.5,3.9-1,5.8-0.4c1.9,0,1.5,2.7,3.5,2.4c1.3,0,2.6-0.1,3.9,0.1c1.5,0,2.8-0.7,4.1-1.4c1.7-0.5,3.4-1.1,5.1-0.3
	c1.8,0.2,3.4-0.7,5.2-0.4c1.7-0.8,3.3,0.3,5,0.4c1.8,0.5,2.9-1.8,4.6-0.8c1.5,1.2,3.4,0.5,5.1,0.9c1.5,0.4,3.6,0.6,4.4-1.1
	c1.5-1.3,3.5-1.4,5-2.7c1.5-1.1,3.4-0.7,5.2-1.2c1.8-0.2,3.6-0.6,5.5-0.5c1.1,0,2.1-0.5,3.1-0.8c1.3-0.3,2.9-0.2,3.8-1.3
	c1.3-1.2,3.2-0.2,4.8-0.8c1.4-0.2,2.7,1.3,4,0.7c0.7-0.4,0.9-1.4,1.8-0.8c1.5-0.2,3-0.5,4.5,0.1c1.3,0.2,2.8-0.4,3.4-1.6
	c1.5-1.1,3.4-0.4,5.1-0.8c1.7-0.1,3.1,1.1,4.8,1.1c2,0.3,3.8-0.7,5.6-1.4c1.6-0.6,2.5,1.1,3.8,1.5c2,1,2.6-1.5,4.1-2.1
	c1.4-0.5,2.2-1.8,3-2.9c0.8-1.1,2.1-2.1,3.6-1.9c1.6-0.2,3.1-0.6,4.7-0.9c1.4-0.8,2.8-0.7,4.1,0.1c1.5,0.3,3.1,0.1,4.5-0.1
	c1.7-0.6,3.3-1.7,4.9-2.5c1.3-1,2.9-1.3,4.5-1.1c1.4,0,2.9,0.5,4.3,0.1c1.8-0.2,3.5,0.7,5.2-0.1c2.1-0.8,4.5-0.6,6.6-1.4
	c1.7,0.2,3.3,0.6,5,0.7c1.8,0.3,3.5-0.7,5.2-1.2c1.9-0.2,3.2,1.4,5,1.7c2.4,0.9,4.6,2.2,7,3.1c3,0.1,6,0.1,9-0.2
	c1.5-0.2,2.9-0.8,4.4-0.8c1.7,0.5,3.4,1.1,5.2,1.3c1.3,0.5,2.9,0.6,4-0.3c1.6-0.7,3.1-1.7,4.8-2.1c1.6,0,3.3,1,4.9,0.3
	c2.9-0.5,5.8-0.8,8.5-2c2.5-0.8,4.9-2.1,7.2-3.2c3.8-1.6,7.6-3.2,11.4-4.7c3.7-1.3,7.6-2.2,11.5-2.8c2.3-0.4,4.5-1.2,6.6-2.2
	c1.1-0.6,1.9-1.5,2.6-2.4c1.4-1.1,3.4-1.3,4.5-2.9c1.3-1.3,3.2-0.6,4.7-1.3c1.4-0.9,2.8-1.8,4.3-2.3c1.4-0.7,2.6-1.6,4-2.2
	c2.8-1.4,5.5-3,8-4.9c1.7-1.3,3.7-2.2,5.4-3.6c1.9-1.4,3.5-3.2,5.3-4.8c1.5-1.3,3.7-1.4,5.5-2.2c2-0.7,3.7-1.9,5.5-3
	c1.3-0.9,2.4-2.1,3.7-3c1.4-1,2.8-2,4.2-3.1c1.7-0.5,3.1,1.1,4.8,1.1c2.2,0.6,4.3-0.9,6.4-0.2c1.7,0.4,3.6,1.7,5.3,0.7
	c1-1.2,2.5-1,3.9-1.1c1.2-0.4,2.4-1.3,3.8-1.1c1.2-0.1,2.6,0.3,3.8-0.1c1.2-1.1,2.7-1.2,4.2-1.3c1.8-0.4,3.6-0.6,5.2-1.6
	c1.7-0.5,3.2,0.8,4.7,1.2c4.5,1.7,8.8,3.7,13.2,5.8c1.2,0.6,2.6,0.3,3.8,0.9c1.3,0.5,2.6,1.3,3.8,1.9c1.8,0.3,3.6-0.5,4.9-1.7
	c1.5-0.5,3.1-0.2,4.5-0.9c3.3-1.2,6.9-1.5,10.4-1.1c1.6,0.2,3.2,0.1,4.9-0.1c1.7-0.1,3.3-0.3,4.9-0.4c1.8,0.3,3.7,0.1,5.5-0.3
	c1.8-0.1,3.6-0.8,5.4-0.6c1.3,0.3,2.6,0.8,4,0.6c2,0,4,0.4,6,0.7c1.7,0.4,2.7-1.4,4.3-1.3c1.8,0,3.7-0.1,5.5,0.5
	c1.8-0.5,3.6-0.3,5.4-0.5c1.5-0.7,2.9-1.3,4.6-1.4c1.9-0.3,3.8,0.1,5.7,0.5c1.6,0.4,3.3,0,4.8,0.8c1.2,0.6,2.4,1.4,3.5,2.2
	c0.9,1.2,1.8,2.8,3.5,3c1.6,1.2,0.6,3.5,2,4.9c0.8,1.5,0.4,3.6,1.9,4.7c1.3,1.2,3,0.2,4.4,0.7c1.3,0.5,2.3,1.5,3.4,2.3
	c1.4,1.5,1.6,3.7,2.1,5.6c0.6,1.6,2.6,2.2,4.1,1.4c1.6-0.4,3.3-0.7,4.9-0.3c1.8,0.1,3.6,0.5,5,1.5c1.5,0.6,3.2,1.3,3.9,2.8
	c1.4,2,3.6,3.3,5.4,4.9c1.9,1.5,4.2,2.5,6.1,3.9c1.3,1.4,0.2,3.3-0.4,4.7c-0.7,1.5,0.6,2.4,1.4,3.5 M681.4,113.5
	c1-1.1,1.4-3,3.1-3.2c2.1,0.2,3.6-1.6,5.4-2.3c1.5-0.3,3.1,0.3,4.6-0.4c1.6-0.5,3.3-0.8,5-0.4c1.9,0.2,4.1,0,5.6,1.3
	c1.1,1.3,3.2,0.6,4.4,1.7c1.4,0.7,1.3,3.3,3.4,2.9c1.9,0.1,2.7,2.2,4.3,2.8c1.6,0.2,2.2,1.6,2.2,3c0.4,1.8,1,3.6,0.7,5.5
	c-0.3,1.7,0.7,3.1,1.1,4.6l0,0.2l0,0.2 M782,133.7c0.8,1.4,0.7,3.6,2.5,4.2c1.6,0.7,2.8,2.1,3.7,3.6c0.2,1.6,1.4,3.2,0.3,4.6
	c-0.7,2.1-2.3,4-2.3,6.3c-0.1,1.4-0.5,2.8-1.2,4.1c-0.1,1.9,0.8,3.9,0.1,5.8c-0.1,1.5,0.5,3.2-0.6,4.5c-0.7,1.2-0.6,2.7,0.3,3.8
	c1,2.3,1.1,4.9,1.2,7.4c-0.3,1.8-2.1,2.9-2.3,4.7c-0.2,0.5-0.4,1-0.6,1.5 M558.9,126.2c0.8-1.5,1.2-3.3,0.6-4.8
	c-0.5-1.7,0-3.5,0.7-5.1c0.6-2.3-0.3-4.5-0.4-6.8c0.2-1.3,0.2-2.6-0.2-3.8c-0.4-1.2-0.4-2.6,0.3-3.7c0.8-2.3,0.3-4.7-0.4-7
	c-0.1-0.5-0.2-1.1,0-1.6 M435.5,187.8c2.8-0.1,5.8-1,8.5,0.3c1.3,0.5,2.2,1.3,2.8,2.6 M435.5,187.8c-1.4,0.3-3.4,0-4.3,1.4
	c-1.2,1.4-3,2.4-4.8,2.3c-1.4,0.4-2.3,1.8-3.9,1.9c-1.7,0.7-2.7,2.4-3.4,4c-1.2,1.4-1.2,3.3-1.3,5c-0.3,2.6-0.8,5.3-0.4,8
	c0.1,2.1-0.3,4.2-0.2,6.3c0.8,1.3,2.8,1.6,3.1,3.3c1.1,1.1,2.3,2.1,3,3.6c1.4,0.6,2.1,2,3.2,3c1.4,0.6,2.3,1.9,2.2,3.4
	c0.1,1.3,0.7,2.9,2.3,3c1.9,0,3.8,0.4,5.7,0.3c2.1,0.1,4.2,1.1,6.2,0.4c1.6-0.8,2-2.9,3.4-3.9c1.7-1.5,3.7-2.7,5.8-3.3
	c1.9-0.1,3.3-1.6,4.1-3.2c1.3-1,3.4-1.8,2.8-3.9c-0.1-1.9,0.3-3.9,0-5.8c-0.6-1.6-2.3-2.6-2.7-4.3c-0.4-1.4,1.3-3.4-0.5-4.4
	c-1.9-0.7-1.5-3.1-2.2-4.5c-0.7-1.4-1.1-3.3-2.9-3.5c-1.6-0.9-1.8-3-2.8-4.3c-0.4-0.6-0.8-1.2-1.2-1.8 M216.5,153.2
	c0.6,1.4,0.7,3,1.3,4.4c0.5,2,2.9,2.3,3.6,4.1c0.7,1.7,1.5,3.3,2.1,5c0.8,1.6,0.9,3.5,2,5c0.4,1.8,1.2,3.5,2.3,4.9
	c1.7,0.7,2.8,2.3,3.8,3.7c1.3,1.2,2.3,2.6,3.1,4.2c1,1,2,1.9,2.6,3.2c0.7,1.2,1.4,2.4,1.9,3.7c1.4,1.2,1.3,3.3,2.6,4.4
	c1.8,0,3.1,1.2,4.1,2.5c1.1,1.2,2.4,2.1,4.1,2.4c1.6,0.7,3-0.5,4.6-0.5c1.7,0.4,3.6,1.4,5.2,0c1.5-0.3,3.7-0.3,4.8,1
	c0.4,1.6,0.5,3.3,1.9,4.5c1.3,1,1.4,2.8,2.7,3.7 M227,114.4c0.2,1.8-0.8,3.5-0.6,5.3c-0.1,1.8-0.9,3.4-0.9,5.2
	c-0.1,1.5-1.2,2.5-1.7,3.9c-0.8,1.4-2.4,2.4-2.7,4.2c-0.4,1.6-1.2,3.2-0.8,4.9c0.4,1.7-0.1,3.4,0.5,5c0.9,1.4-0.6,3.1,0.6,4.5
	c0.1,0.3,0.6,0.4,0.4,0.8 M224.8,93.3c-1.5,1.4,0.9,3.1,0.2,4.7c-0.6,1.3,0,2.8,1.3,3.4c0.7,1.4-1.5,3,0.3,4.1
	c1.1,1.3,1.6,2.9,2,4.5c0.2,1.7-1.9,2.6-1.6,4.3"/>
<path id="US_64_Interstates" class="st3" d="M693.1,129.5c0.1,0.2,0.2,0.3,0.3,0.5c1,1.2,2.7,1.4,4.2,1.7c1.8,0,3.6-1.4,5.4-0.5
	c1.5,0.3,3.3,0.5,4.7-0.3c0.9-0.4,1.8-0.2,2.5,0.4c1.2,0.2,2.7-0.1,2.8-1.4c0-0.9,0.2-1.8,0.1-2.7c2.1,0.7,4.3,1.3,6.5,1.9
	c0.6,0.1,1.2,0.1,1.7,0.1"/>
<path id="US_64" class="st4" d="M2.4,224c0.6,1.9,2.7,1.2,3.8,1.1c0.9,0.9,2-1,2.4,0.8c1.2-0.5,2-2,3.5-1c1.5-0.2,2.8-1.4,4.2-1.3
	c0.8,2.2,3,2.6,4.6,1c1.5-1.5,3.5-1.2,5,0.2c2.4,0,4.3-1.5,6.2-2.9c1.7-0.9,1.9-3.1,3.7-3.8c1.2-0.5,3.1-2.1,3.4,0.1
	c1.8,0.9,4,0.8,6,1.2c1.1,1.8,3.3,0.5,4.6,1.9c1.5-0.4,2.5,0.4,3.5,1.1c1.4-1.3,3.2-0.3,3.6,1.3c1,2.1,3.1,1.7,5,1.4
	c2,0.1,3.8,0.4,5.6-0.6c1.5,0.6,3.2,0.3,4.8,0.8c1.9,0.4,3.5,1.6,5.5,1.9c2.1,1.1,4.6,0.3,6.9-0.1c1.8-1,3.9-0.9,5.7-1.6
	c0.4-1.1-1.7-0.9-0.5-2.1c-0.4-0.7-2.7-1.3-1.6-2.6c1.3-1.5,2.5,0.3,3.6,0.7c1.6-1,2.9-2.3,4.2-3.7c2.1,0.4,0.8-3.2,2.5-3.9
	c1-0.5,1.1-2,2.5-1.2c1.6-0.1,2.7-1.7,4.6-1c2.2-0.1,2.8-2.7,4.8-3c1.8-1.1,3.9-0.4,5.8-0.8c0.6-0.1,1.2-0.1,1.8,0
	c0.1,0,0.4,0.2,1.1,0.2c0.8,0.1,1.8,0.3,2.2-0.7c0.3-0.2,0.6-0.4,0.7-0.6l0.1-0.1c2.2-1.5,2.4,2.4,4.6,1.6c1.5,0.7-0.2,2.7,1.8,3.3
	c1.6,0.2,3.3,1.1,2.8,2.9c-0.1,1.1,1.7,1.3,1.8,2.3c-1.5,1.2,1.5,1.8-0.4,3c-0.3,1.5,1.2,1.6,2,2.3c1.2-0.1,1.4,1.7,1.8,1.2
	c1-1.3,1.5,1.7,2.8,1.1c0.4,0.3,2.4,2.7,1.9,0.6c-0.7-1.4,2.1-0.5,1.1-2.3c-0.3-1.5,2.1-2.1,3.1-1.6c0.8-0.6,1.4-1.3,2.4-0.8
	c-1-1.3-0.3-3.1,1.3-2.6c1.3,1.5,3.3-0.9,5-0.5c1.6-0.6,2.8-2.3,4.5-2c1.4,1.3,2.9,2.2,4.5,2.7c1.4-0.1,1.8-1.6,3-0.5
	c0.9,0,1.1,1.4,1.9,0.2c1.1,0.2,1.8,1.6,3.1,0.6c1.2-0.6,1.9,1.5,2.2-0.4c0.8-0.6,1.9-2.2,2.7-0.9c0.9-1.6,2.4,1.6,3-0.5
	c1.4-0.1,1.6-1.9,3.1-1c0.9-0.7,1.9,0.1,3-0.7c1.9-0.1,2.6-2.7,4.3-3.6c1.4-1.4,2.5-2.8,3.9-4.2c0.6-1.6,2.6-1.2,3.2-2.9
	c1.3-0.7,2.8-1.4,3.2-2.9c0-0.2,0.3-0.4,0.8-1.1c0.5-0.7,1.3-1.3,1.3-2.1c0.1-1.1,1.4-2,1.6-2.8l0.3,0.1c2.3,1.5,4.9-0.2,7.4,0.4
	c2,0.1,2.8-2.4,2.4-3.9c1.1-1.5,2.8-2.6,4.7-2.6c1.8-0.7,2.3-3.1,4.3-3.6c2.2,0,3.5,2,5.6,2.3c1.4,1.8,3.8,1.3,5.7,1.7
	c2.4,0,1.6-3.3,3.8-4c0.7-1.9,3.1-2.1,4.1-3.7c1.9-1.5,4.7,0.3,6-2.2c1.7-0.9,3.6-1.6,4.6-3.3c1-1.7,1.8-3.4,3-4.9
	c0.7-2.3,3.1,0.6,4.5,0.6c1.4,0.2,2.9,1.2,3.8,1.8c1.5-0.2,2.2,0.1,2.9,1c0.4,0.4,0.3,1.3,1.2,1.5c0.4-1.6,1.6-1.2,2.7-0.9
	c0.6-1.2,2.7,0.4,3.8,0.2c1.5,0.4,2.8,0.7,3.7-0.6c2.2-0.9,4.4,0.9,6.2,2c1.8-0.5,2.1,1.9,3.9,2.2c1.4,1.4,3.6-0.1,5,1.2
	c1.6,1,3.7,3,5.2,0.7c1.6-0.3,2.4-1.5,2.5-3.1c1.7-0.7,2.5-2.4,3.7-3.6c0.7-2,1-4.1,1.6-6.2c0.8-1.2,2.1-2.1,2.4-3.6
	c1.6-0.8,1-3.2,1-4.8c0.1-2.1,0.1-4.5,1.5-6.2c1.1-1.5,2.2-3,3.5-4.5c0.9-1.7,2-3.3,3.1-4.9c1.4-1.1,3.4-0.6,4.4-2.5
	c1.5-1.3,2.9-2.7,3.9-4.5c1.3-1.2,1.8-3,3.5-3.9c0.7-0.6,1.2-1.8,0.8-2.7l0-0.1c-0.6,0.2-1.1-0.1-1.7-0.5l-0.1-0.3
	c-0.4-1.3,1-2.1,0.8-3.5c1.5-0.6,1.8-2,1.9-3.6c1.3-1.5,2.8-2.7,3.8-4.4c2-1.7,3.5-3.9,5.6-5.5c1.8-1.8,2.9-4.2,4.7-6
	c1.8-1,4-1.2,5.6-2.4c0.5-1.4,2.6-1.2,3.5-2.3c1.6,1,3.4,2,5.2,0.9c1.7,0.9,3.5,1.5,5.5,1.6c1.8,0.3,3.8,0.5,5.5-0.4
	c1.9-1,3.3,1.6,5-0.1c2.1-0.6,4.2-1.4,6.4-1.7c1.9-0.1,3.1,1.7,5,0.9c2,0.3,4.4-0.3,5.4,1.9c2.2,1.4,4.7-1.5,6.8,0
	c2.1,1.4,4.3,2.7,6.7,3.5c1.8,1,1.9,3.8,4,4.6c2.1,1.3,3.5,3.3,4.7,5.3c1.6,1.6,4.2,1,5.7,2.9c2.1-0.2,3.1,1.2,4.1,2.7
	c1.7,0.2,3.3,1.8,5,0.7l0.2-0.2c0.2-0.7,0.9-1.1,1.3-1.6l0.3-0.1c1.7-0.8,3.2-2.8,5.1-2.3c2.4,0.5,5,1.3,7.4,0.2
	c1.3-1,2.5-2.4,3.4-3.8c1.2-1.1,2.3-2.4,3.5-3.7c1.5-2,2.1-4.5,3.5-6.6c1.6-1.2,3.2-2.8,5.3-1.9c1.9-1.8,2.9,1.3,4.3,2.1
	c1.3,0,3,0.6,4,0.8c1,1.9,3.6,1.6,5.5,2c2.2-0.7,3.4,2,5.5,0.8c1.9,0.4,4.6-0.4,5.8,1.3c1.7,0.6,3.5,1,4.8,2.3
	c1.9,1.6,4.6-1.3,6.8,0.3c2,0.6,3.3,2.3,5.4,2.5c1.3,0.5,2.4,1.3,3.7,1.7l0.1,0.1c0.2-0.2,0.4-0.3,0.6-0.4c0.9-0.2,1.8-0.1,2.7-0.1
	l0.3,0.1c1.7,1,3.2,2.5,5.3,3c2.5,1,5,1.8,7,3.7c1.7,1.4,3.6,2.8,5.8,3.3c2.2,0.6,4.3,1.5,6.4,2.4c1.7,0.2,3.5,0.2,4.8,1.5
	c1.3,1.3,3.2,1.4,4.9,1.5c2.2,0.1,3.8,1.8,5.9,2.5c3.1,1.6,6.2,3.4,9.4,4.9c1.6-0.4,3.5-0.3,5-1.2c1.6-0.9,2.5-2.6,4.1-3.6
	c1.2-1.2,3-1.2,4.5-0.9c2.4,0.1,4.8-0.4,6.9-1.4c2.7-0.8,5.2-2.1,8-2.5c2,1.1,4.4,1.7,6.7,1.3c1.9,0.6,3.8,1.5,5.9,1.4
	c2.6,0.1,5.1,0.3,7.7,0.1c3.6-0.7,7.3,0.5,10.9,0c3-0.1,5.9,0.1,8.9,0.2c2.3,0.1,4.5,1.3,6.8,0.3c1.7-1.3,3.4-4.3,6-2.9
	c2.3,0.7,3,3.7,5.4,4.1c2.1-0.7,3.9-2.3,6.3-2.1c2.4-0.6,4.9,0.2,7.4,0c1.7-0.2,3.5,0.7,5.2,0c4.8-0.9,9.7-1.4,14.6-1.9
	c2-0.2,3.8,0.9,5.7,1.2c0.7,0.2,1.4,0.3,2,0.6c2.3-1.5,4.6-3,7-4.4 M721.2,129.2c2.4-0.1,5.5,0.9,7.3-1.3c1-1.3,2-2.4,2.2-4.1
	c1.8-1.3,3.9-2.3,6-3.2c1.7-0.2,3-1.1,4.5-1.7c1.3,0,2.6,0,4,0.1c2.5-0.6,3.3-4.3,6.3-4.5c2.2-0.6,4-1.9,5.8-3.2
	c1.9-0.7,3.2-2.1,4.4-3.6c1.4-1.3,3.1-2.4,4.8-3.3c2.1-0.5,4.2-0.4,6.3-0.2c2.5-0.2,4.3-2.3,6.7-2.6c2.3-0.4,3.5-2.3,5-3.8
	c1.3-1.6,3.5-1.7,5-0.3c1.5,0.2,3.1-0.7,4.7-0.6c2.2-1.1,5-0.9,7.2,0c1.9,1.6,4.6,1.5,6.8,2.3c1.8,0.6,4-0.1,4.4,2.5
	c1.1,1.9,3.6,0.9,5.3,1.5c2.1,0.6,4.3,0.9,6.4,1.6c1.9,1.3,2.8,4,5.2,4.4c2.3,0.7,4.6,1.2,6.9,1.5c0.7-0.1,1.4-0.4,2.1-0.6l0.4-0.2
	c0.3,0.1,0.6,0.1,0.9,0l0.2,0.3c0.9,1.2,1.9,4.1,3.9,2.5c2.2-0.6,3.4,2,5.5,2.2c1.8,0.2,3.9-0.2,5.5,1.1c1.6,0.9,3.3,1.1,5,1.6
	c1.2,0.2,2.5,0.3,3.7,0.4c1.6,0.1,3.2-0.4,4.8-0.3c1,0.1,2,0.1,3,0c0.9-0.1,1.8-0.1,2.6-0.3c1.1-0.4,2.1-1,3.3-1.1
	c1-0.1,1.9-0.4,2.9-0.4c1,0,1.7,0.9,2.4,1.4c0.5,0.4,0.9,0.9,1.5,1c0.7,0.1,1.4,0.3,2.2,0.3c1.7-0.2,3.5-0.5,5.2-0.8
	c0.7,0,1.2,0.7,1.7,1c0.5,0.4,1,0.9,1.7,0.8c1-0.1,2-0.1,3-0.3c0.6-0.3,0.6-1,0.9-1.6c0.2-0.5,0.4-1.1,0.5-1.6
	c1.7,0.2,2.6,2.2,4.5,2c1.5,1.9,4.2,1.1,6.2,2.3c2.1,0.9,3.8-0.4,5.7-0.5c1.7,0.1,3.1,1.5,4.9,0.4c2.1-0.6,4.8,0,6.3-1.9
	c1.2-2,3.4-2.1,5.4-1.4c1.8-0.4,3.3-1.7,3.7-3.5c1.1-1.4,3.1-2,4.7-2.6c1.8-0.2,3.6-1.1,5.3-0.4c1.8-0.3,3.4,0.3,5,1
	c2.1,0.5,3.5-1.2,4.9-2.5c1.5-2.2,4.1-1.5,6.1-2.4c2.3,1.4,4-1,5.9-1.8c2.1-0.9,4.4-0.1,6.1,1.2c1.7,1,3.3,2.1,5,3
	c2.7,0.5,4.5-1.9,6.6-3.1c1.8-1.8,4.3-1.4,6.4-1.9c1.8-1.4,4-1.6,6.1-2c1.9-0.4,3.8,0.2,5.4-1.1c1.9-0.9,4.1-2.1,6.2-1.4
	c2.4,1.3,4.4,3.5,7.2,4c1.9,1.3,3.9,0.2,5.8-0.5c1.4-0.4,2.9,0.5,4.4,0.7c1.6,0.3,3.1,0.9,4.8,0.8c1.6,0.6,2.8,2.1,4.5,2.8
	c1.7,1.8,3.6,0.5,5.6,0.3c1.9-0.2,3.5,1.7,5.4,0.8c2.5-0.4,4.9-0.8,7.4-1.2c0.3-1.5,3.8-1.8,1.7-3.3c-0.3-1.2-1.3-2.9,0.7-3.1
	c2.4-1.1,4.8-2.2,7.2-3.3c2-0.1,3.5,1.8,3.4,3.7c0.7,1.7,1.9,3.6,4,2.3c1.9-0.4,3.7-0.8,5.3-2.1"/>
<path id="State_Line_2" class="st5" d="M1036.2,5.5c-24.9,0.8-49.8,1.4-74.7,2.1c-10,0.2-20,0.4-30,0.7c-5.8,0.1-11.7,0.1-17.5,0.2
	c0.3,2.4-3,0.8-4.6,1.3c-7.9,0.1-15.7,0.2-23.6,0.4c-2.2-0.4-4.4-0.5-6.5,0c-4.5,0.2-8.9,0.2-13.4,0.3c-25.3,0.4-50.6,0.6-75.9,1.1
	c-13.2,0.2-26.4,0.4-39.5,0.4c-11.1,0.1-22.3,0.4-33.4,0.7c-8.9,0.1-17.8-0.2-26.6,0c-16.2,0-32.3,0-48.5,0.1c-12.3,0.1-24.7,0-37,0
	c-12.8,0-25.5-0.3-38.3-0.4c-11.9-0.2-23.9-0.2-35.8-0.4c-9.5-0.1-19.1-0.4-28.6-0.6c-14.7-1-29.3-2-44-3c-4.2-0.5-8.4-0.5-12.6-0.3
	c-2.7-0.1-5.4-0.2-8.1,0c-6.4-0.4-12.8-0.9-19.2-1c-4-0.4-8-0.7-12.1-0.9c-3.8-0.3-7.7-0.5-11.5-0.9c-6.7-0.2-13.4-0.9-20.1-0.9
	c-4.5-0.2-9-0.3-13.5-1c-2.7-0.1-5.5-0.1-8.2-0.5c-4.5-0.6-9-1.2-13.5-1.3c-1.3-0.1-2.5-0.1-3.8-0.2c-0.6,1,0.8,3.7-1.6,2.9
	c-0.4,1.2,0.6,2.6-0.9,3.6c0,1.5-2,1-1.4,2.6c1.4,1.7,0.8,3.8,1.2,5.6c-0.4,1.6,0.9,4.1-1.6,4.2c-1.3,0.6-0.7,2.3-0.9,2.9
	c0.1,1-0.9,1.4-0.4,2.5c-0.8,0.9-1.9,1.8-2.9,2.1c0.1,1.3,0,2.5,1.4,2.9c-0.2,1.3-1,2.3,0.3,3.4c0.5,1.4,0.2,3.6,2.3,3.6
	c0.8,2.5-1.9,1-3.1,0.4c-1.1,0.1-2.4,1.2-3.6,0.2c-1.2,0.2-1.8-1.8-3.3-1.3c-0.2-0.9-0.3-2.8-1.4-1.4c-1.6,1.5-4,0.9-5.5,2.4
	c-2.4,0.8-3.2,3.6-5.4,4.6c-2.4-0.1-3.1,2.5-4.2,4.2c-2.5,4.4-5.4,8.5-7.9,12.9c-1.8,3.1-3.6,6.2-5.5,9.2c-0.2,2.7-2.3,0-3.5,0.6
	c0,1.9-2.1,2.2-3.4,2.8c-1.9-0.2-3.3-0.4-5.1,0.1c-2-0.7-1.1-3.2-1.7-4.7c-0.2-1.5-1.1-2.8-2.7-1.8c-1.2-0.3-2.6,1.4-3-0.7
	c-1.5,0.4-3.2-3-4.5-0.6c-0.8,1.2-2.2,3.1-3.5,3.1c-1.1-1.1-1.7,1.6-3.1,0.4c-1-0.8-2.2-1.5-3.4-0.2c-1.1,1.3-2.8,1.8-4.4,2.1
	c-1.8-0.8-3.1,1.2-4.7,1.7c-1.3,1.1-3.1,1.5-4.1,3c-2.1,3.6-4.3,7.2-6.4,10.9c-2.2,1-3.6,2.5-5.4,4.1c-1.5,0.8-3.4,0.8-4.9,1.6
	c-1.4,0.9-2.1,2.9-3.9,1.3c-0.4-2-2.8-0.7-4.2-1.4c-1-1.6,1.9-3.5-0.5-4.5c-0.2-1.4,1-2.6,1.4-3.6c0.2-1,3-2.4,0.5-2.4
	c-0.9-1.3-2.5-1.7-2.4-3.3c-1-1.2-2.4-1.8-3.5-0.3c-2.4,0.3-4,1.8-5.7,3.1c-1.5,0.5-2.4,1.4-3.3,2.4c-2.1,0.2-3.3,2.6-5.6,2.4
	c-1.6,0.3-2.7,2.4-2.2,3.9c1.6,0.3,0.8,1.5-0.2,2c0.3,2.1-2.4,2.2-2.7,4c1.1,1.4-1.3,1.8-2.2,1.8c-0.7-1.6-2.4-4-4.2-3.9
	c-1.4-0.7-2.6-0.9-3.9,0.1c-2.3-0.2-0.1,3.8-2.6,2.7c-1.1-1-1.2,0.6-0.2,0.7c-0.3,1.7,1.1,3.2,1,5c-1,0.8-0.1,1.4,0.6,1.6
	c-0.3,2.2-4,0.6-2.9,3.1c-0.7,1.2,1.2,2.9-1,2.9c-0.9,0.7-1.4,1.9-2.6,2.3c-1.4,1.4-1.5,3.9-2.7,4.9c-1.4,0.5-2.1,2.6-3.9,2.3
	c-1.3-1-3.3-2.2-5-2.1c-1.4-0.9-2.9,0.1-4.4-0.7c-1.5,0.8-2.6,2.3-4.4,2.7c-1.6,0.9-3.8,0.5-5.6,0.7c-1.5,0.5-0.8,3-2.7,3.2
	c-0.4,1.8-2.1,2.7-3.7,2.4c-1.8,0.1-3.7-0.9-5.1,0.6c-1.5,1.3,0,4.6-2.7,5.3c-0.9,1.2-3.2,0.9-2.9,2.9c-0.8,1.9-3.1,1.5-3.9-0.1
	c-1.5-0.4-4,0-4.1,2c-0.9,1.6-2.5,1.8-4,2.3c-0.5,2-2.9,1.7-4.2,2.9c-1.5,0.8-3.3-0.9-3.9,1.3c-1,1.8-3.4,1.8-3.7,4
	c-0.7,1.6-2.8,2-4.4,1.7c-1.9-0.9-4.5-0.1-6.6-0.7c-2.5,1.9-2.7-2.9-5-2c-1.2,1.1-3.2,1.8-4.8,1.4c-1.7-0.6-3.5-0.5-5.3-0.5
	c-1.9-0.8-3.7,1.7-5.3,0.2c-1.6,1.1-4.2-0.7-5,1.4c-1.1,1.5-3.4,1.2-4.3,2.9c-1.5,1.4-3.3,1.7-5.2,1.9c-1.4-0.5-3.8-0.7-4.3,1.2
	c-1.3,1.4-2.6,2.7-3.2,4.5c-0.9,1.8-3.8,0-4.6,2.3c-0.9,0.7-2.1-1.2-2.1,0.8c-1.6,0.4-2.3,2.2-4,2.9c-0.8,1.5-2,3.6-3.8,3.7
	c-0.4,1.7,2.4,2.3,1.3,4c1.1,1.9-0.9,3.3-1.9,4.5c-1.1-0.1-2.1,0.7-1.4,1.7c-0.5,1,1.4,1.3,0.2,2.4c-0.6,1.3-0.6,2.3,0.7,2.8
	c1.5,2.2-2.2,2.6-2.5,4.5c-1.1,1.8-3.7,1.2-4.9,2.6c-0.7,1.2-2.1,1.8-3.2,1c-0.8,0.1-2.6-0.6-2.3,1.1c-1.2-0.3-3.2-1.4-4.6-0.5
	c-1.4-0.7-2.6,1.4-3.9,0c-1.5-0.9-0.8-4.6-3.6-4c-1.3,1.2-2.6,2.4-4.1,3.2c-1.2,1.4-3.8,2-4.3,3.6c-0.9,6.6-2.4,13.2-3.3,19.8
	c-0.8,4.9-1.5,9.9-2.4,14.8c23.1,1.4,46.2,2.6,69.3,3.6c5.9,0.3,11.7,0.7,17.6,1c0.1-1.8,3.1-0.3,4.4-0.7c16.2,0.6,32.5,1,48.7,1.1
	c3.4,0,6.7,0.2,10.1,0.2c5-1.2,10-2.8,15-4.1c8.6-2.4,17.2-4.6,25.7-7c2.5,0.1-1.2,3.9,1.6,3.1c1.1-0.4,2.5-0.3,2.7-1.8
	c2.1,0.7,2.1-2.8,3.8-2.1c1.2,0.3,2.1-1.5,2.8-0.4c1-0.9,1.7-2,0.4-2.7c0.3-0.7,1.1-0.8,1.2-1.7c1.8-0.9,0.7,2,2.3,1.1
	c1.7,0.7,3-3.2,4.1-0.8c1.4-0.8,2.7-2.6,4.7-1.7c1.3-1,3.1-0.2,4.1-1.8c1.8,0.5,0.3-2,2.2-1.7c1.3,0.2,0.9,1.9,2.5,1
	c1.3-1.5,2.8-0.5,4.1-1.4c1-1.6,3.2-0.9,4.6-1.4c1.1,0.7-1.4,2.4,0.8,1.8c2.8,0.3,2.4-3,3.6-4.6c1.3-0.9,2.8-1.1,3.6-2.7
	c1.8,0.6,1.5,2.9,1.5,4.3c0.7,1.5,2,0.5,2.4-0.5c1.9-0.9,3.2,0.7,4.7,1c1.4-1.4,3.5-1.3,5.2-2c2.8,0.1,5.5,0.7,8.3,0.9
	c5.6,0.6,11.2,0.8,16.8,1.4c14.4,0.9,28.8,2.1,43.2,3c12.5,0.9,25.1,1.9,37.6,2.8c14.1,1,28.3,1.9,42.4,3.2c1.2,0.4,3.8-0.1,4.2,0.8
	c-1,1-1.2,2.9,0.5,3.2c1.2,1.5,1.1,4-1.2,4c-1.6,2-1.9,5.4,0.1,7.2c0.9,2.1,2.9-1.1,4.4-1.5c3.2-2.2,6.5-4.3,9.6-6.7
	c4.1,5.5,8,11,11.8,16.7c2.2,3.2,4.4,6.3,6.7,9.5c-0.7,5.8-1.5,11.6-2.2,17.4c13.1,0.3,26.3,0.8,39.4,1.1c10,0.4,20,0.7,30,1
	c15.5,0.5,31,1.2,46.5,1.6c7.3,0,14.5,0,21.8,0.3c2.4-0.5,3.5,2.3,5.2,3.6c7.4,7.5,15,14.8,22.3,22.4c4.3,4,8.3,8.3,12.5,12.4
	c7.6,7.8,14.7,15.9,22.4,23.5c19.3,19.7,38.9,39.3,58.2,59c5.3,5.2,10.5,10.6,15.7,15.9c2.2,2.3,4.5,4.6,6.7,6.9"/>
</svg>
