<?xml version="1.0" encoding="utf-8"?>
<!-- Generator: Adobe Illustrator 19.2.1, SVG Export Plug-In . SVG Version: 6.00 Build 0)  -->
<svg version="1.1" id="Layer_1" xmlns="http://www.w3.org/2000/svg" xmlns:xlink="http://www.w3.org/1999/xlink" x="0px" y="0px"
	 viewBox="0 0 32 32" style="enable-background:new 0 0 32 32;" xml:space="preserve">
<style type="text/css">
	.st0{fill:#2372BA;}
</style>
<path class="st0" d="M32,32H0V0h32V32z M3.1,28.8h25.8V3.2H3.1 M12,13.6l-1.5,4.7H9.2l-0.8-2.8l-0.9,2.8H6.3l-1.4-4.7h1.3l0.8,3.1
	l1-3.1h1l0.9,3.1l0.9-3.1H12 M19.6,13.6l-1.5,4.7h-1.3L16,15.6l-0.9,2.8h-1.3l-1.4-4.7h1.3l0.8,3.1l1-3.1h1l0.9,3.1l0.9-3.1H19.6
	 M27.1,13.6l-1.5,4.7h-1.3l-0.8-2.8l-0.9,2.8h-1.3L20,13.6h1.3l0.8,3.1l1-3.1h1l0.9,3.1l0.9-3.1H27.1"/>
</svg>
