<?xml version="1.0" encoding="utf-8"?>
<!-- Generator: Adobe Illustrator 19.2.1, SVG Export Plug-In . SVG Version: 6.00 Build 0)  -->
<svg version="1.1" id="Layer_1" xmlns="http://www.w3.org/2000/svg" xmlns:xlink="http://www.w3.org/1999/xlink" x="0px" y="0px"
	 viewBox="0 0 32 32" style="enable-background:new 0 0 32 32;" xml:space="preserve">
<style type="text/css">
	.st0{fill:#EF401B;}
	.st1{fill:#FFFFFF;}
</style>
<rect class="st0" width="32" height="32"/>
<g>
	<g>
		<path class="st1" d="M24.5,10.4l-1.4,1.1c-0.8-1-1.7-1.8-2.8-2.3c-1.1-0.5-2.3-0.8-3.6-0.8c-1.4,0-2.7,0.3-3.9,1
			c-1.2,0.7-2.1,1.6-2.8,2.7c-0.7,1.1-1,2.4-1,3.9c0,2.2,0.7,4,2.2,5.4c1.5,1.4,3.4,2.2,5.6,2.2c2.5,0,4.6-1,6.2-2.9l1.4,1.1
			c-0.9,1.1-2,2-3.3,2.6c-1.3,0.6-2.8,0.9-4.4,0.9c-3.1,0-5.6-1-7.4-3.1c-1.5-1.7-2.3-3.9-2.3-6.3c0-2.6,0.9-4.8,2.7-6.6
			c1.8-1.8,4.1-2.7,6.9-2.7c1.7,0,3.2,0.3,4.5,1C22.5,8.3,23.6,9.2,24.5,10.4z"/>
	</g>
</g>
</svg>
