<?xml version="1.0" encoding="UTF-8" standalone="no"?>
<svg width="33px" height="32px" viewBox="0 0 33 32" version="1.1" xmlns="http://www.w3.org/2000/svg" xmlns:xlink="http://www.w3.org/1999/xlink">
    <!-- Generator: Sketch 3.8.1 (29687) - http://www.bohemiancoding.com/sketch -->
    <title>i_doctype-photo</title>
    <desc>Created with Sketch.</desc>
    <defs></defs>
    <g id="Page-1" stroke="none" stroke-width="1" fill="none" fill-rule="evenodd">
        <g id="i_doctype-photo">
            <polyline id="Shape" fill="#EA4C3A" points="32.5 32 0.5 32 0.5 0 32.5 0 32.5 32"></polyline>
            <path d="M16.3439993,7.69866609 C16.0694101,9.77137171 15.4945973,12.4000885 14.7068949,14.7576093 C13.771937,17.2862509 12.4118499,19.9262194 10.9257696,22.2175648 C9.65976019,24.1633519 8.63881698,25.4286367 7.68515572,26.2740811 C7.04235269,26.8345887 6.5329797,27.0899543 5.9871282,27.2220152 C5.8561375,27.2557748 5.80066621,27.2571822 5.79708129,27.2556505 C5.81455824,27.2631179 5.81221003,27.2603265 5.785686,27.2089362 C5.73038328,27.1017872 5.73038328,26.8764846 5.81582314,26.5400651 C5.92156705,26.1303185 6.13647459,25.7779701 6.65019321,25.2642515 C7.33049744,24.5839473 8.26064448,23.9064526 9.4583131,23.2665219 C10.6400411,22.6319988 12.2689636,22.0166661 13.9287385,21.5370064 C15.777093,21.0137337 16.6052893,20.8111025 17.378654,20.7227179 L17.4164826,20.7164149 C17.8283207,20.6258689 18.2609333,20.5498352 18.7601608,20.4765023 C18.951577,20.4483847 19.1430607,20.4219651 19.3912367,20.3889757 C19.4626989,20.3794764 19.5423789,20.3689608 19.688999,20.3496217 C19.8065021,20.3340927 19.8910553,20.322798 19.9722213,20.3117299 C20.7630045,20.2105224 21.5554858,20.2105224 22.2413132,20.3111943 C23.3394048,20.4518141 23.8467587,20.5412105 24.3474323,20.7063263 C25.2322743,20.9981359 25.6263162,21.1518012 26.0323074,21.3933403 C26.5166601,21.6852008 26.851958,22.0419007 27.0127911,22.4517656 C27.1811364,22.8753538 27.1811364,23.2817173 27.0253668,23.5982815 C26.8812387,23.8865207 26.6752034,24.0410472 26.3418553,24.1204157 C25.8001079,24.2601532 25.5372968,24.2741325 25.0973949,24.1290585 C24.5410888,23.9072449 23.9617858,23.5936488 23.3397455,23.1485191 C22.5637574,22.5033719 21.9084636,21.9160667 21.1108821,21.1241418 C20.211907,20.2251633 19.0874739,18.9046291 18.1512639,17.65412 C17.1579678,16.329725 16.3849379,15.1462804 15.91166,14.1997248 C15.4186602,13.2137251 15.1113632,12.4099088 14.9085806,11.5922371 C14.7556947,10.9757615 14.6899806,10.7025222 14.6159093,10.3627453 C14.5189629,9.91803717 14.4483707,9.52694448 14.4007692,9.1550582 C14.3955809,9.11867588 14.3955809,9.11867588 14.391661,9.08902394 C14.3459697,8.73582631 14.3473985,8.41711837 14.3797039,7.83764053 C14.3997439,7.47817216 14.4037948,7.38930683 14.4037948,7.23860016 L14.396169,7.31372575 C14.5081591,6.76777365 14.601837,6.38852962 14.6946387,6.11592463 L14.3407212,5.9954421 L14.6528119,6.20128913 C14.7766974,6.01346278 14.8653317,5.94613299 15.1102746,5.82366506 C15.1197965,5.8189057 15.1197965,5.8189057 15.1294969,5.81405704 C15.2462315,5.7538415 15.2760439,5.74772613 15.3722779,5.74772613 L15.7822556,5.74772613 L15.6969433,5.73786224 C16.0211982,5.81385949 16.1882945,5.88851954 16.2368883,5.9403529 L16.2939807,6.00125152 L16.3715543,6.03208206 C16.5630956,6.10820741 16.5610828,6.0600355 16.3439993,7.69866609 L16.3439993,7.69866609 Z M17.085249,7.79686584 C17.0972634,7.70617659 17.1930548,7.00687069 17.2126823,6.84700913 C17.2486313,6.55421188 17.2627999,6.36105331 17.2559545,6.19722204 C17.2376255,5.75854605 17.0479411,5.49628684 16.6477162,5.3372231 L16.5096353,5.68465258 L16.7823823,5.42895225 C16.6096753,5.24473146 16.3228272,5.1165653 15.8675679,5.00986389 L15.825482,5 L15.7822556,5 L15.3722779,5 C15.1643349,5 15.0185632,5.02990188 14.7908306,5.14744131 C14.7855736,5.15003397 14.7855736,5.15003397 14.775889,5.15487464 C14.4240522,5.33078795 14.2380583,5.47207554 14.0286306,5.78959506 L14.0022464,5.82959677 L13.9868038,5.87495957 C13.8815412,6.18416834 13.7814982,6.58918127 13.6636944,7.16347457 L13.6560686,7.23860016 C13.6560686,7.36929393 13.6522212,7.45369789 13.633137,7.79602008 C13.5983888,8.41931534 13.5968038,8.77286123 13.6501141,9.184954 C13.6548586,9.22084457 13.6548586,9.22084457 13.6600325,9.25682253 C13.7097363,9.64563363 13.7840768,10.0574926 13.8853414,10.5220091 C13.9614298,10.8710387 14.0282422,11.1488447 14.1828395,11.7722209 C14.399647,12.6464448 14.7264289,13.501229 15.2428735,14.5341181 C15.7396256,15.5276224 16.5351875,16.7455614 17.5528911,18.1024995 C18.5091239,19.3797537 19.6563201,20.7270208 20.5831023,21.6538031 C21.3987027,22.4636224 22.0702041,23.0654537 22.8834395,23.7402661 C23.576673,24.2375168 24.2094166,24.580042 24.8422218,24.8315415 C25.4653353,25.0377386 25.8608515,25.0167005 26.5218698,24.8461152 C27.0568583,24.718805 27.4476127,24.4257392 27.6952115,23.9305415 C27.9504776,23.411792 27.9504776,22.7865989 27.7082477,22.177117 C27.4820666,21.6007104 27.0338015,21.1238326 26.4164152,20.7518178 C25.9457603,20.471801 25.5186653,20.3052459 24.5816165,19.9962192 C24.0202166,19.8110767 23.4819481,19.716233 22.3430775,19.5704576 C21.5942005,19.4604664 20.7335461,19.4604664 19.8742402,19.5704576 C19.7912529,19.5817613 19.707601,19.5929356 19.5910324,19.6083411 C19.4446858,19.6276441 19.36458,19.6382159 19.2927101,19.6477694 C19.041439,19.6811702 18.8468535,19.7080177 18.6514914,19.736715 C18.1361776,19.8124108 17.6869775,19.8913599 17.2559237,19.9861306 L17.2937523,19.9798276 C16.4650079,20.0745412 15.6150216,20.2825037 13.7231029,20.8181154 C12.0149187,21.3117592 10.3396231,21.9446096 9.10526465,22.6073932 C7.84515623,23.2806856 6.85540859,24.0015917 6.121471,24.7355293 C5.51791033,25.33909 5.23297357,25.8062537 5.09146043,26.3546171 C4.96494246,26.8527704 4.96494246,27.2490468 5.12124112,27.5518755 C5.32837776,27.9532027 5.63624253,28.084745 6.16846275,27.9473978 C6.82263422,27.7891748 7.44067569,27.47933 8.17887856,26.8356171 C9.19225411,25.9372513 10.2529675,24.6226782 11.5528099,22.6248909 C13.0678924,20.2888284 14.4530914,17.6001171 15.4121581,15.0057187 C16.2199021,12.5888054 16.8047448,9.91421993 17.085249,7.79686584 L17.085249,7.79686584 Z" id="Shape" fill="#FFFFFF"></path>
        </g>
    </g>
</svg>