<?xml version="1.0" encoding="utf-8"?>
<!-- Generator: Adobe Illustrator 19.1.0, SVG Export Plug-In . SVG Version: 6.00 Build 0)  -->
<!DOCTYPE svg PUBLIC "-//W3C//DTD SVG 1.1//EN" "http://www.w3.org/Graphics/SVG/1.1/DTD/svg11.dtd">
<svg version="1.1" id="_x2014_ÎÓÈ_x5F_1" xmlns="http://www.w3.org/2000/svg" xmlns:xlink="http://www.w3.org/1999/xlink"
	 x="0px" y="0px" viewBox="0 0 894.7 894.7" style="enable-background:new 0 0 894.7 894.7;" xml:space="preserve">
<style type="text/css">
	.st0{fill:#092940;}
	.st1{fill:#A83338;}
	.st2{fill:none;stroke:#6F7785;stroke-width:4;stroke-miterlimit:10;}
	.st3{fill:#C05411;}
	.st4{fill:#662E6B;}
	.st5{fill:#3C807D;}
	.st6{fill:#00376D;}
	.st7{fill:#397AAC;}
	.st8{fill:#588023;}
	.st9{fill:#3F7D97;}
</style>
<g>
	<g>
		<g>
			<path class="st0" d="M466.3,146.8c0,5.7-4.6,10.4-10.4,10.4h-18.2c-5.7,0-10.4-4.6-10.4-10.4v-17.6c0-5.7,4.6-10.4,10.4-10.4H456
				c5.7,0,10.4,4.6,10.4,10.4V146.8z"/>
			<g>
				<path class="st0" d="M466.3,194.5c0,5.7-4.6,10.4-10.4,10.4h-18.2c-5.7,0-10.4-4.6-10.4-10.4v-17.6c0-5.7,4.6-10.4,10.4-10.4
					H456c5.7,0,10.4,4.6,10.4,10.4V194.5z"/>
			</g>
			<path class="st0" d="M466.3,718.7c0,5.7-4.6,10.4-10.4,10.4h-18.2c-5.7,0-10.4-4.6-10.4-10.4v-17.6c0-5.7,4.6-10.4,10.4-10.4H456
				c5.7,0,10.4,4.6,10.4,10.4V718.7z"/>
			<g>
				<path class="st0" d="M466.3,766.4c0,5.7-4.6,10.4-10.4,10.4h-18.2c-5.7,0-10.4-4.6-10.4-10.4v-17.6c0-5.7,4.6-10.4,10.4-10.4
					H456c5.7,0,10.4,4.6,10.4,10.4V766.4z"/>
			</g>
		</g>
		<g>
			<path class="st0" d="M145.8,428.3c5.7,0,10.4,4.6,10.4,10.4V457c0,5.7-4.6,10.4-10.4,10.4h-17.6c-5.7,0-10.4-4.6-10.4-10.4v-18.2
				c0-5.7,4.6-10.4,10.4-10.4H145.8z"/>
			<g>
				<path class="st0" d="M193.5,428.3c5.7,0,10.4,4.6,10.4,10.4V457c0,5.7-4.6,10.4-10.4,10.4h-17.6c-5.7,0-10.4-4.6-10.4-10.4
					v-18.2c0-5.7,4.6-10.4,10.4-10.4H193.5z"/>
			</g>
			<path class="st0" d="M717.7,428.3c5.7,0,10.4,4.6,10.4,10.4V457c0,5.7-4.6,10.4-10.4,10.4h-17.6c-5.7,0-10.4-4.6-10.4-10.4v-18.2
				c0-5.7,4.6-10.4,10.4-10.4H717.7z"/>
			<g>
				<path class="st0" d="M765.4,428.3c5.7,0,10.4,4.6,10.4,10.4V457c0,5.7-4.6,10.4-10.4,10.4h-17.6c-5.7,0-10.4-4.6-10.4-10.4
					v-18.2c0-5.7,4.6-10.4,10.4-10.4H765.4z"/>
			</g>
		</g>
	</g>
	<g>
		<g>
			<path class="st0" d="M247.8,221.2c4.1,4.1,4.1,10.6,0,14.7l-12.9,12.9c-4.1,4.1-10.6,4.1-14.7,0l-12.4-12.4
				c-4.1-4.1-4.1-10.6,0-14.7l12.9-12.9c4.1-4.1,10.6-4.1,14.7,0L247.8,221.2z"/>
			<g>
				<path class="st0" d="M281.5,254.9c4.1,4.1,4.1,10.6,0,14.7l-12.9,12.9c-4.1,4.1-10.6,4.1-14.7,0l-12.4-12.4
					c-4.1-4.1-4.1-10.6,0-14.7l12.9-12.9c4.1-4.1,10.6-4.1,14.7,0L281.5,254.9z"/>
			</g>
			<path class="st0" d="M652.2,625.6c4.1,4.1,4.1,10.6,0,14.7l-12.9,12.9c-4.1,4.1-10.6,4.1-14.7,0l-12.4-12.4
				c-4.1-4.1-4.1-10.6,0-14.7l12.9-12.9c4.1-4.1,10.6-4.1,14.7,0L652.2,625.6z"/>
			<g>
				<path class="st0" d="M685.9,659.3c4.1,4.1,4.1,10.6,0,14.7L673,686.9c-4.1,4.1-10.6,4.1-14.7,0l-12.4-12.4
					c-4.1-4.1-4.1-10.6,0-14.7l12.9-12.9c4.1-4.1,10.6-4.1,14.7,0L685.9,659.3z"/>
			</g>
		</g>
		<g>
			<path class="st0" d="M220.2,646.9c4.1-4.1,10.6-4.1,14.7,0l12.9,12.9c4.1,4.1,4.1,10.6,0,14.7l-12.4,12.4c-4.1,4.1-10.6,4-14.7,0
				L207.8,674c-4.1-4.1-4.1-10.6,0-14.7L220.2,646.9z"/>
			<g>
				<path class="st0" d="M253.9,613.1c4.1-4.1,10.6-4.1,14.7,0l12.9,12.9c4.1,4.1,4.1,10.6,0,14.7l-12.4,12.4
					c-4.1,4.1-10.6,4.1-14.7,0l-12.9-12.9c-4.1-4.1-4.1-10.6,0-14.7L253.9,613.1z"/>
			</g>
			<path class="st0" d="M624.6,242.5c4.1-4.1,10.6-4.1,14.7,0l12.9,12.9c4.1,4.1,4.1,10.6,0,14.7l-12.4,12.4c-4.1,4.1-10.6,4-14.7,0
				l-12.9-12.9c-4.1-4.1-4.1-10.6,0-14.7L624.6,242.5z"/>
			<g>
				<path class="st0" d="M658.3,208.8c4.1-4.1,10.6-4.1,14.7,0l12.9,12.9c4.1,4.1,4.1,10.6,0,14.7l-12.4,12.4
					c-4.1,4.1-10.6,4-14.7,0l-12.9-12.9c-4.1-4.1-4.1-10.6,0-14.7L658.3,208.8z"/>
			</g>
		</g>
	</g>
</g>
<g>
	<g>
		<g>
			<path class="st1" d="M349.7,162.3c2.2,5.3-0.3,11.4-5.6,13.6l-16.9,7c-5.3,2.2-11.4-0.3-13.6-5.6l-6.7-16.3
				c-2.2-5.3,0.3-11.4,5.6-13.6l16.9-7c5.3-2.2,11.4,0.3,13.6,5.6L349.7,162.3z"/>
			<g>
				<path class="st1" d="M367.9,206.4c2.2,5.3-0.3,11.4-5.6,13.6l-16.9,7c-5.3,2.2-11.4-0.3-13.6-5.6l-6.7-16.3
					c-2.2-5.3,0.3-11.4,5.6-13.6l16.9-7c5.3-2.2,11.4,0.3,13.6,5.6L367.9,206.4z"/>
			</g>
			<path class="st1" d="M568.5,690.6c2.2,5.3-0.3,11.4-5.6,13.6l-16.9,7c-5.3,2.2-11.4-0.3-13.6-5.6l-6.7-16.3
				c-2.2-5.3,0.3-11.4,5.6-13.6l16.9-7c5.3-2.2,11.4,0.3,13.6,5.6L568.5,690.6z"/>
			<g>
				<path class="st1" d="M586.8,734.7c2.2,5.3-0.3,11.4-5.6,13.6l-16.9,7c-5.3,2.2-11.4-0.3-13.6-5.6l-6.7-16.3
					c-2.2-5.3,0.3-11.4,5.6-13.6l16.9-7c5.3-2.2,11.4,0.3,13.6,5.6L586.8,734.7z"/>
			</g>
		</g>
		<g>
			<path class="st1" d="M161.3,545c5.3-2.2,11.4,0.3,13.6,5.6l7,16.9c2.2,5.3-0.3,11.4-5.6,13.6l-16.3,6.7
				c-5.3,2.2-11.4-0.3-13.6-5.6l-7-16.9c-2.2-5.3,0.3-11.4,5.6-13.6L161.3,545z"/>
			<g>
				<path class="st1" d="M205.4,526.7c5.3-2.2,11.4,0.3,13.6,5.6l7,16.9c2.2,5.3-0.3,11.4-5.6,13.6l-16.3,6.7
					c-5.3,2.2-11.4-0.3-13.6-5.6l-7-16.9c-2.2-5.3,0.3-11.4,5.6-13.6L205.4,526.7z"/>
			</g>
			<path class="st1" d="M689.6,326.1c5.3-2.2,11.4,0.3,13.6,5.6l7,16.9c2.2,5.3-0.3,11.4-5.6,13.6l-16.3,6.7
				c-5.3,2.2-11.4-0.3-13.6-5.6l-7-16.9c-2.2-5.3,0.3-11.4,5.6-13.6L689.6,326.1z"/>
			<g>
				<path class="st1" d="M733.7,307.9c5.3-2.2,11.4,0.3,13.6,5.6l7,16.9c2.2,5.3-0.3,11.4-5.6,13.6l-16.3,6.7
					c-5.3,2.2-11.4-0.3-13.6-5.6l-7-16.9c-2.2-5.3,0.3-11.4,5.6-13.6L733.7,307.9z"/>
			</g>
		</g>
	</g>
	<g>
		<g>
			<path class="st1" d="M176.2,314.6c5.3,2.2,7.8,8.3,5.6,13.6l-7,16.9c-2.2,5.3-8.3,7.8-13.6,5.6l-16.3-6.7
				c-5.3-2.2-7.8-8.3-5.6-13.6l7-16.9c2.2-5.3,8.3-7.8,13.6-5.6L176.2,314.6z"/>
			<g>
				<path class="st1" d="M220.3,332.9c5.3,2.2,7.8,8.3,5.6,13.6l-7,16.9c-2.2,5.3-8.3,7.8-13.6,5.6l-16.3-6.7
					c-5.3-2.2-7.8-8.3-5.6-13.6l7-16.9c2.2-5.3,8.3-7.8,13.6-5.6L220.3,332.9z"/>
			</g>
			<path class="st1" d="M704.6,533.5c5.3,2.2,7.8,8.3,5.6,13.6l-7,16.9c-2.2,5.3-8.3,7.8-13.6,5.6l-16.3-6.7
				c-5.3-2.2-7.8-8.3-5.6-13.6l7-16.9c2.2-5.3,8.3-7.8,13.6-5.6L704.6,533.5z"/>
			<g>
				<path class="st1" d="M748.6,551.7c5.3,2.2,7.8,8.3,5.6,13.6l-7,16.9c-2.2,5.3-8.3,7.8-13.6,5.6l-16.3-6.7
					c-5.3-2.2-7.8-8.3-5.6-13.6l7-16.9c2.2-5.3,8.3-7.8,13.6-5.6L748.6,551.7z"/>
			</g>
		</g>
		<g>
			<path class="st1" d="M313.6,718.4c2.2-5.3,8.3-7.8,13.6-5.6l16.9,7c5.3,2.2,7.8,8.3,5.6,13.6l-6.7,16.3
				c-2.2,5.3-8.3,7.8-13.6,5.6l-16.9-7c-5.3-2.2-7.8-8.3-5.6-13.6L313.6,718.4z"/>
			<g>
				<path class="st1" d="M331.9,674.4c2.2-5.3,8.3-7.8,13.6-5.6l16.9,7c5.3,2.2,7.8,8.3,5.6,13.6l-6.7,16.3
					c-2.2,5.3-8.3,7.8-13.6,5.6l-16.9-7c-5.3-2.2-7.8-8.3-5.6-13.6L331.9,674.4z"/>
			</g>
			<path class="st1" d="M532.5,190.1c2.2-5.3,8.3-7.8,13.6-5.6l16.9,7c5.3,2.2,7.8,8.3,5.6,13.6l-6.7,16.3
				c-2.2,5.3-8.3,7.8-13.6,5.6l-16.9-7c-5.3-2.2-7.8-8.3-5.6-13.6L532.5,190.1z"/>
			<g>
				<path class="st1" d="M550.7,146c2.2-5.3,8.3-7.8,13.6-5.6l16.9,7c5.3,2.2,7.8,8.3,5.6,13.6l-6.7,16.3c-2.2,5.3-8.3,7.8-13.6,5.6
					l-16.9-7c-5.3-2.2-7.8-8.3-5.6-13.6L550.7,146z"/>
			</g>
		</g>
	</g>
</g>
<g>
	<g>
		<g>
			<path class="st2" d="M402.1,110.2c1.3,6.3-2.9,12.5-9.2,13.8l-20.2,4c-6.3,1.3-12.5-2.9-13.8-9.2L355,99.3
				c-1.3-6.3,2.9-12.5,9.2-13.8l20.2-4c6.3-1.3,12.5,2.9,13.8,9.2L402.1,110.2z"/>
			<g>
				<path class="st2" d="M412.6,163c1.3,6.3-2.9,12.5-9.2,13.8l-20.2,4c-6.3,1.3-12.5-2.9-13.8-9.2l-3.9-19.5
					c-1.3-6.3,2.9-12.5,9.2-13.8l20.2-4c6.3-1.3,12.5,2.9,13.8,9.2L412.6,163z"/>
			</g>
			<path class="st2" d="M528.1,743.6c1.3,6.3-2.9,12.5-9.2,13.8l-20.2,4c-6.3,1.3-12.5-2.9-13.8-9.2l-3.9-19.5
				c-1.3-6.3,2.9-12.5,9.2-13.8l20.2-4c6.3-1.3,12.5,2.9,13.8,9.2L528.1,743.6z"/>
			<g>
				<path class="st2" d="M538.6,796.4c1.3,6.3-2.9,12.5-9.2,13.8l-20.2,4c-6.3,1.3-12.5-2.9-13.8-9.2l-3.9-19.5
					c-1.3-6.3,2.9-12.5,9.2-13.8l20.2-4c6.3-1.3,12.5,2.9,13.8,9.2L538.6,796.4z"/>
			</g>
		</g>
		<g>
			<path class="st2" d="M109.2,492.5c6.3-1.3,12.5,2.9,13.8,9.2l4,20.2c1.3,6.3-2.9,12.5-9.2,13.8l-19.5,3.9
				c-6.3,1.3-12.5-2.9-13.8-9.2l-4-20.2c-1.3-6.3,2.9-12.5,9.2-13.8L109.2,492.5z"/>
			<g>
				<path class="st2" d="M162,482c6.3-1.3,12.5,2.9,13.8,9.2l4,20.2c1.3,6.3-2.9,12.5-9.2,13.8l-19.5,3.9
					c-6.3,1.3-12.5-2.9-13.8-9.2l-4-20.2c-1.3-6.3,2.9-12.5,9.2-13.8L162,482z"/>
			</g>
			<path class="st2" d="M742.6,366.6c6.3-1.3,12.5,2.9,13.8,9.2l4,20.2c1.3,6.3-2.9,12.5-9.2,13.8l-19.5,3.9
				c-6.3,1.3-12.5-2.9-13.8-9.2l-4-20.2c-1.3-6.3,2.9-12.5,9.2-13.8L742.6,366.6z"/>
			<g>
				<path class="st2" d="M795.4,356c6.3-1.3,12.5,2.9,13.8,9.2l4,20.2c1.3,6.3-2.9,12.5-9.2,13.8l-19.5,3.9
					c-6.3,1.3-12.5-2.9-13.8-9.2l-4-20.2c-1.3-6.3,2.9-12.5,9.2-13.8L795.4,356z"/>
			</g>
		</g>
	</g>
	<g>
		<g>
			<path class="st2" d="M176.5,240.7c5.4,3.6,6.8,10.9,3.2,16.3l-11.4,17.1c-3.6,5.4-10.9,6.8-16.3,3.2l-16.5-11
				c-5.4-3.6-6.8-10.9-3.2-16.3l11.4-17.1c3.6-5.4,10.9-6.8,16.3-3.2L176.5,240.7z"/>
			<g>
				<path class="st2" d="M221.2,270.6c5.4,3.6,6.8,10.9,3.2,16.3L213,304c-3.6,5.4-10.9,6.8-16.3,3.2l-16.5-11
					c-5.4-3.6-6.8-10.9-3.2-16.3l11.4-17.1c3.6-5.4,10.9-6.8,16.3-3.2L221.2,270.6z"/>
			</g>
			<path class="st2" d="M713.4,599.5c5.4,3.6,6.8,10.9,3.2,16.3l-11.4,17.1c-3.6,5.4-10.9,6.8-16.3,3.2l-16.5-11
				c-5.4-3.6-6.8-10.9-3.2-16.3l11.4-17.1c3.6-5.4,10.9-6.8,16.3-3.2L713.4,599.5z"/>
			<g>
				<path class="st3" d="M830.2,676.4c5.4,3.6,6.8,10.9,3.2,16.3L822,709.8c-3.6,5.4-10.9,6.8-16.3,3.2l-16.5-11
					c-5.4-3.6-6.8-10.9-3.2-16.3l11.4-17.1c3.6-5.4,10.9-6.8,16.3-3.2L830.2,676.4z"/>
			</g>
		</g>
		<g>
			<path class="st4" d="M179.7,816.2c3.6-5.4,10.9-6.8,16.3-3.2l17.1,11.4c5.4,3.6,6.8,10.9,3.2,16.3l-11,16.5
				c-3.6,5.4-10.9,6.8-16.3,3.2L171.9,849c-5.4-3.6-6.8-10.9-3.2-16.3L179.7,816.2z"/>
			<g>
				<path class="st2" d="M269.6,673.4c3.6-5.4,10.9-6.8,16.3-3.2l17.1,11.4c5.4,3.6,6.8,10.9,3.2,16.3l-11,16.5
					c-3.6,5.4-10.9,6.8-16.3,3.2l-17.1-11.4c-5.4-3.6-6.8-10.9-3.2-16.3L269.6,673.4z"/>
			</g>
			<path class="st2" d="M598.5,181.2c3.6-5.4,10.9-6.8,16.3-3.2l17.1,11.4c5.4,3.6,6.8,10.9,3.2,16.3l-11,16.5
				c-3.6,5.4-10.9,6.8-16.3,3.2L590.7,214c-5.4-3.6-6.8-10.9-3.2-16.3L598.5,181.2z"/>
			<g>
				<path class="st2" d="M628.4,136.5c3.6-5.4,10.9-6.8,16.3-3.2l17.1,11.4c5.4,3.6,6.8,10.9,3.2,16.3l-11,16.5
					c-3.6,5.4-10.9,6.8-16.3,3.2l-17.1-11.4c-5.4-3.6-6.8-10.9-3.2-16.3L628.4,136.5z"/>
			</g>
		</g>
	</g>
</g>
<g>
	<g>
		<g>
			<path class="st2" d="M262.5,129.1c3.9,5.8,2.3,13.7-3.5,17.6L240.5,159c-5.8,3.9-13.7,2.3-17.6-3.5L211,137.7
				c-3.9-5.8-2.3-13.7,3.5-17.6l18.5-12.4c5.8-3.9,13.7-2.3,17.6,3.5L262.5,129.1z"/>
			<g>
				<path class="st2" d="M294.8,177.5c3.9,5.8,2.3,13.7-3.5,17.6l-18.5,12.4c-5.8,3.9-13.7,2.3-17.6-3.5l-11.9-17.9
					c-3.9-5.8-2.3-13.7,3.5-17.6l18.5-12.4c5.8-3.9,13.7-2.3,17.6,3.5L294.8,177.5z"/>
			</g>
			<path class="st2" d="M650.3,709.6c3.9,5.8,2.3,13.7-3.5,17.6l-18.5,12.4c-5.8,3.9-13.7,2.3-17.6-3.5l-11.9-17.9
				c-3.9-5.8-2.3-13.7,3.5-17.6l18.5-12.4c5.8-3.9,13.7-2.3,17.6,3.5L650.3,709.6z"/>
			<g>
				<path class="st2" d="M682.7,758c3.9,5.8,2.3,13.7-3.5,17.6l-18.5,12.4c-5.8,3.9-13.7,2.3-17.6-3.5l-11.9-17.9
					c-3.9-5.8-2.3-13.7,3.5-17.6l18.5-12.4c5.8-3.9,13.7-2.3,17.6,3.5L682.7,758z"/>
			</g>
		</g>
		<g>
			<path class="st5" d="M105.1,634.2c5.8-3.9,13.7-2.3,17.6,3.5l12.4,18.5c3.9,5.8,2.3,13.7-3.5,17.6l-17.9,11.9
				c-5.8,3.9-13.7,2.3-17.6-3.5l-12.4-18.5c-3.9-5.8-2.3-13.7,3.5-17.6L105.1,634.2z"/>
			<g>
				<path class="st2" d="M176.5,599.8c5.8-3.9,13.7-2.3,17.6,3.5l12.4,18.5c3.9,5.8,2.3,13.7-3.5,17.6l-17.9,11.9
					c-5.8,3.9-13.7,2.3-17.6-3.5l-12.4-18.5c-3.9-5.8-2.3-13.7,3.5-17.6L176.5,599.8z"/>
			</g>
			<path class="st2" d="M708.6,244.3c5.8-3.9,13.7-2.3,17.6,3.5l12.4,18.5c3.9,5.8,2.3,13.7-3.5,17.6l-17.9,11.9
				c-5.8,3.9-13.7,2.3-17.6-3.5l-12.4-18.5c-3.9-5.8-2.3-13.7,3.5-17.6L708.6,244.3z"/>
			<g>
				<path class="st6" d="M827,192c5.8-3.9,13.7-2.3,17.6,3.5l12.4,18.5c3.9,5.8,2.3,13.7-3.5,17.6l-17.9,11.9
					c-5.8,3.9-13.7,2.3-17.6-3.5l-12.4-18.5c-3.9-5.8-2.3-13.7,3.5-17.6L827,192z"/>
			</g>
		</g>
	</g>
	<g>
		<g>
			<path class="st7" d="M65.1,333.8c6.9,1.4,11.3,8,10,14.9l-4.3,21.8c-1.4,6.9-8,11.3-14.9,10l-21.1-4.2c-6.9-1.4-11.3-8-10-14.9
				l4.3-21.8c1.4-6.9,8-11.3,14.9-10L65.1,333.8z"/>
			<g>
				<path class="st2" d="M136.2,361.2c6.9,1.4,11.3,8,10,14.9l-4.3,21.8c-1.4,6.9-8,11.3-14.9,10l-21.1-4.2c-6.9-1.4-11.3-8-10-14.9
					l4.3-21.8c1.4-6.9,8-11.3,14.9-10L136.2,361.2z"/>
			</g>
			<path class="st2" d="M775.8,489c6.9,1.4,11.3,8,10,14.9l-4.3,21.8c-1.4,6.9-8,11.3-14.9,10l-21.1-4.2c-6.9-1.4-11.3-8-10-14.9
				l4.3-21.8c1.4-6.9,8-11.3,14.9-10L775.8,489z"/>
			<g>
				<path class="st8" d="M832.9,500.4c6.9,1.4,11.3,8,10,14.9l-4.3,21.8c-1.4,6.9-8,11.3-14.9,10l-21.1-4.2
					c-6.9-1.4-11.3-8-9.9-14.9l4.3-21.8c1.4-6.9,8-11.3,14.9-10L832.9,500.4z"/>
			</g>
		</g>
		<g>
			<path class="st2" d="M351.8,803.6c1.4-6.9,8-11.3,14.9-10l21.8,4.3c6.9,1.4,11.3,8,10,14.9l-4.2,21.1c-1.4,6.9-8,11.3-14.9,10
				l-21.8-4.3c-6.9-1.4-11.3-8-10-14.9L351.8,803.6z"/>
			<g>
				<path class="st2" d="M363.2,746.5c1.4-6.9,8-11.3,14.9-10l21.8,4.3c6.9,1.4,11.3,8,10,14.9l-4.2,21.1c-1.4,6.9-8,11.3-14.9,10
					l-21.8-4.3c-6.9-1.4-11.3-8-10-14.9L363.2,746.5z"/>
			</g>
			<path class="st2" d="M488,118.8c1.4-6.9,8-11.3,14.9-10l21.8,4.3c6.9,1.4,11.3,8,10,14.9l-4.2,21.1c-1.4,6.9-8,11.3-14.9,10
				l-21.8-4.3c-6.9-1.4-11.3-8-10-14.9L488,118.8z"/>
			<g>
				<path class="st9" d="M507.4,33.7c1.4-6.9,8-11.3,14.9-10l21.8,4.3c6.9,1.4,11.3,8,10,14.9l-4.2,21.1c-1.4,6.9-8,11.3-14.9,10
					l-21.8-4.3c-6.9-1.4-11.3-8-10-14.9L507.4,33.7z"/>
			</g>
		</g>
	</g>
</g>
<g>
	<path class="st0" d="M379.5,489.8h-13.4v21.8h-26.4v-21.8h-63.6v-24.6l53.7-82.4h36.3v82.9h13.4V489.8z M339.7,412.4l-34.8,53.3
		h34.8V412.4z"/>
	<path class="st0" d="M447.2,514.7c-40.8,0-53.7-34-53.7-68.8c0-33.5,14.7-65.7,52.3-65.7c40.6,0,55.8,30,55.8,66.7
		C501.7,482,486.7,514.7,447.2,514.7z M446,404.6c-21.5,0-25.3,26.9-25.3,43.2c0,19,2.6,42.1,26.7,42.1c23.1,0,26.9-23.8,26.9-41.9
		C474.4,427.6,472,404.6,446,404.6z"/>
	<path class="st0" d="M618.2,489.8h-13.4v21.8h-26.4v-21.8h-63.6v-24.6l53.7-82.4h36.3v82.9h13.4V489.8z M578.4,412.4l-34.8,53.3
		h34.8V412.4z"/>
</g>
</svg>
