<?xml version="1.0" encoding="utf-8"?>
<!-- Generator: Adobe Illustrator 21.1.0, SVG Export Plug-In . SVG Version: 6.00 Build 0)  -->
<svg version="1.1" id="Layer_1" xmlns="http://www.w3.org/2000/svg" xmlns:xlink="http://www.w3.org/1999/xlink" x="0px" y="0px"
	 viewBox="0 0 65.5 87" style="enable-background:new 0 0 65.5 87;" xml:space="preserve">
<style type="text/css">
	.st0{fill:#3F7D97;}
	.st1{display:none;}
	.st2{display:inline;}
	.st3{fill:#FFFFFF;}
	.st4{display:none;fill:#FFFFFF;}
</style>
<title>Slice 1</title>
<desc>Created with Sketch.</desc>
<g id="Page-1_1_">
	<g id="passengerAirport" transform="translate(1.000000, 1.000000)">
		<g id="Page-1">
			<g id="pin">
				<path id="Shape_1_" class="st0" d="M31.7-1C13.7-1-1,13.4-1,31.5C-1,49.4,7.6,63,31.2,86h1.1c23.6-23,32.2-36.5,32.2-54.5
					C64.5,13.4,49.7-1,31.7-1L31.7-1z"/>
			</g>
		</g>
	</g>
	<g id="Group" transform="translate(15.000000, 21.000000)" class="st1">
		<g id="scenic-tiny" class="st2">
			<path id="Shape_2_" class="st3" d="M16.7,8.2c-1.8,0-2.9,1.2-2.9,2.9S15,14,16.7,14s2.9-1.2,2.9-2.9S18.5,8.2,16.7,8.2"/>
			<path id="Shape_3_" class="st3" d="M16.7-0.5c-7.9,0-14.9,5-17.5,11.7c2.6,6.7,9.6,11.7,17.5,11.7s14.9-5,17.5-11.7
				C31.6,4.4,24.9-0.5,16.7-0.5z M16.7,18.5c-3.8,0-7.3-3.2-7.3-7.3s3.2-7.3,7.3-7.3S24,7.1,24,11.2S20.8,18.5,16.7,18.5z"/>
		</g>
	</g>
</g>
<path class="st4" d="M36,17.8l-8,10.7l6.1,8.1l-3.4,2.6c-3.6-4.8-9.6-12.8-9.6-12.8L8.2,43.5h47.1L36,17.8z"/>
</svg>
