<?xml version="1.0" encoding="utf-8"?>
<!-- Generator: Adobe Illustrator 21.1.0, SVG Export Plug-In . SVG Version: 6.00 Build 0)  -->
<svg version="1.1" id="Layer_1" xmlns="http://www.w3.org/2000/svg" xmlns:xlink="http://www.w3.org/1999/xlink" x="0px" y="0px"
	 viewBox="0 0 1139.9 285" style="enable-background:new 0 0 1139.9 285;" xml:space="preserve">
<style type="text/css">
	.st0{opacity:0.25;enable-background:new    ;}
	.st1{opacity:0.25;fill:#FFFFFF;enable-background:new    ;}
	.st2{opacity:0.25;clip-path:url(#SVGID_4_);fill:#FFFFFF;enable-background:new    ;}
	.st3{opacity:0.25;clip-path:url(#SVGID_6_);fill:#FFFFFF;enable-background:new    ;}
</style>
<g class="st0">
	<g>
		<path id="SVGID_1_" class="st1" d="M280.6,80.9h34.2v62.4c0,0-14.7,21.8-14.2,39.3c0.6,18.5,14.2,32.4,14.2,32.4v33.5h-21
			L280.6,215V80.9z M223.2,178.9l-21.5-54l-21.7,54H223.2z M185.4,80.9h32.8l69.2,167.7h-37.2l-14.7-37.3h-68.4l-14.8,37.3L130,215
			L185.4,80.9z M72.4,161.9c17.3,0,27.2-9.5,27.2-23.6v-0.5c0-15.7-10.6-23.8-27.9-23.8H36.4v47.8h36V161.9z M0,80.9h73.8
			c20.5,0,36.5,6,47.1,16.9c9,9.3,13.8,22.4,13.8,38.1v0.5c0,26.9-14.1,43.8-34.6,51.6l40.2,60.6H99.1l-35.7-54.4H35.5v54.4H0V80.9z
			 M388.7,248.6c0,0-70.6-14.4-80.1-60.1C297.1,132.7,439.6,33,439.6,33s5,9.9,8,20.6c3.9,13.5,4,25.5,4,25.5s-88.8,39.1-101.1,80
			C338.5,199.4,388.7,248.6,388.7,248.6z M420.3,214.8c-3.8-15.5-5.7-32.6-4.2-50.5c2.1-25.4,8.2-46.8,22.9-63.4
			c12.9-14.5,17-15.9,17.7-16.2C521.3,55.6,592,36.4,592,36.4s-134.6,78.3-157.2,141.5c-12.6,35.3,5.4,82.3,11.4,98l0,0
			c-10.4-7.4-93.5-68.6-86.4-112c6-36.5,82.7-72.5,82.7-72.5s-30.6,17-30.7,72.9C411.8,181.1,415.4,198.6,420.3,214.8L420.3,214.8z"
			/>
	</g>
	<g>
		<defs>
			<path id="SVGID_2_" d="M280.6,80.9h34.2v62.4c0,0-14.7,21.8-14.2,39.3c0.6,18.5,14.2,32.4,14.2,32.4v33.5h-21L280.6,215V80.9z
				 M223.2,178.9l-21.5-54l-21.7,54H223.2z M185.4,80.9h32.8l69.2,167.7h-37.2l-14.7-37.3h-68.4l-14.8,37.3L130,215L185.4,80.9z
				 M72.4,161.9c17.3,0,27.2-9.5,27.2-23.6v-0.5c0-15.7-10.6-23.8-27.9-23.8H36.4v47.8h36V161.9z M0,80.9h73.8
				c20.5,0,36.5,6,47.1,16.9c9,9.3,13.8,22.4,13.8,38.1v0.5c0,26.9-14.1,43.8-34.6,51.6l40.2,60.6H99.1l-35.7-54.4H35.5v54.4H0V80.9
				z M388.7,248.6c0,0-70.6-14.4-80.1-60.1C297.1,132.7,439.6,33,439.6,33s5,9.9,8,20.6c3.9,13.5,4,25.5,4,25.5s-88.8,39.1-101.1,80
				C338.5,199.4,388.7,248.6,388.7,248.6z M420.3,214.8c-3.8-15.5-5.7-32.6-4.2-50.5c2.1-25.4,8.2-46.8,22.9-63.4
				c12.9-14.5,17-15.9,17.7-16.2C521.3,55.6,592,36.4,592,36.4s-134.6,78.3-157.2,141.5c-12.6,35.3,5.4,82.3,11.4,98l0,0
				c-10.4-7.4-93.5-68.6-86.4-112c6-36.5,82.7-72.5,82.7-72.5s-30.6,17-30.7,72.9C411.8,181.1,415.4,198.6,420.3,214.8L420.3,214.8z
				"/>
		</defs>
		<use xlink:href="#SVGID_2_"  style="overflow:visible;fill:#FFFFFF;"/>
		<clipPath id="SVGID_4_">
			<use xlink:href="#SVGID_2_"  style="overflow:visible;"/>
		</clipPath>
		<rect x="-5" y="28" class="st2" width="602" height="253"/>
	</g>
</g>
<g class="st0">
	<g>
		<path id="SVGID_3_" class="st1" d="M883,58.6l-9.1,210.2L834,165.6L854.7,270L790,183.2l45.7,89.2L675.3,159.1l141.3,117.8
			l-90.2-33.6l72.5,41.7c-67.4,0-148.1-53.3-172.8-163.9c0,0,144,1.7,192.1,65.7C809.1,96.6,871.4,11.6,883,0
			c11.6,11.6,73.9,96.6,64.8,186.8c48.1-64,192.1-65.7,192.1-65.7C1115.2,231.7,1034.5,285,967.1,285l72.5-41.7l-90.2,33.6
			l141.3-117.8L930.3,272.4l45.7-89.2L911.2,270L932,165.6l-39.9,103.2L883,58.6"/>
	</g>
	<g>
		<defs>
			<path id="SVGID_5_" d="M883,58.6l-9.1,210.2L834,165.6L854.7,270L790,183.2l45.7,89.2L675.3,159.1l141.3,117.8l-90.2-33.6
				l72.5,41.7c-67.4,0-148.1-53.3-172.8-163.9c0,0,144,1.7,192.1,65.7C809.1,96.6,871.4,11.6,883,0c11.6,11.6,73.9,96.6,64.8,186.8
				c48.1-64,192.1-65.7,192.1-65.7C1115.2,231.7,1034.5,285,967.1,285l72.5-41.7l-90.2,33.6l141.3-117.8L930.3,272.4l45.7-89.2
				L911.2,270L932,165.6l-39.9,103.2L883,58.6"/>
		</defs>
		<use xlink:href="#SVGID_5_"  style="overflow:visible;fill:#FFFFFF;"/>
		<clipPath id="SVGID_6_">
			<use xlink:href="#SVGID_5_"  style="overflow:visible;"/>
		</clipPath>
		<rect x="621" y="-5" class="st3" width="523.9" height="295"/>
	</g>
</g>
</svg>
