<?xml version="1.0" encoding="utf-8"?>
<!-- Generator: Adobe Illustrator 21.1.0, SVG Export Plug-In . SVG Version: 6.00 Build 0)  -->
<svg version="1.1" id="Layer_1" xmlns="http://www.w3.org/2000/svg" xmlns:xlink="http://www.w3.org/1999/xlink" x="0px" y="0px"
	 viewBox="0 0 202 112" style="enable-background:new 0 0 202 112;" xml:space="preserve">
<style type="text/css">
	.st0{opacity:0.25;}
	.st1{opacity:0.25;fill:#FFFFFF;enable-background:new    ;}
	.st2{opacity:0.25;clip-path:url(#SVGID_4_);enable-background:new    ;}
	.st3{fill:#FFFFFF;}
	.st4{opacity:0.25;clip-path:url(#SVGID_6_);fill:#FFFFFF;enable-background:new    ;}
</style>
<g class="st0">
	<g>
		<path id="SVGID_1_" class="st1" d="M101,23l-3.6,82.6L81.7,65.1l8.2,41L64.4,72l18,35.1l-63-44.6l55.5,46.3L39.5,95.6L67.9,112
			C41.5,112,9.7,91.1,0,47.6c0,0,56.6,0.6,75.5,25.8C72,38,96.4,4.6,101,0c4.6,4.6,29,38,25.5,73.4C145.4,48.3,202,47.6,202,47.6
			C192.3,91,160.5,112,134.1,112l28.5-16.4l-35.4,13.2l55.5-46.3l-63,44.6l18-35.1l-25.5,34.1l8.2-41l-15.7,40.6L101,23"/>
	</g>
	<g>
		<defs>
			<path id="SVGID_2_" d="M101,23l-3.6,82.6L81.7,65.1l8.2,41L64.4,72l18,35.1l-63-44.6l55.5,46.3L39.5,95.6L67.9,112
				C41.5,112,9.7,91.1,0,47.6c0,0,56.6,0.6,75.5,25.8C72,38,96.4,4.6,101,0c4.6,4.6,29,38,25.5,73.4C145.4,48.3,202,47.6,202,47.6
				C192.3,91,160.5,112,134.1,112l28.5-16.4l-35.4,13.2l55.5-46.3l-63,44.6l18-35.1l-25.5,34.1l8.2-41l-15.7,40.6L101,23"/>
		</defs>
		<use xlink:href="#SVGID_2_"  style="overflow:visible;fill:#FFFFFF;"/>
		<clipPath id="SVGID_4_">
			<use xlink:href="#SVGID_2_"  style="overflow:visible;"/>
		</clipPath>
		<g class="st2">
			<g>
				<rect id="SVGID_3_" x="-79" y="-2320" class="st3" width="360" height="2848"/>
			</g>
			<g>
				<defs>
					<rect id="SVGID_5_" x="-79" y="-2320" width="360" height="2848"/>
				</defs>
				<use xlink:href="#SVGID_5_"  style="overflow:visible;fill:#FFFFFF;"/>
				<clipPath id="SVGID_6_">
					<use xlink:href="#SVGID_5_"  style="overflow:visible;"/>
				</clipPath>
				<rect x="-5" y="-5" class="st4" width="212" height="122"/>
			</g>
		</g>
	</g>
</g>
</svg>
