<svg id="logo_1a" data-name="logo 1a" xmlns="http://www.w3.org/2000/svg" xmlns:xlink="http://www.w3.org/1999/xlink" viewBox="0 0 257.62 66.31"><defs><linearGradient id="linear-gradient" x1="-358.08" y1="127.3" x2="-329.77" y2="127.3" gradientTransform="matrix(0, -1, -1, 0, 154.04, -313.44)" gradientUnits="userSpaceOnUse"><stop offset="0" stop-color="#a90b24"/><stop offset="0.72" stop-color="#e31837"/></linearGradient><linearGradient id="linear-gradient-2" x1="-358.08" y1="140.79" x2="-329.77" y2="140.79" xlink:href="#linear-gradient"/><linearGradient id="linear-gradient-3" x1="-358.08" y1="113.8" x2="-329.77" y2="113.8" xlink:href="#linear-gradient"/></defs><title>be-rail-safe-logo</title><polygon points="13.49 44.64 32.28 16.33 39.99 16.33 21.2 44.64 13.49 44.64" style="fill:url(#linear-gradient)"/><polygon points="0 44.64 18.79 16.33 26.5 16.33 7.71 44.64 0 44.64" style="fill:url(#linear-gradient-2)"/><path d="M104.12,36.15H89.73c0,2.78,1.46,4.28,4.28,4.28a3.42,3.42,0,0,0,3.27-1.76h6.57c-1.09,4.54-5.41,6.61-9.8,6.61C87.67,45.28,82.9,41.67,82.9,35c0-6.42,4.39-10.29,10.66-10.29,6.69,0,10.55,4.13,10.55,10.7Zm-6.35-3.94a4.1,4.1,0,0,0-7.92,0Z" style="fill:#231f20"/><path d="M131.79,44.64h-9.16l-6.95-10.89h-.08V44.64h-7.36V16.33h11c5.6,0,9.84,2.67,9.84,8.71,0,3.9-2.18,7.29-6.2,8ZM115.6,29h.71c2.4,0,5.11-.45,5.11-3.53S118.72,22,116.32,22h-.71Z" style="fill:#e31837"/><path d="M151.69,44.64h-6.83V42.5h-.07A6.77,6.77,0,0,1,139,45.28c-5.71,0-9.73-4.77-9.73-10.29s3.94-10.25,9.65-10.25a7.86,7.86,0,0,1,6,2.52V25.38h6.83ZM136.29,35a4.39,4.39,0,0,0,8.79,0,4.39,4.39,0,0,0-8.79,0Z" style="fill:#e31837"/><path d="M162,18a3.83,3.83,0,1,1-3.83-3.83A3.85,3.85,0,0,1,162,18Zm-.41,26.66h-6.83V25.38h6.83Z" style="fill:#e31837"/><path d="M171.4,44.64h-6.83V13.47h6.83Z" style="fill:#e31837"/><path d="M192.47,23.61a7.74,7.74,0,0,0-4.88-1.88c-1.35,0-3.15.79-3.15,2.37s2,2.29,3.27,2.7l1.88.56c3.94,1.16,7,3.15,7,7.74,0,2.82-.68,5.71-2.93,7.62a12.42,12.42,0,0,1-8,2.67,17.47,17.47,0,0,1-10-3.23l3.15-5.93a10.09,10.09,0,0,0,6.53,2.93c1.73,0,3.57-.86,3.57-2.85s-2.89-2.78-4.47-3.23c-4.62-1.31-7.66-2.52-7.66-8,0-5.75,4.09-9.5,9.76-9.5a19.36,19.36,0,0,1,8.86,2.33Z" style="fill:#231f20"/><path d="M220.22,44.64h-6.83V42.5h-.08a6.76,6.76,0,0,1-5.82,2.78c-5.71,0-9.73-4.77-9.73-10.29s3.94-10.25,9.65-10.25a7.86,7.86,0,0,1,6,2.52V25.38h6.83ZM204.82,35a4.39,4.39,0,0,0,8.79,0,4.39,4.39,0,0,0-8.79,0Z" style="fill:#231f20"/><path d="M231.52,44.64h-6.83V31h-2.4V25.38h2.4V22.93c0-2.67.08-4.62,2-6.76a8.75,8.75,0,0,1,6.72-3.08,6.1,6.1,0,0,1,2.93.68v5.89a5.86,5.86,0,0,0-2.4-.64c-1.76,0-2.37,1.05-2.37,3.23v3.12h4.77V31h-4.77Z" style="fill:#231f20"/><path d="M257.62,36.15H243.24c0,2.78,1.46,4.28,4.28,4.28a3.42,3.42,0,0,0,3.27-1.76h6.57c-1.09,4.54-5.41,6.61-9.8,6.61-6.38,0-11.15-3.61-11.15-10.25,0-6.42,4.39-10.29,10.66-10.29,6.68,0,10.55,4.13,10.55,10.7Zm-6.35-3.94a4.1,4.1,0,0,0-7.92,0Z" style="fill:#231f20"/><path d="M19.9.29h1.69l6.55,9.39h0V.29h1.34V11.6H27.82L21.27,2.2h0V11.6H19.9Z" style="fill:#231f20"/><path d="M40.25,2.62a3.48,3.48,0,0,0-2.83-1.37,4.5,4.5,0,0,0-4.31,4.7,4.4,4.4,0,0,0,4.31,4.7A4,4,0,0,0,40.7,9.06l1,.85a5,5,0,0,1-4.28,2,5.71,5.71,0,0,1-5.75-5.94A5.71,5.71,0,0,1,37.42,0a4.9,4.9,0,0,1,4,1.77Z" style="fill:#231f20"/><path d="M43.37.29h4.35a5.43,5.43,0,0,1,5.54,5.66,5.43,5.43,0,0,1-5.54,5.66H43.37Zm1.34,10.06h2.56c2.59,0,4.55-1.31,4.55-4.41s-2-4.41-4.55-4.41H44.71Z" style="fill:#231f20"/><path d="M54.76,5.94a5.91,5.91,0,1,1,11.82,0,5.91,5.91,0,1,1-11.82,0Zm10.38,0a4.48,4.48,0,1,0-8.95,0,4.48,4.48,0,1,0,8.95,0Z" style="fill:#231f20"/><path d="M76.33,1.53H72.59V11.6H71.25V1.53H67.51V.29h8.82Z" style="fill:#231f20"/><polyline points="53.49 16.33 34.69 44.64 26.98 44.64 45.78 16.33" style="fill:url(#linear-gradient-3)"/><path d="M72,24.7C72,22.11,69.68,22,67.69,22h-.53v5.48H68C69.94,27.44,72,27.1,72,24.7Z" style="fill:none"/><path d="M67.92,32.92h-.75V39h.94c2.18,0,5.86.11,5.86-3C74,32.58,70.32,32.92,67.92,32.92Z" style="fill:none"/><path d="M75.62,29.54v-.08c2.29-1.16,3.12-3.23,3.12-5.78,0-5.41-3.38-7.36-8.41-7.36H59.76L41,44.64H56.75l3.05-17.87V44.64H71.15c5.18,0,10.25-2,10.25-7.89C81.4,32.81,79.67,30.07,75.62,29.54ZM67.17,22h.53c2,0,4.28.15,4.28,2.74,0,2.4-2,2.74-4,2.74h-.83Zm.94,17h-.94V32.92h.75c2.4,0,6-.34,6,3.08C74,39.12,70.28,39,68.1,39Z" style="fill:#231f20"/><polygon points="48.1 66.31 34.69 46.11 26.98 46.11 40.39 66.31 48.1 66.31" style="fill:#dcddde"/><polygon points="34.61 66.31 21.2 46.11 13.49 46.11 26.9 66.31 34.61 66.31" style="fill:#dcddde"/><polygon points="21.12 66.31 7.71 46.11 0 46.11 13.41 66.31 21.12 66.31" style="fill:#dcddde"/></svg>