<svg id="Layer_1" xmlns="http://www.w3.org/2000/svg" xmlns:xlink="http://www.w3.org/1999/xlink" viewBox="-188 231.2 122.6 38.8"><style>.st0{fill:#FFFFFF;} .st1{clip-path:url(#SVGID_2_);fill:#FFFFFF;}</style><path class="st0" d="M-71.5 248.9c-.1-.9-.3-.9-.6-.9l-1.8.2-.1.2.4.4c.2.2.3.3.4.7.5 2.2.9 4.9 1.1 7.4l.4-.1c.5-.1.6-.2.9-.7 1.4-1.8 2.9-4.2 4.3-6.8.1-.2.3-.3.4-.5l.6-.4c.1-.1.1-.2 0-.2H-68l-.1.2.2.3c.2.2.1.5-.2.9-.8 1.7-1.9 3.5-2.9 4.9 0-1.9-.2-3.9-.5-5.6zm-7.4-.9c-2.6 0-4.8 2.8-4.9 5.4-.1 1.9.9 3.4 3.1 3.4 2.6 0 4.8-2.8 4.9-5.4.2-1.8-.9-3.4-3.1-3.4zm-1.8 7.8c-1.1 0-1.6-1-1.4-2.4.1-1.6 1.4-4.3 3.2-4.3 1.1 0 1.6 1 1.4 2.4-.1 1.5-1.3 4.3-3.2 4.3zm-6.2-5c-.7 3-2.2 4.6-3.4 4.6-1.2 0-1.8-1.5-1.1-3.5.5-1.5 1.9-2.9 3.5-2.9.5 0 1 .1 1.4.2l-.4 1.6zm-.9-2.8c-3.1-.1-4.8 2.2-5.4 4.1-.8 2.8.6 4.7 2.2 4.7 1.1 0 2.1-.5 3.1-1.9l-.2.9c-.4 1.8-1.2 3.3-3.2 3.3-.6 0-1.8-.3-1.6-1.1h-.1c-.4.6-.7 1.3-.7 1.8.6.3 1.5.5 2.4.5 2.7 0 4.4-2.2 5-4.7l1.1-5c.1-.4.2-.9.7-1.6l.1-.1c-1.1-.5-2.2-.9-3.4-.9zm-9.9 7.7c0 .6.5 1.1 1 1.1s1-.5 1-1.1-.5-1.1-1-1.1-1 .5-1 1.1zm-5.4 1.1c1.3 0 2.4-.3 3.1-.8.4-.6 1.2-2.4 1.4-3.1h-.3c-1 1.8-2.5 2.6-4 2.6-2.8 0-3.9-2.1-3.2-5.1.6-2.5 2.6-4.7 5-4.7 2.1 0 2.8 1.2 2.4 2.5l.1.1c.6-.5 1.3-1.6 1.6-2.5-.8-.7-2.3-1.2-4.1-1.2-3.2 0-6.3 2.5-7 6.2-.6 3.3 1.1 6 5 6zm-9.4-3.1l-5.2-8.8-.1-.1h-2c-.2 0-.2.1-.1.3.2.3.7 1.1.9 1.4l-2.1 9c0 .2-.2.4-.4.6l-.7.5v.2h2.9c.1 0 .1-.1.1-.2l-.5-.5c-.1-.1-.2-.3-.1-.6l1.7-7.6 5.1 8.8h1c.1-.4.7-3.3 1.4-6.3l1-4.3c.1-.2.2-.4.4-.6l.7-.5c.1-.1.1-.2 0-.2h-2.9c-.1 0-.1.1-.1.2l.5.5c.1.1.2.3.1.6l-1.6 7.6zm-50.2 3.8l.1-.1-.1.1m-.2-.3v-.1.1m.9-.1v.4h.1c-.1-.2 0-.3-.1-.4m-2.1-.5c.1.1-.1.2 0 .2v-.2m1.4-.2l.1.1v-.1h-.1m1.5 0v.1h.1l.1-.1h-.2m-1.1-.2c-.1.1 0 .1 0 0m.9 0v-.1.1m-.6-.2l.1.1c.1 0 .1-.1-.1-.1.2.1.1 0 0 0 .1.1.1 0 0 0m-.5 0c.1 0 .1 0 0 0m.9-.1l-.1.1h.1v-.1m1.8-.1v.1-.1c0 .1-.1.2-.1.2h.1s0-.1 0 0v-.2m-2.6.1l.1-.1-.1.1zm.1-.3c.1 0 0 .1 0 .1l.1-.1h-.1m-1.2.1l-.1-.1c0 .1-.2.4-.3.3 0 .3.4-.2.4-.2l.1-.1-.1.1m2.4-.2l-.1.1c0 .2.1.1.1-.1m.5 0l.1-.1-.1.1.1-.1-.1.1m6.8 0v.2-.2c0 .2 0 .3.1.2h-.1v-.2l.1.2.1-.1v.1c0-.1.1-.3-.1-.3.1 0 0 .1 0 0 0 .1-.1 0 0 0l-.1.1m-10.6-.2c-.1-.1 0 .1 0 0m4.2-.1c.1.1 0 0 0 0v-.1.1m.3-.2h.1-.1m3.4 0c.2.1.2.1.2 0h.1v-.1l-.3.1M-158.2 255.2l.2-.1h-.2v-.1.2m1.7-.1v-.2s-.1.2 0 .2m-3.6 0v.2c0-.1.1-.1.1-.2l-.1.1v-.3.2-.2.2-.2.2m-3.1-.2v.2-.2m6.8-.1v.1-.1l.1.1-.1-.1m2.3 0c0 .1.1.3.1.3h.2l-.3-.3m.2-.1c-.2.1 0 0 0 0m-9.1 0h-.1c0 .1-.1.3-.1.3l.1-.1c0-.1.1-.1.1-.2h.3-.3m9.2 0l.1.2v.1l-.1-.3.1.1c0-.2 0-.1-.1-.1l.1-.1-.1.1m-.4-.1v.3l.1.1-.1-.4m.2-.1c.1 0 .1.1 0 0m-3.7 0c-.1.1 0 .1 0 0m1.2.3l-.1-.2c0 .1 0 .2.1.2m2.2-.2l-.1-.2.1.2m-5.4-.2l.2.1v-.2l-.2-.1v.2m1.5-.2v.2-.2m-5.6 0v.2-.1.1-.2m4.4 0c.1.2 0 .1 0 0m-5 0c0-.1.1 0 0 0m.7-.1s-.2.1 0 0m-1.3 0c0 .1-.2.1-.1.1l.1.1v-.2l.1.1-.1-.1m10.5-.1l.1.1v.1c.1 0-.1 0 0 .1h.1c0 .2 0 .1.1.1l.1.1v-.2.1l-.3-.2-.1-.2m-9 .1v-.1c-.2 0-.1.1 0 .1m5.4 0c-.1 0 0 0 0 0-.1 0-.4.1 0 0l.1-.1v-.2l-.1.3m-4.3-.1h.1-.1m7.4-.3v.1-.1m-7.8.1l-.2.2h.1l.1.2h.1l.1-.1c-.1.1-.1-.2-.2-.3l.1.1c.1-.1 0-.2-.1-.1m.6 0v.1-.1l.2-.2h-.3l.1.2m6.2 0l.1.1v.3-.1h.1c.1-.1.2 0 .2 0l.1-.1c-.1 0 0 0 0 0l-.5-.2c0-.2 0-.3-.1-.3 0 .1 0 .2.1.3m-5-.4c0 .1 0 .2-.1.2 0 .1.1.3.1.3h-.1c0 .1.1.1 0 .2s.1.1.2.2c0 .1.4.3.5.1v-.2c0 .1.1-.1.1-.1 0 .1.1-.1.1-.1v-.1l-.1.1c-.1-.1.1-.2 0-.2v-.1c0 .1.2-.1.2-.1l-.1-.1.1.1h-.2l-.3.4c0-.2-.1-.3-.2-.4h.1l-.1-.1h.1l-.1-.1h-.2m.3-.1v.2h.1v.1c0-.1.1-.1.1-.2l-.2-.1m4.9-.1l.1.1.1-.1c-.1.2.1.2.2.2v.2-.1.1l.1-.1c0 .1.1.1.1-.1h-.1l.1-.2h-.1l-.1-.1c-.1.1-.1.1-.1 0l-.1.1c-.1 0-.2 0-.2-.1v.1m-.9-.1l.1.1c0-.2-.1-.1-.1-.1m4.3-.1s-.1.1 0 0m-3.5.1s-.2.1-.1.1l.1-.1v.2c0 .3.3 0 0-.2m-1.3-.1c0 .2.1.1.1.2l.3-.2c-.1 0-.2-.1-.3-.1l-.1.1m4.9.1c0-.1-.1 0 0 0m-12.5-.4c.1 0 .1 0 0 0m3.7-.1l-.1.1.1-.1M-164.7 252.4l.2.1-.1.1.1.1.1-.1v-.1l-.2-.2-.1.1m4-.2h.1-.1l.2.1-.1-.1h-.1m-.7 0l.1.1v-.1h-.1m.4.1c-.1 0-.1.1 0 0v.2l.1.1h.1l.1-.1s-.1.2 0 0v.1h.2c0-.2-.2-.1-.2-.2.1-.1-.1-.1-.2-.1h-.1l.2-.1c0-.1-.4 0-.2.1m3.4-.1v.1-.1zm-.1 0c0-.1.1-.2 0-.1v.1-.2h-.1c0 .2.1.2.1.2m-2.7-.1h-.1.1c0-.1-.1-.1 0 0m3.2-.1s-.1.2-.1.3l.1-.3m-2.3 0c0 .1-.2.1-.2.2l.1.1v.1l-.2.2.3.1.1-.1.1.1h.2l.1.1c0-.1 0-.3-.1-.3v.1-.4.1s-.1-.1 0-.1h-.3c.1 0 0-.2-.1-.2-.1.1.1 0 0 0m1.5 0c-.1.1 0 0 0 0m-1.4 0l.1.1c.1-.1 0-.1-.1-.1m-.6-.1v.1-.1.3h.1c0-.1 0-.1 0 0l-.1-.1c.1 0 0-.1 0-.2m-1.4 0c-.2.1 0 .2 0 .2v-.2m3.1 0c0 .1 0 .3.1.1v.1l-.1-.2m.2-.1s0 .3.1.2c.1.1.1.2.2.2l-.1-.1.1-.1v-.1s-.1.1 0 0h-.1c.1 0 0 0 0 0s0-.1-.2-.1m-2.2-.1h.1-.1M-161.1 251.6c0 .1 0 0 0 0m4 .1c0 .1.2.3.2.4v.1-.2.1-.5c-.1.2-.1.1-.2.1l.1-.2-.1.2m-6.9-.1h.1-.1m5.7 0l.2.1.1-.1v-.1h-.1l-.1-.1-.1.2m1.5-.1h.3c0-.1-.1-.1-.2-.1l-.1.1m.3-.1l.1.1-.1-.1M-157.1 251.3l.1.1-.1-.1m-1 .1v-.1c-.1.1-.1.1 0 .1m.9 0l.1-.1-.1.1m-.4-.2c-.1.2-.2.2-.2.3 0 0 .2 0 0 .1l.2-.1v-.3m-3 0c0-.1-.1 0-.1.1l.1-.1c.1.1.1.2.1 0h-.1m3.1-.1s-.1.2 0 0m-.4 0l.1.1-.1-.1m1.3 0c.1.1.1 0 .1.1v-.1h-.1m-1.5-.4c-.1 0-.1 0 0 0-.2.2 0 0 0 0m.1.1s-.1 0 0 0m2.8-.1v.2-.2m-6.9-.1c0-.1.1-.1 0 0m4.6-.1l.2.1v-.1h-.2v-.1.1m-4.2 0c0 .1 0 .1 0 0l.1-.2-.1.2m6.7-.1v.2h-.1v-.1s.2.1.2 0v-.1c.1-.1 0-.2-.1-.2v.2m-1 1.2c0 .1 0 0 0 0m.1-.4l.1.1c-.1.1-.1 0-.1-.1v.1-.1c.1 0 .1 0 0 0m-1-.8l-.1-.1.3.3c0-.2.3.2.3.2l.1-.2h.1v.1l-.1.1v.1-.1.1c0-.1.1.1.1.1h-.1c0 .1.2.2.1.3h-.1l-.1.1c-.1.3-.1.1-.2.1v-.1h-.1v.4s.2 0 .1-.1l.1-.1c0 .1.1.1.1 0l.1.2v.1l.3.1s.4-.4.2-.5v-.1h-.1s-.1.1-.1 0c.1 0 .1-.2.1-.2v-.1h-.1c.2 0-.1-.3-.2-.2 0 0 0-.4-.2-.3l-.2-.1-.1-.2c-.1 0 .1.2 0 .2 0-.1-.1-.1-.2-.1v.1h.1-.1v.1l-.1-.2c0 .1 0 0 .1 0h-.2c.3-.2.2-.1.2 0m-.9-.1h.1-.1M-157.7 250.2v.1c.1-.1 0-.1 0-.1m2.1 0v.2h.1c0 .1 0 .2.1 0 0 .1 0 .1.1.1h-.1c.1 0 .3-.1.3-.2s-.2 0-.3 0v-.1h-.1c0-.2-.1-.1-.1-.1v.1l.1-.1-.1.1m-6.9 0v-.1.1m7.2-.2c0 .1.1 0 0 0M-155.5 250s.1.1 0 0m-5.1 0l.1-.1-.1.1m-.1.6c.1.1 0 0 0 0m.2-.4h-.2c-.1-.2-.1.2-.1.2l-.1.1h-.1l.1.1h-.2v.1h-.1s0 .3.1.1v.1c-.1-.1-.2.1-.2.2v.1l-.2-.1v.1h-.1v-.1c-.1 0-.1.2-.2.1v.2h.1v.1h.1v.2l.2.1h-.1l.2-.3v-.1c0 .1.1 0 .1-.1l.3-.1c-.1-.1 0-.1 0-.3.2 0 .1.1.1.1.1 0 0 0 .1-.1h.1v-.1h.2c.1-.3-.1-.4.1-.4 0-.1 0-.2.1-.1v.1c.2 0 0-.2 0-.2h.2l.1-.1c-.1 0-.1-.1-.1-.2-.3 0-.5.3-.5.3m-1.5-.3s.1.1 0 .2v-.1.2c.1.2.2 0 .1-.2 0 0 0-.2-.1-.1m1.6-.1c0 .1 0 .1 0 0m5.5-.1l.1.2v-.1h.1v-.1h-.2m-7.3-.1c-.2.1.1.4.1.3l-.1-.1h.1l-.1-.2m0-.1c0 .1.1 0 0 0m1.7-.2l-.1.1.1-.1c-.1 0-.1.1 0 0l-.1.2v.1h-.1c0 .1-.1.2-.1.1-.1 0-.3.2-.2.3.2 0 .2-.1.3-.3l-.1.1.1-.1.2-.1-.1-.1v-.1l.2-.2c0 .1-.1.1-.1.1m-.4 0c.1.1 0 .1 0 .2h.2c.2-.1 0-.2.1-.3l-.3.1m-.6-.2l-.1.1.1-.1c.2.1-.1.1 0 0h.1-.1m2.7 0l-.2.2h.1c.1 0 .1-.1.1-.2m-1.5-.1c0 .1.1.1.1-.1l-.1.1m5-.2l.1-.1-.1-.1v.2m-.4-.1l.1.1-.1-.1m-3.2 0l.1.1-.1-.1m.8 0v.1l-.1.1v.1h.1v-.1c.2-.1.1-.2 0-.2m2.2.1v-.2.2m-3-.1c-.1-.1-.1 0 0 0m4.8 0s.1 0 0 0h.2l-.1.2.1.1c-.1 0-.1-.1-.2-.1v.1c.1 0 .1.1.2.1l.3-.1c0-.1 0-.1-.1 0v-.2l-.1-.1-.2-.1-.1.1m-.3-.1c.1.1 0 .2.1.2l-.1-.2m-1.1 0s0 .1.1.1l-.1-.1m1.4-.1c-.1.1 0 .2 0 0m-.8.2c0 .1-.1 0 0 0l-.1.2v.1h.2l-.1-.3c.1.2.2.2.2.3l.1-.1c-.1 0 .1.1.2.1h.2v.1c0-.2-.1-.1-.1-.1v-.1l-.1.1-.1-.2h-.1c0-.1 0-.1.1-.1h-.1c-.1 0-.2 0-.2-.1l-.1.1M-155.1 248.5v.3l.1-.1c0 .1.1-.1.1-.1l-.2-.1m-4.4-.2v.2h-.2v-.1l-.1.2h-.1c0 .1.2.3.3.2.1.2.5-.1.3-.1v-.1h-.1c.1 0 0-.1 0-.1l-.1-.2m3.6 0v.1l.1.1s.2 0 0-.1l-.1-.1m-1.5.2h-.2v.1h-.1v.1h.2l.1-.3s-.1-.1 0 .1m1.4-.1c.2 0 0 0 0 0m-2.7-.1v.1-.1m-2.2.1c.1.1.1 0 .1-.1l-.1.1m5-.1c-.1 0 0 0 0 0m2.7-.1c0 .1.1-.1 0 0m-2.8-.2c.1.1.2.3.3.1h-.1l-.2-.1m-1.6 0l.1.1v-.2l-.1.1m-.2 0l.1-.1-.1.1m1.3 0l.2.1v.1h-.1c-.3-.6 0 0 0 .1h-.1l.1.1v-.1l.1-.1v.2l.1-.1.2.1h-.1c.1-.2-.2-.2-.2-.2 0-.2.1-.4-.1-.4v-.1l-.2-.1c.1.2.1.3.1.4m-.2-.3l.1-.1-.1.1m.1-.1c0 .1.1.1 0 0m-.1 0v.1-.1m0-.1c.1-.1.1-.1 0 0v-.1s-.1.1 0 .1m-1.2 0v.3l.1-.1v.1l.2-.1.2-.1c0-.2-.1-.2-.1-.2h-.1c-.1 0 0 0 0-.1-.2-.1-.3.1-.3.2m-2.5-.4c-.1.1 0 .2 0 0m0-.1v.2c.1 0 .2-.2 0-.2m1.6.1v-.1.1m1.4 0v.1-.1.2c0 .1.1.1.2.1h.1v-.3l-.1-.1c-.1 0-.2.1-.2.1m-.1-.2s0 .2 0 0m-3.2.2v.1c.1-.1.1 0 .1.1l-.1-.2c-.1-.1 0-.1 0-.2h-.1c.1 0 .1.1.1.2m3.4-.2v-.1.1m-2.9-.1l.1.1h.1c-.1-.2-.1-.1-.2-.1m-2.7 0s0 .2 0 0l.1-.1-.1.1m.1.1l.1-.2-.1.2m4.5-.2l.1.2.1-.1s.1.3.2.1c-.1-.1-.1-.2-.2-.1v-.1h-.2m-2.2-.2v.3c.1.1 0 .2.1 0v.1c.2 0-.1-.3 0-.3v.1l.1-.1-.1.1c0-.1.1-.1.1-.1-.2-.1-.2.1-.2-.1m4.6 0h.1l-.1-.2v.2m1.2-.1v.1-.1m1 0v-.2.2m-6.7-.1c.1 0-.1.2 0 .2l.1-.1v.1c0-.2-.1-.2-.1-.2m-2.7-.3l.1-.1c-.1 0-.1 0-.1.1m8.3 0h-.1.1l.1.2h-.2c.1.1.2.2.3.2l.1.1h.2l.1-.1v-.2h-.5l-.1-.2c-.1.1.1 0 .1-.1.1-.1-.1 0-.1.1m-4.7 0l.1.1-.1-.1m-.2-.2l-.1.1h-.2l.1-.1-.1.2h-.1c.1 0 0-.1.1-.1 0-.1-.1-.1-.1-.1v.3l-.2.1v.1h-.1c0 .2.1.2.2.2h.1v-.1h.2v.2c.1.2 0 .2-.1.2v.1l.1.1-.2.2h.2c.1.1.1.1.3 0 .1 0 .4-.3.4-.1l.1-.1.2.1v-.3c.2.3.2-.4.2-.4 0-.1-.2-.1-.2-.1h-.2c.1-.1 0-.1 0-.2 0 0-.3.1-.2 0h.1l-.1-.1c-.1-.1-.1-.1-.2-.3h.1v-.1l-.3.2m.7-.2v.2h.1l-.1-.2zm3.9.7c-.3-.1 0-.1 0 0m-.1-.6h-.3v.2h-.1v-.1l-.1-.2h-.1c.1.1 0 .2 0 .3h.1c0 .1.1 0 .2 0h-.1c0 .1.1 0 .1.1h-.1l.1.1h-.1l-.1-.1v-.1l-.1.1.2.2v-.1.1h.2c0 .2.1 0 .2 0 0 .1.1.2 0 .3h.3c.1.2.3 0 .3 0v.1-.1c-.1.1-.2-.1-.3-.2l-.1-.1v-.2l-.1.1v-.1l.1.1v-.2.1h-.1v-.2l-.1-.1.1.1c0-.1.1-.2 0-.3l-.1.2m-4.8 0v-.1.1m0-.1l.1.2-.1-.2h.2v.1l.1-.1h-.3m4-.1c-.1-.1-.1 0-.1-.1h-.1l-.2.2v.1l.1.1v-.1.1l.1-.1-.1.1c.1 0 .1-.1.1-.2v-.1c.3.2.3.1.2 0v-.2c0 .1.1.2 0 .2m-3.5-.1l.1.1h.1v-.1l.1.1v.1h-.1v.1c.1-.2.3-.1.3.1v-.2c0 .1 0 0 0 0v-.1h-.2v-.1c0 .1.1 0 .1 0h-.4m-.6 0l.1-.1-.1.1m6.7 0c-.2.1.2.2.3.2l-.3-.2h.2-.2c.1.1-.1-.2 0-.2h-.2c0 .2.1.2.2.2m-7.3-.2c0 .2.1 0 0 0m.2.1h-.1v.1c-.1-.1-.2 0-.2-.1h-.1v.2l-.1.1c-.1.3.2.1.4.2v-.1l.1-.2.1-.1-.1-.1.1.1-.1-.1c.1 0 .2.1.2-.1h-.1s-.1 0-.1-.1v.2m4.3-.1h-.1.1m.5-.1c0 .3.3.1.3.1h-.1l-.2-.1m.8 0l-.2.2v.2h-.1c.1 0 0 0 0 0l.2.4c0-.1 0-.3.1-.2v.1c.1 0 .2-.1.2-.2v.1l.1-.1v-.5h-.1c0 .1.1.2.1.3 0 0-.1-.3-.2-.2l-.1-.1v.1-.1.1c0-.1.1-.1 0-.1.1-.1 0 0 0 0m-.2-.1s.1.1.1-.1l-.1.1m-3.2-.2c-.1.2-.1.2 0 .2 0 0-.1.1 0 .2 0-.2.1-.3 0-.4m-.8 0l-.1.1.1-.1c-.2 0-.1.2-.1.1l-.1.1h.4v.1-.2c.1 0-.1 0-.2-.1.2 0 0 0 0 0m6.3 0c0 .2.1 0 0 0m-6-.4l.1.1h-.1c-.1.1.1.1.1 0v.1c.1 0 .1 0 .1-.1h-.1l-.1-.1h.1-.1.1-.1l.1-.1h-.1v.1m1.6 0c.1-.1-.2-.1-.2 0l-.1-.1v.1l-.1-.1v.1s.2.3.3.2c0-.2.3-.1.3-.1l.1.1.1.1v.1l-.2-.1-.1.1.2.2c0 .1.1.1 0 .1v.1h-.1c0 .1.1.1.1-.1.1 0 .1-.3.2-.4v.1c0 .1 0 .1-.1.2l.1-.1h.1v-.1h-.1c.1 0-.3-.4-.2-.5l-.1.1v-.2l-.2.2m-1.8-.1l.1.2h.1-.1c.1-.1-.1-.3-.1-.2m1.2.2h-.2v-.2s0-.1-.1 0l-.2.2v.1-.1c0 .1.1.2.2 0 0 .1 0 .2.1.1-.1.1.1.2.1.2v.1-.1l.2.1c0-.1-.1-.4-.1-.4h.1-.1c.1 0 0-.1.1-.2l-.1-.1v.3m-1.8-.4c-.1.1 0 .1.1.2v.1c.1-.1.1-.1.1-.2s-.1-.1-.1-.1h-.1m.7-.2v.1-.1m-.8-.2h.1-.1m2.1 0l-.1.1h.1c-.1-.1.1-.1 0-.1m-.2-.1l-.2.1v.2c.1 0 .2.2.2 0v-.3l.1.2v-.1l-.1-.1m1.3-.7h.2c0-.1-.1 0-.1 0h-.1m-2.3 0h.1c.1 0 .1-.2.1-.2h-.1c-.1 0-.1.1-.1.2m2.1-.1v.2-.2s.1-.1 0-.1v.1m-2.2-.2c.1 0 .1.1 0 0m1.3-.1c-.1.1 0 0 0 0m-1.2.1v-.1c0-.1-.1.1 0 .1m.8-.2v.1-.1.1c0-.1-.1.1-.2.2h.1-.1.1v-.1.1h.1-.1.1v-.1l.2-.1v-.1h-.2m.5-.1c0-.1-.1 0-.1.1l.1-.1c.1.1 0 .3.1.2 0 .1.1.2.1.1.1 0 .1 0 .2-.1v.1h.1l.1-.1h-.2s0-.1-.1-.2l.1.1h-.2v-.1.1l-.2-.1c0 .1 0 .1 0 0m1.6-.1c0 .1 0 0 0 0m-1.7 0v-.1.1m-2.1-.2l-.1.2.1-.2v.2-.2m3.9 0c.3.1.1 0 0 0v-.1.1m-2.6-.1l-.1.1.1-.1-.2.2.1-.1.1-.1v.1l.2-.1s-.2.1-.2 0m.1-.1l.1.1v.1l.1-.1c-.1 0 0 0-.1.1 0-.2.1-.2-.1-.2M-158.1 241.7v.1-.1m.3 0c0 .1.1 0 .2 0h-.2m-.9-1.5c-.3.2-.1.3-.1.2v-.1l.1-.1v.1-.1m2.7 0v.2c0-.1.1-.2.1-.3l-.1.1m-3.4-.2l-.1.1c0 .1.1.1.1.1v-.2m.4 0v-.1.1M-158.8 239.7v.2c0 .1.1 0 .1 0l-.1-.2h.1c-.1.1.1 0 .1 0-.1 0-.1-.1-.2 0m-.7 0c.1.1 0 .1 0 .1v.1h.1l-.1.1c.3-.1 0-.1.1-.2l-.1.1v-.2m-1.3-.1c.1 0 0 0 0 0m3.2-.1c-.1.1 0 .1-.1.1 0 0 .1.2.1.1l-.1-.1.1-.1m-1.2-.1v.1-.1.2c-.1-.1 0-.2 0-.2l-.1.2.1-.1v-.1m-1.8 0l-.1.2s-.1.1 0 .1v.1-.1l.1.2c.1-.2 0 .2.1.2l.1-.1v.1-.1h-.1l.1-.1v-.1.1l-.1-.1c-.1-.1.1-.1.1-.2l-.2-.2m.9-.1c.1 0 0 .1 0 0m-1.1-.3c-.2 0 .1.1 0 0m3 0c0 .1.1.2 0 0 0 0 0 .1 0 0m-1.9-.3l.1.2.1-.1c.1.1.2 0 .2.2h-.1v.1h-.1c.1.1.1.2 0 .2v.1l.3-.1-.2-.1c.1 0 .1-.2 0-.3l-.1-.1v-.1.1-.1h-.2m.2-.1c0-.1-.2 0 0 0m-.2-.2v.1-.1m.4-.2c0 .2.1 0 0 0M-152.2 253.6c0-.1 0-.1 0 0m-6.6-17.3v-3.5c0-.4-.3-.7-.7-.7h-8.2c-.4 0-.7.3-.7.7v18.4c0 .5-.4.6-.6.2l-7.2-17.4-.3-.7c-.5-1.1-.5-1.2-1.9-1.2h-8.9c-.4 0-.7.3-.7.7v36.4c0 .4.3.7.7.7h7.8c.4 0 .7-.3.7-.7v-18.4c0-.5.4-.6.6-.2l7.2 17.4.3.7c.2.7.9 1.2 1.6 1.2h5.5c2.3 0 4.2-1.9 4.2-4.2v-9.5c-.1 0-.2-.1-.3-.1l-.1-.1.1.2h-.2v-.1.1l.1-.1h-.2c0 .2 0 .3.1.2h.1l.1.1h-.1l.1.1s-.2 0-.2-.1v.2-.1l-.1.1-.1.1c-.1.2 0 .2 0 .2h-.3c-.2 0-.3.1-.5.1l.1-.1-.1.1-.2-.1h.1c-.1-.1 0-.3-.2-.3v.2l-.1-.2-.1.1-.2.5v-.1l.1.1h-.1l.1.1-.1.4v-.1c-.2 0-.2 0-.2.2h-.1v-.1l-.1.2h-.1c0-.1.1-.3.1-.4h-.1l-.2.2v-.1l-.1.3-.2.1v-.1h-.1c0 .3.2.2 0 .2l-.1.1c-.1.1-.1.3-.2.1-.1-.2 0-.3 0-.3.1 0 .1-.3.2-.4l-.1.1v.1-.1h-.1s-.1-.2-.2-.2c0-.2-.2-.2-.2-.3l.1-.1-.1-.2s.1-.1.2.1v-.1c.1-.1.1-.5.3-.4-.2-.2 0-.4.1-.5 0-.1 0-.5.2-.3v-.1h.1v-.1h.1l-.1-.1.1-.1h.1-.3v-.1.1-.2l.3.1c.1-.1 0-.2 0-.2 0-.1 0-.2.1-.3v.1-.2.1l-.1.1-.2.2v-.1l-.1.2h-.1l-.3.3v-.1c-.1.1-.2.5-.2.3l.1.1c-.1 0-.2.1-.1.2-.1-.1 0 .3-.2.3-.1 0-.1.2-.2.3l-.1-.3h-.1v.1h-.1c0 .2-.1.1-.1.1h.2v.1l.1-.1v.1h-.1v.1-.1.1h-.2v-.2h-.1c.1.1-.1 0-.1-.1l-.1-.1.1-.1h.1v-.2l.1-.2h.1l.1-.1-.2.5.1-.1-.1-.3-.2.2c-.2.2-.4.3-.3 0h.1c0-.1-.2-.4-.1-.4-.4-.3 0-.3.1-.3 0 0 .1-.3.2-.1.1-.2.3-.1.4 0h-.1l.1.2v-.1l.2-.1h-.1c0-.1.1-.1.1 0h.1-.1s.4-.2.4-.3l-.1.1c0-.1.1-.1.1-.1v-.1h.1v.1c.2-.2.4 0 .4-.3h.1v.2l.1-.2c.1.1.2-.1.2-.2-.2.1-.5-.1-.6-.1v-.1h-.2c.1.1 0 .1 0 .2l.1.1h-.1l-.2.1v-.1h-.1c0-.1 0 0 0 0v-.1s-.1 0 0 .1h-.1l.2.1c.1.1 0 .3-.1.1v-.1l-.1.1.1.2h-.1l.1-.1-.1.1v.2h-.2c-.1 0 0-.3.1-.3 0 0-.1-.3-.1-.1h.1-.1v.2-.1s-.2.1-.1.1h-.1v-.2.1h-.2c0 .1-.1 0-.1.1v.1l.1.1c-.1.1-.1.2-.2.3h-.2l.1-.1h-.4v-.1.2-.1h.1c0 .1-.2.2-.2.2.1 0 .1.1 0 .2h-.2v-.3l.1.1-.1-.2h-.1s0-.2-.1-.1c0-.1.1-.1.1-.1h.1l-.1-.1h.1c-.1.1.1 0 .1 0h-.1c.1-.1 0-.1 0-.2 0 .1.1.1.2.1v.1-.1c.1 0 .2 0 .2-.1h.1l-.1-.1.1-.1h.1-.1v-.2.1c0 .1-.1.1-.1.1h-.1l.1-.1-.1.1h.1v.1c-.1-.1-.2 0-.2.1h-.1c0-.1-.2-.2 0-.2 0-.1-.3-.3-.2-.4 0-.1-.1-.4-.2-.6h.1c0-.1.4-.6.4-.8h.1s0-.4.2-.2h-.1.1v-.3l-.1.1c0-.1-.2-.2-.2-.4.2 0 .3 0 .4-.1 0-.2-.1-.1-.1-.2h.1v-.1c.2.1.1 0 .3.2.1.1.1 0 .1-.1h.1v-.4c.2-.1.2-.3.2-.5-.1-.2.1-.2.1-.3 0 0 .2.1.1-.1v-.1c-.2.2.1-.1 0-.2h.1s.1.2.2.1c-.1-.1 0-.1 0-.2h.1c-.1.1.3.3.4.3v.1h-.2l.1.1c0-.1 0-.1.1-.1v-.1h-.1v-.2l.1.1h.1v-.1h.1v.1s.1 0 .1-.1h-.1c.1 0 .2.1.1-.1h.1c-.1-.1.1-.1.2-.1 0-.1-.2-.2-.2-.1l.1-.1c0-.1-.1.1-.1.1v-.1h-.1v.2-.1.1h-.2l-.1.2c0 .1-.1-.2-.1-.4-.1-.2-.1-.5 0-.3 0-.1 0-.2-.1-.2s-.1 0-.1-.2h.3-.1l.3-.3h.1c0-.2.3-.1.3 0 .1-.1.5-.1.6-.1 0-.1.1-.3.1-.2h.1v-.3l.3-.2h-.1.3l.1-.1h.1v-.1c0-.1-.2-.1-.3-.1h.1c0-.2-.3-.3-.2-.2v-.1.2c-.1-.1 0 0-.1.1-.1 0-.2-.3-.2-.4.1 0 .2-.2.1-.2v-.1s.3-.4.4-.6l.1-.1.1-.1c-.1-.1 0 0-.1-.2h-.1l.1-.1h-.1c-.1 0-.2-.1-.3.1l.1.1h-.2v-.1l-.1.1v.2c0-.1-.2 0-.2.1s-.3.1-.3 0h.2c-.1 0 .1-.3 0-.3v-.1l-.2.1c.2 0 0 .2-.1.3h-.2v.2h-.2s0-.2-.1-.1v.1c0-.2-.4.2-.2.2.1.1-.2.1-.2.1v.1l.1-.1v.1-.1.1h-.1l-.1.1v.2h-.2c.1 0 .1-.2.1-.2h-.1c0 .3-.2.2-.2.1l-.1.1h.1l-.1-.1v.2c0-.1 0-.2.1-.2l-.3.1.1.1h-.2l-.2-.2-.1.1c-.1-.1.1-.5.1-.7v.1c0-.2 0-.4.1-.4l.1-.2c.2 0 .2.1.3.2-.1-.1 0 0 0 0h.2s0-.1-.1-.1h-.2l-.1-.1.1-.1v-.5c-.1 0 0 .1 0 .1-.2-.3-.1-.3 0-.5h.3v-.4l.1-.1c.1 0 .1.1.1.2l.2-.1c.1-.1.2-.1.2.1l.1-.2v.1s.1-.2 0-.2v.1c0-.2-.2-.3-.1-.5l.2-.3c.1-.1.2-.1.4-.3h-.1.3l.1-.1c0 .1.1.2.1.2v-.1c.1.1.1 0 .1 0 0-.1.4-.2.4-.2v-.4.1l.1-.1.2-.1c0-.1.2-.1.2-.3l.1.1-.1-.2h.1v.1h.1s0-.1 0 0v.1l.1.1v-.1c0-.1-.1-.2 0-.3 0 0-.5.2-.6.2l-.1-.1s-.5.3-.6.1h.1l-.3-.1v.1-.5c.1-.1.3 0 .3-.2 0 0 .3 0 .3.2.3-.5.3-.4.3-.6 0 0 .2-.1-.1 0l-.1.1v-.3l.1.1.1-.2v.1-.1.1-.3l.1.2.1-.4h.3l-.1.1h.2l-.1-.1-.1-.1c.1 0 0 0 0-.1s-.1-.1-.1-.1-.3-.1-.3-.3c.1.2.1-.2.1-.2 0 .1-.1.1-.2 0h-.1c0-.1 0-.2.1-.3h-.1c0-.1 0-.2-.1-.3.2 0 0-.3-.1-.3-.1-.3.2-.2.3-.4h-.1c0-.2.3-.4.5-.4l.2.2h.1c-.2 0-.2-.4-.1-.5.2 0 .5-.3.7-.3l.1.1c.1.1.2.2.2.1v.1c0-.1.4-.1.3.2 0 0 .1 0 .1.1l.1-.1c.1 0 .5 0 .5.1l.1-.2c0-.1.1-.2.1-.2v.1h.1v-.1.1h.3c.1 0 .3 0 .3-.1 0 .3.2.2.2.4v-.1.1-.1l.1.1s-.1.1 0 .2c-.1.1 0 .2 0 .3v-.1l-.1.2c-.1-.1-.2 0-.3 0 0 .2.2.3-.1.4h.1-.1s.6.5.2.5c0 0 .3.2.3 0l.3-.3v.1c.1 0 .1-.3.1-.3h.1c.1-.1.2-.1.2.1.1-.1.1-.1 0-.2v-.2l.2-.1v.3s-.1.2 0 .3c0 0 .4-.2.2-.3h.3c.1.1.2.2.1.4 0 0-.1.2-.2.3h.1s-.1 0 0 .2l.1-.1v.2c0 .2.2 0 .2.3 0-.1.1.3.1.4l.1-.1c.1.2 0 .3-.1.4.1.1.1.1.1.3v.1l.2.1c.1 0 0 .1.1.2 0 .2-.1.2-.1.2l-.3.6-.3-.2v.1h.1v.3c0 .1.2 0 .2-.2l.1.1c0-.2.1-.1.2-.2.1.1.3 0 .2 0 .1-.2.2-.1.4-.1v.1l.1-.1h.1c0 .2.1.2.2 0 .2 0 0 .5.1.6 0 .1 0 0 0 0v.2h.2l-.1.2-.2.2.1.2c-.1 0 0 .1-.1.2-.2-.5-.2-.3-.1-.2v.1c0-.1.1-.1-.1-.1l-.1.1c-.2 0 0 .2 0 .3.1-.2.2-.1.3-.1h.2c0 .1.1 0 .2 0h.1v.1c.1-.1.3 0 .3-.4.1 0 .1 0 .2-.1v.1h.1v.1h.1v.2s0 .1-.1.2c0 .1-.1.2-.2.2.1.1 0 0 0 .1l.2.1c.1.1.2.2.3-.1l.3-.2.1.2.1-.1v.1-.1h.1l-.1.4-.1-.1-.1.1h-.1v.1l-.1.1h.1c0 .2.2.2.3.3 0 .3-.1.3-.3.4h.1c0-.2-.1 0-.1 0-.1.1-.2.3-.4.3v.2-.1.4s-.1-.2-.1.1l-.1-.3v.2c0-.1-.1-.1-.2-.1.1.1 0 .1.1.3h-.2v-.2.1-.2l-.2.2-.1-.2v.2l.1.1v-.1l.1.1.1-.1v.1h.1s.1.1 0 0h.1v.1l.2-.1v.2c.1-.1.1 0 .3.1l.1-.1c0 .2 0 .3-.2.3.1.1-.2.2-.2.2-.1 0-.1-.1-.1.1h-.2v.1h-.1v.1-.1s.1.1.1 0c.2.1-.3.3.3.1l.1.1.1.1-.1.4h.1-.1v.3c.2-.1.1.2 0 .2v.2c.5.1-.3.7-.2.5v-.3h-.2c-.3 0 0-.1-.1-.2h-.1v.1h-.1c.1 0 .1 0 .1.1-.1 0-.2 0-.1.1h-.1.1-.1c-.1 0 .1.2.2.1l.1.2v.1c.1-.2.1 0 .2.1v-.1s-.1.3-.2.2l.1.1c-.1 0-.2.1-.1.1.1-.1.1.1.1.2h-.6v-.2h-.1v-.1l-.1.1h.1l-.3.2v.1h-.1v.1s0-.2-.1 0h-.1v.1h.1v.2h-.1l-.2.3h.1-.2s.1-.1.1 0v.1c.1.1.1.2.2.1v.1c.1 0 0-.2.1-.1 0 0 .1.3.1.1v.1s.4 0 .3.2v.1l.1-.1c.1 0 .4 0 .5-.1 0 .1.1.1.2 0v.2l.1-.2c0 .2.1-.1.2-.1h.1v.4l.1-.1v.2l-.1.1h.1v.2l.2.2c.1-.1-.1-.1.1-.1 0 .1.1 0 .1-.1v.1h.3c.1 0-.1.1 0 0v-.1h.1v.1c0 .1.2 0 .1.1v-.1l.3.5v-.1.2c-.2.3-.1.3-.3.3h-.1.1-.1c-.1 0-.1.1-.3 0-.1 0-.2.1-.2.2v.2s-.2.2-.2.1v.1l-.1.1s.2.1.2 0l.1-.1c.1-.1.1-.2.2.1 0 0 .1-.2.1 0 0-.1.1-.1.1 0h.1v-.1.1-.1l.1.1.2-.1v.1c.1-.2.4-.4.5-.4 0 .2.3.1.2 0h.2v.5c-.2 0-.4 0-.5.2h-.2v.2l-.1.1v.2h.1v.2l.2.2v.1-.1h-.5l-.3.3h-.1l-.1.1v-.1h-.2c-.1.1-.3.2-.4.3l-.1-.2-.1-.1-.1.1-.1.2v.1l-.1.1c.1-.1.1 0 .1 0l-.1.1v-.1l-.1-.1v.1l-.1.1-.1-.1h.1-.1c0-.1 0 0 .1-.1l-.1-.1c0 .3-.1.2.1.4h-.2.1v.1c-.1 0 0 .1 0 .2v-.1l-.1.2c.2.1.2.1.1.1l-.2-.1-.4-.3c.1-.2 0-.1 0-.2s-.1-.1.1-.2v-.1l-.1.1v-.1c-.1 0-.3-.1-.3-.2h.1v-.1h.1v-.1l.1.1.1.1v.1c.1-.1 0-.2 0-.3h-.1v-.1.1l-.1.1.1.1h-.1v-.1s-.1-.1-.1 0v-.2l.2-.1h-.1l.1-.1v-.2c.1-.2-.2-.2-.1-.2h-.1v-.2c.1 0 .1-.1 0-.1v.1c-.1-.2 0-.1 0-.4h-.1l.1.1c-.1 0-.5-.2-.4-.4v.1c.1-.1 0-.1 0-.1v-.1l-.2.2.1.3-.1.2h-.1s-.5.3-.4.1h-.3c0-.1-.3-.1-.3 0v.1h.1l.1.1-.1.1s.1.1.1.2c.2 0 .3.1.6.2v-.1l.1.1v.1h.3c-.1.1.2.1.2.1l-.1.2c.1-.1.3.2.1.2 0-.1-.1-.2-.2-.2v-.2l-.1.1c0-.1 0 0-.1.1v-.1l-.2-.1h-.2.1-.1c0-.1-.1-.1-.2-.1h.1v.1c0-.1 0-.2-.2-.2h-.1v.1h-.1v.1l-.2.2c-.1-.2-.3-.2-.4-.1v-.1l-.2-.1h-.1v-.1.1-.1l-.3-.1h-.2.1l-.2-.1v.2l-.1.1v-.1h-.2v.1h-.1v.2h.1v.1h-.1c0 .1 0 .1.1.1l.1.1h-.1.1c.1.1-.1.2.1.3l-.2.2-.1-.1h-.1v-.1l-.1.1-.1.1v9.8c0 2.3 1.9 4.2 4.2 4.2h8.5c8.8 0 11.9-4.1 13-8 .4-1.6.6-3.2.6-4.3v.2-2.4c0-.4-.3-.7-.7-.7h-7.8c-.4 0-.7.3-.7.7v.3c0 3.6-.5 5.2-4.3 5.2-4 0-4.3-2.5-4.3-6.5v-7.6c0-4 .3-6.5 4.2-6.5h.1c3.9 0 4.3 1.6 4.3 5.4v.4c.1.3.4.6.7.6h7.8c.3 0 .6-.2.7-.5v-2.1c0-1-.1-3.1-.5-4.7-1-3.8-3.9-7.9-12.3-8.1h-2.4c-6.7-.4-9.8 1.9-11.5 4.7"/><defs><path id="SVGID_1_" d="M-162.7 257.5l.1-.1-.1.1m-.2-.3v-.1.1m.9-.1v.4h.1c-.1-.2 0-.3-.1-.4m-2.1-.5c.1.1-.1.2 0 .2v-.2m1.4-.2l.1.1-.1-.1m1.5 0v.1h.1l.1-.1h-.2m-.9-.2l.1.1-.1-.1m-.2 0c-.1.1 0 .1 0 .1v-.1m.9 0v-.1.1m-.6-.2l.1.1c.1 0 .1-.1-.1-.1.2.1.1 0 0 0 .1.1.1 0 0 0m-.5 0c.1 0 .1 0 0 0m.9-.1l-.1.1h.1v-.1m1.8-.1v.1-.1c0 .1-.1.2-.1.2h.1s0-.1 0 0v-.2m-2.6.1l.1-.1-.1.1m.1-.3c.1 0 0 .1 0 .1v-.1m-1.2.1h-.1v-.1c0 .1-.2.4-.3.3 0 .3.4-.2.4-.2l.1-.1-.1.1m2.4-.2l-.1.1c0 .2.1.1.2 0l-.1-.1m.5 0h.1v-.1l-.1.1.1-.1-.1.1m6.8 0l-.1.1.1.1v-.2c0 .2 0 .3.1.2h-.1v-.2l.1.2.1-.1v.1c0-.1.1-.3-.1-.3.1 0 0 .1 0 0 0 .1-.1 0 0 0l-.1.1m-10.6-.2c-.1-.1 0 .1 0 0m4.2-.1c.1.1 0 0 0 0v-.1.1m.3-.2h.1-.1m3.4 0l.1.1c.1 0 .1 0 .1-.1h.1v-.1l-.3.1M-158.2 255.2l.2-.1h-.2v-.1.2m1.7-.1v-.2s-.1.2 0 .2m-3.6 0v.2c0-.1.1-.1.1-.2l-.1.1v-.3.2-.2.2-.2.2m-3.1-.2v.2-.2m6.8-.1v.1-.1l.1.1-.1-.1m2.3 0c0 .1.1.3.1.3h.2l-.3-.3m.2-.1c-.2.1 0 0 0 0m-9.1 0c-.1.1-.2.3-.2.3l.1-.1c0-.1.1-.1.1-.2h.3-.3m9.2 0l.1.2v.1l-.1-.3.1.1c0-.2 0-.1-.1-.1l.1-.1-.1.1m-.4-.1v.3l.1.1-.1-.4m.2-.1l.1.1v-.1s0 .1-.1 0m-3.7 0c-.1.1 0 .1 0 0l.1.1-.1-.1m1.2.3l.1-.1-.2-.1c0 .1 0 .2.1.2m2.2-.2l-.1-.2.1.2m-1.2-.1h.1-.1m-4.2-.1l.2.1v-.2l-.2-.1v.2m1.5-.2v.2-.2m-5.6 0v.2-.2.2-.2m4.4 0h-.1c.2.2.1.1.1 0m-5 0c0-.1.1 0 0 0m.7-.1s-.2.1 0 0m-1.3 0c0 .1-.2.1-.1.1l.1.1v-.2l.1.1h-.1.1l-.1-.1m10.5-.1l.1.1v.1c.1 0-.1 0 0 .1h.1c0 .2 0 .1.1.1l.1.1v-.2.1l-.3-.2-.1-.2m-9 .1v-.1c-.2 0-.1.1 0 .1m5.4 0c-.1 0 0 0 0 0-.1 0-.4.1 0 0l.1-.1v-.2l-.1.3m-4.3-.1h.1-.1m7.4-.3v.1-.1m-7.8.1l-.2.2h.1l.1.2h.1l.1-.1c-.1.1-.1-.2-.2-.3l.1.1c.1-.1 0-.2-.1-.1m.6 0v.1-.1l.2-.2h-.3l.1.2m6.2 0l.1.1v.3-.1h.1c.1-.1.2 0 .2 0l.1-.1c-.1 0 0 0 0 0l-.5-.2c0-.2 0-.3-.1-.3 0 .1 0 .2.1.3m-5-.4c0 .1 0 .2-.1.2 0 .1.1.3.1.3h-.1c0 .1.1.1 0 .2s.1.1.2.2c0 .1.4.3.5.1v-.2c0 .1.1-.1.1-.1 0 .1.1-.1.1-.1v-.1l-.1.1c-.1-.1.1-.2 0-.2v-.1c0 .1.2-.1.2-.1l-.1-.1.1.1h-.2l-.3.4c0-.2-.1-.3-.2-.4h.1l-.1-.1h.1l-.1-.1h-.2m.3-.1v.2h.1v.1c0-.1.1-.1.1-.2l-.2-.1m4.9-.1l.1.1.1-.1c-.1.2.1.2.2.2v.2-.1.1l.1-.1c0 .1.1.1.1-.1h-.1l.1-.2h-.1l-.1-.1c-.1.1-.1.1-.1 0l-.1.1c-.1 0-.2 0-.2-.1v.1m-.9-.1l.1.1c0-.2-.1-.1-.1-.1m4.3-.1s-.1.1 0 0m-3.5.1s-.2.1-.1.1l.1-.1v.2c0 .3.3 0 0-.2m-1.3-.1c0 .2.1.1.1.2l.3-.2c-.1 0-.2-.1-.3-.1l-.1.1m4.9.1c0-.1-.1 0 0 0m-12.5-.4c.1 0 .1 0 0 0m3.7-.1l-.1.1.1-.1M-164.7 252.4l.2.1-.1.1.1.1.1-.1v-.1l-.2-.2-.1.1m4-.2h.1-.1l.2.1-.1-.1h-.1m-.7 0l.1.1v-.1h-.1m.4.1c-.1 0-.1.1 0 0v.2l.1.1h.1l.1-.1s-.1.2 0 0v.1h.2c0-.2-.2-.1-.2-.2.1-.1-.1-.1-.2-.1h-.1l.2-.1c0-.1-.4 0-.2.1m3.4-.1v.1-.1m-.1 0c0-.1.1-.2 0-.1v.1-.2h-.1c0 .2.1.2.1.2m-2.7-.1h-.1.1c0-.1-.1-.1 0 0m3.2-.1s-.1.2-.1.3l.1-.3m-2.3 0c0 .1-.2.1-.2.2l.1.1v.1l-.2.2.3.1.1-.1.1.1h.2l.1.1c0-.1 0-.3-.1-.3v.1-.4.1s-.1-.1 0-.1h-.3c.1 0 0-.2-.1-.2-.1.1.1 0 0 0m1.5 0c-.1.1 0 0 0 0m-1.4 0l.1.1c.1-.1 0-.1-.1-.1m-.6-.1v.1-.1.3h.1c0-.1 0-.1 0 0l-.1-.1c.1 0 0-.1 0-.2m-1.4 0c-.2.1 0 .2 0 .2v-.2m3.1 0c0 .1 0 .3.1.1v.1l-.1-.2m.2-.1s0 .3.1.2c.1.1.1.2.2.2l-.1-.1.1-.1v-.1s-.1.1 0 0h-.1c.1 0 0 0 0 0s0-.1-.2-.1m-2.2-.1h.1-.1M-161.1 251.6c0 .1 0 0 0 0m4 .1c0 .1.2.3.2.4v.1-.2.1-.5c-.1.2-.1.1-.2.1l.1-.2-.1.2m-6.9-.1h.1-.1m5.7 0l.2.1.1-.1v-.1h-.1l-.1-.1-.1.2m1.5-.1h.3c0-.1-.1-.1-.2-.1l-.1.1m.3-.1l.1.1-.1-.1M-157.1 251.3l.1.1-.1-.1m-1 .1v-.1c-.1.1-.1.1 0 .1m.9 0l.1-.1-.1.1m-.4-.2c-.1.2-.2.2-.2.3 0 0 .2 0 0 .1l.2-.1v-.3m-3 0c0-.1-.1 0-.1.1l.1-.1c.1.1.1.2.1 0h-.1m3.1-.1s-.1.2 0 0m-.4 0l.1.1-.1-.1m1.3 0c.1.1.1 0 .1.1v-.1h-.1m-1.5-.4c-.1 0-.1 0 0 0-.2.2 0 0 0 0m.1.1s-.1 0 0 0m2.8-.1v.2-.2m-6.9-.1c0-.1.1-.1 0 0m4.6-.1l.2.1v-.1h-.2v-.1.1m-4.2 0c0 .1 0 .1 0 0l.1-.2-.1.2m6.7-.1v.2h-.1v-.1s.2.1.2 0v-.1c.1-.1 0-.2-.1-.2v.2m-1 1.2c0 .1 0 0 0 0m.1-.4l.1.1c-.1.1-.1 0-.1-.1v.1-.1c.1 0 .1 0 0 0m-1-.8l-.1-.1.3.3c0-.2.3.2.3.2l.1-.2h.1v.1l-.1.1v.1-.1.1c0-.1.1.1.1.1h-.1c0 .1.2.2.1.3h-.1l-.1.1c-.1.3-.1.1-.2.1v-.1h-.1v.4s.2 0 .1-.1l.1-.1c0 .1.1.1.1 0l.1.2v.1l.3.1s.4-.4.2-.5v-.1h-.1s-.1.1-.1 0c.1 0 .1-.2.1-.2v-.1h-.1c.2 0-.1-.3-.2-.2 0 0 0-.4-.2-.3l-.2-.1-.1-.2c-.1 0 .1.2 0 .2 0-.1-.1-.1-.2-.1v.1h.1-.1v.1l-.1-.2c0 .1 0 0 .1 0h-.2c.3-.2.2-.1.2 0m-.9-.1h.1-.1M-157.7 250.2v.1c.1-.1 0-.1 0-.1m2.1 0v.2h.1c0 .1 0 .2.1 0 0 .1 0 .1.1.1h-.1c.1 0 .3-.1.3-.2s-.2 0-.3 0v-.1h-.1c0-.2-.1-.1-.1-.1v.1l.1-.1-.1.1m-6.9 0v-.1.1m7.2-.2c0 .1.1 0 0 0M-155.5 250s.1.1 0 0m-5.1 0l.1-.1-.1.1m-.1.6c.1.1 0 0 0 0m.2-.4h-.2c-.1-.2-.1.2-.1.2l-.1.1h-.1l.1.1h-.2v.1h-.1s0 .3.1.1v.1c-.1-.1-.2.1-.2.2v.1l-.2-.1v.1h-.1v-.1c-.1 0-.1.2-.2.1v.2h.1v.1h.1v.2l.2.1h-.1l.2-.3v-.1c0 .1.1 0 .1-.1l.3-.1c-.1-.1 0-.1 0-.3.2 0 .1.1.1.1.1 0 0 0 .1-.1h.1v-.1h.2c.1-.3-.1-.4.1-.4 0-.1 0-.2.1-.1v.1c.2 0 0-.2 0-.2h.2l.1-.1c-.1 0-.1-.1-.1-.2-.3 0-.5.3-.5.3m-1.5-.3s.1.1 0 .2v-.1.2c.1.2.2 0 .1-.2 0 0 0-.2-.1-.1m1.6-.1c0 .1 0 .1 0 0m5.5-.1l.1.2v-.1h.1v-.1h-.2m-7.3-.1c-.2.1.1.4.1.3l-.1-.1h.1l-.1-.2m0-.1c0 .1.1 0 0 0m1.7-.2l-.1.1.1-.1c-.1 0-.1.1 0 0l-.1.2v.1h-.1c0 .1-.1.2-.1.1-.1 0-.3.2-.2.3.2 0 .2-.1.3-.3l-.1.1.1-.1.2-.1-.1-.1v-.1l.2-.2c0 .1-.1.1-.1.1m-.4 0c.1.1 0 .1 0 .2h.2c.2-.1 0-.2.1-.3l-.3.1m-.6-.2l-.1.1.1-.1c.2.1-.1.1 0 0h.1-.1m2.7 0l-.2.2h.1c.1 0 .1-.1.1-.2m-1.5-.1c0 .1.1.1.1-.1l-.1.1m5-.2l.1-.1-.1-.1v.2m-.4-.1l.1.1-.1-.1m-3.2 0l.1.1-.1-.1m.8 0v.1l-.1.1v.1h.1v-.1c.2-.1.1-.2 0-.2m2.2.1v-.2.2m-3-.1c-.1-.1-.1 0 0 0m4.8 0s.1 0 0 0h.2l-.1.2.1.1c-.1 0-.1-.1-.2-.1v.1c.1 0 .1.1.2.1l.3-.1c0-.1 0-.1-.1 0v-.2l-.1-.1-.2-.1-.1.1m-.3-.1c.1.1 0 .2.1.2l-.1-.2m-1.1 0s0 .1.1.1l-.1-.1m1.4-.1c-.1.1 0 .2 0 0m-.8.2c0 .1-.1 0 0 0l-.1.2v.1h.2l-.1-.3c.1.2.2.2.2.3l.1-.1c-.1 0 .1.1.2.1h.2v.1c0-.2-.1-.1-.1-.1v-.1l-.1.1-.1-.2h-.1c0-.1 0-.1.1-.1h-.1c-.1 0-.1 0-.2-.1l-.1.1M-155.1 248.5v.3l.1-.1c0 .1.1-.1.1-.1l-.2-.1m-4.4-.2v.2h-.2v-.1l-.1.2h-.1c0 .1.2.3.3.2.1.2.5-.1.3-.1v-.1h-.1c.1 0 0-.1 0-.1l-.1-.2m3.6 0v.1l.1.1s.2 0 0-.1l-.1-.1m-1.5.2h-.2v.1h-.1v.1h.2l.1-.3s-.1-.1 0 .1m1.4-.1c.2 0 0 0 0 0m-2.7-.1v.1-.1m-2.2.1c.1.1.1 0 .1-.1l-.1.1m5-.1c-.1 0 0 0 0 0m2.7-.1c0 .1.1-.1 0 0m-2.8-.2c.1.1.2.3.3.1h-.1l-.2-.1m-1.6 0l.1.1v-.2l-.1.1m-.2 0l.1-.1-.1.1m1.3 0l.2.1v.1h-.1c-.3-.6 0 0 0 .1h-.1l.1.1v-.1l.1-.1v.2l.1-.1.2.1h-.1c.1-.2-.2-.2-.2-.2 0-.2.1-.4-.1-.4v-.1l-.2-.1c.1.2.1.3.1.4m-.2-.3l.1-.1-.1.1m.1-.1c0 .1.1.1 0 0m-.1 0v.1-.1m0-.1c.1-.1.1-.1 0 0v-.1s-.1.1 0 .1m-1.2 0v.3l.1-.1v.1l.2-.1.2-.1c0-.2-.1-.2-.1-.2h-.1c-.1 0 0 0 0-.1-.2-.1-.3.1-.3.2m-2.5-.4c-.1.1 0 .2 0 0m0-.1v.2c.1 0 .2-.2 0-.2m1.6.1v-.1.1m1.4 0v.1-.1.2c0 .1.1.1.2.1h.1v-.3l-.1-.1c-.1 0-.2.1-.2.1m-.1-.2s0 .2 0 0m-3.2.2v.1c.1-.1.1 0 .1.1l-.1-.2c-.1-.1 0-.1 0-.2h-.1c.1 0 .1.1.1.2m3.4-.2v-.1.1m-2.9-.1l.1.1h.1c-.1-.2-.1-.2-.2-.1m-2.7 0s0 .2 0 0l.1-.1-.1.1m.1.1l.1-.2-.1.2m4.5-.2l.1.2.1-.1s.1.3.2.1c-.1-.1-.1-.2-.2-.1v-.1h-.2m-2.2-.2v.3c.1.1 0 .2.1 0v.1c.2 0-.1-.3 0-.3v.1l.1-.1-.1.1c0-.1.1-.1.1-.1-.2-.1-.2.1-.2-.1m4.6 0h.1l-.1-.2v.2m1.2-.1v.1-.1m1 0v-.2.2m-6.7-.1c.1 0-.1.2 0 .2l.1-.1v.1c0-.2-.1-.2-.1-.2m-2.7-.3l.1-.1c-.1 0-.1 0-.1.1m8.3 0h-.1.1l.1.2h-.2c.1.1.2.2.3.2l.1.1h.2l.1-.1v-.2h-.5l-.1-.2c-.1.1.1 0 .1-.1.1-.1-.1 0-.1.1m-4.7 0l.1.1-.1-.1m-.2-.2l-.1.1h-.2l.1-.1-.1.2h-.1c.1 0 0-.1.1-.1 0-.1-.1-.1-.1-.1v.3l-.2.1v.1h-.1c0 .2.1.2.2.2h.1v-.1h.2v.2c.1.2 0 .2-.1.2v.1l.1.1-.2.2h.2c.1.1.1.1.3 0 .1 0 .4-.3.4-.1l.1-.1.2.1v-.3c.2.3.2-.4.2-.4 0-.1-.2-.1-.2-.1h-.2c.1-.1 0-.1 0-.2 0 0-.3.1-.2 0h.1l-.1-.1c-.1-.1-.1-.1-.2-.3h.1v-.1l-.3.2m.7-.2v.2h.1l-.1-.2m3.9.7c-.3-.1 0-.1 0 0m-.1-.6h-.3v.2h-.1v-.1l-.1-.2h-.1c.1.1 0 .2 0 .3h.1c0 .1.1 0 .2 0h-.1c0 .1.1 0 .1.1h-.1l.1.1h-.1l-.1-.1v-.1l-.1.1.2.2v-.1.1h.2c0 .2.1 0 .2 0 0 .1.1.2 0 .3h.3c.1.2.3 0 .3 0v.1-.1c-.1.1-.2-.1-.3-.2l-.1-.1v-.2l-.1.1v-.1l.1.1v-.2.1h-.1v-.2l-.1-.1.1.1c0-.1.1-.2 0-.3l-.1.2m-4.8 0v-.1.1m0-.1l.1.2-.1-.2h.2v.1l.1-.1h-.3m4-.1c-.1-.1-.1 0-.1-.1h-.1l-.2.2v.1l.1.1v-.1.1l.1-.1-.1.1c.1 0 .1-.1.1-.2v-.1c.3.2.3.1.2 0v-.2c0 .1.1.2 0 .2m-3.5-.1l.1.1h.1v-.1l.1.1v.1h-.1v.1c.1-.2.3-.1.3.1v-.2c0 .1 0 0 0 0v-.1h-.2v-.1c0 .1.1 0 .1 0h-.4m-.6 0l.1-.1-.1.1m6.7 0c-.2.1.2.2.3.2l-.3-.2h.2-.2c.1.1-.1-.2 0-.2h-.2c0 .2.1.2.2.2m-7.3-.2c0 .2.1 0 0 0m.2.1h-.1v.1c-.1-.1-.2 0-.2-.1h-.1v.2l-.1.1c-.1.3.2.1.4.2v-.1l.1-.2.1-.1-.1-.1.1.1-.1-.1c.1 0 .2.1.2-.1h-.1s-.1 0-.1-.1v.2m4.3-.1h-.1.1m.5-.1c0 .3.3.1.3.1h-.1l-.2-.1m.8 0l-.2.2v.2h-.1c.1 0 0 0 0 0l.2.4c0-.1 0-.3.1-.2v.1c.1 0 .2-.1.2-.2v.1l.1-.1v-.5h-.1c0 .1.1.2.1.3 0 0-.1-.3-.2-.2l-.1-.1v.1-.1.1c0-.1.1-.1 0-.1.1-.1 0 0 0 0m-.2-.1s.1.1.1-.1l-.1.1m-3.2-.2c-.1.2-.1.2 0 .2 0 0-.1.1 0 .2 0-.2.1-.3 0-.4m-.8 0l-.1.1.1-.1c-.2 0-.1.2-.1.1l-.1.1h.4v.1-.2c.1 0-.1 0-.2-.1.2 0 0 0 0 0m6.3 0c0 .2.1 0 0 0m-6-.4l.1.1h-.1c-.1.1.1.1.1 0v.1c.1 0 .1 0 .1-.1h-.1l-.1-.1h.1-.1.1-.1l.1-.1h-.1v.1m1.6 0c.1-.1-.2-.1-.2 0l-.1-.1v.1l-.1-.1v.1s.2.3.3.2c0-.2.3-.1.3-.1l.1.1.1.1v.1l-.2-.1-.1.1.2.2c0 .1.1.1 0 .1v.1h-.1c0 .1.1.1.1-.1.1 0 .1-.3.2-.4v.1c0 .1 0 .1-.1.2l.1-.1h.1v-.1h-.1c.1 0-.3-.4-.2-.5l-.1.1v-.2l-.2.2m-1.8-.1l.1.2h.1-.1c.1-.1-.1-.3-.1-.2m1.2.2h-.2v-.2s0-.1-.1 0l-.2.2v.1-.1c0 .1.1.2.2 0 0 .1 0 .2.1.1-.1.1.1.2.1.2v.1-.1l.2.1c0-.1-.1-.4-.1-.4h.1-.1c.1 0 0-.1.1-.2l-.1-.1v.3m-1.8-.4c-.1.1 0 .1.1.2v.1c.1-.1.1-.1.1-.2s-.1-.1-.1-.1h-.1m.7-.2v.1-.1m-.8-.2h.1-.1m2.1 0l-.1.1h.1c-.1-.1.1-.1 0-.1m-.2-.1l-.2.1v.2c.1 0 .2.2.2 0v-.3l.1.2v-.1l-.1-.1m1.3-.7h.2c0-.1-.1 0-.1 0h-.1m-2.3 0h.1c.1 0 .1-.2.1-.2h-.1c-.1 0-.1.1-.1.2m2.1-.1v.2-.2s.1-.1 0-.1v.1m-2.2-.2c.1 0 .1.1 0 0m1.3-.1c-.1.1 0 0 0 0m-1.2.1v-.1c0-.1-.1.1 0 .1m.8-.2v.1-.1.1c0-.1-.1.1-.2.2h.1-.1.1v-.1.1h.1-.1.1v-.1l.2-.1v-.1h-.2m.5-.1c0-.1-.1 0-.1.1l.1-.1c.1.1 0 .3.1.2 0 .1.1.2.1.1.1 0 .1 0 .2-.1v.1h.1l.1-.1h-.2s0-.1-.1-.2l.1.1h-.2v-.1.1l-.2-.1c0 .1 0 .1 0 0m1.6-.1c0 .1 0 0 0 0m-1.7 0v-.1.1m-2.1-.2l-.1.2.1-.2v.2-.2m3.9 0c.3.1.1 0 0 0v-.1.1m-2.6-.1l-.1.1.1-.1-.2.2.1-.1.1-.1v.1l.2-.1s-.2.1-.2 0m.1-.1l.1.1v.1l.1-.1c-.1 0 0 0-.1.1 0-.2.1-.2-.1-.2M-158.1 241.7v.1-.1m.3 0c0 .1.1 0 .1 0h-.1m-.9-1.5c-.3.2-.1.3-.1.2v-.1l.1-.1v.1-.1m2.7 0v.2c.1-.1.1-.2.1-.3l-.1.1m-3.4-.2l-.1.1c0 .1.1.1.1.1v-.2m.4 0v-.1.1M-158.8 239.7v.2c0 .1.1 0 .1 0l-.1-.2h.1c-.1.1.1 0 .1 0-.1 0-.1-.1-.2 0m-.7 0c.1.1 0 .1 0 .1v.1h.1l-.1.1c.3-.1 0-.1.1-.2l-.1.1v-.2m-1.3-.1c.1 0 0 0 0 0m3.2-.1c-.1.1 0 .1-.1.1 0 0 .1.2.1.1l-.1-.1.1-.1m-1.2-.1v.1-.1.2c-.1-.1 0-.2 0-.2l-.1.2.1-.1v-.1m-1.8 0l-.1.2s-.1.1 0 .1v.1-.1l.1.2c.1-.2 0 .2.1.2l.1-.1v.1-.1h-.1l.1-.1v-.1.1l-.1-.1c-.1-.1.1-.1.1-.2l-.2-.2m.9-.1c.1 0 0 .1 0 0m-1.1-.3c-.2 0 .1.1 0 0m3 0c0 .1.1.2 0 0 0 0 0 .1 0 0m-1.9-.3l.1.2.1-.1c.1.1.2 0 .2.2h-.1v.1h-.1c.1.1.1.2 0 .2v.1l.3-.1-.2-.1c.1 0 .1-.2 0-.3l-.1-.1v-.1.1-.1h-.2m.2-.1c0-.1-.2 0 0 0m-.2-.2v.1-.1m.4-.2c0 .2.1 0 0 0M-152.2 253.6c0-.1 0-.1 0 0m-6.6-17.3v-3.5c0-.4-.3-.7-.7-.7h-8.2c-.4 0-.7.3-.7.7v18.4c0 .5-.4.6-.6.2l-7.2-17.4-.3-.7c-.5-1.1-.5-1.2-1.9-1.2h-8.9c-.4 0-.7.3-.7.7v36.4c0 .4.3.7.7.7h7.8c.4 0 .7-.3.7-.7v-18.4c0-.5.4-.6.6-.2l7.2 17.4.3.7c.2.7.9 1.2 1.6 1.2h5.5c2.3 0 4.2-1.9 4.2-4.2v-9.5c-.1 0-.2-.1-.3-.1l-.1-.1.1.2h-.2v-.1.1l.1-.1h-.2c0 .2 0 .3.1.2h.1l.1.1h-.1l.1.1s-.2 0-.2-.1v.2-.1l-.1.1-.1.1c-.1.2 0 .2 0 .2h-.3c-.2 0-.3.1-.5.1l.1-.1-.1.1-.2-.1h.1c-.1-.1 0-.3-.2-.3v.2l-.1-.2-.1.1-.2.5v-.1l.1.1h-.1l.1.1-.1.4v-.1c-.2 0-.2 0-.2.2h-.1v-.1l-.1.2h-.1c0-.1.1-.3.1-.4h-.1l-.2.2v-.1l-.1.3-.2.1v-.1h-.1c0 .3.2.2 0 .2l-.1.1c-.1.1-.1.3-.2.1-.1-.2 0-.3 0-.3.1 0 .1-.3.2-.4l-.1.1v.1-.1h-.1s-.1-.2-.2-.2c0-.2-.1-.2-.2-.3l.1-.1-.1-.2s.1-.1.2.1v-.1c.1-.1.1-.5.3-.4-.2-.2 0-.4.1-.5 0-.1 0-.5.2-.3v-.1h.1v-.1h.1l-.1-.1.1-.1h.1-.3v-.1.1-.2l.3.1c.1-.1 0-.2 0-.2 0-.1 0-.2.1-.3v.1-.2.1l-.1.1-.2.2v-.1l-.1.2h-.1l-.3.3v-.1c-.1.1-.2.5-.2.3l.1.1c-.1 0-.2.1-.1.2-.1-.1 0 .3-.2.3-.1 0-.1.2-.2.3l-.1-.3h-.1v.1h-.1c0 .2-.1.1-.1.1h.2v.1l.1-.1v.1h-.1v.1-.1.1h-.2v-.2h-.1c.1.1-.1 0-.1-.1l-.1-.1.1-.1h.1v-.2l.1-.2h.1l.1-.1-.2.5.1-.1-.1-.3-.2.2c-.2.2-.4.3-.3 0h.1c0-.1-.2-.4-.1-.4-.4-.3 0-.3.1-.3 0 0 .1-.3.2-.1.1-.2.3-.1.4 0h-.1l.1.2v-.1l.2-.1h-.1c0-.1.1-.1.1 0h.1-.1s.4-.2.4-.3l-.1.1c0-.1.1-.1.1-.1v-.1h.1v.1c.2-.2.4 0 .4-.3h.1v.2l.1-.2c.1.1.2-.1.2-.2-.2.1-.5-.1-.6-.1v-.1h-.2c.1.1 0 .1 0 .2l.1.1h-.1l-.2.1v-.1h-.1c0-.1 0 0 0 0v-.1s-.1 0 0 .1h-.1l.2.1c.1.1 0 .3-.1.1v-.1l-.1.1.1.2h-.1l.1-.1-.1.1v.2h-.2c-.1 0 0-.3.1-.3 0 0-.1-.3-.1-.1h.1-.1v.2-.1s-.2.1-.1.1h-.1v-.2.1h-.2c0 .1-.1 0-.1.1v.1l.1.1c-.1.1-.1.2-.2.3h-.2l.1-.1h-.4v-.1.2-.1h.1c0 .1-.2.2-.2.2.1 0 .1.1 0 .2h-.2v-.3l.1.1-.1-.2h-.1s0-.2-.1-.1c0-.1.1-.1.1-.1h.1l-.1-.1h.1c-.1.1.1 0 .1 0h-.1c.1-.1 0-.1 0-.2 0 .1.1.1.2.1v.1-.1c.1 0 .2 0 .2-.1h.1l-.1-.1.1-.1h.1-.1v-.2.1c0 .1-.1.1-.1.1h-.1l.1-.1-.1.1h.1v.1c-.1-.1-.2 0-.2.1h-.1c0-.1-.2-.2 0-.2 0-.1-.3-.3-.2-.4 0-.1-.1-.4-.2-.6h.1c0-.1.4-.6.4-.8h.1s0-.4.2-.2h-.1.1v-.3l-.1.1c0-.1-.2-.2-.2-.4.2 0 .3 0 .4-.1 0-.2-.1-.1-.1-.2h.1v-.1c.2.1.1 0 .3.2.1.1.1 0 .1-.1h.1v-.4c.2-.1.2-.3.2-.5-.1-.2.1-.2.1-.3 0 0 .2.1.1-.1v-.1c-.2.2.1-.1 0-.2h.1s.1.2.2.1c-.1-.1 0-.1 0-.2h.1c-.1.1.3.3.4.3v.1h-.2l.1.1c0-.1 0-.1.1-.1v-.1h-.1v-.2l.1.1h.1v-.1h.1v.1s.1 0 .1-.1h-.1c.1 0 .2.1.1-.1h.1c-.1-.1.1-.1.2-.1 0-.1-.2-.2-.2-.1l.1-.1c0-.1-.1.1-.1.1v-.1h-.1v.2-.1.1h-.2l-.1.2c0 .1-.1-.2-.1-.4-.1-.2-.1-.5 0-.3 0-.1 0-.2-.1-.2s-.1 0-.1-.2h.3-.1l.3-.3h.1c0-.2.3-.1.3 0 .1-.1.5-.1.6-.1 0-.1.1-.3.1-.2h.1v-.3l.3-.2h-.1.3l.1-.1h.1v-.1c0-.1-.2-.1-.3-.1h.1c0-.2-.3-.3-.2-.2v-.1.2c-.1-.1 0 0-.1.1-.1 0-.2-.3-.2-.4.1 0 .2-.2.1-.2v-.1s.3-.4.4-.6l.1-.1.1-.1c-.1-.1 0 0-.1-.2h-.1l.1-.1h-.1c-.1 0-.2-.1-.3.1l.1.1h-.2v-.1l-.1.1v.2c0-.1-.2 0-.2.1s-.3.1-.3 0h.2c-.1 0 .1-.3 0-.3v-.1l-.2.1c.2 0 0 .2-.1.3h-.2v.2h-.2s0-.2-.1-.1v.1c0-.2-.4.2-.2.2.1.1-.2.1-.2.1v.1l.1-.1v.1-.1.1h-.1l-.1.1v.2h-.2c.1 0 .1-.2.1-.2h-.1c0 .3-.2.2-.2.1l-.1.1h.1l-.1-.1v.2c0-.1 0-.2.1-.2l-.3.1.1.1h-.2l-.2-.2-.1.1c-.1-.1.1-.5.1-.7v.1c0-.2 0-.4.1-.4l.1-.2c.2 0 .2.1.3.2-.1-.1 0 0 0 0h.2s0-.1-.1-.1h-.2l-.1-.1.1-.1v-.5c-.1 0 0 .1 0 .1-.2-.3-.1-.3 0-.5h.3v-.4l.1-.1c.1 0 .1.1.1.2l.2-.1c.1-.1.2-.1.2.1l.1-.2v.1s.1-.2 0-.2v.1c0-.2-.2-.3-.1-.5l.2-.3c.1-.1.2-.1.4-.3h-.1.3l.1-.1c0 .1.1.2.1.2v-.1c.1.1.1 0 .1 0 0-.1.4-.2.4-.2v-.4.1l.1-.1.2-.1c0-.1.2-.1.2-.3l.1.1-.1-.2h.1v.1h.1s0-.1 0 0v.1l.1.1v-.1c0-.1-.1-.2 0-.3 0 0-.5.2-.6.2l-.1-.1s-.5.3-.6.1h.1l-.3-.1v.1-.5c.1-.1.3 0 .3-.2 0 0 .3 0 .3.2.3-.5.3-.4.3-.6 0 0 .2-.1-.1 0l-.1.1v-.3l.1.1.1-.2v.1-.1.1-.3l.1.2.1-.4h.3l-.1.1h.2l-.1-.1-.1-.1c.1 0 0 0 0-.1s-.1-.1-.1-.1-.3-.1-.3-.3c.1.2.1-.2.1-.2 0 .1-.1.1-.2 0h-.1c0-.1 0-.2.1-.3h-.1c0-.1 0-.2-.1-.3.2 0 0-.3-.1-.3-.1-.3.2-.2.3-.4h-.1c0-.2.3-.4.5-.4l.2.2h.1c-.2 0-.2-.4-.1-.5.2 0 .5-.3.7-.3l.1.1c.1.1.2.2.2.1v.1c0-.1.4-.1.3.2 0 0 .1 0 .1.1l.1-.1c.1 0 .5 0 .5.1l.1-.2c0-.1.1-.2.1-.2v.1h.1v-.1.1h.3c.1 0 .3 0 .3-.1 0 .3.2.2.2.4v-.1.1-.1l.1.1s-.1.1 0 .2c-.1.1 0 .2 0 .3v-.1l-.1.2c-.1-.1-.2 0-.3 0 0 .2.2.3-.1.4h.1-.1s.6.5.2.5c0 0 .3.2.3 0l.3-.3v.1c.1 0 .1-.3.1-.3h.1c.1-.1.2-.1.2.1.1-.1.1-.1 0-.2v-.2l.2-.1v.3s-.1.2 0 .3c0 0 .4-.2.2-.3h.3c.1.1.2.2.1.4 0 0-.1.2-.2.3h.1s-.1 0 0 .2l.1-.1v.2c0 .2.2 0 .2.3 0-.1.1.3.1.4l.1-.1c.1.2 0 .3-.1.4.1.1.1.1.1.3v.1l.2.1c.1 0 0 .1.1.2 0 .2-.1.2-.1.2l-.3.6-.3-.2v.1h.1v.3c0 .1.2 0 .2-.2l.1.1c0-.2.1-.1.2-.2.1.1.3 0 .2 0 .1-.2.2-.1.4-.1v.1l.1-.1h.1c0 .2.1.2.2 0 .2 0 0 .5.1.6 0 .1 0 0 0 0v.2h.2l-.1.2-.2.2.1.2c-.1 0 0 .1-.1.2-.2-.5-.2-.3-.1-.2v.1c0-.1.1-.1-.1-.1l-.1.1c-.2 0 0 .2 0 .3.1-.2.2-.1.3-.1h.2c0 .1.1 0 .2 0h.1v.1c.1-.1.3 0 .3-.4.1 0 .1 0 .2-.1v.1h.1v.1h.1v.2s0 .1-.1.2c0 .1-.1.2-.2.2.1.1 0 0 0 .1l.2.1c.1.1.2.2.3-.1l.3-.2.1.2.1-.1v.1-.1h.1l-.1.4-.1-.1-.1.1h-.1v.1l-.1.1h.1c0 .2.2.2.3.3 0 .3-.1.3-.3.4h.1c0-.2-.1 0-.1 0-.1.1-.2.3-.4.3v.2-.1.4s-.1-.2-.1.1l-.1-.3v.2c0-.1-.1-.1-.2-.1.1.1 0 .1.1.3h-.2v-.2.1-.2l-.2.2-.1-.2v.2l.1.1v-.1l.1.1.1-.1v.1h.1s.1.1 0 0h.1v.1l.2-.1v.2c.1-.1.1 0 .3.1l.1-.1c0 .2 0 .3-.2.3.1.1-.2.2-.2.2-.1 0-.1-.1-.1.1h-.2v.1h-.1v.1-.1s.1.1.1 0c.2.1-.3.3.3.1l.1.1.1.1-.1.4h.1-.1v.3c.2-.1.1.2 0 .2v.2c.5.1-.3.7-.2.5v-.3h-.2c-.3 0 0-.1-.1-.2h-.1v.1h-.1c.1 0 .1 0 .1.1-.1 0-.2 0-.1.1h-.1.1-.1c-.1 0 .1.2.2.1l.1.2v.1c.1-.2.1 0 .2.1v-.1s-.1.3-.2.2l.1.1c-.1 0-.2.1-.1.1.1-.1.1.1.1.2h-.6v-.2h-.1v-.1l-.1.1h.1l-.3.2v.1h-.1v.1s0-.2-.1 0h-.1v.1h.1v.2h-.1l-.2.3h.1-.2s.1-.1.1 0v.1c.1.1.1.2.2.1v.1c.1 0 0-.2.1-.1 0 0 .1.3.1.1v.1s.4 0 .3.2v.1l.1-.1c.1 0 .4 0 .5-.1 0 .1.1.1.2 0v.2l.1-.2c0 .2.1-.1.2-.1h.1v.4l.1-.1v.2l-.1.1h.1v.2l.2.2c.1-.1-.1-.1.1-.1 0 .1.1 0 .1-.1v.1h.3c.1 0-.1.1 0 0v-.1h.1v.1c0 .1.2 0 .1.1v-.1l.3.5v-.1.2c-.2.3-.1.3-.3.3h-.1.1-.1c-.1 0-.1.1-.3 0-.1 0-.2.1-.2.2v.2s-.2.2-.2.1v.1l-.1.1s.2.1.2 0l.1-.1c.1-.1.1-.2.2.1 0 0 .1-.2.1 0 0-.1.1-.1.1 0h.1v-.1.1-.1l.1.1.2-.1v.1c.1-.2.4-.4.5-.4 0 .2.3.1.2 0h.2v.5c-.2 0-.4 0-.5.2h-.2v.2l-.1.1v.2h.1v.2l.2.2v.1-.1h-.5l-.3.3h-.1l-.1.1v-.1h-.2c-.1.1-.3.2-.4.3l-.1-.2-.1-.1-.1.1-.1.2v.1l-.1.1c.1-.1.1 0 .1 0l-.1.1v-.1l-.1-.1v.1l-.1.1-.1-.1h.1-.1c0-.1 0 0 .1-.1l-.1-.1c0 .3-.1.2.1.4h-.2.1v.1c-.1 0 0 .1 0 .2v-.1l-.1.2c.2.1.2.1.1.1l-.2-.1-.4-.3c.1-.2 0-.1 0-.2s-.1-.1.1-.2v-.1l-.1.1v-.1c-.1 0-.3-.1-.3-.2h.1v-.1h.1v-.1l.1.1.1.1v.1c.1-.1 0-.2 0-.3h-.1v-.1.1l-.1.1.1.1h-.1v-.1s-.1-.1-.1 0v-.2l.2-.1h-.1l.1-.1v-.2c.1-.2-.2-.2-.1-.2h-.1v-.2c.1 0 .1-.1 0-.1v.1c-.1-.2 0-.1 0-.4h-.1l.1.1c-.1 0-.5-.2-.4-.4v.1c.1-.1 0-.1 0-.1v-.1l-.2.2.1.3-.1.2h-.1s-.5.3-.4.1h-.3c0-.1-.3-.1-.3 0v.1h.1l.1.1-.1.1s.1.1.1.2c.2 0 .3.1.6.2v-.1l.1.1v.1h.3c-.1.1.2.1.2.1l-.1.2c.1-.1.3.2.1.2 0-.1-.1-.2-.2-.2v-.2l-.1.1c0-.1 0 0-.1.1v-.1l-.2-.1h-.2.1-.1c0-.1-.1-.1-.2-.1h.1v.1c0-.1 0-.2-.2-.2h-.1v.1h-.1v.1l-.2.2c-.1-.2-.3-.2-.4-.1v-.1l-.2-.1h-.1v-.1.1-.1l-.3-.1h-.2.1l-.2-.1v.2l-.1.1v-.1h-.2v.1h-.1v.2h.1v.1h-.1c0 .1 0 .1.1.1l.1.1h-.1.1c.1.1-.1.2.1.3l-.2.2-.1-.1h-.1v-.1l-.1.1-.1.1v9.8c0 2.3 1.9 4.2 4.2 4.2h8.5c8.8 0 11.9-4.1 13-8 .4-1.6.6-3.2.6-4.3v.2-2.4c0-.4-.3-.7-.7-.7h-7.8c-.4 0-.7.3-.7.7v.3c0 3.6-.5 5.2-4.3 5.2-4 0-4.3-2.5-4.3-6.5v-7.6c0-4 .3-6.5 4.2-6.5h.1c3.9 0 4.3 1.6 4.3 5.4v.4c.1.3.4.6.7.6h7.8c.3 0 .6-.2.7-.5v-2.1c0-1-.1-3.1-.5-4.7-1-3.8-3.9-7.9-12.3-8.1h-2.4c-6.7-.4-9.8 1.9-11.5 4.7"/></defs><clipPath id="SVGID_2_"><use xlink:href="#SVGID_1_" overflow="visible"/></clipPath><path class="st1" d="M-188 231.2h55.9V270H-188v-38.8z"/><g><path class="st0" d="M-132.1 269.6l.3-.3c.3.2.5.3.8.3.3 0 .5-.1.5-.3 0-.2-.1-.3-.6-.4-.6-.1-.9-.3-.9-.8s.4-.8.9-.8c.4 0 .7.1 1 .3l-.3.4c-.2-.2-.5-.3-.7-.3-.3 0-.4.1-.4.3 0 .2.1.3.6.4.6.1.9.3.9.8s-.4.8-1 .8c-.4 0-.8-.1-1.1-.4zM-129.5 267.3h.5l.8 1.3.8-1.3h.5v2.7h-.5v-2l-.8 1.3-.8-1.2v1.9h-.5v-2.7z"/></g></svg>