<?xml version="1.0" encoding="utf-8"?>
<!-- Generator: Adobe Illustrator 19.1.0, SVG Export Plug-In . SVG Version: 6.00 Build 0)  -->
<svg version="1.1" id="Layer_1" xmlns="http://www.w3.org/2000/svg" xmlns:xlink="http://www.w3.org/1999/xlink" x="0px" y="0px"
	 viewBox="-99 355.2 211.7 47.4" style="enable-background:new -99 355.2 211.7 47.4;" xml:space="preserve">
<style type="text/css">
	.st0{fill:#FFFFFF;}
	.st1{fill:#288DC1;}
</style>
<path class="st0" d="M-82.8,373.7v0.4c0,0.5-0.1,0.9-0.4,1.2c-0.2,0.3-0.5,0.5-0.7,0.6l-0.3,0.3c-0.1,0.1-0.1,0.3-0.1,0.5v25
	c0,0.3,0,0.4-0.1,0.5s-0.3,0.1-0.5,0.1h-1.3c-0.2,0-0.4,0-0.6-0.1c-0.2,0-0.4-0.3-0.6-0.7c-0.1-0.1-0.2-0.5-0.4-1.1
	c-0.2-0.6-0.5-1.4-0.8-2.3s-0.7-1.9-1.1-3s-0.9-2.3-1.3-3.5s-0.9-2.3-1.3-3.5c-0.4-1.1-0.8-2.1-1.1-3s-0.7-1.9-1.1-3
	c-0.1-0.2-0.1-0.1-0.1,0v17c0,0.3,0,0.4,0.1,0.5l0.3,0.3c0.2,0.3,0.4,0.5,0.7,0.8c0.2,0.3,0.3,0.7,0.3,1.1v0.5H-99v-0.5
	c0-0.5,0.1-0.9,0.4-1.1c0.2-0.3,0.4-0.5,0.6-0.7l0.3-0.3c0.1-0.1,0.1-0.3,0.1-0.5v-23c-0.3-0.1-0.5-0.2-0.7-0.4
	c-0.2-0.2-0.3-0.4-0.5-0.6c-0.1-0.3-0.2-0.6-0.2-1.1v-0.5h3.7c0.5,0,0.8,0.3,1,0.8c0,0.1,0.2,0.5,0.5,1.4c0.3,0.9,0.7,1.9,1.2,3.2
	s1,2.7,1.5,4.2s1.1,3,1.5,4.4c0.5,1.4,0.9,2.6,1.3,3.6s0.6,1.7,0.7,2c0.1,0.1,0.1,0.2,0.2,0.2s0.1-0.1,0.1-0.2v-16.6
	c0-0.2,0-0.4-0.1-0.5l-0.3-0.3c-0.2-0.1-0.4-0.3-0.7-0.6c-0.2-0.3-0.4-0.6-0.4-1.1v-0.5h6C-82.8,373.6-82.8,373.7-82.8,373.7z
	 M-74.2,402.6c-0.9,0-1.8-0.1-2.6-0.3c-0.8-0.2-1.5-0.6-2.1-1.1s-1.1-1.1-1.4-1.8c-0.3-0.7-0.5-1.6-0.5-2.5v-17.8
	c0-1,0.2-1.8,0.5-2.5s0.8-1.3,1.4-1.8s1.3-0.8,2.1-1.1c0.8-0.2,1.7-0.4,2.6-0.4s1.8,0.1,2.6,0.4c0.8,0.2,1.5,0.6,2.1,1.1
	s1.1,1.1,1.4,1.8c0.3,0.7,0.5,1.6,0.5,2.5v17.7c0,1-0.2,1.8-0.5,2.5c-0.3,0.7-0.8,1.3-1.4,1.8s-1.3,0.8-2.1,1.1
	C-72.4,402.5-73.3,402.6-74.2,402.6 M-70.6,378.7c0-0.5-0.1-0.9-0.4-1.3c-0.3-0.4-0.6-0.7-0.9-0.9c-0.4-0.2-0.8-0.4-1.2-0.5
	s-0.8-0.2-1.1-0.2c-0.4,0-0.7,0.1-1.2,0.2c-0.4,0.1-0.8,0.3-1.2,0.5c-0.4,0.2-0.7,0.5-0.9,0.9c-0.2,0.4-0.4,0.8-0.4,1.3v18.5
	c0,0.5,0.1,0.9,0.4,1.3c0.2,0.4,0.5,0.7,0.9,0.9c0.4,0.2,0.8,0.4,1.2,0.5s0.8,0.2,1.2,0.2c0.3,0,0.7-0.1,1.1-0.2s0.8-0.3,1.2-0.5
	c0.4-0.2,0.7-0.5,0.9-0.9c0.3-0.4,0.4-0.8,0.4-1.3V378.7z M-51.4,399.9c0.3,0.1,0.5,0.3,0.6,0.5c0.1,0.2,0.2,0.5,0.2,1v0.9h-2.1
	c-0.7,0-1.2-0.2-1.5-0.7s-0.5-1-0.5-1.6v-7c0-0.9-0.3-1.6-0.8-2.3c-0.5-0.6-1.2-0.9-2-0.9h-3.3c-0.3,0-0.5,0.2-0.5,0.5v8.9
	c0,0.2,0,0.4,0.1,0.5l0.3,0.3c0.2,0.1,0.4,0.3,0.7,0.6c0.2,0.3,0.4,0.7,0.4,1.2v0.4h-5.7v-0.4c0-0.5,0.1-0.9,0.4-1.2
	c0.2-0.3,0.5-0.5,0.7-0.6l0.3-0.3c0.1-0.1,0.1-0.3,0.1-0.5v-22.7c0-0.3-0.1-0.6-0.3-0.8c-0.2-0.1-0.4-0.3-0.7-0.6
	c-0.2-0.3-0.4-0.7-0.4-1.2v-0.3h7.4c1.1,0,2,0.2,2.8,0.5s1.4,0.7,1.9,1.3c0.5,0.6,0.8,1.2,1.1,2c0.2,0.8,0.3,1.7,0.3,2.6v4
	c0,1-0.2,1.9-0.6,2.6c-0.4,0.7-0.9,1.2-1.4,1.7c0.6,0.4,1.1,1.1,1.4,1.9c0.4,0.8,0.6,1.8,0.6,2.9v6.1c0,0.2,0.1,0.4,0.2,0.4
	L-51.4,399.9 M-54.8,379.4c0-0.9-0.3-1.7-0.8-2.3s-1.2-1-2-1h-3.2c-0.2,0-0.3,0-0.4,0.1c-0.1,0.1-0.2,0.2-0.2,0.4v10.3
	c0,0.1,0.1,0.2,0.2,0.3c0.1,0.1,0.2,0.1,0.3,0.1h3.3c0.8,0,1.5-0.3,2-0.8s0.8-1.2,0.8-2.1C-54.8,384.4-54.8,379.4-54.8,379.4z
	 M-35.4,373.9c0.2,0.2,0.4,0.5,0.4,1.1v3.5h-0.8c-0.2,0-0.4,0-0.6-0.1l-0.6-0.3c-0.2-0.2-0.3-0.4-0.5-0.6c-0.1-0.3-0.2-0.6-0.2-0.9
	c0-0.3-0.1-0.4-0.4-0.4h-2.6c-0.2,0-0.3,0-0.4,0.1c-0.1,0.1-0.2,0.2-0.2,0.4v22.5c0,0.2,0,0.4,0.1,0.5l0.3,0.3
	c0.2,0.1,0.4,0.3,0.7,0.6c0.2,0.3,0.4,0.7,0.4,1.2v0.4h-5.8v-0.4c0-0.5,0.1-0.9,0.3-1.2c0.2-0.3,0.4-0.5,0.6-0.6l0.3-0.3
	c0.1-0.1,0.1-0.3,0.1-0.5v-22.7c0-0.2-0.1-0.3-0.2-0.4s-0.3-0.1-0.4-0.1h-2.4c-0.1,0-0.2,0-0.3,0.1c-0.1,0-0.2,0.2-0.2,0.4
	c0,0.2,0,0.4-0.1,0.7c-0.1,0.2-0.2,0.5-0.4,0.7c-0.2,0.2-0.4,0.4-0.6,0.5c-0.3,0.1-0.5,0.2-0.8,0.2h-0.6v-3.7c0-0.4,0.1-0.7,0.3-0.9
	c0.2-0.2,0.6-0.3,1.2-0.3h12.2C-36,373.7-35.6,373.8-35.4,373.9 M-18.2,399.2c0,0.3,0,0.4,0.1,0.5l0.3,0.3c0.2,0.2,0.4,0.4,0.7,0.6
	c0.2,0.3,0.4,0.7,0.4,1.1v0.5h-5.8v-0.5c0-0.5,0.1-0.9,0.4-1.1c0.2-0.3,0.5-0.5,0.7-0.6l0.3-0.3c0.1-0.1,0.1-0.3,0.1-0.5v-10.1
	c0-0.2-0.1-0.3-0.2-0.4c-0.1-0.1-0.2-0.1-0.4-0.1H-28c-0.4,0-0.5,0.2-0.5,0.5v10.4c0,0.2,0,0.3,0.1,0.3c0.1,0.1,0.2,0.1,0.3,0.2
	c0.2,0.1,0.4,0.3,0.7,0.6c0.2,0.3,0.4,0.7,0.4,1.2v0.5h-6v-0.5c0-0.5,0.1-0.9,0.4-1.1c0.2-0.3,0.5-0.5,0.7-0.6l0.3-0.3
	c0.1-0.1,0.1-0.3,0.1-0.5v-22.8c0-0.2-0.1-0.3-0.1-0.4c-0.1-0.1-0.1-0.2-0.2-0.2c-0.2-0.1-0.4-0.3-0.7-0.6c-0.2-0.3-0.4-0.7-0.4-1.1
	v-0.5h5.8v0.5c0,0.5-0.1,0.9-0.4,1.1c-0.2,0.3-0.5,0.5-0.7,0.6l-0.3,0.3c-0.1,0.1-0.1,0.3-0.1,0.5v9c0,0.4,0.1,0.5,0.4,0.5h6.4
	c0.4,0,0.5-0.2,0.5-0.5v-9.1c0-0.2-0.1-0.3-0.2-0.4s-0.2-0.2-0.3-0.2c-0.2-0.1-0.4-0.3-0.6-0.6c-0.2-0.3-0.3-0.7-0.3-1.1v-0.5h5.8
	v0.5c0,0.5-0.1,0.9-0.4,1.1c-0.2,0.3-0.5,0.5-0.7,0.6l-0.3,0.3c-0.1,0.1-0.1,0.3-0.1,0.5v22.4H-18.2z M1.2,402.6
	c-0.9,0-1.8-0.1-2.6-0.3c-0.8-0.2-1.5-0.5-2-0.9c-0.6-0.4-1-1-1.3-1.7c-0.3-0.7-0.5-1.5-0.5-2.5v-18.4c0-1,0.2-1.8,0.5-2.5
	c0.3-0.7,0.8-1.3,1.3-1.7c0.6-0.4,1.3-0.8,2-1c0.8-0.2,1.7-0.3,2.6-0.3c0.9,0,1.8,0.1,2.6,0.3c0.8,0.2,1.5,0.6,2,1
	c0.6,0.5,1,1,1.3,1.8c0.3,0.7,0.5,1.6,0.5,2.5v3H6.8c-0.6,0-1.2-0.2-1.5-0.6c-0.4-0.4-0.6-0.9-0.6-1.5v-1.2c0-0.5-0.1-0.9-0.3-1.3
	c-0.2-0.4-0.5-0.6-0.9-0.9c-0.4-0.2-0.7-0.4-1.1-0.5c-0.4-0.1-0.8-0.2-1.1-0.2c-0.4,0-0.7,0-1.2,0.1c-0.4,0.1-0.8,0.2-1.2,0.5
	c-0.4,0.2-0.7,0.5-0.9,0.8s-0.4,0.8-0.4,1.2v18.9c0,0.5,0.1,0.9,0.4,1.3c0.2,0.4,0.5,0.7,0.9,0.9c0.4,0.2,0.7,0.4,1.2,0.5
	c0.4,0.1,0.8,0.2,1.2,0.2c0.3,0,0.7-0.1,1.1-0.2c0.4-0.1,0.8-0.3,1.2-0.5c0.4-0.2,0.7-0.5,0.9-0.9s0.4-0.8,0.4-1.3v-1.3
	c0-0.6,0.1-1.1,0.4-1.5s0.7-0.6,1.4-0.6h1.1v3c0,1-0.2,1.8-0.5,2.5C7,400,6.5,400.6,6,401.1c-0.6,0.5-1.3,0.8-2,1
	C3,402.5,2.1,402.6,1.2,402.6 M23.9,400c0.2,0.1,0.4,0.3,0.6,0.6c0.2,0.3,0.3,0.6,0.3,1.1v0.5h-5.6v-0.6c0-0.5,0.1-0.8,0.3-1
	s0.4-0.4,0.6-0.5c0.2-0.2,0.3-0.5,0.3-1c-0.1-0.7-0.2-1.3-0.3-1.8s-0.1-0.9-0.2-1.4c-0.1-0.4-0.1-0.7-0.1-0.8
	c-0.1-0.3-0.1-0.5-0.2-0.5c-0.1-0.1-0.3-0.1-0.5-0.1h-4.9c-0.5,0-0.7,0.2-0.7,0.7c0,0.1-0.1,0.4-0.1,0.8c-0.1,0.4-0.1,0.9-0.2,1.3
	c-0.1,0.6-0.2,1.2-0.2,1.8c0,0.3,0,0.4,0.1,0.5s0.1,0.2,0.3,0.3c0.2,0.1,0.4,0.3,0.5,0.5c0.2,0.2,0.3,0.6,0.3,1v0.6H8.7v-0.6
	c0-0.4,0.1-0.8,0.3-1c0.2-0.2,0.4-0.4,0.6-0.5s0.3-0.3,0.4-0.5c0.1-0.2,0.1-0.4,0.2-0.6c0.7-4.1,1.4-7.8,1.9-11.1
	c0.3-1.4,0.5-2.7,0.7-4.1c0.2-1.3,0.4-2.5,0.6-3.6c0.2-1,0.3-1.9,0.5-2.5c0.1-0.6,0.2-1,0.2-1c0-0.2,0.1-0.4,0.1-0.5
	c0-0.2-0.1-0.3-0.3-0.3c-0.3-0.1-0.5-0.3-0.6-0.6c-0.1-0.2-0.2-0.6-0.2-1.2v-0.5h4.1c0.6,0,1.1,0.2,1.4,0.6c0.3,0.4,0.6,0.8,0.6,1.2
	c0,0.1,0.1,0.5,0.2,1.2c0.1,0.7,0.3,1.6,0.5,2.8c0.2,1.1,0.4,2.4,0.7,3.8s0.5,2.8,0.8,4.3c0.6,3.4,1.3,7.3,2.1,11.6
	c0.1,0.2,0.1,0.4,0.2,0.5C23.6,399.8,23.8,399.9,23.9,400 M18.7,392.1c0.2,0,0.3-0.1,0.4-0.2c0.1-0.1,0.1-0.3,0.1-0.4
	c0,0,0-0.3-0.1-0.7c-0.1-0.4-0.2-1-0.3-1.7c-0.1-0.7-0.2-1.5-0.4-2.3c-0.1-0.9-0.3-1.7-0.4-2.6c-0.4-2.1-0.8-4.4-1.2-7.1V377
	l-0.1-0.1c0,0-0.1,0-0.2,0.1v0.1l-1.2,7.1c-0.2,0.9-0.3,1.8-0.5,2.6c-0.2,0.9-0.3,1.6-0.4,2.3s-0.2,1.2-0.3,1.7
	c-0.1,0.4-0.1,0.7-0.1,0.7c0,0.2,0,0.3,0.1,0.4c0.1,0.1,0.2,0.2,0.4,0.2C14.5,392.1,18.7,392.1,18.7,392.1z M40.5,399.9
	c0.3,0.1,0.5,0.3,0.6,0.5c0.1,0.2,0.2,0.5,0.2,1v0.9h-2.1c-0.7,0-1.2-0.2-1.5-0.7s-0.5-1-0.5-1.6v-7c0-0.9-0.3-1.6-0.8-2.3
	c-0.5-0.6-1.2-0.9-2-0.9H31c-0.3,0-0.5,0.2-0.5,0.5v8.9c0,0.2,0,0.4,0.1,0.5l0.3,0.3c0.2,0.1,0.4,0.3,0.7,0.6
	c0.2,0.3,0.4,0.7,0.4,1.2v0.4h-5.7v-0.4c0-0.5,0.1-0.9,0.4-1.2c0.2-0.3,0.5-0.5,0.7-0.6l0.3-0.3c0.1-0.1,0.1-0.3,0.1-0.5v-22.7
	c0-0.3-0.1-0.6-0.3-0.8c-0.2-0.1-0.4-0.3-0.7-0.6c-0.2-0.3-0.4-0.7-0.4-1.2v-0.3H34c1.1,0,2,0.2,2.8,0.5s1.4,0.7,1.9,1.3
	c0.5,0.6,0.8,1.2,1.1,2c0.2,0.8,0.3,1.7,0.3,2.6v4c0,1-0.2,1.9-0.6,2.6c-0.4,0.7-0.9,1.2-1.4,1.7c0.6,0.4,1.1,1.1,1.4,1.9
	c0.4,0.8,0.6,1.8,0.6,2.9v6.1c0,0.2,0.1,0.4,0.2,0.4C40.3,399.7,40.4,399.8,40.5,399.9 M37.2,379.4c0-0.9-0.3-1.7-0.8-2.3
	s-1.2-1-2-1h-3.2c-0.2,0-0.3,0-0.4,0.1c-0.1,0.1-0.2,0.2-0.2,0.4v10.3c0,0.1,0.1,0.2,0.2,0.3c0.1,0.1,0.2,0.1,0.3,0.1h3.3
	c0.8,0,1.5-0.3,2-0.8s0.8-1.2,0.8-2.1L37.2,379.4L37.2,379.4z M49.3,402.6c-0.9,0-1.8-0.1-2.6-0.3c-0.8-0.2-1.5-0.6-2.1-1.1
	s-1.1-1.1-1.4-1.8c-0.3-0.7-0.5-1.6-0.5-2.5v-17.8c0-1,0.2-1.8,0.5-2.5s0.8-1.3,1.4-1.8c0.6-0.5,1.3-0.8,2.1-1.1
	c0.8-0.2,1.7-0.4,2.6-0.4c0.9,0,1.8,0.1,2.6,0.4c0.8,0.2,1.5,0.6,2.1,1.1s1.1,1.1,1.4,1.8c0.3,0.7,0.5,1.6,0.5,2.5v17.7
	c0,1-0.2,1.8-0.5,2.5c-0.3,0.7-0.8,1.3-1.4,1.8c-0.6,0.5-1.3,0.8-2.1,1.1C51.1,402.5,50.2,402.6,49.3,402.6 M52.9,378.7
	c0-0.5-0.1-0.9-0.4-1.3c-0.3-0.4-0.6-0.7-0.9-0.9c-0.4-0.2-0.8-0.4-1.2-0.5s-0.8-0.2-1.1-0.2c-0.4,0-0.7,0.1-1.2,0.2
	c-0.4,0.1-0.8,0.3-1.2,0.5c-0.4,0.2-0.7,0.5-0.9,0.9c-0.2,0.4-0.4,0.8-0.4,1.3v18.5c0,0.5,0.1,0.9,0.4,1.3c0.2,0.4,0.5,0.7,0.9,0.9
	c0.4,0.2,0.8,0.4,1.2,0.5s0.8,0.2,1.2,0.2c0.3,0,0.7-0.1,1.1-0.2c0.4-0.1,0.8-0.3,1.2-0.5c0.4-0.2,0.7-0.5,0.9-0.9
	c0.3-0.4,0.4-0.8,0.4-1.3V378.7z M70.5,397.2v4.2c0,0.3-0.1,0.5-0.2,0.6s-0.3,0.2-0.5,0.2H57.4v-0.3c0-1,0.3-1.7,0.8-1.9
	c0.1-0.1,0.3-0.2,0.6-0.3c0.2-0.1,0.4-0.3,0.4-0.5v-22.5c0-0.2,0-0.4-0.1-0.5l-0.3-0.3c-0.2-0.1-0.4-0.3-0.7-0.6
	c-0.2-0.3-0.4-0.7-0.4-1.2v-0.4h5.8v0.4c0,0.5-0.1,0.9-0.4,1.2c-0.2,0.3-0.5,0.5-0.7,0.6l-0.3,0.3c-0.1,0.1-0.1,0.3-0.1,0.5v22.5
	c0,0.4,0.1,0.5,0.4,0.5h5.1c0.2,0,0.3,0,0.3-0.1s0.1-0.2,0.1-0.4c0-0.6,0.2-1.1,0.6-1.5s0.9-0.6,1.5-0.6L70.5,397.2L70.5,397.2z
	 M77.3,400c0.2,0.2,0.4,0.4,0.7,0.6c0.2,0.3,0.4,0.7,0.4,1.1v0.5h-5.8v-0.5c0-0.5,0.1-0.9,0.4-1.2c0.2-0.3,0.5-0.5,0.7-0.6
	s0.4-0.3,0.4-0.6v-22.8c0-0.2-0.1-0.3-0.1-0.4c-0.1-0.1-0.1-0.2-0.2-0.2c-0.2-0.1-0.4-0.3-0.7-0.6c-0.2-0.3-0.4-0.7-0.4-1.2v-0.4
	h5.8v0.4c0,0.5-0.1,0.9-0.4,1.2c-0.2,0.3-0.5,0.5-0.7,0.6l-0.2,0.2c-0.1,0.1-0.1,0.2-0.1,0.4v22.8c0,0.3,0,0.4,0.1,0.5
	C77.1,399.9,77.2,399.9,77.3,400 M96.2,373.7v0.4c0,0.5-0.1,0.9-0.4,1.2c-0.2,0.3-0.5,0.5-0.7,0.6l-0.3,0.3
	c-0.1,0.1-0.1,0.3-0.1,0.5v25c0,0.3,0,0.4-0.1,0.5s-0.3,0.1-0.5,0.1h-1.3c-0.2,0-0.4,0-0.6-0.1c-0.2,0-0.4-0.3-0.6-0.7
	c-0.1-0.1-0.2-0.5-0.4-1.1s-0.5-1.4-0.8-2.3s-0.7-1.9-1.1-3.1c-0.4-1.1-0.9-2.3-1.3-3.5s-0.9-2.3-1.3-3.5c-0.4-1.1-0.8-2.1-1.1-3
	c-0.3-0.9-0.7-1.9-1.1-3c-0.1-0.2-0.1-0.1-0.1,0v17c0,0.3,0,0.4,0.1,0.5l0.3,0.3l0.6,0.6c0.2,0.3,0.3,0.7,0.3,1.1v0.5H80v-0.5
	c0-0.5,0.1-0.9,0.4-1.1c0.2-0.3,0.5-0.5,0.7-0.6l0.3-0.3c0.1-0.1,0.1-0.3,0.1-0.5v-22.8c-0.3-0.1-0.5-0.2-0.7-0.4
	c-0.2-0.2-0.3-0.4-0.5-0.6c-0.1-0.3-0.2-0.6-0.2-1.1v-0.5h3.7c0.5,0,0.8,0.3,1,0.8c0,0.1,0.2,0.5,0.5,1.4c0.3,0.9,0.7,1.9,1.2,3.2
	s1,2.7,1.5,4.2s1.1,3,1.5,4.4c0.5,1.4,0.9,2.6,1.3,3.6s0.6,1.7,0.7,2c0.1,0.1,0.1,0.2,0.2,0.2s0.1-0.1,0.1-0.2v-16.6
	c0-0.2,0-0.4-0.1-0.5l-0.3-0.3c-0.2-0.1-0.4-0.3-0.7-0.6c-0.2-0.3-0.4-0.6-0.4-1.1v-0.5h5.9V373.7z M111.8,400
	c0.2,0.1,0.4,0.3,0.6,0.6c0.2,0.3,0.3,0.6,0.3,1.1v0.5h-5.6v-0.6c0-0.5,0.1-0.8,0.3-1c0.2-0.2,0.4-0.4,0.6-0.5
	c0.2-0.2,0.3-0.5,0.3-1c-0.1-0.7-0.2-1.3-0.3-1.8c-0.1-0.5-0.1-0.9-0.2-1.4c-0.1-0.4-0.1-0.7-0.1-0.8c-0.1-0.3-0.1-0.5-0.2-0.5
	c-0.1-0.1-0.3-0.1-0.5-0.1h-4.9c-0.5,0-0.7,0.2-0.7,0.7c0,0.1-0.1,0.4-0.1,0.8c-0.1,0.4-0.1,0.9-0.2,1.3c-0.1,0.6-0.2,1.2-0.2,1.8
	c0,0.3,0,0.4,0.1,0.5s0.1,0.2,0.3,0.3c0.2,0.1,0.4,0.3,0.5,0.5c0.2,0.2,0.3,0.6,0.3,1v0.6h-5.5v-0.6c0-0.4,0.1-0.8,0.3-1
	c0.2-0.2,0.4-0.4,0.6-0.5s0.3-0.3,0.4-0.5c0.1-0.2,0.1-0.4,0.2-0.6c0.7-4.1,1.4-7.8,1.9-11.1c0.3-1.4,0.5-2.7,0.7-4.1
	c0.2-1.3,0.4-2.5,0.6-3.6c0.2-1,0.3-1.9,0.5-2.5c0.1-0.6,0.2-1,0.2-1c0-0.2,0.1-0.4,0.1-0.5c0-0.2-0.1-0.3-0.3-0.3
	c-0.3-0.1-0.5-0.3-0.6-0.6c-0.1-0.2-0.2-0.6-0.2-1.2v-0.5h4.1c0.6,0,1.1,0.2,1.4,0.6s0.6,0.8,0.6,1.2c0,0.1,0.1,0.5,0.2,1.2
	c0.1,0.7,0.3,1.6,0.5,2.8c0.2,1.1,0.4,2.4,0.7,3.8s0.5,2.8,0.8,4.3c0.6,3.4,1.3,7.3,2.1,11.6c0.1,0.2,0.1,0.4,0.2,0.5
	C111.5,399.8,111.6,399.9,111.8,400 M106.6,392.1c0.2,0,0.4-0.1,0.4-0.2c0.1-0.1,0.1-0.3,0.1-0.4c0,0,0-0.3-0.1-0.7
	c-0.1-0.4-0.2-1-0.3-1.7c-0.1-0.7-0.2-1.5-0.4-2.3c-0.1-0.9-0.3-1.7-0.4-2.6c-0.4-2.1-0.8-4.4-1.2-7.1V377l-0.1-0.1
	c0,0-0.1,0-0.2,0.1v0.1l-1.2,7.1c-0.2,0.9-0.3,1.8-0.5,2.6c-0.2,0.9-0.3,1.6-0.4,2.3s-0.2,1.2-0.3,1.7c-0.1,0.4-0.1,0.7-0.1,0.7
	c0,0.2,0,0.3,0.1,0.4c0.1,0.1,0.2,0.2,0.4,0.2C102.4,392.1,106.6,392.1,106.6,392.1z"/>
<path class="st1" d="M-41.3,357.2c0-0.2-0.1-0.3-0.2-0.4l-0.5-0.4c0-0.1,0-0.2,0.1-0.2h2.3c0.1,0,0.1,0.1,0,0.1l-0.4,0.5
	c-0.1,0.1-0.2,0.3-0.2,0.4v8.4h-0.9l-5.7-6.8v5.8c0,0.2,0.1,0.3,0.2,0.4l0.5,0.4c0.1,0.1,0.1,0.1,0,0.1h-2.3c-0.1,0-0.1-0.1,0-0.1
	l0.5-0.4c0.1-0.1,0.2-0.3,0.2-0.4v-6.9c-0.2-0.2-1-1.1-1.2-1.3c-0.1-0.1-0.1-0.2,0-0.2h1.8c0.1,0,0.1,0,0.1,0.1l5.8,6.8L-41.3,357.2
	L-41.3,357.2z M-38.8,362.3c0-1.8,1.3-3.6,3.3-3.6c2.2,0,3.3,1.7,3.3,3.4c0,1.8-1.3,3.6-3.3,3.6C-37.7,365.7-38.8,364.1-38.8,362.3z
	 M-37.4,362.1c0,1.6,0.8,2.8,1.9,2.8c1.5,0,1.9-1.5,1.9-2.5c0-1.6-0.8-2.8-1.9-2.8C-37,359.6-37.4,361.1-37.4,362.1z M-30.5,363.7
	v-4h-1.1l0.2-0.8h0.9v-1.3l1.3-0.5v1.8h2l-0.2,0.8h-1.9v3.9c0,0.9,0.3,1.4,1,1.4c0.3,0,0.5,0,0.9-0.1l0.1,0.2
	c-0.3,0.4-0.9,0.7-1.5,0.7C-29.4,365.8-30.5,365.4-30.5,363.7z M-21.3,361.5c0-1.2-0.3-1.8-1.1-1.8c-1,0-2.1,0.9-2.1,2v2.9
	c0,0.2,0.1,0.3,0.2,0.4l0.5,0.4c0.1,0.1,0.1,0.1,0,0.1h-2.4c-0.1,0-0.1-0.1,0-0.1l0.2-0.2c0.1-0.1,0.2-0.3,0.2-0.5v-8
	c0-0.2-0.1-0.3-0.2-0.4l-0.5-0.4c-0.1-0.1-0.1-0.1,0-0.1l2.2-0.3v0.1c-0.3,0.8-0.3,2.4-0.3,2.8v1.5c0.7-0.8,1.6-1.2,2.4-1.2
	c1.2,0.1,2.2,0.7,2.2,2.3v3.6c0,0.2,0.1,0.3,0.2,0.4l0.5,0.4c0.1,0.1,0.1,0.1,0,0.1h-2.4c-0.1,0-0.1-0.1,0-0.1l0.2-0.2
	c0.1-0.1,0.2-0.3,0.2-0.5L-21.3,361.5L-21.3,361.5z M-16.8,364.6c0,0.2,0.1,0.3,0.2,0.4l0.5,0.4c0.1,0.1,0.1,0.1,0,0.1h-2.4
	c-0.1,0-0.1-0.1,0-0.1l0.2-0.2c0.1-0.1,0.2-0.3,0.2-0.5v-4.6c0-0.2-0.1-0.3-0.2-0.4l-0.5-0.4c-0.1-0.1-0.1-0.1,0-0.1l2.2-0.3v0.1
	c-0.3,0.8-0.3,2.4-0.3,2.8v2.8H-16.8z M-17.5,356.3c0.5,0,0.8,0.4,0.8,0.9s-0.3,0.8-0.8,0.8s-0.8-0.4-0.8-0.9
	S-17.9,356.3-17.5,356.3z M-14,358.9c0.3,0,0.3,0.1,0.3,1v0.3c0.7-1,1.6-1.4,2.4-1.4c1.1,0,2.3,0.5,2.3,2.4v3.4
	c0,0.2,0.1,0.3,0.2,0.4l0.5,0.4v0.1c0,0,0,0.1-0.1,0.1h-2.4c0,0-0.1,0-0.1-0.1v-0.1l0.2-0.2c0.1-0.1,0.2-0.3,0.2-0.5v-3.1
	c0-1.4-0.4-1.9-1.1-1.9c-1,0-2.1,0.9-2.1,2v2.9c0,0.2,0.1,0.3,0.2,0.4l0.5,0.4v0.1c0,0,0,0.1-0.1,0.1h-2.4c0,0-0.1,0-0.1-0.1v-0.1
	l0.2-0.2c0.1-0.1,0.2-0.3,0.2-0.5v-4.8c0-0.2-0.1-0.3-0.2-0.4l-0.5-0.4c-0.1-0.1-0.1-0.1,0-0.1L-14,358.9L-14,358.9z M-1.6,364.8
	c0,1.9-0.9,3.7-3.2,3.7c-0.7,0-1.5-0.1-2-0.4c0-0.4,0-1,0.3-1.5h0.1c0.1,0.7,1,0.9,1.6,0.9c1.6,0,2-1.2,2-2.6v-0.4
	c-0.5,0.8-1.4,1.2-2.2,1.2c-1.3,0-2.6-1-2.6-3.3c0-1.5,0.8-3.6,3.3-3.6c0.7,0,1.9,0.2,3.1,0.7v0.1c-0.3,0.5-0.3,1-0.3,1.3v3.9
	C-1.5,364.8-1.6,364.8-1.6,364.8z M-2.9,359.9c-0.4-0.2-1-0.3-1.4-0.3c-1.4,0-2,1.3-2,2.6c0,1.6,0.7,2.4,1.7,2.4
	c0.8,0,1.7-0.8,1.7-1.8V359.9z M2.9,361.1c0-2.9,2-5,4.9-5c1.5,0,2.5,0.4,3.3,1c-0.1,0.7-0.5,1.6-0.9,2h-0.1c0.1-0.9-0.7-2-2.4-2
	c-2,0-3.2,1.7-3.2,3.7c0,2.4,1.4,4.1,3.6,4.1c1.2,0,2.3-0.6,2.8-2.1h0.2c0,0.6-0.3,1.9-0.5,2.4c-0.5,0.4-1.3,0.7-2.7,0.7
	C4.7,365.7,2.9,363.7,2.9,361.1z M12,362.3c0-1.8,1.3-3.6,3.3-3.6c2.2,0,3.3,1.7,3.3,3.4c0,1.8-1.3,3.6-3.3,3.6
	C13.2,365.7,12,364.1,12,362.3z M13.4,362.1c0,1.6,0.8,2.8,1.9,2.8c1.5,0,1.9-1.5,1.9-2.5c0-1.6-0.8-2.8-1.9-2.8
	C13.8,359.6,13.4,361.1,13.4,362.1z M21.3,360c0.5-0.8,1.3-1.3,2-1.3s1.4,0.3,1.6,1.4c0.6-0.9,1.5-1.4,2.2-1.4
	c0.8,0,1.8,0.5,1.8,2.2v3.7c0,0.2,0.1,0.3,0.2,0.4l0.5,0.4v0.1c0,0,0,0.1-0.1,0.1h-2.4c0,0-0.1,0-0.1-0.1v-0.1l0.2-0.2
	c0.1-0.1,0.2-0.3,0.2-0.5v-3.6c0-0.9-0.3-1.3-0.9-1.3c-0.8,0-1.5,0.9-1.6,1.8v3c0,0.2,0.1,0.3,0.2,0.4l0.5,0.4v0.1
	c0,0,0,0.1-0.1,0.1h-2.4c0,0-0.1,0-0.1-0.1v-0.1l0.2-0.2c0.1-0.1,0.2-0.3,0.2-0.5v-3.6c0-0.9-0.3-1.3-0.9-1.3
	c-0.8,0-1.5,0.8-1.6,1.8v3c0,0.2,0.1,0.3,0.2,0.4l0.5,0.4v0.1c0,0,0,0.1-0.1,0.1h-2.4c0,0-0.1,0-0.1-0.1v-0.1l0.2-0.2
	c0.1-0.1,0.2-0.3,0.2-0.5v-4.8c0-0.2-0.1-0.3-0.2-0.4l-0.5-0.4c-0.1-0.1-0.1-0.1,0-0.1h1.5c0.3,0,0.3,0.1,0.3,1H21.3z M32.1,365.6
	v2.2c0,0.2,0.1,0.3,0.2,0.4l0.5,0.4v0.1c0,0,0,0.1-0.1,0.1h-2.4c0,0-0.1,0-0.1-0.1v-0.1l0.2-0.2c0.1-0.1,0.2-0.3,0.2-0.5v-8
	c0-0.2-0.1-0.3-0.2-0.4l-0.5-0.4c-0.1-0.1-0.1-0.1,0-0.1h1.5c0.3,0,0.3,0.1,0.3,1v0.2c0.6-1,1.4-1.4,2.3-1.4c1.3,0,2.6,1,2.6,3.3
	c0,1.5-0.8,3.6-3.3,3.6C33.2,365.7,32.7,365.7,32.1,365.6z M32.1,364.6c0.4,0.2,1,0.3,1.4,0.3c1.4,0,2-1.3,2-2.6
	c0-1.6-0.7-2.4-1.7-2.4c-0.8,0-1.7,0.7-1.7,1.8C32.1,361.7,32.1,364.6,32.1,364.6z M40.1,365.7c-1.6,0-2.2-1-2.2-2
	c0-2.5,4.5-1.9,4.5-3.2c0-0.4-0.4-1-1.4-1s-1.6,0.6-1.8,1.1l-0.1,0.1c-0.3-0.3-0.6-1.1-0.6-1.3c0.5-0.3,1.6-0.6,2.6-0.6
	c0.8,0,1.5,0.2,2,0.6c0.5,0.4,0.7,1.1,0.7,2v2.5c0,0.8,0,1.3,0.5,1.5v0.3h-0.5c-0.9,0-1.3-0.6-1.4-1.2
	C41.8,365.3,41,365.7,40.1,365.7z M42.3,361.7c-0.9,0.4-1.6,0.6-2.2,0.8c-0.6,0.2-0.9,0.5-0.9,1.2c0,0.6,0.5,1,1.1,1
	c0.9,0,2-0.7,2-2.3L42.3,361.7L42.3,361.7z M46.8,360.1c0.5-0.9,1.2-1.4,2.2-1.4c0.4,0,0.7,0,1,0.1c0.1,0.5-0.1,1.1-0.3,1.6h-0.1
	c-0.2-0.5-0.8-0.6-1.1-0.6c-1.3,0-1.7,1.3-1.7,2v2.8c0,0.2,0.1,0.3,0.2,0.4l0.5,0.4v0.1c0,0,0,0.1-0.1,0.1H45c0,0-0.1,0-0.1-0.1
	v-0.1l0.2-0.2c0.1-0.1,0.2-0.3,0.2-0.5v-4.8c0-0.2-0.1-0.3-0.2-0.4l-0.5-0.4c-0.1-0.1-0.1-0.1,0-0.1h1.5c0.3,0,0.3,0.1,0.3,0.9v0.2
	H46.8z M52,361.9v0.3c0,1.8,1,2.6,2.2,2.6c0.6,0,1.2-0.2,1.6-0.6l0.2,0.1c-0.7,1.1-1.6,1.4-2.3,1.4c-1.6,0-3.1-1.4-3.1-3.4
	c0-2.2,1.5-3.6,3.2-3.6c1.2,0,2.6,0.9,2.7,3.1L52,361.9L52,361.9z M52.1,361.1H55c-0.1-0.9-0.6-1.4-1.4-1.4
	C53,359.7,52.4,360.3,52.1,361.1z M62.5,359.3c0,0.5-0.1,1.1-0.2,1.5h-0.2c-0.2-0.8-1-1.3-2-1.3c-0.7,0-1.2,0.3-1.2,0.8
	c0,0.6,0.6,0.9,1.5,1.1c1.1,0.4,2.5,0.9,2.5,2.2c0,1.2-1,2-2.8,2c-0.7,0-1.7-0.2-2.2-0.6c-0.1-0.4-0.3-1.4-0.2-1.8h0.2
	c0.4,1.1,1.3,1.6,2.3,1.6c0.9,0,1.5-0.4,1.5-1.1c0-0.7-0.7-0.9-1.5-1.2c-1.1-0.3-2.3-0.7-2.3-2.1c0-1.3,1.1-1.9,2.4-1.9
	C61.1,358.8,61.9,359,62.5,359.3z M-50.1,357.2c-1.1,0-1.6-1.7-2.8-1.5c-0.8,0.1-1.7,0.6-2.2,0.9c-1.6,1.2-3,2.3-4.8,3.3
	c-3.6,1.9-7.7,3.3-11.7,4.6c-1,0.3-1.9,0.6-2.9,1c-0.5,0.2-0.4,0.3-0.1,0.3s1.5-0.3,2.1-0.5c3.1-1,6.1-2,9.1-3.2
	c2.5-1,5.6-1.9,7.7-3.3c0.6-0.5,2.7-1.9,3.7-1.6c0.8,0.2,0.7,0.6,1.4,1C-49.2,359.1-49.3,357.2-50.1,357.2z M-68.2,357.8
	c1.2-0.5,3.4-2.2,4.5-1.6c1.5,0.8,1.6,1.6,3.1,2.4c0.3,0.2,3-1.5,2.6-1.7c-1.7-0.8-3.6-0.5-5.2-1.5c-0.8-0.5-1.8-0.1-2.5,0.4
	c-1.9,1.2-4,2-6,2.8c-2.4,0.9-4.9,2.1-7.3,2.7c-0.6,0.2-0.5,0.8,0.2,0.6c1.9-0.5,3.7-1.4,5.6-2.1C-71.7,359.3-70,358.6-68.2,357.8z
	 M93.3,364.9c-3.4,0.9-6.9-0.4-6.4-2.9c0.2-1.1-1.3,0.7-4.9,2.5c-1.1,0.5-2.2,0.9-3.4,0.8c-2-0.2-3.1-2-2.6-3.8
	c0.1-0.3-0.4-0.4-0.6-0.3c-1.4,0.4-8.3,3.1-10.4,3.6c-1.8,0.4-1.6,0.4-1.3,0.4c0.7,0.1,2.1-0.2,2.8-0.4c0.1,0,0.3-0.1,0.4-0.1
	c0.4-0.1,0.7-0.2,1.1-0.3c2.5-0.7,4.9-1.6,7.3-2.2c-0.1,0.2,0.2,3.4,3.9,3.7c2.4,0.2,6.1-2.3,7.1-3.2c0.2-0.1,0.1,0,0.2,0.2
	c0.9,3,6.2,2.9,7.2,2C93.7,365,93.8,364.8,93.3,364.9L93.3,364.9z"/>
<g>
	<path class="st0" d="M96.7,364l0.6-0.1c0,0.3,0.1,0.5,0.2,0.6c0.1,0.2,0.3,0.3,0.5,0.4s0.5,0.2,0.8,0.2s0.5,0,0.7-0.1
		s0.3-0.2,0.4-0.3c0.1-0.1,0.1-0.3,0.1-0.4c0-0.2,0-0.3-0.1-0.4s-0.3-0.2-0.5-0.3c-0.1-0.1-0.4-0.1-0.9-0.3c-0.5-0.2-0.8-0.2-1-0.3
		s-0.4-0.3-0.6-0.5c-0.1-0.2-0.2-0.4-0.2-0.6c0-0.3,0.1-0.5,0.2-0.7c0.1-0.2,0.4-0.4,0.7-0.5c0.3-0.1,0.6-0.2,1-0.2s0.7,0.1,1,0.2
		c0.3,0.1,0.5,0.3,0.7,0.5c0.2,0.2,0.2,0.5,0.3,0.8h-0.7c0-0.3-0.2-0.6-0.4-0.7c-0.2-0.1-0.5-0.3-0.9-0.3s-0.7,0.1-0.9,0.2
		c-0.2,0.2-0.3,0.3-0.3,0.6c0,0.2,0.1,0.3,0.2,0.5c0.1,0.1,0.5,0.2,1,0.4c0.6,0.1,0.9,0.2,1.1,0.3c0.3,0.1,0.5,0.3,0.7,0.5
		s0.2,0.5,0.2,0.7c0,0.3-0.1,0.5-0.2,0.8s-0.4,0.4-0.7,0.6c-0.3,0.1-0.6,0.2-1,0.2c-0.5,0-0.9-0.1-1.2-0.2c-0.3-0.1-0.6-0.3-0.7-0.6
		C96.8,364.6,96.7,364.3,96.7,364z"/>
	<path class="st0" d="M101.7,365.6v-5.2h1l1.2,3.7c0.1,0.3,0.2,0.6,0.2,0.8c0.1-0.2,0.2-0.5,0.3-0.8l1.2-3.6h0.9v5.1H106v-4.3
		l-1.5,4.3h-0.6l-1.5-4.4v4.4H101.7z"/>
</g>
</svg>
