<svg xmlns="http://www.w3.org/2000/svg" viewBox="0 0 1118 409"><title>hero--ferry-map</title><g style="isolation:isolate"><g id="Layer_4" data-name="Layer 4"><rect width="1118" height="409" style="fill:#c1272d;opacity:0"/></g><g id="Layer_2" data-name="Layer 2"><g style="opacity:0.7000000000000001;mix-blend-mode:multiply"><path d="M55.79,182.46l.32-.32.32-.32.32-.64-.64-1.28-.64-.32h-.32l.32-.64.32-1.28v-.32l.32-.32v-.32l-.32-.32-.64-1.6.32-.32,1.28-.64.64-.32v-.32l.64-.64.64-1V170h-.32l.32-.32.32-.32V169l-.64-1H58l-.32-.32-.32-.64v-.32l.32-.32.32-.32h.32l.32-.32.64-1h.32l.32-.32v-.32l.32-.64.32-.32.32-.64,1-.32.64-1h.64V161l.32-.32v-.32l.32.32h.32l.32-.64v-.64h.64l.32.64.32-.32,1-.32v-.32l.64-.64h1v-.32h.32l.64.32h.32l.64-.32.32-.64v-.64l.32-.64h.64v-1l.64-.64h.32l1-1.28.32-.64.32-.32.64-.32h1.92l.32.32h1.6l1-.64.32.32h.32l1.6-1.28.32-.32.64-.64,1.92-.64.64-.64,1-.64v-.64h1.28l.32-.32,1,.32,1.6-.32.32.32H92l1.6-.64h4.81l.32.32.32-.32.32.32,1,.32h1v-.32H102l1.92-.64.64-.64h.32l.32.32,1,.64.64,1v.32H108l.32-.32H109l1,.32h4.17l.32.32,2.24.32.64-.64H118l.64-1.28.32-.32v-.64h.32l.32-.32v-.32l.32-.32h1l.64-1,.64-.64.64-.64v-.32h.64l1,.32h.32l.64-.32h.32v-.32l1-.32.64-.32.32-.32h.64l.64-.32.32-1v-.32h1.28v-.32l.64-.32.32.32h.32l1-1v-.32l.32-.32v-.64l.32-.32.32-.32v-.32l.32.32,1-.32.32-.32,1.6.32.32.64.64.64h.32l1-.32h.32l.64-.64.32-.64v-1l1-.64H142l.64-.32.32-.64.32-.32h.32l.32-.32.32-.32v-.32l.32-.64-.32-.32.32-.64v-1.28l.32-.32,1-.32.32-.32v-.32h1l1,.32.32-.32.32.32H151l1-.32h.32l.64-1V126l.32-.64.64-.32h.32l.64-1.28v-.64l.32-.32.32-.32h.64l.64.32v-.32l2.24-.32,1,.32.64-.32.32-.32.64-.32h.64v-.32h.32l1.28-1v-.32l.64-.32h.64l1,.32h.64l.64-.32.64.32v.32h1l.32-.32.64.32.64.32.64.32.64.32.64.32.64.64h1l1-.64.64-.64.32-.64.64-.32h.64l.32-.32-.32-.32.32-.64.32-.32V118l.32-.32v-.32l.32-1,1-1v-.32h1l.32-1,.32-.32.32-.32h.64l.32-.32v-1.28l.32-1.28V110h.32l.64-.64h.64l.32-.32.32-.32v-.64h-.32v-.32l-.32-.32v-.32l.32-.32v-.64l-.32-.32v-1.6l-.64-.64v-1.92h.64l.32-.32H185V100l.32-1,.32.32.32-.32,1-.32,1.28-.64.32.32,1,.64,1-.32.32.32,1,1,.64.64.64.32.32.64.32,1,.64-.32.64-.32h.64l.32-.32-.32-.64v-.32l.64-1,1.28-1h.32v-1.6h.32v-.32h.64l.32-.64v-.32l-.32-.32h-.32l-.32-.32V94l.32-.32.32-.32v-.64l.32-.32,1.28-.32.64-.32h.64l.32-.32,2.24-1.28.32-.32.32.32,1-.64.32-.32V88.5h.64l.64-.32.32-.32,1.28-.64.32-.32v-.32l.32-.32,1.28-.32.32-.32.64-.32.64-.32h1l.32-.32.32-.32.64-.32h.64l.32.32,1,1,.32.32v.32l-.32.64h.64l.32.32.32.32.64.32v.32l.32.32.32.32v1l-.64.64-.32.32-.64,1-.32.64-.32.32v1.28l.32.32h.32l.32.64-.32.32-.32,1.6v1h.32l.64.32H219l.32-.32,1.28.32h.32v.64l.32.32.64.32,1.28.32.32-1,.64-.32.64-.64h1l.32-.32,1-.32h.32l.32-.32h1.28l.64-.64,1-1,.64-.32.32-.32V94l.32-.32.64-.32,1.28-.64.32-.32.32-.32L238.54,85l.64-1.28,1-1.28.64-.64,1.6-1.28h.32l.64-.32.32-.32.32-.32h.32l.64-.32.64-.32v-.32l.64-.32.64-.32v.32h1.92l.32-.32h1l.32-.32,1-.64.32-.32.32-.32.64-.32,1-.32.32.32.64.64h1V77h.64l.32-.32.32-.64h.64l.32.32.32.32.32-.32.32-.32v-.32l.64-.32h.32V75l.64-.64.32-.32.32-.64v-.32l.64-.32h.64l.64.32.32.32.32.32.64.32.32.32h.32l.32.32V75h1l.32-.32h1.28l.64-.32h1l.32.64.32.64V76l.32,1.28v1.28l.32.64.32,1,.32.32h1.28l.64-.32h.64l.32.32h2.57l1.28-.64.64-.32.64-1v-.32l.32-.64.64.32h.32l.64.64h.64l.32-.32h.32v-1l1-1.28.32-.64,1.92-3.21v-.32l1.28-1.6,1.6-2.89.32-1,1.28-2.24,2.56-3.53.64-1.28,1.92-2.89,1-1.92,1.28-1,.32.32,1-.32.64-.64.32-.32.32-.32.32-.64,1-1L302,50h.32l.32-.32.64-.32.64-.32,1-.64h1l1.28-.32.32-.64,1-.32h.64l.32.32v.64l.32.32h.64l.64.32,1,.64v.32h.64V50h1.92l.32-.32h1.6l.64.32.32.32.64.32.64-.32V49.06l-.64-.64h-.64l-.32-.32v-.32l-.32-.64V45.85l-.64-.64-.32-.32v-.32l.32-.32v-.32l.32-.64-.32-.32v-.32l-.32-.32-.32-.32-.32-.64v-.64l.32-.64.32-.32.64-.32,1-1,.32-.64V37.2l.32-.64v-1l.32-.32v-.64l-.32-.32V34l1-.64.64-.32H320l.32-.32v-.32l.32-.64v-.32h-.32V28.54l-.32-.32V27.9l.32-.32v-.64l-.32-.32V25.33h-.32V25l-.32-.32v-1.6H320l.32-.32v-.64l.64-.64.32-.32V19.88l-.32-.32v-.32l.32-.32V18.6l.32.32h1V18.6h.32V18l-.32-.64v-1l.32-.32,8.34.64,7.37.64,1.28.32h2.57l.32.32h.64l1.6-.32,1.92.32,1.28.32h.32l7.37.64h7.37l4.17.32h2.24l3.53.32h4.49l.64.32h2.24l.32.32h4.17l.64.32h4.81l5.45.64h3.53l3.53.32h.32l4.49.32h.32l6.73.32h10.26l1.6-.32,2.89.32h1l2.56.32h1.92l2.24.32h2.24l3.21.32h2.56l2.24.32h3.21l3.21.32,4.49.32h1l5.45.32.32.32h3.53L470,25h1.6l2.89.32h13.79l5.13.32h17l5.13.32h22.76l5.13.32h35.59l8.66.32h1.6l3.53-.32h83.69l1.6-.32h14.11l5.45-.32h24.69l15.39-.32H741L752.19,25h18.6l1.28-.32h23.41l6.41-.32h12.18l1.6-.32,2.24-.32.32.32,1.6.32,2.88-.32h12.51l9.94-.32h.64l-.32-.32v-.64h2.24l9.94-.32h7.37l2.89-.32h9L883,21.8h9.3l2.89-.32h9.62l7.05-.32,8.66-.32h9l3.21-.32,9.62-.32h9l3.53-.32h6.09l1.28,6.73,2.89,10.58v.64l1.92,8,1.92,6.41,1,2.57,1,2.89.32,1,1.28,3.85v.32l.32.32,1.28,3.21,2.56,6.73.32.32v.32l1,1.92.32.64,1,2.24,1,1.92,1.6,3.21,1.6,2.89.64.64,1.28,2.25,1,1.6,1.6,3.53.64,1.6,1.28,2.24v.32h.32l4.17,8.66,2.25,4.17v.32l.32.32v.32l.64,1.92,1.28,3.21.32.32,1.28,2.89v.32l.64,1,.32.32H1001l-.32,1H1000l-.32-.64v-.32l-.64-1.28-.32-.32-.64-.64-.64-1.28-1-1.92-1.6-1.92-.32-.32-1.28-2.89-.32-.32-1.92-2.89v-.64l.32-.64v-1l-.32-1-.32-1.6L989.46,102l-1.92-3.53-.64-.32-1.6-1.28L985,96.2v-.32l-.32-.32-.32-.32-.32-.32-.64-.32-4.17-1-.64-1V91.39l.64-1.6v-.64l-.64-.32h-1.28V88.5l-.32-.64V84l-.64-2.24-.64-3.85v-1.6L975.35,75l-.64-1.6L972.46,67l-1-1.92-1-1.6h-.32l-.32-.32-.64-.64-1-1.28v-.32l.32-1.6-1-3.53-1-1h-1l-.64-.32-.64-1.6.32-2.89,1-1.6v-1l-.64-2.25-1-1-.32-.32-.64-1V38.16l-1.6-1.92-1.6-.64-1-1-.32-2.57-1-2.89h-.32l-.64-.32-.64-.32-.32.32-1,.32h-.32l-1-1L951,27.58l-1.6.32-3.21-1.6-1,.32h-1l-.32.64-.64.64L943,29.5l1.6,3.21.64,1.6,1,.64,1.6.64,1.28.32L951,38.16h1l1.28-.32.64-.32.32-.64.32-.32.64.32,1,5.13v.64l-.32,1-.32,1v1l.64,1.28h.32l2.25,4.49.64,2.24.32,1.28.64,1.28h1.92l.64.32-.32,1.92-.32,1.92.32,2.25.64,1.92,1.28.64,1,1.92v3.53l.32.32.32.64,1.28,1.6.32,1.6,1,1.28,1.6,3.21,1,4.17v.32l-.32,1h-.64l-3.85-2.57-1.6-1.28-2.25-3.53.32-1.92-.32-1.28-.32-.32-.64-.32-1.28-.32-1.92-.64h-1.6l-.64.32-1.6-.32-6.09-1.6-2.56-1-.32-.32h-1.28l-1.6,1H942l-1.28,1.28v1l.64,1.6V75l-.64.64-.64.64-2.25.64-2.56.64-7.05,1.28-.64.32-.64.64v1.28l-2.56,1.6-2.56-.32-2.89-.64h-2.56l-1.28.64-.64,1-1.92,1.28h-1l-.64-.32-1.92.32-5.77,1-.32.32v.32l-.32.32-.64,1.6-2.56,2.57-1,.64-.64,1.28v.64l-3.53,1-2.57,1.6-3.85-.32h-1.6l-1.28.64-.64-.32-1-1-.64-1-1-1.6L880.44,92l-1.92-.32-2.24.64-1.6,1.92-.32.32-1.6,1.28.32,1.28.32,1-.64,1.28-1,1.28-.64,1.28.32,1.92.64.64v.32l2.25,1.28H875l1-.32,5.45-.32.64-.32,1.92-.32h1.92l1.28-.32h3.21l1.28-.64,1-.32,1-.64,2.56-1,1.6-1.28,6.73-2.25,1,.64,1,1.28v1l1.92,2.57.32.32,2.56-.32,1.6-.32.64-.32,5.13-3.53L925,97.48l4.17-1h9l1.28.32,2.24-.64,4.17,2.89,1.28,1.6V101l-.64,3.21,1.28,2.57.64,1.28.64.32,2.25.64,1.28-.32.64-.32,1.28-2.57,1.6-1,.32-.32.32-.32v-1.28l-1.28-1.28-.64-.32-.32-.32v-.64l1-.64,4.17-1.92h5.45L969.9,100l.32.64.64,1.28,1.92,1.28v1l.64,1.28,1,2.24,2.24,3.21-.32,1,.64,2.57,1.6,1.6,1,2.24v1.6l-.32,2.89-.64,1.6-.32,1,.32.32.32.32,1.28,3.21v1l.64,2.89.32.32.32.64.32,1.28-.32.64-2.89,2.89v2.24l.32,1.28.32,1,1,1.28v.64l-1.92,1.92-.32.32-1,.32-.32.32-.32.32-.32.32-1,1,.32,1.92-2.57.64-4.49.64-1.6-1-1-1-1,.32-2.89,1.6-1.28,1.92v1.6l-1,1.28-3.21.64-.32.32-.64.64-1,2.24v1l.32,1v.32l-2.89,1.28-.64,1.28V168l-.32,1.6-1.28,1.6-.32,1.28.32,1.28-.32.64-.64,1-.64.32-1.28-.64-1.6-.32-1,1-.32.64v1l.32.64.32,1.28-1.28,1.6-2.56,1.6-3.21,1.28-1,.32-1.28,1.6V187l-.64.32-1.92-.32-.32-.32L931.1,186h-2.89l-3.21-1.6h-1.92l-.64,1h-.64l-1.92-.32-2.56-1.28h-2.57l-1,.32-.64,1-1,.32-1.6-.32-1.28-1-.64-.32-.64.32-1.28,1h-1l-.32-.64-1.28-.64-.64-.32h-.64l-.32-2.24-1.6-.64h-.64l-.64.32-1.28,1.28h-1.28l-1.6-1.28-2.56-1.28-2.89.32-3.53.32-2.89.32-1.6,1.28-1,1.28,1,2.89,1.6,1,.32.32,1.6.32,3.85.32.64.32,5.45.64,1.92,1.28,1.28,2.57.64,2.25v2.24l-1,2.57-.64.32-.64,1-.32,1.6-.32,1.28-.64.32-.32.32-1.92,1.92-1.6,2.56v.64l-.32.64.32,2.24v1l-1,2.56-1.28,1-.32,1-.64,1.6-1,.64h-1.28l-.64,1.28v1.28l-.64,1-1.6,1h-1l-1,.64-1,.64-.64,1.28v2.57l.32.64.32,1,1.6,2.24,4.17.32h.32l2.24-1,3.21-.32,4.17-1,.64-.64.32-.64.32-2.57,1-2.24.64-2.57.64-.64.64-.32,2.89,2.56.64,1.28v2.25l1,4.17.64.64h.32l.32.32.64.64h.32l.64,1.6.32.32,7.37.32.64-1-.64-1.28-2.24-4.17-1.28-1-.32-1v-.32l1.28.32,3.85,1.6,2.89,1.28.32.64v1.28l-.32.32-.32,1v1.28l.64,1,1.6,1,.32,1-.32,1.92-.64.64-2.56,2.89-.32.64-1,1.92-1.6,1.92-1.6,1.6h-2.25l-1,.64-.32.64-1.6,1h-.64l-.32.64-1,1.28-.32,2.24v1.6l1,.64.64.32h1.28l.64-.32,1.28-1.28.32-.32,1-.64,2.24-2.57.32-.64,1.28-1.6.32-.32,4.17-3.85,1.28-1.28,4.49-3.85L931.1,237l3.53-4.17,5.45-5.77,1.92-2.25,2.56-3.53.64-.32,2.25,1,.64.64.32.64-4.17,4.17-7.05,6.09L926.93,245l-4.49,3.85-3.85,3.53-.32.32-1.6,1.6-3.53,4.17-2.88,2.89v.32l-.32.64-3.21,4.17-.32.32-3.21,4.81L899,278l-.64.64-1.28,2.89-1.6,3.53h-.32v.32l-.32,1.28-.64,1.92-.32.32-1-1.92-1.28-1.92.32-1.6.32-.32v-1.92l-.32-.32-2.25-1.28-1-.32-1.28-.64-1.28-.32-1.6-.64-2.89-.64-2.24-1v-.32l-1-.32-.64-.32H875l-2.24-.32H866l-1.6.32-2.24.32-5.13.64h-.64l-1,.32-1.6.32h-.64l-1,.32h-.64l-2.89.64-5.13,1-1,.32-.64.32h-.32l-3.53,1h-.64l-.32.32-5.77,1.93-1,.32-1.28.64h-.64l-2.24,1-2.25,1-1.28.32-.64.64h-.32l-1.92,1-1.28.64-.32.32-.32.32-1,.32-1,1-.32.32-1,.64h-.32l-.64.64-2.88,2.24-5.13,4.17-.64.32-.64.32-.64.32-1.28,1L790,306.89l-3.21,2.24-1.6,1.28h-.32l-1,1h-.32l-1.92,1.28-2.24,1.92-.64.32-2.25,1.92-1,1-4.81,4.49-1.92,1.92-1,.64-.64.64L765,327.73l-1.6,2.25-1.28,1.28-.32.32-2.56,2.89L756.36,338v.32l-.32.32-2.25,3.85-.64.64-1.92,3.21v.32l-1.92,2.89-1.6,2.89-1.6,4.49-1.28,3.85-.32.32-.32.32-.32,1-.32,1-1.28,4.17-.32,1-1,3.21-.32.64-.32,1.28-.64,1.92-1.28,3.85-1,1.92-1.28,2.56-1,4.49-.32,2.89v.64l-1.28,1-4.17-1.6-.32-.64V389.3l-.64-1.6-.32-.64-1-.32h-1l-3.85-1.28h-.64l-1.28-.32-.32-.32h-.64l-.64-.32h-1.6l-1.6-.32-1-.32H703.46l-4.49.32-8.66,1-3.21.32h-.64l-8,3.21-1.28.32-.64.32h-.32l-.64.32h-.32l-2.89,1-1,.64h-.32l-.64.64-1.6.64-1.92-1.92-1.6-1.92H665l-.64-.64-.64-.64-.64-.64v-.32l-2.56-2.57-.64-.64-1-1L656.32,380v-.32H656l-1-1.28-4.49-4.49-1-1h-.32l-2.56-2.89-.32-.32-3.53-3.53-1.92-1.92-1-1-.32-.32-1.6-1.6-1.6-1.92-3.21-3.21L631,354.35V354h-.32l-.64-.64-1-1.28-2.24-1.93-.32-.64-1.92-1.92-2.24-1.92L622,345l-1-.64-.32-.32-.32-.64-.64-.64-1.6-1.6h-.32l-.64-1L615.92,339l-3.53-3.53-.32-.32-3.21-3.53-4.49-4.17-3.85-3.85-1-1-4.17-4.49-.32-.32-.64-.64-.32-.32-1.6-1.6-.32-.64-1.92-1.92-.64-.32-.32-.64-.64-.64-1.28-1.28-1.6-1.6-1.28-1.6-1.28-1.28-1-1V304L581,303l-.64-.64-.32-.32-.64-.64-2.89-3.21-1-1-6.09-6.09-3.21-3.53-1.28-1v-.32l-1-.64h-.32l-1-1.28-1-1.28-1.6-1.6-1.6-1.6h-.32l-1.28-1.28-2.56-2.56-.64-.64-3.85-4.17-1.6-1.28L547,268.73l-1.28-1.28-.32-.32-1-1-1.6-1.6-1.28-1.28-.64-.64h-5.45l-2.24-.32H512.68l-4.49-.32h-3.85l-.64-.32H496l-2.56-.32h-7.37l-2.89-.32h-4.81l-5.13-.32h-7.05l-1-.32h-8.66l-1-.32h-7.05l-3.21-.32H438.3l-3.53-.32h-8l-2.89-.32h-9l.32-.64v-1.92l1.28-8.66.32-2.57.32-1.92-.64-1-2.24-2.89-1.6-2.24-1.92-3.21-1.28-1.6-1.28-1.92-.64-1.28-1.6-2.25-1.6-1.92-1-1.28-1.28-1.92-1.28-1.6-.32-.64-1.6,1-.32.32-.32.32-.32.32-2.56,1.6-.64.32-.32.32L388.28,228l-1-1.6-.64-.64v-3.85l.32-1h.32l.32-.32v-.32H388l.32-.32h1v-.32l.32-.32v-1l-.64-1v-.64l-1.28-.64h-.32v-.32l.64-1.28v-.32l.32-.32v-.32H387l-2.24-.32-1.92-.32h-2.24l-1.28-.32h-1.6l-3.53-.32h-1l-3.53-.32-3.21-.32h-2.89l-.32-.32H359.1l-1-.32h-1.6l-4.17-.32-8-.64h-3.21l-.32-.32h-2.89l-2.56-.32h-3.21l-1.92-.32h-1.92l-3.21-.32h-1.6l-2.56-.32-3.21-.32h-2.24l-.64-.32h-4.17l-.32-.32h-3.53l-3.21-.32-4.49-.32h-1.6l-1.92-.32-4.81-.32h-1l-4.81-.32h-1.6l-1.92-.32h-.64l-3.53-.32h-1l-4.81-.32H270l-3.85-.32-3.21-.32H261l-1.28-.32h-2.24l-.64-.32h-1.6l-1.6-.32H253L251,203h-1l-.64.32-.64.32-1.28.32-1,.32h-.32v.32h-.32l-.32.32h-.32l-.64-.32v-.32h-.32v-.32l-.32.32h-.32v-.32l-.64-.32h-.32l-.64.32h-.64l-.32.32v.64h-.32l-.32.32h-.64l-.32-.32-.32-.32v-1.28l.32-.32-.32-.64-.32-.64v-.64l-.64-.32v-.32h-.32l-.32.32-1,1.28-1,.32H235l-.32.32-.32.64-.64,1.28v.32l-.32.64-.32,1-.32.32-.32.32h-1.28l-.32-.64v-.32h.32l-.32-.32v-.32l-.64-.32-1,.64h-.32l-.64-.32-.64.32H227l-.32.32-.64,1H223.8l-.32.32-.32.32h-.32v.32h-1v-.32h-.32v-.32h-1.6l-.32.32v.64h-.32l-.32.32v-.32h-.32l-.32.32-.32.32-.32.32h-.32l-.64.32h-1l-.64.32-.64.32-.32-.32h-1.28v.32l-.64.32h-.32l-.32.32-.32.64h-1l-.32-.32h-.64l-.32.32-.32.32h-.32v.32l-.64.32h-1.6v-.32l-.32-.32v-.32h-1.28v.64l-.32.32v.32l-.32.32.32.32v1l-.64.64-.32.32-.32-.32h-.32l-.32.32-1,.32h-1.6v.64l-.32.32-.64.32v.64H197.5l-.32.32v.32l-.32.64h-1.28l-.64.32h-.32l-.32.32-.32-.32-.32-.32.32-.32v-.32l.32-.64v-1H194l-.32-.32-.32.32H193l-2.24.64L180.83,220l-11.54,3.21-1.28.32-1,.32-2.24.64-2.24.64-5.77,1.6-9-.32h-18.6l-1.6-.32H126l-11.22-.32h-7.37l-5.45-.32H99.39v.64l-10.9-.64h-.64L85,225.11H79.19l-2.89-.32H71.82l-.64-.32H65.73l-1.6-.32H59.31l-2.89-.32H53.54l-6.73-.32h-.64l-3.53-.32H40.72l-3.85-.32L34,222.55H30.78l-2.89-.32-6.73-.32.64-4.17v-1l.32-1.28.64-4.81.32-1,.32-1.92.64-3.85,1-6.09v-.32l.32-1.92L26,192.4l.32-2.57.32.32.32-.32.32-.32.64-1,1.92-.64.32-.64.32-.32,1.28-.64.32-.32,1-1,.64-.64h1.28l.32.32V185l.64.64V186l.32.32v1l.32.64h.64l.64.64h1l.32-.32.64-.32h.32l.64.32.32-.32h2.24l.32.32h1v-.32l.32-.32h1.92l.64.32h1v-.32h.32l.64-.64h.32v-.64H50l.64-.32H51l1-.32.64-.32h.64l1-1.28,1-1.28ZM979.2,203.31l1-.64,1.28-.32,1.92-.64,1-.64,1-1,.64-.32.64-1,.32-.32h.32l.64.64h1.28l2.56-1,.64-.32.64-.32,1.28-1.28.32-.32,1.6-1,.32-.64V193l.32.32h1l.32.32,2.57-.32,1.6-.64,1-.32.32-.64.32-1.6.64-3.85.32-2.57.64-3.53.64-3.53.32-5.13.64-3.85.64-4.49-.32-1.6v-3.85l.64-1.6.32-1.92-.32-6.41-.32-3.21-1-3.53-.64-1.28-.32-1h-.32l-.32-1-.64-1-.32-1.6-.64-2.57v-1.6l-.32-1v-.64l-.64-1.28-.32-1.28-.32-.64-.32-1-.32-1,.32-.64.64.32,2.25,3.85.32.32v.32l.64,1.6,2.24,6.73.64,2.57,1,4.81,1,3.85v3.21l-.32,2.56v2.25l-.32,8-1.28,9.94v1.28l-.32.64-1.28,9.94-1.28,6.73v.64l-.32.64v1l-.32,1.28v.32l-.32,1-.64,1.28h-.32l-1-.32-1.92-.32h-2.24l-3.21.64-2.89,1.28-3.85,1.6-6.41,2.56-2.25,1-1,.32-.64.32h-.64l-2.24,1.28L969.9,210l-8,4.49-3.53,2.25-1.92,1.92L954.19,220l-1.92,2.25h-.64v.32l-.64.32-.32-.32.32-.64,1.28-2.25,1-1,.32-1.28-.32-1v-1h.32l.32-.32v-.32h1l.32-.32.64.64,1.28-.32,3.53-2.25,1.6-1,1.6-1.28,6.09-3.21,2.24-.64.64-.32,1.28-.64,1-.64.64-1Zm8.66-96.85.32.32.32.64.32.32.32.32,1,1.6,1.6,3.85-.32,1v1.28l.32,1.28v.32L992,119l-.64,1h-.32l-1.92-1.28-3.21-.64-.64-1,1.6-1v-2.24l-.32-1.28-.32-1-1-1.6h-1l-1.92-2.57v-1.28l-.64-.64-2.24-1.28-.64-1v-.32l1-.64h1.6l1.6.32.32.64,1.28.32.32.32,1.28,1h.32l-.32.64v1.28h1Z" transform="translate(-0.14 0.2)" style="fill:#8cc664;stroke:#528c2d;stroke-miterlimit:10;stroke-width:2px"/><circle cx="982.66" cy="95.1" r="8.5" style="fill:#06293f"/><path d="M982.8,87.51a7.39,7.39,0,1,1-7.39,7.39,7.39,7.39,0,0,1,7.39-7.39m0-2.21a9.6,9.6,0,1,0,9.6,9.6,9.62,9.62,0,0,0-9.6-9.6Z" transform="translate(-0.14 0.2)" style="fill:#fff"/><circle cx="1001.18" cy="180.42" r="8.5" style="fill:#06293f"/><path d="M1001.32,172.83a7.39,7.39,0,1,1-7.39,7.39,7.39,7.39,0,0,1,7.39-7.39m0-2.21a9.6,9.6,0,1,0,9.6,9.6,9.62,9.62,0,0,0-9.6-9.6Z" transform="translate(-0.14 0.2)" style="fill:#fff"/><circle cx="933.22" cy="238.33" r="8.5" style="fill:#06293f"/><path d="M933.36,230.74a7.39,7.39,0,1,1-7.39,7.39,7.39,7.39,0,0,1,7.39-7.39m0-2.21a9.6,9.6,0,1,0,9.6,9.6,9.62,9.62,0,0,0-9.6-9.6Z" transform="translate(-0.14 0.2)" style="fill:#fff"/><circle cx="834.7" cy="283.95" r="8.5" style="fill:#06293f"/><path d="M834.84,276.36a7.39,7.39,0,1,1-7.39,7.39,7.39,7.39,0,0,1,7.39-7.39m0-2.21a9.6,9.6,0,1,0,9.6,9.6,9.62,9.62,0,0,0-9.6-9.6Z" transform="translate(-0.14 0.2)" style="fill:#fff"/><circle cx="751.49" cy="342.5" r="8.5" style="fill:#06293f"/><path d="M751.62,334.91a7.39,7.39,0,1,1-7.39,7.39,7.39,7.39,0,0,1,7.39-7.39m0-2.21a9.6,9.6,0,1,0,9.6,9.6,9.62,9.62,0,0,0-9.6-9.6Z" transform="translate(-0.14 0.2)" style="fill:#fff"/></g><g style="opacity:0.72"><path d="M1095.81,371.55v3.54h-13.09V370.6c3.25-.19,8.12-.76,9-.86Z" transform="translate(-0.14 0.2)" style="fill:#06293f"/><path d="M1081.47,370.69v4.4c-20.64,1.24-73.3,1.82-94.23.76V372.7c38.8.76,64.61.57,94.23-2" transform="translate(-0.14 0.2)" style="fill:#06293f"/><path d="M986.86,377.48c37,1.15,74.26.38,108.76-.86l2.1,1.24c-3.06.1-7,.48-9.84,5.07h-96c0-1.24-1.91-3.06-3.92-3.82Z" transform="translate(-0.14 0.2)" style="fill:#06293f"/><rect x="1063.08" y="364.3" width="2.29" height="2.34" style="fill:#06293f"/><rect x="1059.36" y="364.3" width="2.29" height="2.34" style="fill:#06293f"/><rect x="1055.63" y="364.3" width="2.29" height="2.34" style="fill:#06293f"/><rect x="1051.9" y="364.3" width="2.29" height="2.34" style="fill:#06293f"/><rect x="1048.17" y="364.3" width="2.29" height="2.34" style="fill:#06293f"/><rect x="1044.45" y="364.3" width="2.29" height="2.34" style="fill:#06293f"/><rect x="1040.72" y="364.3" width="2.29" height="2.34" style="fill:#06293f"/><rect x="1048.75" y="356.18" width="3.54" height="3.06" style="fill:#06293f"/><polygon points="1056.44 359.23 1056.77 356.18 1060.31 356.18 1059.98 359.23 1056.44 359.23" style="fill:#06293f"/><path d="M1065.5,360.37H1039a1.32,1.32,0,0,0,0,2.64h26.47a1.32,1.32,0,0,0,0-2.64" transform="translate(-0.14 0.2)" style="fill:#06293f"/><path d="M1019.45,366.77h16.15l-1.39,3.49h33.88l.53,1.67,1.67-.24-1.19-3.15h-32.35l1.24-3.44h-18.54a.84.84,0,1,0,0,1.67" transform="translate(-0.14 0.2)" style="fill:#06293f"/><path d="M1064.17,353.48h-15.55v1.33h16.88a1.32,1.32,0,0,0-1.33-1.33" transform="translate(-0.14 0.2)" style="fill:#06293f"/><rect x="1050.23" y="347.96" width="9.7" height="0.86" style="fill:#06293f"/><path d="M1055.29,353.49V351.1c-1-1.39-1.72-5.88-1.72-8.84H1053v11.23Z" transform="translate(-0.14 0.2)" style="fill:#06293f"/><path d="M1034.95,372.42a1.08,1.08,0,0,0-1-.63h-1.25c-.29,0-.28-.05-.4-.18l-.81-.81a.49.49,0,0,0-.39-.14h-2.74a.46.46,0,0,0-.39.16l-.8.81a.4.4,0,0,1-.35.15h-1.43a.94.94,0,0,0-.91.68l-.08.63h10.69c0-.23-.06-.42-.11-.68m-7.1-.52.72-.52h2.28l.72.52Z" transform="translate(-0.14 0.2)" style="fill:#06293f"/><path d="M1023.28,372.44a1.08,1.08,0,0,0-1-.63H1021c-.29,0-.28,0-.4-.18l-.81-.81a.49.49,0,0,0-.39-.14h-2.74a.45.45,0,0,0-.39.16l-.8.81a.4.4,0,0,1-.35.15h-1.43a.94.94,0,0,0-.91.68l-.08.63h10.69c0-.23-.06-.42-.11-.68m-7.1-.52.72-.51h2.28l.72.51Z" transform="translate(-0.14 0.2)" style="fill:#06293f"/><path d="M1011.43,372.42a1.08,1.08,0,0,0-1-.63h-1.25c-.29,0-.28,0-.4-.18l-.81-.81a.49.49,0,0,0-.39-.14h-2.74a.45.45,0,0,0-.39.17l-.8.81a.4.4,0,0,1-.35.15h-1.43a.94.94,0,0,0-.91.68l-.08.63h10.69c0-.23-.06-.42-.11-.68m-7.14-.52.72-.52h2.28l.72.52Z" transform="translate(-0.14 0.2)" style="fill:#06293f"/><path d="M999.84,372.27a1.08,1.08,0,0,0-1-.63h-1.25c-.29,0-.28-.05-.4-.18l-.81-.81a.49.49,0,0,0-.39-.14h-2.74a.46.46,0,0,0-.39.16l-.8.81a.4.4,0,0,1-.35.15h-1.43a.94.94,0,0,0-.91.68l-.08.63H1000c0-.23-.06-.42-.11-.68m-7.12-.54.72-.51h2.28l.72.51Z" transform="translate(-0.14 0.2)" style="fill:#06293f"/><polygon points="1061.31 359.23 1061.65 356.18 1065.18 356.18 1064.85 359.23 1061.31 359.23" style="fill:#06293f"/><path d="M1035.68,340.61l-2,1.43-4-.79a3.42,3.42,0,0,1,4-.12,2.4,2.4,0,0,1,4.45-.16Z" transform="translate(-0.14 0.2)" style="fill:#06293f"/><path d="M1026.77,338.24l-2,1.43-4-.79a3.42,3.42,0,0,1,4-.12,2.4,2.4,0,0,1,4.45-.16Z" transform="translate(-0.14 0.2)" style="fill:#06293f"/><path d="M1026.89,343.48l-2,1.43-4-.79a3.42,3.42,0,0,1,4-.12,2.4,2.4,0,0,1,4.45-.16Z" transform="translate(-0.14 0.2)" style="fill:#06293f"/><path d="M1011.27,331.5a2.47,2.47,0,0,1,4.94,0Z" transform="translate(-0.14 0.2)" style="fill:#06293f"/><path d="M1011.12,338.18h5.24v-5.49h-5.24Zm3.55-1.85h-2.13v-2.65h2.13Z" transform="translate(-0.14 0.2)" style="fill:#06293f;fill-rule:evenodd"/><path d="M1013,341.17s-2.09,16.13.15,14.93,6.42-.45,6.42-.45L1018,337.31a24,24,0,0,1-4.24,0Zm3.32,14.87h-1.64V351.9h1.64Z" transform="translate(-0.14 0.2)" style="fill:#06293f"/><path d="M1013.63,337.31a24,24,0,0,1-4.24,0l-2.49,28.18s1.22-8.34,7-9.68Zm-1.49,10.89h-1.88v-3.89h1.88Z" transform="translate(-0.14 0.2)" style="fill:#06293f"/><path d="M1082.2,369.07a.59.59,0,0,1-.26-.06.6.6,0,0,1-.28-.8,10.46,10.46,0,0,0,1.14-4.16,7.63,7.63,0,0,0-.44-3.47,10.09,10.09,0,0,0-3.69-5.17,10.41,10.41,0,0,0-4.94-1.94c-.56,0-2.85,0-3.69,0h0a.6.6,0,0,1-.6-.57,16.53,16.53,0,0,0-9.93-14.15,16.28,16.28,0,0,0-11.7-.46,16.61,16.61,0,0,0-10,9.33.6.6,0,0,1-.87.27,10.72,10.72,0,0,0-10.31-.78,10.35,10.35,0,0,0-5.79,8.42.6.6,0,0,1-.58.52h-.92a20,20,0,0,0-5.55.53,9,9,0,0,0-5.92,8.4v1.48a.6.6,0,1,1-1.2,0V365a10.22,10.22,0,0,1,6.76-9.54,21.15,21.15,0,0,1,5.9-.59h.39a11.56,11.56,0,0,1,6.39-8.83,11.86,11.86,0,0,1,10.86.5,17.77,17.77,0,0,1,10.46-9.38,17.42,17.42,0,0,1,12.52.49,17.75,17.75,0,0,1,10.63,14.62c.92,0,2.69,0,3.24,0a11.73,11.73,0,0,1,5.56,2.18,11.26,11.26,0,0,1,4.11,5.78,8.81,8.81,0,0,1,.49,3.91,11.65,11.65,0,0,1-1.25,4.58A.6.6,0,0,1,1082.2,369.07Z" transform="translate(-0.14 0.2)" style="fill:#06293f"/><path d="M987.1,387.39c0-.09,0-.17-.23-.19v-.13h2v.13c-.19,0-.23.07-.23.14s1.44,2,2,2.84v-2.79a.17.17,0,0,0-.17-.19v-.13H992v.13c-.21,0-.23.09-.23.19v4.86c0,.09,0,.17.23.19v.13h-1.59v-.13c.15,0,.19,0,.19-.12s-.21-.27-2.41-3.35v3.28c0,.09,0,.17.23.19v.13h-1.59v-.13c.21,0,.23-.09.23-.19Z" transform="translate(-0.14 0.2)" style="fill:#06293f"/><path d="M996.68,390.28a2.23,2.23,0,1,1-2.23-2.36,2.19,2.19,0,0,1,2.23,2.36m-3.37,0a1.15,1.15,0,1,0,1.14-1.25,1.15,1.15,0,0,0-1.14,1.25" transform="translate(-0.14 0.2)" style="fill:#06293f"/><path d="M997.1,388.28c0-.15-.1-.18-.18-.19V388h2.68a1.3,1.3,0,0,1,1.37,1.45,1.47,1.47,0,0,1-.93,1.41l.74,1.4a.36.36,0,0,0,.29.21v.13h-1.69v-.13c.08,0,.2,0,.2-.14s-.57-1.27-.63-1.45h-.8v1.4c0,.15.1.18.22.19v.13h-1.44v-.13a.17.17,0,0,0,.17-.19Zm1.05,1.69h1.19a.52.52,0,0,0,.58-.56c0-.32-.14-.56-.63-.56h-1.13Z" transform="translate(-0.14 0.2)" style="fill:#06293f"/><path d="M1004.92,388c.07,0,.15,0,.15-.23h.1v1.52h-.1c0-.19-.08-.23-.15-.23h-1.19v3.21c0,.15.1.18.19.19v.13h-1.5v-.13c.09,0,.19,0,.19-.19V389h-1.19c-.07,0-.15,0-.15.23h-.1v-1.52h.1c0,.19.08.23.15.23Z" transform="translate(-0.14 0.2)" style="fill:#06293f"/><path d="M1006.79,390.66v1.59c0,.15.1.18.23.19v.13h-1.59v-.13c.13,0,.23,0,.23-.19v-4c0-.15-.1-.18-.23-.19V388H1007v.13c-.13,0-.23,0-.23.19v1.31h1.84v-1.31c0-.15-.1-.18-.23-.19V388H1010v.13c-.13,0-.23,0-.23.19v4c0,.15.1.18.23.19v.13h-1.59v-.13c.13,0,.23,0,.23-.19v-1.59Z" transform="translate(-0.14 0.2)" style="fill:#06293f"/><path d="M1015.73,389.1l-.08-.07a.76.76,0,0,0,0-.16c0-.21-.64-.48-1.35-.48a1.43,1.43,0,1,0,0,2.86c.29,0,1.4-.28,1.4-.58a.48.48,0,0,0,0-.16l.09-.07.86,1.64-.1.07a.1.1,0,0,0-.12-.08,5.63,5.63,0,0,1-2.19.56,2.81,2.81,0,0,1,0-5.61,4.5,4.5,0,0,1,1.48.22,3.63,3.63,0,0,0,.58.2.15.15,0,0,0,.13-.08l.09,0Z" transform="translate(-0.14 0.2)" style="fill:#06293f"/><path d="M1019.9,392.56v-.13s.11,0,.11-.09a5.86,5.86,0,0,0-.24-.71h-1.94c0,.19-.24.59-.24.71s.08.09.11.09v.13h-1.25v-.13a.17.17,0,0,0,.17-.1c.67-2,1.44-4,1.44-4.13s0-.09-.11-.1V388h1.74v.13c-.08,0-.11,0-.11.1s1.17,3.06,1.54,4.13a.17.17,0,0,0,.17.1v.13Zm-.42-1.68-.7-1.83-.68,1.83Z" transform="translate(-0.14 0.2)" style="fill:#06293f"/><path d="M1021.56,388.28c0-.15-.1-.18-.18-.19V388h2.68a1.3,1.3,0,0,1,1.37,1.45,1.47,1.47,0,0,1-.93,1.41l.74,1.4a.36.36,0,0,0,.29.21v.13h-1.69v-.13c.08,0,.2,0,.2-.14s-.57-1.27-.63-1.45h-.8v1.4c0,.15.1.18.22.19v.13h-1.43v-.13a.17.17,0,0,0,.17-.19Zm1.05,1.69h1.19a.52.52,0,0,0,.58-.56c0-.32-.14-.56-.63-.56h-1.13Z" transform="translate(-0.14 0.2)" style="fill:#06293f"/><path d="M1030.09,390.27a2.23,2.23,0,1,1-2.23-2.36,2.19,2.19,0,0,1,2.23,2.36m-3.37,0a1.15,1.15,0,1,0,1.14-1.25,1.15,1.15,0,0,0-1.14,1.25" transform="translate(-0.14 0.2)" style="fill:#06293f"/><path d="M1030.41,388.28c0-.15-.1-.18-.23-.19V388h1.56v.13c-.12,0-.22,0-.22.19v3.21h2.29c.07,0,.15,0,.15-.26h.1v1.59h-.1c0-.22-.08-.26-.15-.26h-3.63v-.13c.13,0,.23,0,.23-.19Z" transform="translate(-0.14 0.2)" style="fill:#06293f"/><path d="M1036,388v.13c-.17,0-.27,0-.27.19v4c0,.15.1.18.27.19v.13h-1.65v-.13c.17,0,.27,0,.27-.19v-4c0-.15-.1-.18-.27-.19V388Z" transform="translate(-0.14 0.2)" style="fill:#06293f"/><path d="M1040.79,392.25c0,.15.1.18.23.19v.13h-1.54v-.13c.08,0,.24,0,.24-.14a34.15,34.15,0,0,0-2-2.81l0,0v2.73c0,.15.1.18.22.19v.13h-1.43v-.13c.11,0,.21,0,.21-.19v-4c0-.15-.1-.18-.23-.19V388h2v.13a.17.17,0,0,0-.18.19c0,.07.81,1.11,1.51,2.06v-2.06c0-.15-.1-.18-.23-.19V388H1041v.13c-.13,0-.23,0-.23.19Z" transform="translate(-0.14 0.2)" style="fill:#06293f"/><path d="M1044.64,392.56v-.13s.11,0,.11-.09a5.72,5.72,0,0,0-.24-.71h-1.94c0,.19-.24.59-.24.71s.08.09.11.09v.13h-1.25v-.13a.17.17,0,0,0,.17-.1c.67-2,1.44-4,1.44-4.13s0-.09-.11-.1V388h1.74v.13c-.08,0-.11,0-.11.1s1.17,3.06,1.54,4.13a.17.17,0,0,0,.17.1v.13Zm-.42-1.68-.7-1.83-.68,1.83Z" transform="translate(-0.14 0.2)" style="fill:#06293f"/><path d="M1051.79,388.6h-.1c0-.2-.06-.25-.15-.25h-2.75v.93h1.85c.09,0,.13-.05.15-.24h.1v1.75h-.1c0-.23-.06-.28-.15-.28h-1.85v1.74c0,.09,0,.17.23.19v.13h-1.75v-.13c.21,0,.23-.09.23-.19v-4.86c0-.09,0-.17-.23-.19v-.13h4.27c.09,0,.13-.05.15-.29h.1Z" transform="translate(-0.14 0.2)" style="fill:#06293f"/><path d="M1055.67,391.64c.1,0,.18-.07.22-.26h.1v1.4h-.08c-.06-.19-.1-.22-.23-.22h-3.72v-.13c.12,0,.23,0,.23-.19v-4c0-.15-.12-.18-.23-.19V388h3.79c.07,0,.15,0,.15-.23h.1v1.4h-.1c0-.21-.08-.25-.15-.25h-2.44v.85h1.57c.07,0,.15,0,.15-.24h.1v1.36h-.1c0-.2-.08-.24-.15-.24h-1.57v1Z" transform="translate(-0.14 0.2)" style="fill:#06293f"/><path d="M1056.57,388.28c0-.15-.1-.18-.18-.19V388h2.68a1.3,1.3,0,0,1,1.37,1.45,1.47,1.47,0,0,1-.93,1.41l.74,1.4a.36.36,0,0,0,.29.21v.13h-1.69v-.13c.08,0,.2,0,.2-.14s-.57-1.27-.63-1.45h-.8v1.4c0,.15.1.18.22.19v.13h-1.44v-.13a.17.17,0,0,0,.17-.19Zm1.05,1.69h1.19a.52.52,0,0,0,.58-.56c0-.32-.14-.56-.63-.56h-1.13Z" transform="translate(-0.14 0.2)" style="fill:#06293f"/><path d="M1061,388.28c0-.15-.1-.18-.18-.19V388h2.68a1.3,1.3,0,0,1,1.37,1.45,1.47,1.47,0,0,1-.93,1.41l.74,1.4a.36.36,0,0,0,.29.21v.13h-1.69v-.13c.08,0,.2,0,.2-.14s-.57-1.27-.63-1.45h-.8v1.4c0,.15.1.18.22.19v.13h-1.44v-.13a.17.17,0,0,0,.17-.19Zm1.05,1.69h1.19a.52.52,0,0,0,.58-.56c0-.32-.14-.56-.63-.56h-1.13Z" transform="translate(-0.14 0.2)" style="fill:#06293f"/><path d="M1067.63,392.25a.18.18,0,0,0,.18.19v.13h-1.47v-.13a.18.18,0,0,0,.18-.19V390.9l-1.6-2.7c0-.08-.17-.1-.24-.1V388h1.79v.13c-.07,0-.19,0-.19.11a10.34,10.34,0,0,0,.8,1.39c.1-.23.73-1.26.73-1.39s-.13-.11-.18-.11V388h1.65v.13s-.18,0-.22.1l-1.43,2.66Z" transform="translate(-0.14 0.2)" style="fill:#06293f"/><path d="M1071.1,390.39l.08.05a.82.82,0,0,0,0,.22c0,.28.89.75,1.76.75s1.21-.25,1.21-.71c0-.77-3.44.08-3.44-1.93a1.81,1.81,0,0,1,2-1.76,8.49,8.49,0,0,1,2.2.44c.11,0,.17-.07.23-.16l.09,0-.58,1.45-.1-.06v-.11c0-.26-1-.55-1.74-.55s-1,.25-1,.49c0,.93,3.46-.21,3.46,2.19,0,.9-.54,1.89-2.35,1.89a5.68,5.68,0,0,1-2.2-.48c-.07,0-.12.07-.17.14l-.1,0Z" transform="translate(-0.14 0.2)" style="fill:#06293f"/><path d="M1078.08,392.25a.18.18,0,0,0,.18.19v.13h-1.47v-.13a.18.18,0,0,0,.18-.19V390.9l-1.6-2.7c0-.08-.17-.1-.24-.1V388h1.79v.13c-.07,0-.19,0-.19.11a10.46,10.46,0,0,0,.8,1.39c.1-.23.73-1.26.73-1.39s-.13-.11-.18-.11V388h1.65v.13s-.18,0-.23.1l-1.43,2.66Z" transform="translate(-0.14 0.2)" style="fill:#06293f"/><path d="M1079.64,391l.11.06s0,.06,0,.11c0,.27,1,.54,1.64.54.21,0,.76,0,.76-.45,0-.81-2.73,0-2.73-1.77a1.64,1.64,0,0,1,1.85-1.55,8.94,8.94,0,0,1,1.66.27c.09,0,.14-.08.18-.13l.09,0-.5,1.31-.11-.06s0-.07,0-.12a1.68,1.68,0,0,0-1.15-.39c-.21,0-1,0-1,.46,0,.74,2.73,0,2.73,1.79,0,.81-.56,1.52-1.84,1.52a6.92,6.92,0,0,1-1.8-.38c-.07,0-.13.07-.19.15l-.09,0Z" transform="translate(-0.14 0.2)" style="fill:#06293f"/><path d="M1087.12,388c.07,0,.15,0,.15-.23h.1v1.52h-.1c0-.19-.08-.23-.15-.23h-1.19v3.21c0,.15.1.18.19.19v.13h-1.5v-.13c.09,0,.19,0,.19-.19V389h-1.19c-.07,0-.15,0-.15.23h-.1v-1.52h.1c0,.19.08.23.15.23Z" transform="translate(-0.14 0.2)" style="fill:#06293f"/><path d="M1091.3,391.64c.1,0,.18-.07.22-.26h.1v1.4h-.08c-.06-.19-.1-.22-.23-.22h-3.72v-.13c.12,0,.23,0,.23-.19v-4c0-.15-.12-.18-.23-.19V388h3.79c.07,0,.15,0,.15-.23h.1v1.4h-.1c0-.21-.08-.25-.15-.25h-2.44v.85h1.57c.07,0,.15,0,.15-.24h.1v1.36h-.1c0-.2-.08-.24-.15-.24h-1.57v1Z" transform="translate(-0.14 0.2)" style="fill:#06293f"/><path d="M1093.09,392.25c0,.15.1.18.23.19v.13H1092v-.13c.09,0,.19,0,.19-.19v-4c0-.15-.1-.18-.19-.19V388h1.81v.13c-.08,0-.16,0-.16.08s.62,1.62.68,1.83c.27-.68.74-1.69.74-1.83s-.08-.07-.16-.08V388h1.82v.13a.17.17,0,0,0-.18.19v4a.18.18,0,0,0,.18.19v.13h-1.39v-.13c.12,0,.22,0,.22-.19v-3h0l-1.24,3-1.2-3h0Z" transform="translate(-0.14 0.2)" style="fill:#06293f"/></g></g><g id="Layer_3" data-name="Layer 3"><path d="M1011,82.91a7.2,7.2,0,0,1-3,.53c-3.16,0-5.54-2-5.54-5.68a5.58,5.58,0,0,1,5.86-5.89,6,6,0,0,1,2.66.5l-.35,1.18a5.28,5.28,0,0,0-2.26-.47c-2.63,0-4.38,1.68-4.38,4.63,0,2.75,1.58,4.51,4.31,4.51a5.8,5.8,0,0,0,2.36-.47Z" transform="translate(-0.14 0.2)" style="fill:#333"/><path d="M1019.84,79.18a3.94,3.94,0,0,1-4,4.28,3.83,3.83,0,0,1-3.86-4.15,3.93,3.93,0,0,1,4-4.28A3.82,3.82,0,0,1,1019.84,79.18Zm-6.39.08c0,1.76,1,3.1,2.45,3.1s2.45-1.32,2.45-3.13c0-1.36-.68-3.1-2.41-3.1S1013.45,77.73,1013.45,79.26Z" transform="translate(-0.14 0.2)" style="fill:#333"/><path d="M1021.68,77.73c0-.95,0-1.76-.07-2.51h1.28l0,1.58h.07a2.42,2.42,0,0,1,2.23-1.76,1.6,1.6,0,0,1,.42,0v1.38a2.18,2.18,0,0,0-.5-.05,2.05,2.05,0,0,0-2,1.88,4.13,4.13,0,0,0-.07.68v4.29h-1.45Z" transform="translate(-0.14 0.2)" style="fill:#333"/><path d="M1034.25,79.18a3.94,3.94,0,0,1-4,4.28,3.83,3.83,0,0,1-3.86-4.15,3.93,3.93,0,0,1,4-4.28A3.82,3.82,0,0,1,1034.25,79.18Zm-6.39.08c0,1.76,1,3.1,2.45,3.1s2.45-1.32,2.45-3.13c0-1.36-.68-3.1-2.41-3.1S1027.86,77.73,1027.86,79.26Z" transform="translate(-0.14 0.2)" style="fill:#333"/><path d="M1036.1,71.46h1.47V83.28h-1.47Z" transform="translate(-0.14 0.2)" style="fill:#333"/><path d="M1040,71.46h1.47V83.28H1040Z" transform="translate(-0.14 0.2)" style="fill:#333"/><path d="M1048.42,83.28l-.12-1h0a3,3,0,0,1-2.46,1.2,2.3,2.3,0,0,1-2.46-2.31c0-1.95,1.73-3,4.84-3V78a1.66,1.66,0,0,0-1.83-1.86,4,4,0,0,0-2.1.6l-.33-1a5,5,0,0,1,2.65-.72c2.46,0,3.06,1.68,3.06,3.3v3a11.27,11.27,0,0,0,.13,1.93Zm-.22-4.11c-1.6,0-3.41.25-3.41,1.81a1.3,1.3,0,0,0,1.38,1.4,2,2,0,0,0,1.95-1.35,1.53,1.53,0,0,0,.08-.47Z" transform="translate(-0.14 0.2)" style="fill:#333"/><path d="M1026.44,176a14,14,0,0,1,2.65-.23,4.64,4.64,0,0,1,3.08.82,2.35,2.35,0,0,1,.93,2,2.66,2.66,0,0,1-1.9,2.46v0a2.89,2.89,0,0,1,2.31,2.81,3,3,0,0,1-.95,2.25,5.64,5.64,0,0,1-3.88,1,17,17,0,0,1-2.25-.13Zm1.45,4.59h1.31c1.53,0,2.43-.8,2.43-1.88,0-1.31-1-1.83-2.46-1.83a6.22,6.22,0,0,0-1.28.1Zm0,5.38a7.75,7.75,0,0,0,1.21.07c1.5,0,2.88-.55,2.88-2.18s-1.32-2.16-2.9-2.16h-1.2Z" transform="translate(-0.14 0.2)" style="fill:#333"/><path d="M1039.87,187.09l-.12-1h0a3,3,0,0,1-2.46,1.2,2.3,2.3,0,0,1-2.46-2.31c0-1.95,1.73-3,4.84-3v-.17a1.66,1.66,0,0,0-1.83-1.86,4,4,0,0,0-2.1.6l-.33-1a5,5,0,0,1,2.65-.72c2.46,0,3.06,1.68,3.06,3.3v3a11.27,11.27,0,0,0,.13,1.93Zm-.22-4.11c-1.6,0-3.41.25-3.41,1.81a1.3,1.3,0,0,0,1.38,1.4,2,2,0,0,0,1.95-1.35,1.53,1.53,0,0,0,.08-.47Z" transform="translate(-0.14 0.2)" style="fill:#333"/><path d="M1043.83,179l1.76,4.76c.18.53.38,1.17.52,1.65h0c.15-.48.32-1.1.52-1.68l1.6-4.73h1.55l-2.2,5.74c-1,2.76-1.76,4.18-2.76,5a4,4,0,0,1-1.8.95l-.37-1.23a3.87,3.87,0,0,0,1.28-.72,4.45,4.45,0,0,0,1.23-1.63,1.06,1.06,0,0,0,.12-.35,1.28,1.28,0,0,0-.1-.38l-3-7.42Z" transform="translate(-0.14 0.2)" style="fill:#333"/><path d="M1051.9,179l1.58,4.53a20.53,20.53,0,0,1,.65,2.06h0c.18-.67.42-1.33.68-2.06l1.57-4.53H1058l-3.16,8.06h-1.4l-3.06-8.06Z" transform="translate(-0.14 0.2)" style="fill:#333"/><path d="M1061,176.77a.91.91,0,0,1-1.81,0,.89.89,0,0,1,.92-.92A.87.87,0,0,1,1061,176.77Zm-1.63,10.32V179h1.47v8.06Z" transform="translate(-0.14 0.2)" style="fill:#333"/><path d="M1064.05,183.33a2.58,2.58,0,0,0,2.76,2.8,5.29,5.29,0,0,0,2.23-.42l.25,1a6.52,6.52,0,0,1-2.68.5,3.74,3.74,0,0,1-4-4.06c0-2.43,1.43-4.34,3.78-4.34,2.63,0,3.33,2.31,3.33,3.8a5.54,5.54,0,0,1,0,.68Zm4.29-1a2.09,2.09,0,0,0-2-2.38,2.43,2.43,0,0,0-2.25,2.38Z" transform="translate(-0.14 0.2)" style="fill:#333"/><path d="M1072.16,179l1.07,4.1c.23.9.45,1.73.6,2.56h0c.18-.82.45-1.68.72-2.55l1.32-4.11h1.23l1.25,4c.3,1,.53,1.81.72,2.63h0a24.34,24.34,0,0,1,.62-2.61l1.15-4h1.45l-2.6,8.06h-1.33l-1.23-3.85a26.89,26.89,0,0,1-.72-2.65h0a23.64,23.64,0,0,1-.73,2.66l-1.3,3.83h-1.33l-2.43-8.06Z" transform="translate(-0.14 0.2)" style="fill:#333"/><path d="M964.73,257.07a7.19,7.19,0,0,1-3,.53c-3.16,0-5.54-2-5.54-5.68a5.58,5.58,0,0,1,5.86-5.89,6,6,0,0,1,2.66.5l-.35,1.18a5.27,5.27,0,0,0-2.26-.47c-2.63,0-4.38,1.68-4.38,4.63,0,2.75,1.58,4.51,4.31,4.51a5.8,5.8,0,0,0,2.36-.47Z" transform="translate(-0.14 0.2)" style="fill:#333"/><path d="M966.49,245.62H968v5h0a2.71,2.71,0,0,1,1-1,3,3,0,0,1,1.5-.42c1.08,0,2.81.67,2.81,3.45v4.79h-1.46v-4.63c0-1.3-.48-2.4-1.87-2.4a2.11,2.11,0,0,0-2,1.46,1.78,1.78,0,0,0-.1.7v4.86h-1.47Z" transform="translate(-0.14 0.2)" style="fill:#333"/><path d="M976.55,253.67a2.58,2.58,0,0,0,2.76,2.8,5.3,5.3,0,0,0,2.23-.42l.25,1a6.52,6.52,0,0,1-2.68.5,3.74,3.74,0,0,1-4-4.06c0-2.43,1.43-4.34,3.78-4.34,2.63,0,3.33,2.31,3.33,3.79a5.53,5.53,0,0,1,0,.68Zm4.29-1a2.09,2.09,0,0,0-2-2.38,2.43,2.43,0,0,0-2.25,2.38Z" transform="translate(-0.14 0.2)" style="fill:#333"/><path d="M984.07,251.89c0-.95,0-1.76-.07-2.51h1.28l0,1.58h.07a2.42,2.42,0,0,1,2.23-1.76,1.6,1.6,0,0,1,.42,0v1.38a2.21,2.21,0,0,0-.5,0,2.05,2.05,0,0,0-2,1.88,4.14,4.14,0,0,0-.07.68v4.29h-1.45Z" transform="translate(-0.14 0.2)" style="fill:#333"/><path d="M989.58,251.89c0-.95,0-1.76-.07-2.51h1.28l0,1.58h.07a2.42,2.42,0,0,1,2.23-1.76,1.6,1.6,0,0,1,.42,0v1.38a2.21,2.21,0,0,0-.5,0,2.05,2.05,0,0,0-2,1.88,4.13,4.13,0,0,0-.07.68v4.29h-1.45Z" transform="translate(-0.14 0.2)" style="fill:#333"/><path d="M996,249.38l1.76,4.76c.18.53.38,1.17.52,1.65h0c.15-.48.32-1.1.52-1.68l1.6-4.73h1.55l-2.2,5.74c-1,2.76-1.76,4.18-2.76,5a4,4,0,0,1-1.8.95l-.37-1.23a3.87,3.87,0,0,0,1.28-.72,4.45,4.45,0,0,0,1.23-1.63,1,1,0,0,0,.12-.35,1.28,1.28,0,0,0-.1-.38l-3-7.42Z" transform="translate(-0.14 0.2)" style="fill:#333"/><path d="M1006.85,246.37a14,14,0,0,1,2.65-.23,4.64,4.64,0,0,1,3.08.82,2.36,2.36,0,0,1,.93,2,2.66,2.66,0,0,1-1.9,2.46v0a2.89,2.89,0,0,1,2.31,2.81,3,3,0,0,1-.95,2.25,5.64,5.64,0,0,1-3.88,1,17,17,0,0,1-2.25-.13Zm1.45,4.59h1.31c1.53,0,2.43-.8,2.43-1.88,0-1.31-1-1.83-2.46-1.83a6.12,6.12,0,0,0-1.28.1Zm0,5.38a7.75,7.75,0,0,0,1.21.07c1.5,0,2.88-.55,2.88-2.18s-1.32-2.16-2.9-2.16h-1.2Z" transform="translate(-0.14 0.2)" style="fill:#333"/><path d="M1015.82,251.89c0-.95,0-1.76-.07-2.51H1017l0,1.58h.07a2.42,2.42,0,0,1,2.23-1.76,1.6,1.6,0,0,1,.42,0v1.38a2.21,2.21,0,0,0-.5,0,2.05,2.05,0,0,0-2,1.88,4.14,4.14,0,0,0-.07.68v4.29h-1.45Z" transform="translate(-0.14 0.2)" style="fill:#333"/><path d="M1025.65,257.44l-.12-1h0a3,3,0,0,1-2.46,1.2,2.3,2.3,0,0,1-2.46-2.31c0-1.95,1.73-3,4.84-3v-.17a1.66,1.66,0,0,0-1.83-1.86,4,4,0,0,0-2.1.6l-.33-1a5,5,0,0,1,2.65-.72c2.46,0,3.06,1.68,3.06,3.3v3a11.27,11.27,0,0,0,.13,1.93Zm-.22-4.11c-1.6,0-3.41.25-3.41,1.82a1.3,1.3,0,0,0,1.38,1.4,2,2,0,0,0,1.95-1.35,1.54,1.54,0,0,0,.08-.47Z" transform="translate(-0.14 0.2)" style="fill:#333"/><path d="M1029.21,251.56c0-.83,0-1.51-.07-2.18h1.3l.08,1.33h0a3,3,0,0,1,2.66-1.51c1.12,0,2.85.67,2.85,3.43v4.81h-1.46v-4.64c0-1.3-.48-2.38-1.87-2.38a2.08,2.08,0,0,0-2,1.5,2.12,2.12,0,0,0-.1.68v4.84h-1.47Z" transform="translate(-0.14 0.2)" style="fill:#333"/><path d="M1044.19,257.14a5.39,5.39,0,0,1-2.31.47,3.83,3.83,0,0,1-4-4.11,4.09,4.09,0,0,1,4.33-4.28,4.89,4.89,0,0,1,2,.42l-.33,1.13a3.4,3.4,0,0,0-1.7-.38,3,3,0,0,0,0,6.06,4.16,4.16,0,0,0,1.8-.4Z" transform="translate(-0.14 0.2)" style="fill:#333"/><path d="M1045.9,245.62h1.47v5h0a2.71,2.71,0,0,1,1-1,3,3,0,0,1,1.5-.42c1.08,0,2.81.67,2.81,3.45v4.79h-1.46v-4.63c0-1.3-.48-2.4-1.87-2.4a2.11,2.11,0,0,0-2,1.46,1.78,1.78,0,0,0-.1.7v4.86h-1.47Z" transform="translate(-0.14 0.2)" style="fill:#333"/><path d="M846.56,313a5.14,5.14,0,0,0,2.6.73c1.48,0,2.35-.78,2.35-1.91s-.6-1.65-2.11-2.23c-1.83-.65-3-1.6-3-3.18,0-1.75,1.45-3,3.63-3a5.11,5.11,0,0,1,2.48.55l-.4,1.18a4.46,4.46,0,0,0-2.13-.53c-1.53,0-2.11.92-2.11,1.68,0,1,.68,1.56,2.23,2.16,1.9.73,2.86,1.65,2.86,3.3s-1.28,3.23-3.93,3.23a5.79,5.79,0,0,1-2.86-.72Z" transform="translate(-0.14 0.2)" style="fill:#333"/><path d="M859.43,314.72l-.12-1h0a3,3,0,0,1-2.46,1.2,2.3,2.3,0,0,1-2.46-2.31c0-1.95,1.73-3,4.84-3v-.17a1.66,1.66,0,0,0-1.83-1.86,4,4,0,0,0-2.1.6l-.33-1a5,5,0,0,1,2.65-.72c2.46,0,3.06,1.68,3.06,3.3v3a11.27,11.27,0,0,0,.13,1.93Zm-.22-4.11c-1.6,0-3.41.25-3.41,1.82a1.3,1.3,0,0,0,1.38,1.4,2,2,0,0,0,1.95-1.35,1.54,1.54,0,0,0,.08-.47Z" transform="translate(-0.14 0.2)" style="fill:#333"/><path d="M863,308.84c0-.83,0-1.51-.07-2.18h1.28l.07,1.3h0a2.78,2.78,0,0,1,2.53-1.48,2.38,2.38,0,0,1,2.28,1.61h0a3.33,3.33,0,0,1,.9-1,2.75,2.75,0,0,1,1.78-.57c1.07,0,2.65.7,2.65,3.5v4.74h-1.43v-4.56c0-1.55-.57-2.48-1.75-2.48a1.9,1.9,0,0,0-1.73,1.33,2.41,2.41,0,0,0-.12.73v5H868v-4.83c0-1.28-.57-2.21-1.68-2.21a2,2,0,0,0-1.81,1.46,2,2,0,0,0-.12.72v4.86H863Z" transform="translate(-0.14 0.2)" style="fill:#333"/><path d="M876.87,309.29c0-1,0-1.87-.07-2.63h1.32l.07,1.38h0a3.17,3.17,0,0,1,2.86-1.56c1.95,0,3.41,1.65,3.41,4.09,0,2.9-1.76,4.33-3.66,4.33a2.83,2.83,0,0,1-2.48-1.27h0V318h-1.45Zm1.45,2.15a3.3,3.3,0,0,0,.07.6,2.26,2.26,0,0,0,2.2,1.71c1.55,0,2.45-1.26,2.45-3.11,0-1.62-.85-3-2.4-3a2.34,2.34,0,0,0-2.21,1.81,2.39,2.39,0,0,0-.1.6Z" transform="translate(-0.14 0.2)" style="fill:#333"/><path d="M886.34,302.9h1.47v11.82h-1.47Z" transform="translate(-0.14 0.2)" style="fill:#333"/><path d="M891.09,311a2.58,2.58,0,0,0,2.76,2.8,5.3,5.3,0,0,0,2.23-.42l.25,1a6.52,6.52,0,0,1-2.68.5,3.74,3.74,0,0,1-4-4.06c0-2.43,1.43-4.34,3.78-4.34,2.63,0,3.33,2.31,3.33,3.79a5.53,5.53,0,0,1,0,.68Zm4.29-1a2.09,2.09,0,0,0-2-2.38,2.43,2.43,0,0,0-2.25,2.38Z" transform="translate(-0.14 0.2)" style="fill:#333"/><path d="M770.58,352.28V357H776v-4.7h1.46V363.5H776v-5.26h-5.43v5.26h-1.45V352.28Z" transform="translate(-0.14 0.2)" style="fill:#333"/><path d="M784.4,363.5l-.12-1h0a3,3,0,0,1-2.46,1.2,2.3,2.3,0,0,1-2.46-2.31c0-1.95,1.73-3,4.84-3v-.17a1.66,1.66,0,0,0-1.83-1.86,4,4,0,0,0-2.1.6l-.33-1a5,5,0,0,1,2.65-.72c2.46,0,3.06,1.68,3.06,3.3v3a11.27,11.27,0,0,0,.13,1.93Zm-.22-4.11c-1.6,0-3.41.25-3.41,1.82a1.3,1.3,0,0,0,1.38,1.4,2,2,0,0,0,1.95-1.35,1.54,1.54,0,0,0,.08-.47Z" transform="translate(-0.14 0.2)" style="fill:#333"/><path d="M789.66,353.13v2.31h2.1v1.12h-2.1v4.35c0,1,.28,1.56,1.1,1.56a3.27,3.27,0,0,0,.85-.1l.07,1.1a3.6,3.6,0,0,1-1.3.2,2,2,0,0,1-1.58-.62,3,3,0,0,1-.57-2.1v-4.4H787v-1.12h1.25v-1.93Z" transform="translate(-0.14 0.2)" style="fill:#333"/><path d="M795.16,353.13v2.31h2.1v1.12h-2.1v4.35c0,1,.28,1.56,1.1,1.56a3.27,3.27,0,0,0,.85-.1l.07,1.1a3.6,3.6,0,0,1-1.3.2,2,2,0,0,1-1.58-.62,3,3,0,0,1-.57-2.1v-4.4h-1.25v-1.12h1.25v-1.93Z" transform="translate(-0.14 0.2)" style="fill:#333"/><path d="M799.63,359.74a2.58,2.58,0,0,0,2.76,2.8,5.3,5.3,0,0,0,2.23-.42l.25,1a6.52,6.52,0,0,1-2.68.5,3.74,3.74,0,0,1-4-4.06c0-2.43,1.43-4.34,3.78-4.34,2.63,0,3.33,2.31,3.33,3.79a5.53,5.53,0,0,1,0,.68Zm4.29-1a2.09,2.09,0,0,0-2-2.38,2.43,2.43,0,0,0-2.25,2.38Z" transform="translate(-0.14 0.2)" style="fill:#333"/><path d="M807.15,358c0-.95,0-1.76-.07-2.51h1.28l0,1.58h.07a2.42,2.42,0,0,1,2.23-1.76,1.6,1.6,0,0,1,.42,0v1.38a2.21,2.21,0,0,0-.5,0,2.05,2.05,0,0,0-2,1.88,4.14,4.14,0,0,0-.07.68v4.29h-1.45Z" transform="translate(-0.14 0.2)" style="fill:#333"/><path d="M817,363.5l-.12-1h0a3,3,0,0,1-2.46,1.2,2.3,2.3,0,0,1-2.46-2.31c0-1.95,1.73-3,4.84-3v-.17a1.66,1.66,0,0,0-1.83-1.86,4,4,0,0,0-2.1.6l-.33-1a5,5,0,0,1,2.65-.72c2.46,0,3.06,1.68,3.06,3.3v3a11.27,11.27,0,0,0,.13,1.93Zm-.22-4.11c-1.6,0-3.41.25-3.41,1.82a1.3,1.3,0,0,0,1.38,1.4,2,2,0,0,0,1.95-1.35,1.54,1.54,0,0,0,.08-.47Z" transform="translate(-0.14 0.2)" style="fill:#333"/><path d="M820.33,362a3.84,3.84,0,0,0,1.93.58c1.07,0,1.57-.53,1.57-1.2s-.42-1.08-1.5-1.48c-1.45-.52-2.13-1.32-2.13-2.28a2.49,2.49,0,0,1,2.78-2.36,4,4,0,0,1,2,.5l-.37,1.07a3.14,3.14,0,0,0-1.65-.47c-.87,0-1.35.5-1.35,1.1s.48,1,1.53,1.37c1.4.53,2.11,1.23,2.11,2.43,0,1.42-1.1,2.41-3,2.41a4.59,4.59,0,0,1-2.26-.55Z" transform="translate(-0.14 0.2)" style="fill:#333"/></g></g></svg>
