<?xml version="1.0" encoding="utf-8"?>
<!-- Generator: Adobe Illustrator 21.1.0, SVG Export Plug-In . SVG Version: 6.00 Build 0)  -->
<svg version="1.1" id="Layer_1" xmlns="http://www.w3.org/2000/svg" xmlns:xlink="http://www.w3.org/1999/xlink" x="0px" y="0px"
	 viewBox="0 0 94 38.6" style="enable-background:new 0 0 94 38.6;" xml:space="preserve">
<style type="text/css">
	.st0{clip-path:url(#SVGID_2_);}
</style>
<g>
	<defs>
		<path id="SVGID_1_" d="M44.6,7.6l5.4,0v9.9c0,0-2.3,3.5-2.3,6.2c0.1,2.9,2.3,5.1,2.3,5.1l0,5.3l-3.3,0l-2.1-5.3L44.6,7.6z
			 M35.4,23.2L32,14.6l-3.4,8.6L35.4,23.2z M29.4,7.6h5.2l11,26.6h-5.9l-2.3-5.9H26.5l-2.3,5.9l-3.6-5.3L29.4,7.6z M11.5,20.5
			c2.7,0,4.3-1.5,4.3-3.7v-0.1c0-2.5-1.7-3.8-4.4-3.8H5.8v7.6H11.5z M0,7.6h11.7c3.3,0,5.8,0.9,7.5,2.7c1.4,1.5,2.2,3.6,2.2,6v0.1
			c0,4.3-2.2,7-5.5,8.2l6.4,9.6l-6.5,0l-5.7-8.6H5.6v8.6H0V7.6z M61.7,34.2c0,0-11.2-2.3-12.7-9.5C47.2,15.8,69.8,0,69.8,0
			s0.8,1.6,1.3,3.3c0.6,2.1,0.6,4,0.6,4s-14.1,6.2-16,12.7C53.8,26.4,61.7,34.2,61.7,34.2z M66.7,28.9c-0.6-2.5-0.9-5.2-0.7-8
			c0.3-4,1.3-7.4,3.6-10.1c2-2.3,2.7-2.5,2.8-2.6C82.8,3.6,94,0.5,94,0.5S72.6,13,69,23c-2,5.6,0.9,13.1,1.8,15.6l0,0
			C69.2,37.4,56,27.7,57.1,20.8c1-5.8,13.1-11.5,13.1-11.5s-4.9,2.7-4.9,11.6C65.4,23.5,66,26.3,66.7,28.9L66.7,28.9z"/>
	</defs>
	<use xlink:href="#SVGID_1_"  style="overflow:visible;fill-rule:evenodd;clip-rule:evenodd;"/>
	<clipPath id="SVGID_2_">
		<use xlink:href="#SVGID_1_"  style="overflow:visible;"/>
	</clipPath>
	<rect x="-5" y="-5" class="st0" width="104" height="48.6"/>
</g>
</svg>
