<?xml version="1.0" encoding="utf-8"?>
<!-- Generator: Adobe Illustrator 21.1.0, SVG Export Plug-In . SVG Version: 6.00 Build 0)  -->
<svg version="1.1" id="Layer_1" xmlns="http://www.w3.org/2000/svg" xmlns:xlink="http://www.w3.org/1999/xlink" x="0px" y="0px"
	 viewBox="0 0 202 112" style="enable-background:new 0 0 202 112;" xml:space="preserve">
<style type="text/css">
	.st0{clip-path:url(#SVGID_2_);}
	.st1{opacity:0.25;clip-path:url(#SVGID_4_);}
</style>
<g>
	<defs>
		<path id="SVGID_1_" d="M101,23l-3.6,82.6L81.7,65.1l8.2,41L64.4,72l18,35.1l-63-44.6l55.5,46.3L39.5,95.6L67.9,112
			C41.5,112,9.7,91.1,0,47.6c0,0,56.6,0.6,75.5,25.8C72,38,96.4,4.6,101,0c4.6,4.6,29,38,25.5,73.4C145.4,48.3,202,47.6,202,47.6
			c-9.7,43.4-41.5,64.4-67.9,64.4l28.5-16.4l-35.4,13.2l55.5-46.3l-63,44.6l18-35.1l-25.5,34.1l8.2-41l-15.7,40.6L101,23"/>
	</defs>
	<use xlink:href="#SVGID_1_"  style="overflow:visible;fill-rule:evenodd;clip-rule:evenodd;"/>
	<clipPath id="SVGID_2_">
		<use xlink:href="#SVGID_1_"  style="overflow:visible;"/>
	</clipPath>
	<g class="st0">
		<defs>
			<rect id="SVGID_3_" x="-79" y="-2320" width="360" height="2848"/>
		</defs>
		<use xlink:href="#SVGID_3_"  style="overflow:visible;"/>
		<clipPath id="SVGID_4_">
			<use xlink:href="#SVGID_3_"  style="overflow:visible;"/>
		</clipPath>
		<rect x="-5" y="-5" class="st1" width="212" height="122"/>
	</g>
</g>
</svg>
