<?xml version="1.0" encoding="utf-8"?>
<!-- Generator: Adobe Illustrator 21.0.0, SVG Export Plug-In . SVG Version: 6.00 Build 0)  -->
<svg version="1.1" id="Layer_1" xmlns="http://www.w3.org/2000/svg" xmlns:xlink="http://www.w3.org/1999/xlink" x="0px" y="0px"
	 viewBox="0 0 32 32" style="enable-background:new 0 0 32 32;" xml:space="preserve">
<style type="text/css">
	.st0{fill:#FFFFFF;}
	.st1{display:none;}
	.st2{display:inline;fill:#FFFFFF;}
	.st3{fill:#3F7D97;}
</style>
<path class="st0" d="M32,32H0V0h32V32 M3.1,28.8h25.8V3.2H3.1 M2.3,1.7h28.4v28.1H2.3V1.7"/>
<g class="st1">
	<path class="st2" d="M7.1,19.5L11,14l0,0H7.5v-1.5h5.9v1.1L9.6,19l0,0h3.8v1.5H7.1V19.5z"/>
	<path class="st2" d="M16.9,12.4v8.1h-1.8v-8.1H16.9z"/>
	<path class="st2" d="M19,12.5c0.6-0.1,1.4-0.2,2.5-0.2s1.9,0.2,2.5,0.6c0.5,0.4,0.9,1.1,0.9,1.9c0,0.8-0.3,1.5-0.7,1.9
		c-0.6,0.6-1.5,0.9-2.6,0.9c-0.2,0-0.5,0-0.6,0v2.9h-2V12.5z M20.8,16.2c0.2,0,0.3,0,0.6,0c1,0,1.6-0.5,1.6-1.3
		c0-0.7-0.5-1.2-1.4-1.2c-0.4,0-0.6,0-0.8,0.1C20.8,13.8,20.8,16.2,20.8,16.2z"/>
</g>
<path class="st3" d="M14,20.5L20,16L14,11.5V20.5z M16,6.1c-5.5,0-9.9,4.4-9.9,9.9s4.4,9.9,9.9,9.9s9.9-4.4,9.9-9.9S21.5,6.1,16,6.1
	z M16,23.9c-4.4,0-7.9-3.6-7.9-7.9s3.6-7.9,7.9-7.9s7.9,3.6,7.9,7.9S20.4,23.9,16,23.9z"/>
<path class="st3" d="M32,32H0V0h32V32z M3.1,28.8h25.8V3.2H3.1"/>
</svg>
