<svg xmlns="http://www.w3.org/2000/svg" viewBox="194 381 500 500"><path fill="#EA4C3A" d="M694 881H194V381h500v500"/><path fill="none" stroke="#FFF" stroke-width="16" stroke-linejoin="round" stroke-miterlimit="10" d="M450.2 457.6c7.8 3.1 6.2 7.8 3.1 31.2s-10.9 65.6-25 107.8c-15.6 42.2-37.5 82.8-57.8 114.1-20.3 31.2-35.9 50-50 62.5-12.5 10.9-21.9 14.1-28.1 15.6-6.2 1.6-7.8 0-9.4-3.1s-1.6-7.8 0-14.1c1.6-6.2 4.7-12.5 14.1-21.9 9.4-9.4 23.4-20.3 43.8-31.2 20.3-10.9 46.9-20.3 68.7-26.6 21.9-6.2 39.1-10.9 53.1-12.5 14.1-3.1 28.1-4.7 39.1-6.2 12.5-1.6 25-1.6 35.9 0 12.5 1.6 23.4 3.1 32.8 6.2 9.4 3.1 18.7 6.2 26.6 10.9 7.8 4.7 14.1 10.9 17.2 18.8 3.1 7.8 3.1 15.6 0 21.9-3.1 6.2-7.8 9.4-14.1 10.9-6.2 1.6-12.5 3.1-21.9 0-7.8-3.1-17.2-7.8-28.1-15.6-9.4-7.8-20.3-17.2-34.4-31.2-14.1-14.1-31.3-34.4-45.3-53.1-14.1-18.8-26.6-37.5-34.4-53.1s-12.5-28.1-15.6-40.6c-3.1-12.5-6.2-25-7.8-37.5-1.6-10.9 0-21.9 0-29.7 1.6-7.8 3.1-14.1 4.7-18.8 3.1-4.7 6.2-6.2 9.4-7.8 3.1-1.6 4.7-1.6 6.2-1.6h6.2c6.4 1.5 9.5 3.1 11 4.7"/></svg>