<svg xmlns="http://www.w3.org/2000/svg" viewBox="194 418 500 500"><path fill="#EA4C3A" d="M694 918H194V418h500v500m-451.6-50h403.1V468H242.4"/><path fill="#EA4C3A" d="M450.2 494.6l-3.6 7.2c.2.1.3.2.4.2l.9-1.2-1.2.9c.1.2.3.3.3.3l.9-1.2-1.2.9 1.4-1-1.6.6c0 .1.1.2.2.3l1.4-1-1.6.6.5-.2-.5.2.5-.2-.5.2s.1.3.1.7c.1.5.1 1.2.1 2.1 0 1.9-.2 4.5-.4 8-.3 3.5-.6 7.9-1 13.2l8 .5-7.9-1.1c-1.5 11.5-4.2 27.7-8.3 46.2-4.1 18.5-9.5 39.4-16.4 60.1l7.6 2.5-7.5-2.8c-15.4 41.5-37 81.7-57 112.5-10 15.5-18.9 27.7-26.9 37.6-8 9.9-15.1 17.4-21.7 23.3-5.8 5.1-10.7 8.2-14.7 10.2-4.1 2-7.3 3-10.1 3.7-1.3.3-2 .4-2.2.4v.1-.1.1-.1l-.2 2.4.9-2.2c-.4-.2-.7-.2-.7-.2l-.2 2.4.9-2.2-1.4 3.5 2.3-3.1c-.3-.2-.6-.4-.9-.5l-1.4 3.5 2.3-3.1-1.6 2.2 2.2-1.6s-.2-.3-.6-.6l-1.6 2.2 2.2-1.6-.3-.6c0-.1-.1-.3-.2-.6-.1-.4-.1-.9-.1-1.7 0-1.5.3-3.6.9-6.3.7-2.7 1.6-5.4 3.3-8.3 1.7-2.9 4.1-6 8.2-9.4.3-.2.3-.3.5-.5 8.7-8.7 22.2-19.3 41.9-29.9 9.7-5.2 21.1-10.2 32.8-14.6 11.7-4.4 23.6-8.2 34.3-11.3 10.9-3.1 20.6-5.8 29.2-7.9 8.6-2.1 16.1-3.6 22.6-4.3.3 0 .5-.1.9-.1 6.8-1.5 13.6-2.6 20.1-3.6 6.5-1 12.8-1.7 18.3-2.5l-1.1-7.9 1 7.9c5.9-.7 11.9-1.1 17.6-1.1 5.7 0 11.2.4 16.3 1.1h.1c6.2.8 11.9 1.5 17.2 2.5 5.2.9 9.9 2 14.1 3.4 4.7 1.6 9.2 3.1 13.5 4.7 4.2 1.7 8.1 3.4 11.5 5.5 3.4 2 6.3 4.3 8.6 6.8s4.1 5.2 5.2 8c1.2 3.1 1.8 6 1.8 8.6 0 2.6-.5 4.8-1.5 6.8-.5 1.1-1.1 1.9-1.7 2.6-.9 1.1-1.8 1.8-2.9 2.5-1.1.7-2.5 1.2-4.3 1.7-1.8.5-3.4.9-5 1.1-1.5.3-2.9.4-4.2.4-2 0-3.8-.3-6.2-1.2-7.3-2.9-16-7.3-26.4-14.7l-4.6 6.5 5.1-6.1c-9.3-7.8-20-16.9-33.8-30.8-6.8-6.8-14.5-15.3-22.2-24.3-7.7-9.1-15.4-18.7-22.3-27.9-6.9-9.3-13.5-18.5-19.2-27.3-5.7-8.8-10.7-17.2-14.4-24.6-7.6-15.3-12-27.1-15-39-3.1-12.5-6.2-24.7-7.6-36.6v-.1c-.5-3.2-.6-6.4-.6-9.7 0-3.3.2-6.5.3-9.7.2-3.2.4-6.2.4-9.2h-8l7.8 1.6c1.5-7.6 3-13.6 4.4-17.8l-7.6-2.5 6.7 4.4c1.1-1.7 2-2.5 2.8-3.1.9-.7 1.9-1.2 3.5-2 .5-.3.9-.4 1.2-.5.4-.1.5-.1.6-.2H441v-8l-2.5 7.6c2.1.7 3.7 1.4 4.8 1.9.5.3.9.5 1.2.7.1.1.2.1.2.2l.5-.5-.5.5.5-.5-.5.5c.6.6 1.3 1.1 2.1 1.5l3.4-6.9 5.7-5.7c-.9-.9-1.8-1.6-2.7-2.2-1.4-.9-2.9-1.7-4.5-2.4s-3.4-1.4-5.3-2c-.8-.3-1.6-.4-2.5-.4H433c-1.1.1-2.4.2-3.8.6-1.4.4-2.8 1-4.4 1.7-1.5.8-3.7 1.8-5.9 3.5-2.3 1.7-4.5 4-6.5 7-.4.6-.7 1.2-.9 1.9-1.7 5.2-3.3 11.7-4.9 19.7-.1.5-.2 1.1-.2 1.6 0 2.3-.2 5.1-.3 8.3-.2 3.2-.4 6.8-.4 10.6s.2 7.8.8 12l7.9-1.1-7.9 1c1.6 13.2 4.9 25.9 8 38.4 3.3 13.1 8.2 26.3 16.2 42.3 4.1 8.2 9.3 17 15.3 26.2s12.7 18.7 19.8 28.2c7.1 9.5 15 19.4 23 28.7 7.9 9.3 15.9 18 23.1 25.3 14.3 14.3 25.5 23.9 34.9 31.7l.5.4c11.5 8.2 21.5 13.2 29.8 16.5 4.2 1.7 8.4 2.4 12.2 2.4 2.6 0 5-.3 7.1-.7 2.2-.4 4.1-.9 5.9-1.3 1.9-.5 3.9-1.1 5.7-1.9 2.8-1.2 5.5-3 7.8-5.2s4.3-4.9 5.8-8c2.2-4.3 3.2-9.1 3.2-13.9 0-4.8-1-9.7-2.9-14.5-2-4.9-4.9-9.3-8.4-13-3.5-3.8-7.6-6.9-12.1-9.6-4.4-2.7-9.1-4.8-13.9-6.6-4.8-1.9-9.6-3.5-14.3-5-5.2-1.7-10.6-3-16.4-4-5.7-1-11.7-1.8-18-2.6l-1 7.9 1.1-7.9c-5.9-.8-12.1-1.3-18.5-1.3s-13 .4-19.5 1.2h-.1c-5.4.8-11.6 1.6-18.4 2.5-6.7 1-14 2.2-21.3 3.8l1.7 7.8-.9-8c-7.5.8-15.7 2.5-24.6 4.7-9 2.2-18.8 5-29.8 8.1-11.1 3.2-23.4 7.1-35.6 11.7-12.2 4.6-24.2 9.8-34.8 15.5-20.9 11.3-35.6 22.6-45.6 32.6l5.7 5.7-5.1-6.1c-5.4 4.5-9.2 9.1-11.8 13.7-2.6 4.5-4 8.8-4.9 12.4-.9 3.6-1.4 6.9-1.4 10.1 0 1.6.1 3.2.4 4.8.3 1.6.8 3.1 1.6 4.6.4.7.8 1.6 1.4 2.5.5.7 1.1 1.4 1.8 2.2 1.1 1.1 2.6 2.1 4.3 2.7 1.6.6 3.3.8 4.9.8 2 0 4-.3 6-.9 3.4-.9 8-2.2 13.4-4.9 5.3-2.7 11.4-6.6 18.1-12.5 7.4-6.6 15.1-14.7 23.6-25.2 8.4-10.4 17.6-23.2 27.8-38.9 20.6-31.7 42.7-72.7 58.6-115.6l.1-.2c7.1-21.4 12.7-42.8 16.8-61.8 4.2-19 6.9-35.6 8.5-47.5l.1-.5c.3-5.2.7-9.4 1-13 .3-3.6.5-6.5.5-9.2 0-1.7-.1-3.2-.3-4.8-.2-1.2-.5-2.4-.9-3.6-.3-.9-.8-1.8-1.3-2.7-.8-1.3-1.9-2.5-3-3.4-1.1-.9-2.3-1.6-3.4-2.2l-3.8 7 5.7-5.7-5.7 5.7z"/></svg>