<?xml version="1.0" encoding="utf-8"?>
<!-- Generator: Adobe Illustrator 21.1.0, SVG Export Plug-In . SVG Version: 6.00 Build 0)  -->
<svg version="1.1" id="Layer_1" xmlns="http://www.w3.org/2000/svg" xmlns:xlink="http://www.w3.org/1999/xlink" x="0px" y="0px"
	 viewBox="0 0 88.1 87.9" style="enable-background:new 0 0 88.1 87.9;" xml:space="preserve">
<style type="text/css">
	.st0{opacity:0.24;}
	.st1{fill:#3F7D97;stroke:#000000;stroke-width:0.5;stroke-miterlimit:10;}
	.st2{fill:#FFFFFF;}
</style>
<title>Slice 1</title>
<desc>Created with Sketch.</desc>
<g id="Page-1_1_">
	<g id="passengerAirport" transform="translate(4.000000, 2.000000)">
		<g id="Page-1">
			<g id="pin-shadow-01" transform="translate(9.000000, 68.000000)" class="st0">
				<path id="Shape" d="M46.2-1.3C25.4-2.7,4-0.8-1.8,3.2s-0.7,8.1,20,14.6l1.3,0.1c33.7-2.6,48.6-5.4,54.3-9.4
					C79.4,4.6,66.9,0.2,46.2-1.3L46.2-1.3L46.2-1.3z"/>
			</g>
			<g id="pin">
				<path id="Shape_1_" class="st1" d="M29-1.8c-18,0-32.7,14.4-32.7,32.5c0,17.9,8.6,31.5,32.2,54.5h1.1
					c23.6-23,32.2-36.5,32.2-54.5C61.8,12.6,47-1.8,29-1.8L29-1.8L29-1.8z"/>
			</g>
		</g>
	</g>
	<g id="bluestar-01" transform="translate(20.000000, 17.000000)">
		<polygon id="Shape_2_" class="st2" points="13,-1.1 16.9,10.9 29.5,10.9 19.3,18.3 23.2,30.3 13,22.9 2.7,30.3 6.6,18.3 
			-3.6,10.9 9,10.9 		"/>
	</g>
</g>
</svg>
