<?xml version="1.0" encoding="utf-8"?>
<!-- Generator: Adobe Illustrator 21.1.0, SVG Export Plug-In . SVG Version: 6.00 Build 0)  -->
<svg version="1.1" id="Layer_1" xmlns="http://www.w3.org/2000/svg" xmlns:xlink="http://www.w3.org/1999/xlink" x="0px" y="0px"
	 viewBox="0 0 88.1 87.9" style="enable-background:new 0 0 88.1 87.9;" xml:space="preserve">
<style type="text/css">
	.st0{opacity:0.24;}
	.st1{fill:#C05411;stroke:#000000;stroke-width:0.5;stroke-miterlimit:10;}
	.st2{fill:#FFFFFF;}
</style>
<title>Slice 1</title>
<desc>Created with Sketch.</desc>
<g id="Page-1_1_">
	<g id="passengerAirport" transform="translate(4.000000, 2.000000)">
		<g id="Page-1">
			<g id="pin-shadow-01" transform="translate(9.000000, 68.000000)" class="st0">
				<path id="Shape" d="M46.2-1.3C25.4-2.7,4-0.8-1.8,3.2s-0.7,8.1,20,14.6l1.3,0.1c33.7-2.6,48.6-5.4,54.3-9.4
					C79.4,4.6,66.9,0.2,46.2-1.3L46.2-1.3L46.2-1.3z"/>
			</g>
			<g id="pin">
				<path id="Shape_1_" class="st1" d="M29-1.8c-18,0-32.7,14.4-32.7,32.5c0,17.9,8.6,31.5,32.2,54.5h1.1
					c23.6-23,32.2-36.5,32.2-54.5C61.8,12.6,47-1.8,29-1.8L29-1.8L29-1.8z"/>
			</g>
			<g id="bridge" transform="translate(14.000000, 25.000000)">
				<path id="Shape_2_" class="st2" d="M5.8,9.7V4.6c-1.2-0.5-2.3-1.2-3.3-2v7H5.8L5.8,9.7z M2.5,16.2h-3.3V13h-3.3V9.7h3.3V-1.8
					h3.3v2.3c3.2,2.7,7.3,4.2,11.5,4.2c4.2,0,8.3-1.5,11.5-4.2v-2.3h3.3V9.7H32V13h-3.3v3.3h-3.3V13H2.5V16.2L2.5,16.2z M22.1,4.6
					v5.1h3.3v-7C24.4,3.5,23.3,4.1,22.1,4.6L22.1,4.6z M20.5,9.7V5.3c-1.1,0.4-2.2,0.7-3.3,0.9v3.5H20.5L20.5,9.7z M15.6,9.7V6.4
					h-1.6h-1.6v3.3H15.6L15.6,9.7z M10.7,9.7V6.2C9.6,6,8.5,5.7,7.4,5.3v4.4H10.7L10.7,9.7z"/>
			</g>
		</g>
	</g>
</g>
</svg>
