<?xml version="1.0" encoding="utf-8"?>
<!-- Generator: Adobe Illustrator 21.1.0, SVG Export Plug-In . SVG Version: 6.00 Build 0)  -->
<svg version="1.1" id="Layer_1" xmlns="http://www.w3.org/2000/svg" xmlns:xlink="http://www.w3.org/1999/xlink" x="0px" y="0px"
	 viewBox="0 0 88.4 88.1" style="enable-background:new 0 0 88.4 88.1;" xml:space="preserve">
<style type="text/css">
	.st0{opacity:0.24;}
	.st1{fill:#3F7D97;stroke:#000000;stroke-miterlimit:10;}
	.st2{fill:#FFFFFF;}
</style>
<title>Slice 1</title>
<desc>Created with Sketch.</desc>
<g id="Page-1_1_">
	<g id="passengerAirport" transform="translate(1.000000, 1.000000)">
		<g id="Page-1">
			<g id="pin-shadow-01" transform="translate(9.000000, 68.000000)" class="st0">
				<path id="Shape" d="M49.4,0C28.7-1.5,7.2,0.4,1.4,4.4s-0.7,8.1,20,14.6l1.3,0.1c33.7-2.6,48.6-5.4,54.3-9.4
					C82.7,5.8,70.2,1.5,49.4,0L49.4,0L49.4,0z"/>
			</g>
			<g id="pin">
				<path id="Shape_1_" class="st1" d="M32.2-0.5C14.2-0.5-0.5,13.9-0.5,32c0,17.9,8.6,31.5,32.2,54.5h1.1C56.4,63.5,65,50,65,32
					C65,13.9,50.2-0.5,32.2-0.5L32.2-0.5L32.2-0.5z"/>
			</g>
		</g>
	</g>
	<path id="Shape_2_" class="st2" d="M22.4,23.5H44v7.1l-10.8-3.5l-10.8,3.5V23.5z M18.7,46.9h0.1c2.9,0,5.4-1.6,7.2-3.6
		c1.8,2,4.3,3.6,7.2,3.6s5.4-1.6,7.2-3.6c1.8,2,4.3,3.6,7.2,3.6h0.1l3.4-12c0.1-0.4,0.1-1-0.1-1.4c-0.2-0.4-0.6-0.8-1.1-0.9
		l-2.3-0.8v-8.3c0-2-1.6-3.6-3.6-3.6h-5.4v-5.4H27.8v5.4h-5.4c-2,0-3.6,1.6-3.6,3.6v8.3l-2.3,0.8c-0.5,0.1-0.8,0.5-1.1,0.9
		c-0.2,0.4-0.3,0.9-0.1,1.4L18.7,46.9z M47.6,50.5c-2.5,0-5-0.8-7.2-2.4c-4.4,3.1-10,3.1-14.4,0c-2.2,1.5-4.7,2.4-7.2,2.4h-3.6v3.6
		h3.6c2.5,0,4.9-0.6,7.2-1.8c4.5,2.3,9.9,2.3,14.4,0c2.3,1.2,4.7,1.8,7.2,1.8h3.6v-3.6H47.6L47.6,50.5z"/>
</g>
</svg>
