<?xml version="1.0" encoding="utf-8"?>
<!-- Generator: Adobe Illustrator 21.1.0, SVG Export Plug-In . SVG Version: 6.00 Build 0)  -->
<svg version="1.1" id="Layer_1" xmlns="http://www.w3.org/2000/svg" xmlns:xlink="http://www.w3.org/1999/xlink" x="0px" y="0px"
	 viewBox="0 0 88.1 87.9" style="enable-background:new 0 0 88.1 87.9;" xml:space="preserve">
<style type="text/css">
	.st0{opacity:0.24;}
	.st1{fill:#3F7D97;stroke:#000000;stroke-width:0.5;stroke-miterlimit:10;}
	.st2{fill:#FFFFFF;}
</style>
<title>Slice 1</title>
<desc>Created with Sketch.</desc>
<g id="Page-1_1_">
	<g id="passengerAirport" transform="translate(1.000000, 1.000000)">
		<g id="Page-1">
			<g id="pin-shadow-01" transform="translate(9.000000, 68.000000)" class="st0">
				<path id="Shape" d="M49.2-0.3C28.4-1.7,7,0.2,1.2,4.2s-0.7,8.1,20,14.6l1.3,0.1c33.7-2.6,48.6-5.4,54.3-9.4
					C82.4,5.6,69.9,1.2,49.2-0.3L49.2-0.3L49.2-0.3z"/>
			</g>
			<g id="pin">
				<path id="Shape_1_" class="st1" d="M32-0.8c-18,0-32.7,14.4-32.7,32.5c0,17.9,8.6,31.5,32.2,54.5h1.1
					c23.6-23,32.2-36.5,32.2-54.5C64.8,13.6,50-0.8,32-0.8L32-0.8L32-0.8z"/>
			</g>
		</g>
	</g>
	<path id="Shape_2_" class="st2" d="M22.1,23.2h21.6v7.1L33,26.9l-10.8,3.5V23.2z M18.4,46.6h0.1c2.9,0,5.4-1.6,7.2-3.6
		c1.8,2,4.3,3.6,7.2,3.6s5.4-1.6,7.2-3.6c1.8,2,4.3,3.6,7.2,3.6h0.1l3.4-12c0.1-0.4,0.1-1-0.1-1.4c-0.2-0.4-0.6-0.8-1.1-0.9
		l-2.3-0.8v-8.3c0-2-1.6-3.6-3.6-3.6h-5.4v-5.4H27.6v5.4h-5.4c-2,0-3.6,1.6-3.6,3.6v8.3l-2.3,0.8c-0.5,0.1-0.8,0.5-1.1,0.9
		c-0.2,0.4-0.3,0.9-0.1,1.4L18.4,46.6z M47.3,50.2c-2.5,0-5-0.8-7.2-2.4c-4.4,3.1-10,3.1-14.4,0c-2.2,1.5-4.7,2.4-7.2,2.4h-3.6v3.6
		h3.6c2.5,0,4.9-0.6,7.2-1.8c4.5,2.3,9.9,2.3,14.4,0c2.3,1.2,4.7,1.8,7.2,1.8H51v-3.6H47.3L47.3,50.2z"/>
</g>
</svg>
