<?xml version="1.0" encoding="utf-8"?>
<!-- Generator: Adobe Illustrator 21.1.0, SVG Export Plug-In . SVG Version: 6.00 Build 0)  -->
<svg version="1.1" id="Layer_1" xmlns="http://www.w3.org/2000/svg" xmlns:xlink="http://www.w3.org/1999/xlink" x="0px" y="0px"
	 viewBox="0 0 88.1 87.9" style="enable-background:new 0 0 88.1 87.9;" xml:space="preserve">
<style type="text/css">
	.st0{opacity:0.24;}
	.st1{fill:#3F7D97;stroke:#000000;stroke-width:0.5;stroke-miterlimit:10;}
	.st2{fill:#FFFFFF;}
</style>
<title>Slice 1</title>
<desc>Created with Sketch.</desc>
<g id="Page-1_1_">
	<g id="passengerAirport" transform="translate(1.000000, 1.000000)">
		<g id="Page-1">
			<g id="pin-shadow-01" transform="translate(9.000000, 68.000000)" class="st0">
				<path id="Shape" d="M49.2-0.3C28.4-1.7,7,0.2,1.2,4.2s-0.7,8.1,20,14.6l1.3,0.1c33.7-2.6,48.6-5.4,54.3-9.4
					C82.4,5.6,69.9,1.2,49.2-0.3L49.2-0.3L49.2-0.3z"/>
			</g>
			<g id="pin">
				<path id="Shape_1_" class="st1" d="M32-0.8c-18,0-32.7,14.4-32.7,32.5c0,17.9,8.6,31.5,32.2,54.5h1.1
					c23.6-23,32.2-36.5,32.2-54.5C64.8,13.6,50-0.8,32-0.8L32-0.8L32-0.8z"/>
			</g>
		</g>
	</g>
	<path id="Shape_2_" class="st2" d="M14.9,18.2h36v18h-7.2v14.4h-3.6V36.2H25.8v14.4h-3.6V36.2h-7.2V18.2L14.9,18.2z M45.5,32.7
		l1.9-1.9v-5.1l-6.9,6.9H45.5L45.5,32.7z M35.3,32.7l10.8-10.8h-5.1L30.3,32.7H35.3L35.3,32.7z M25.1,32.7l10.8-10.8h-5.1L20,32.7
		H25.1L25.1,32.7z M20.7,21.9L18.6,24v5.1l7.2-7.2H20.7L20.7,21.9z"/>
</g>
</svg>
