<?xml version="1.0" encoding="utf-8"?>
<!-- Generator: Adobe Illustrator 21.1.0, SVG Export Plug-In . SVG Version: 6.00 Build 0)  -->
<svg version="1.1" id="Layer_1" xmlns="http://www.w3.org/2000/svg" xmlns:xlink="http://www.w3.org/1999/xlink" x="0px" y="0px"
	 viewBox="0 0 88.1 87.9" style="enable-background:new 0 0 88.1 87.9;" xml:space="preserve">
<style type="text/css">
	.st0{opacity:0.24;}
	.st1{fill:#3F7D97;stroke:#000000;stroke-width:0.5;stroke-miterlimit:10;}
	.st2{fill:#FFFFFF;}
</style>
<title>Slice 1</title>
<desc>Created with Sketch.</desc>
<g id="Page-1_1_">
	<g id="passengerAirport" transform="translate(1.000000, 1.000000)">
		<g id="Page-1">
			<g id="pin-shadow-01" transform="translate(9.000000, 68.000000)" class="st0">
				<path id="Shape" d="M49.2-0.3C28.4-1.7,7,0.2,1.2,4.2s-0.7,8.1,20,14.6l1.3,0.1c33.7-2.6,48.6-5.4,54.3-9.4
					C82.4,5.6,69.9,1.2,49.2-0.3L49.2-0.3L49.2-0.3z"/>
			</g>
			<g id="pin">
				<path id="Shape_1_" class="st1" d="M32-0.8c-18,0-32.7,14.4-32.7,32.5c0,17.9,8.6,31.5,32.2,54.5h1.1
					c23.6-23,32.2-36.5,32.2-54.5C64.8,13.6,50-0.8,32-0.8L32-0.8L32-0.8z"/>
			</g>
		</g>
	</g>
	<g id="Group" transform="translate(18.000000, 20.000000)">
		<path id="Shape_2_" class="st2" d="M26.8,23.2c-1.4,0-2.5-1.1-2.5-2.5s1.1-2.5,2.5-2.5c1.4,0,2.5,1.1,2.5,2.5S28.1,23.2,26.8,23.2
			L26.8,23.2z M29.2,8.3l3.2,4.1h-7.3V8.3H29.2z M7.1,23.2c-1.4,0-2.5-1.1-2.5-2.5s1.1-2.5,2.5-2.5s2.5,1.1,2.5,2.5
			S8.5,23.2,7.1,23.2L7.1,23.2z M30,5.8h-4.9v-6.6H2.2C0.4-0.8-1,0.7-1,2.5v18.1h3.3c0,2.7,2.2,4.9,4.9,4.9s4.9-2.2,4.9-4.9h9.8
			c0,2.7,2.2,4.9,4.9,4.9s4.9-2.2,4.9-4.9h3.3v-8.2L30,5.8L30,5.8z"/>
	</g>
</g>
</svg>
