<?xml version="1.0" encoding="utf-8"?>
<!-- Generator: Adobe Illustrator 21.1.0, SVG Export Plug-In . SVG Version: 6.00 Build 0)  -->
<svg version="1.1" id="Layer_1" xmlns="http://www.w3.org/2000/svg" xmlns:xlink="http://www.w3.org/1999/xlink" x="0px" y="0px"
	 viewBox="0 0 88.1 87.9" style="enable-background:new 0 0 88.1 87.9;" xml:space="preserve">
<style type="text/css">
	.st0{opacity:0.24;}
	.st1{fill:#A83338;stroke:#000000;stroke-width:0.5;stroke-miterlimit:10;}
	.st2{fill:#FFFFFF;}
</style>
<title>Slice 1</title>
<desc>Created with Sketch.</desc>
<g id="Page-1">
	<g id="pin-shadow-01" transform="translate(10.000000, 69.000000)" class="st0">
		<path id="Shape" d="M49.2-0.3C28.4-1.7,7,0.2,1.2,4.2s-0.7,8.1,20,14.6l1.3,0.1c33.7-2.6,48.6-5.4,54.3-9.4
			C82.4,5.6,69.9,1.2,49.2-0.3L49.2-0.3z"/>
	</g>
	<g id="pin" transform="translate(1.000000, 1.000000)">
		<path id="Shape_1_" class="st1" d="M32-0.8c-18,0-32.7,14.4-32.7,32.5c0,17.9,8.6,31.5,32.2,54.5h1.1c23.6-23,32.2-36.5,32.2-54.5
			C64.8,13.6,50-0.8,32-0.8L32-0.8z"/>
	</g>
	<g id="largeplane" transform="translate(15.000000, 16.000000)">
		<path id="Shape_2_" class="st2" d="M27.2,35.2l3-3l-4.5-19.4l8.2-8.2c0.8-0.8,1.2-2,0.9-3.1s-1.2-2-2.3-2.3
			c-1.1-0.3-2.3,0.1-3.1,0.9l-8.3,8.2L1.9,4l-3,3l15.6,8.2l-8.1,8.2l-5.3-0.7L-1,24.8l6.7,3.7l3.7,6.7l2.2-2.2l-0.8-5.2l8.2-8.2
			L27.2,35.2z"/>
	</g>
</g>
</svg>
