<?xml version="1.0" encoding="utf-8"?>
<!-- Generator: Adobe Illustrator 21.1.0, SVG Export Plug-In . SVG Version: 6.00 Build 0)  -->
<svg version="1.1" id="Layer_1" xmlns="http://www.w3.org/2000/svg" xmlns:xlink="http://www.w3.org/1999/xlink" x="0px" y="0px"
	 viewBox="0 0 88.1 87.8" style="enable-background:new 0 0 88.1 87.8;" xml:space="preserve">
<style type="text/css">
	.st0{opacity:0.24;}
	.st1{fill:#3F7D97;stroke:#000000;stroke-width:0.5;stroke-miterlimit:10;}
	.st2{fill:#FFFFFF;}
</style>
<g id="Layer_1_1_">
	<title>Slice 1</title>
	<desc>Created with Sketch.</desc>
	<g id="Page-1_1_">
		<g id="passengerAirport" transform="translate(1.000000, 1.000000)">
			<g id="Page-1">
				<g id="pin-shadow-01" transform="translate(9.000000, 68.000000)" class="st0">
					<path id="Shape" d="M49.2-0.2C28.5-1.8,6.9,0.1,1.2,4.2s-0.7,8.1,20,14.6l1.3,0.1c33.7-2.6,48.6-5.4,54.3-9.4
						C82.4,5.6,69.9,1.2,49.2-0.2L49.2-0.2L49.2-0.2z"/>
				</g>
				<g id="pin">
					<path id="Shape_1_" class="st1" d="M32-0.8c-18,0-32.7,14.4-32.7,32.5c0,17.9,8.6,31.5,32.2,54.5h1.1
						c23.6-23,32.2-36.5,32.2-54.5C64.8,13.6,50-0.8,32-0.8L32-0.8L32-0.8z"/>
				</g>
			</g>
		</g>
	</g>
</g>
<g id="Layer_2">
	<path class="st2" d="M16.9,43c0,3.8,3.1,6.9,6.9,6.9l-3,3v1h23.8v-1l-3-3c3.8,0,6.9-3.1,6.9-6.9V22.1c0-6.9-7.1-7.9-15.8-7.9
		s-15.8,1-15.8,7.9L16.9,43L16.9,43z M32.7,46c-2.2,0-4-1.8-4-4s1.8-4,4-4s4,1.8,4,4S34.9,46,32.7,46z M44.5,32H20.9v-9.9h23.8
		L44.5,32L44.5,32z"/>
</g>
</svg>
