<?xml version="1.0" encoding="utf-8"?>
<!-- Generator: Adobe Illustrator 21.1.0, SVG Export Plug-In . SVG Version: 6.00 Build 0)  -->
<svg version="1.1" id="Layer_1" xmlns="http://www.w3.org/2000/svg" xmlns:xlink="http://www.w3.org/1999/xlink" x="0px" y="0px"
	 viewBox="0 0 88.1 87.9" style="enable-background:new 0 0 88.1 87.9;" xml:space="preserve">
<style type="text/css">
	.st0{opacity:0.24;}
	.st1{fill:#C05411;stroke:#000000;stroke-width:0.5;stroke-miterlimit:10;}
	.st2{fill:#FFFFFF;}
</style>
<title>Slice 1</title>
<desc>Created with Sketch.</desc>
<g id="Page-1_1_">
	<g id="passengerAirport" transform="translate(6.000000, 4.000000)">
		<g id="Page-1">
			<g id="pin-shadow-01" transform="translate(9.000000, 68.000000)" class="st0">
				<path id="Shape" d="M44.2-3.3C23.4-4.7,2-2.8-3.8,1.2s-0.7,8.1,20,14.6l1.3,0.1c33.7-2.6,48.6-5.4,54.3-9.4
					C77.4,2.6,64.9-1.8,44.2-3.3L44.2-3.3L44.2-3.3z"/>
			</g>
			<g id="pin">
				<path id="Shape_1_" class="st1" d="M27-3.8c-18,0-32.7,14.4-32.7,32.5c0,17.9,8.6,31.5,32.2,54.5h1.1
					c23.6-23,32.2-36.5,32.2-54.5C59.8,10.6,45-3.8,27-3.8L27-3.8L27-3.8z"/>
			</g>
		</g>
	</g>
	<g id="welcomecenter" transform="translate(21.000000, 20.000000)">
		<rect id="Rectangle-path" x="18.9" y="-3.8" class="st2" width="1.8" height="11"/>
		<polygon id="Shape_2_" class="st2" points="26.9,-2.6 23.8,-3.8 20.7,-3.8 20.7,2.6 23.8,2.6 26.9,3.8 29.9,3.8 29.9,-2.6 		"/>
		<polygon id="Shape_3_" class="st2" points="11.9,-1.3 -6.1,14.9 -0.6,14.9 -0.6,29.3 8.5,29.3 8.5,18.3 15.4,18.3 15.4,29.3 
			24.6,29.3 24.6,14.9 30,14.9 		"/>
	</g>
</g>
</svg>
