<?xml version="1.0" encoding="utf-8"?>
<!-- Generator: Adobe Illustrator 19.2.1, SVG Export Plug-In . SVG Version: 6.00 Build 0)  -->
<svg version="1.1" id="ncstatemap" xmlns="http://www.w3.org/2000/svg" xmlns:xlink="http://www.w3.org/1999/xlink" x="0px" y="0px"
	 viewBox="0 0 400 640" style="enable-background:new 0 0 400 640;" xml:space="preserve">
<rect id="side-display" x="6.7" y="115.6" width="206.9" height="46.6"/>
<polygon id="state-outline" points="382.4,7.8 363.6,9.1 351.6,9.3 345.6,9.7 338,10.9 332.2,11.3 330.5,11.3 303.3,12.7 
	293.2,13.5 285.5,14 273,15.3 266.4,15.4 251.5,15.1 237.7,15 220.8,14.9 198.5,14.4 179.9,14 163.9,13.7 159.9,13.6 139,12.8 
	126.3,11.6 125.8,12 124.7,15.3 124.9,17.2 124.7,17.6 124.4,17.8 124.1,18.5 123.7,20.4 122.9,21.9 122.9,22.3 123.6,24.1 
	124,25.2 122.8,25.8 120.5,24.6 119.3,24.9 114.7,28.8 110.6,37.3 109.2,37.2 106.7,38.6 105.6,38.3 103.1,35.4 102.6,35.4 
	101.1,36.1 99.7,37 98.2,37.2 96.9,37.1 96.4,37 93.8,38.3 92.8,39.7 90.7,41.7 88.7,45 85.3,46.2 84.3,45.8 84.3,44.1 84.4,42.4 
	82.7,40.5 76.3,43.7 76.4,45.5 74.6,47.4 72.7,45.7 70.1,47.2 70.5,50.4 69.4,51 69.4,52.4 67.4,55.4 66.7,56 63.4,55.2 61.5,56.4 
	60.2,56.5 58.9,57.1 58.1,58 54.8,58.9 54.2,60.7 52.5,62.2 50.2,62 48.3,63.5 47,64.1 44,66.9 43.2,67.1 37.7,66.5 35.2,67.1 
	31.4,66.9 28.8,68.8 26,69.8 24.5,71.3 22.1,72.8 19.4,75.2 19.4,77.2 18.8,78.5 18.8,81.2 18.5,82.5 17.1,82.9 15.7,84.2 
	11.8,84.8 10,83.2 6.6,85.5 4.9,98.2 19.6,98.5 41.1,99.4 59.8,99.4 64.7,98.2 75.9,95 78.9,94.8 78.9,93.5 79.2,93.1 80.3,93.2 
	82.9,92.5 84.3,92 86.3,91.5 90.5,90.1 92.5,88.8 93.6,89.3 96.7,90 98.2,89.6 111.3,90.1 119.6,90.7 130,91.5 135.1,91.8 
	140.4,92.1 150.5,93.1 153.7,93.2 154.1,95.3 153.7,96.1 152.4,97.7 154,99.1 158.4,96.1 162.4,101.3 164.6,104.9 164.1,112 
	185,111.9 203.8,112.1 215.3,112 225.3,121.3 243.3,140 261.9,158.9 266.8,164.1 268.1,163.1 270.3,164 274.1,162.2 275.2,161.4 
	279.3,161.1 281.6,159.9 281.6,158.9 283.2,160.1 282.9,160.5 282,160.8 281.8,161 286.5,161.3 289.7,161.9 291.2,162 291.7,163.6 
	291.9,163.9 292.5,164.1 293.6,164.3 293.8,164.5 294.3,164.7 294.8,161.2 296,158.4 296.6,154.9 297.2,153.3 296.8,152.3 
	297.2,149.8 298.2,147.4 298.9,145.9 298.5,144.7 302.7,140.1 303,138.5 303.8,138.1 305.5,136 306.1,134.3 306.7,134.9 307.9,134 
	309.6,132.3 309.4,131.5 309.4,131 309.7,131 310.3,131.6 311,131 312,130.4 312.8,128.9 314,128.5 314.7,127.9 315.5,127.7 
	315.6,127 316.9,127.3 317.8,126.4 318,125.9 320,125.5 319.5,124.6 321.3,124.1 323.7,122.8 325.7,120.6 327.1,119.3 326.8,118.9 
	326.6,118.5 327.1,118.4 327.5,118.7 329.3,117.2 328.1,115.3 329,115.7 330.1,116.6 331.2,115.6 331,113.8 332.5,114.7 332.6,115 
	332.3,116.3 332.6,116.4 336.2,114.3 341.3,113.3 343,115.4 343.8,115.6 349.3,115 350.1,114.8 352.8,115.4 353.4,115.7 
	355.8,116.6 357.1,117.6 357.2,118 357.9,118.5 356.8,118.9 357.1,120.3 357.5,120.6 357.9,120.3 357.9,119.4 368.1,104.5 
	368.7,103.8 368.7,103.7 369.2,103.1 370.7,102 371.6,100.6 373.1,99.4 373.9,98.5 374.1,97.5 374.9,97.5 375.3,97.2 375.3,96.6 
	375.4,95.6 376,95.6 376.7,95.2 379.1,93.4 379.4,92.9 380.3,92.4 381.3,91.8 386.3,88.1 390.7,85.3 392,85.2 392.8,85.2 
	397.1,82.9 398,82.6 399,82.4 400.8,82.4 401.8,82.2 402.3,81.1 402.7,79.4 403.4,69.6 404,64.9 403.7,60.5 403.4,59 401.5,53.4 
	400.9,52 400.2,51.3 399.5,50.9 399.5,50.2 395.8,42.4 388.7,29.6 385.4,19.9 384.9,16.9 "/>
<g id="region-test" class="region" data-name="Eastern Mountains" data-id="14">
	<g class="county">
		<g id="cherokee" data-name="Cherokee County" data-id="20">
			<polygon points="11.497,228.329 45.466,228.968 48.027,226.919 49.05,223.504 52.976,220.773
				58.438,214.971 61.108,211.23 64.069,211.725 69.75,209.966 72.902,210.171 76.264,204.314 76.264,202.417 77.841,196.225
				72.249,198.396 63.271,197.562 49.048,201.318 44.669,196.007 43.074,191.759 39.83,192.787 36.587,195.687 27.542,197.052
				23.274,193.469 15.424,198.759 			"/>
		</g>
		<g id="graham" data-name="Graham County" data-id="38">
			<polygon points="43.074,191.759 43.686,188.734 43.686,182.417 45.117,179.508 45.117,174.786
				51.437,169.174 56.642,170.378 61.009,168.348 63.785,169.747 66.169,169.73 82.835,173.766 87.855,173.503 91.045,174.186
				90.473,178.747 86.274,185.28 80.193,187.529 79.355,194.343 77.841,196.225 72.239,198.396 63.271,197.562 49.048,201.318
				44.674,196.013 			"/>
		</g>
		<g id="clay" data-name="Clay County" data-id="22">
			<polygon points="63.665,230.128 95.476,231.027 95.134,228.466 92.063,224.712 91.209,222.15
				85.858,215.277 80.584,210.583 74.167,210.448 72.902,210.171 69.75,209.966 64.069,211.725 61.108,211.23 58.438,214.971
				52.976,220.773 49.05,223.504 48.027,226.919 45.466,228.968 			"/>
		</g>
		<g id="macon" data-name="Macon County" data-id="56">
			<polygon points="95.476,231.027 138.944,231.177 134.068,223.114 135.129,220.188
				133.569,216.98 128.065,209.234 128.576,204.337 127.479,200.884 124.093,201.438 118.667,197.063 118.794,195.63
				118.113,191.706 115.199,188.168 105.829,189.735 102.814,192.041 87.623,193.196 79.355,194.343 77.841,196.225 76.264,202.417
				76.264,204.314 72.902,210.171 74.167,210.448 80.584,210.583 85.858,215.277 91.209,222.15 92.063,224.712 95.134,228.466
				"/>
		</g>
		<g id="swain" data-name="Swain County" data-id="87">
			<polygon points="57.055,165.794 60.488,162.289 67.06,160.064 72.902,155.507 81.885,156.038
				87.742,154.598 100.355,156.097 102.281,155.504 109.209,148.947 112.315,147.751 116.755,144.105 122.145,144.685
				126.042,141.14 130.931,141.878 133.67,144.302 133.133,147.881 134.554,150.365 133.845,154.09 136.86,159.588 133.845,164.732
				127.107,163.839 121.142,168.611 116.204,171.077 114.728,172.615 114.322,174.966 116.928,183.967 117.104,186.221
				115.199,188.168 105.829,189.735 102.814,192.041 87.623,193.196 79.355,194.343 80.193,187.529 86.274,185.28 90.473,178.747
				91.045,174.186 87.855,173.503 82.835,173.766 66.169,169.73 63.785,169.747 61.009,168.348 56.642,170.378 51.437,169.174
				"/>
		</g>
		<g id="jackson" data-name="Jackson County" data-id="50">
			<polygon points="138.944,231.177 150.34,228.307 145.553,225.114 153.799,215.805
				152.975,210.943 156.817,204.59 158.718,202.715 160.184,198.779 160.447,192.578 159.03,193.111 156.072,192.008
				155.483,188.675 154.062,187.434 152.112,184.242 148.754,182.016 146.438,174.842 138.457,172.181 136.86,165.797
				133.845,164.732 127.107,163.839 121.142,168.611 116.204,171.077 114.728,172.615 114.322,174.966 116.928,183.967
				117.104,186.221 115.199,188.168 118.113,191.706 118.794,195.63 118.667,197.063 124.093,201.438 127.479,200.884
				128.576,204.337 128.065,209.234 133.569,216.98 135.129,220.188 134.068,223.114 			"/>
		</g>
		<g id="haywood" data-name="Haywood County" data-id="44">
			<polygon points="127.367,137.034 135.11,134.786 136.86,132.736 140.029,131.46
				143.098,131.214 147.29,128.374 155.127,130.144 156.724,128.902 158.591,131.512 158.591,136.083 162.324,135.718
				165.004,145.18 168.927,152.314 170.497,150.729 172.327,151.521 173.635,155.485 177.035,158.92 174.419,169.488
				174.419,172.394 178.604,178.735 173.27,184.368 171.8,188.854 170.789,189.278 170.56,191.336 167.011,190.626 166.25,192.442
				163.64,191.868 162.751,193.111 160.447,192.578 159.03,193.111 156.072,192.008 155.483,188.675 154.062,187.434
				152.112,184.242 148.754,182.016 146.438,174.842 138.457,172.181 136.86,165.797 133.845,164.732 136.86,159.588
				133.845,154.09 134.554,150.365 133.133,147.881 133.67,144.302 130.931,141.878 126.042,141.14 			"/>
		</g>
		<g id="transylvania" data-name="Transylvania County" data-id="88">
			<polygon points="176.421,220.986 183.514,220.494 183.382,217.378 184.071,216.523
				186.662,216.732 192.766,215.154 196.026,213.813 193.851,209.049 192.041,194.689 178.867,178.166 173.27,184.368
				171.8,188.854 170.789,189.278 170.56,191.336 167.011,190.626 166.25,192.442 163.64,191.868 162.751,193.111 160.447,192.578
				160.184,198.779 158.718,202.715 156.817,204.59 152.975,210.943 153.799,215.805 145.553,225.114 150.34,228.307 			"/>
		</g>
		<g id="henderson" data-name="Henderson County" data-id="45">
			<polygon points="200.554,212.784 210.472,209.509 215.049,206.385 217.703,207.594
				219.935,196.271 222.641,194.049 228.232,184.928 226.676,182.776 227.102,176.479 228.028,174.243 222.013,171.073
				217.829,172.922 217.045,175.034 213.907,172.922 211.815,172.922 205.277,175.829 199.001,175.299 195.339,176.357
				190.371,175.829 188.54,173.715 186.448,173.449 182.264,175.299 178.867,178.488 192.041,194.689 193.851,209.049
				196.026,213.813 			"/>
		</g>
		<g id="polk" data-name="Polk County" data-id="75">
			<polygon points="217.703,207.594 219.935,196.271 222.641,194.049 228.232,184.928
				229.38,183.695 230.766,183.011 234.157,183.832 240.642,182.799 242.939,184.466 250.174,193.368 258.822,201.699
				258.822,209.509 228.232,208.38 224.875,209.35 			"/>
		</g>
	</g>

	<g class="outline">
		<polygon points="11.497,228.329 45.466,228.968
			95.476,231.027 138.944,231.177 150.34,228.307 176.421,220.986 183.514,220.494 183.382,217.378 184.071,216.523
			186.662,216.732 192.766,215.154 196.026,213.813 200.554,212.784 210.472,209.509 215.049,206.385 217.703,207.594
			224.875,209.35 228.232,208.38 258.822,209.509 258.822,201.699 250.174,193.368 242.939,184.466 240.642,182.799
			234.157,183.832 230.766,183.011 229.38,183.695 228.232,184.928 226.676,182.776 226.924,177.465 228.059,174.446
			222.013,171.073 217.829,172.922 217.045,175.034 213.907,172.922 211.815,172.922 205.277,175.829 199.001,175.299
			195.339,176.357 190.371,175.829 188.54,173.715 186.448,173.449 182.264,175.299 178.867,178.488 174.419,172.394
			174.419,169.488 177.035,158.92 173.635,155.485 172.327,151.521 170.497,150.729 168.927,152.314 165.004,145.18
			162.324,135.718 158.591,136.083 158.591,131.512 156.724,128.902 155.127,130.144 147.29,128.374 143.098,131.214
			140.029,131.46 136.86,132.736 135.11,134.786 127.367,137.034 126.042,141.14 122.145,144.685 116.755,144.105 114.322,146.104
			112.315,147.751 109.209,148.947 102.281,155.504 100.355,156.097 87.742,154.598 81.885,156.038 72.902,155.507 67.06,160.064
			60.488,162.289 57.055,165.794 51.437,169.174 45.117,174.786 45.117,179.508 43.686,182.417 43.686,188.734 43.074,191.759
			39.83,192.787 36.587,195.687 27.542,197.052 23.274,193.469 15.424,198.759 		"/>
	</g>
</g>
<g id="division-10">
	<g>
		<g id="mecklenburg">
			<polygon points="158.4,96.1 162.4,101.3 164.1,100.3 165.8,99.5 174.7,90.2 171.7,87.6 169.8,85.5 169.1,83.2 168.5,81.9 
				167.3,80.9 165.5,79.3 165.5,78.7 166.1,77.7 164.8,74.6 165.1,73.1 157.3,73.2 156.9,73.9 157,74.5 157.4,75.1 157.8,76.1 
				157.7,76.6 157,77.5 156.8,78 157,79 156,81.1 154.7,87.2 154.6,87.9 154.6,92.6 154.3,93.3 153.7,93.2 154,94.4 154.1,95.3 
				153.7,96.1 152.4,97.7 154,99.1 			"/>
		</g>
		<g id="union">
			<polygon points="184.4,92.2 186.6,91 185,111.9 164.1,112 164.6,104.9 162.4,101.3 164.4,100.1 165.8,99.5 174.7,90.2 
				177.3,91.6 178.3,91.8 179.4,92.4 179.8,92.5 181,92.1 182,92.1 183,91.9 183.8,92 			"/>
		</g>
		<g id="cabarrus">
			<polygon points="186.3,73.8 178.3,89.3 178.1,89.7 177.5,90.5 177.3,91.6 176.5,91.2 174.7,90.2 171.7,87.6 169.8,85.5 
				169.1,83.2 168.5,81.9 165.5,79.3 165.5,78.7 166.1,77.7 164.8,74.6 165.1,73.1 167.5,73.2 180.8,73.6 183.9,73.7 			"/>
		</g>
		<g id="stanly">
			<polygon points="192,73.5 192,74.1 192.6,74.8 193.8,75.1 194.7,75.2 195.6,75.7 195.6,76.5 195.7,77.2 196.1,78.4 196.7,79.3 
				197.4,80.6 197.4,81.4 196.7,82.5 196,84.4 196.2,88.6 197.4,91.3 196.7,92.9 195.8,92.2 195.7,91.6 195.2,91.1 194.7,91.3 
				194.2,91.9 193.4,91.6 192.9,92.1 193,92.9 192.7,93.5 192.2,93.4 191.9,92.4 191.4,92.1 190.3,92.6 189,91.5 189.1,90.9 
				188.4,89.7 186.6,90.9 184.4,92.2 183.8,92 183,91.9 182,92.1 181,92.1 179.8,92.5 179,92.2 178.3,91.8 177.3,91.6 177.5,90.5 
				178,89.8 186.3,73.8 			"/>
		</g>
		<g id="anson">
			<polygon points="203.8,112.1 185,111.9 186.6,91 188.4,89.7 189.1,90.9 189,91.5 190.3,92.6 191.3,92.2 191.9,92.4 192.2,93.4 
				192.7,93.5 193,92.9 192.9,92.1 193.4,91.6 194.2,91.9 194.7,91.3 195.2,91.1 195.7,91.6 195.8,92.2 196.2,92.6 196.7,92.9 
				196.9,94.1 198,96.4 198.9,96.6 199.9,96.6 201.3,95.7 202.8,95 203.5,95.4 204.2,96.1 204.5,97.2 205.3,98.9 205,101.1 
				205.2,101.8 205.9,103.3 205.9,104.1 206.3,106.8 206.3,107.7 206.1,108 204.3,109.9 			"/>
		</g>
	</g>
	<g>
		<polygon points="152.4,97.7 154,99.1 158.4,96.1 162.4,101.3 164.6,104.9 164.1,112 185,111.9 203.8,112.1 204.3,109.9 
			205.7,108.5 206.3,107.7 205.9,104.1 205.9,103.3 205,101.1 205.3,98.9 204.4,97.1 204.2,96.1 203.5,95.4 202.8,95 201.3,95.7 
			199.9,96.6 198,96.4 196.9,94.1 196.8,93.5 196.7,92.9 197.4,91.3 196.2,88.6 196,84.4 196.7,82.5 197.4,81.4 197.4,80.6 
			196.1,78.4 195.7,77.2 195.6,75.7 194.7,75.2 192.6,74.8 192,74.1 192,73.5 186.3,73.8 167.5,73.2 165.1,73.1 157.3,73.2 
			156.9,73.9 157,74.5 157.4,75.1 157.8,76.1 157.7,76.6 156.8,78 157,79 156,81.1 154.6,87.9 154.6,92.6 154.3,93.3 153.7,93.2 
			154,94.4 154.1,95.3 153.7,96.1 		"/>
	</g>
</g>
<g id="division-9">
	<g>
		<g id="rowan">
			<polygon points="167.5,73.2 186.3,73.8 192,73.5 190.7,70.6 190.9,69.9 190.7,69.4 189.5,69 189.3,68.7 186.8,66 185.2,63 
				183.1,61.7 180.8,60.9 179.6,60.6 179.2,59.6 177.7,58.6 176.8,58.7 176,58.3 171.6,55 171,54.7 170.1,54.7 169.5,54 168.2,53.8 
				165.6,63.7 			"/>
		</g>
		<g id="davie">
			<polygon points="172.9,56 176,58.3 176.8,58.7 177.7,58.6 178.6,59.2 179.2,59.6 179.6,59.2 179.5,58.5 178.3,57.5 178.4,57.1 
				178.9,56.3 178.3,54.8 178.4,54.4 179,54.7 179.7,55.3 180.1,54.8 180.6,54.7 180.9,54 181.6,54.4 182.1,54.3 182.2,53.6 
				181.6,52 181.8,51.8 183.2,51.3 183.4,49.1 183.2,48.6 182.2,47.3 181.8,46.9 181.6,46.3 180.1,43.9 179.3,42.9 177.8,43.4 
				177.6,43.3 168.9,42.8 168.2,53.8 169.5,54 170.1,54.7 171,54.7 171.6,55 			"/>
		</g>
		<g id="stokes">
			<polygon points="179.9,14 198.5,14.4 197.8,32.1 179.2,31.4 			"/>
		</g>
		<g id="forsyth">
			<polygon points="186,45.9 190.2,45.7 190.1,44.6 193.5,44.5 197.4,45.7 197.8,32.1 179.2,31.4 179.2,31.6 180.1,32.3 180.3,32.5 
				180.5,33.1 180.1,34.2 180.4,35.7 180.4,36.4 179.9,37.3 180.5,38.2 180.3,38.8 178,39.9 177.4,40.5 177.5,41.7 177.6,43.3 
				177.8,43.4 179,42.9 179.3,42.9 180.1,43.9 181.1,45.6 181.6,46.3 181.8,46.9 182.2,47.3 184.1,46 			"/>
		</g>
		<g id="davidson">
			<polygon points="196.7,73.5 197.4,45.7 193.5,44.5 190.1,44.6 190.2,45.7 184.1,46 182.2,47.3 183.2,48.6 183.4,49.3 183.2,51.3 
				181.8,51.8 181.6,52 182.2,53.6 182.1,54.3 181.6,54.4 180.9,54 180.6,54.7 180.1,54.8 179.7,55.3 179,54.7 178.4,54.4 
				178.3,54.8 178.9,56.3 178.5,56.9 178.3,57.5 179.5,58.5 179.6,59.2 179.2,59.6 179.6,60.6 180.6,60.8 183.1,61.7 184.6,62.6 
				185.2,63 186.3,65 186.8,66 188.3,67.5 189.3,68.7 189.5,69 190.7,69.4 190.9,69.9 190.7,70.6 191.1,71.4 192,73.5 			"/>
		</g>
	</g>
	<g>
		<polygon points="192,73.5 196.7,73.4 197.2,50.6 197.8,32.1 198.5,14.4 179.9,14 179.2,31.4 180.3,32.5 180.5,33.1 180.1,34.2 
			180.4,35.7 180.4,36.4 179.9,37.3 180.5,38.2 180.3,38.8 178,39.9 177.4,40.5 177.6,43.3 168.9,42.8 168.2,53.8 165.6,63.7 
			167.5,73.2 186.3,73.8 		"/>
	</g>
</g>
<g id="division-8">
	<g>
		<g id="montgomery">
			<polygon points="210.2,73.5 213,84.5 213.1,86.6 215,88.7 215.5,90.5 216.9,91.5 214.9,92.4 213.1,92 209.6,91.9 208.4,91.5 
				207.5,91.3 205.9,91.8 203.5,92.5 201.7,92.5 200.3,92.9 198.5,93.8 196.8,93.5 196.7,92.9 197.4,91.3 196.2,88.6 196,84.4 
				196.7,82.5 197.4,81.4 197.4,80.6 196.1,78.4 195.7,77.2 195.6,75.7 194.7,75.2 192.6,74.8 192,74.1 192,73.5 			"/>
		</g>
		<g id="richmond">
			<polygon points="209.4,112 215.3,112 217.2,111.4 217.5,108.7 219.7,107.1 218.8,104.3 219.3,102.5 220.3,101.3 224.3,99.4 
				222.4,97.9 219.8,97.6 218.8,97 219.1,95.1 219,94.2 217.7,92.8 216.9,91.5 214.9,92.4 212.9,91.9 209.6,91.9 208.4,91.5 
				207.5,91.3 203.5,92.5 201.7,92.5 200.3,92.9 198.5,93.8 196.8,93.5 196.9,94.1 198,96.4 198.9,96.6 199.9,96.6 201.3,95.7 
				202.8,95 203.5,95.4 204.2,96.1 204.4,97.1 205.3,98.9 205,101.1 205.9,103.3 205.9,104.1 206.3,106.8 206.3,107.7 205.7,108.5 
				204.3,109.9 203.8,112.1 			"/>
		</g>
		<g id="scotland">
			<polygon points="225.3,121.3 215.3,112 217.2,111.4 217.5,108.7 219.7,107.1 218.8,104.3 219.3,102.5 220.3,101.3 221.8,100.6 
				224.3,99.4 224.9,100 226.6,101.1 229,104.1 229.2,106.8 229.9,108.6 229.9,109.3 229.7,109.9 229.4,110.8 230.2,114.6 			"/>
		</g>
		<g id="hoke">
			<polygon points="240.8,93.5 240.8,95.8 242,100.6 242.6,101.7 243.6,103.7 243.1,104.4 237.4,110.6 229.4,110.8 229.9,109.3 
				229.9,108.6 229.2,106.8 229,104.1 226.9,101.4 224.9,100 224.3,99.4 230,92.9 235,89.6 238.9,91.2 240.1,91.3 241,90.9 			"/>
		</g>
		<g id="moore">
			<polygon points="219,94.2 219.1,95.1 218.8,97 219.8,97.6 221.5,97.8 222.4,97.9 223.6,98.8 224.3,99.4 225.8,97.7 229.6,93.1 
				235,89.6 238.9,91.2 240.1,91.3 241,90.9 239.9,90.4 239.1,89.9 238.6,88.9 235.5,86.5 236.8,84.7 235.8,83.6 234.3,82.6 
				233.1,81.9 231.9,80.7 230.7,78.7 228,74.8 229.1,73.5 229.5,73.2 229.5,72.9 221.5,73.2 214.9,73.3 210.2,73.5 213,84.5 
				213.1,86.6 215,88.7 215.5,90.5 216.9,91.5 217.7,92.8 			"/>
		</g>
		<g id="randolph">
			<polygon points="219.7,73.2 210.2,73.5 196.7,73.4 197.3,50.6 209.5,51.4 219.9,51.8 			"/>
		</g>
		<g id="chatham">
			<polygon points="225.6,73 229.5,72.9 229.4,72.4 230.9,71.3 231,70.7 231.6,70.5 233.2,71.1 233.7,70.4 234,69.8 234.9,69.4 
				235.4,69.7 236,68.7 236.8,68 238.6,66.4 239.6,66 241.2,66.7 242.1,67.4 242.8,68.9 243.7,70.1 244.2,70.6 244.9,70.9 
				246.1,71.7 247.9,69.1 243.9,68.1 248,53.7 243.9,53.7 240.2,53.7 233.4,52.8 234.1,54.5 219.9,54.7 219.7,73.2 			"/>
		</g>
		<g id="lee">
			<polygon points="235.4,69.7 236,68.7 236.8,68 237.7,67.2 239.2,66.1 239.6,66 241.2,66.7 242.1,67.4 242.4,68.2 243.2,69.5 
				243.9,70.3 244.2,70.6 244.9,70.9 246.1,71.7 236.8,84.7 235.8,83.6 235.2,83.1 233.1,81.9 232.4,81.4 231.4,80.1 230.7,78.7 
				228.8,75.9 228,74.8 229.1,73.5 229.5,73.2 229.4,72.4 230.1,71.9 230.9,71.3 231,70.7 231.6,70.5 233.2,71.1 233.7,70.4 
				234,69.8 234.9,69.4 			"/>
		</g>
	</g>
	<g>
		<polygon points="215.3,112 225.3,121.3 230.2,114.6 229.4,110.8 237.4,110.6 243.1,104.4 243.6,103.7 242,100.6 240.8,95.8 
			241,90.9 239.1,89.9 238.6,88.9 235.5,86.5 236.8,84.7 247.9,69.3 243.9,68.1 248,53.7 243.9,53.7 240.2,53.7 233.4,52.8 
			234.1,54.5 219.9,54.7 219.9,51.8 210.2,51.5 197.2,50.6 196.7,73.4 192,73.5 192,74.1 192.6,74.8 194.7,75.2 195.6,75.7 
			195.7,77.2 196.1,78.4 197.4,80.6 197.4,81.4 196.7,82.5 196,84.4 196.2,88.6 197.4,91.3 196.7,92.9 196.9,94.1 198,96.4 
			199.9,96.6 201.3,95.7 202.8,95 203.5,95.4 204.2,96.1 204.4,97.1 205.3,98.9 205,101.1 205.9,103.3 205.9,104.1 206.3,107.7 
			204.3,109.9 203.8,112.1 		"/>
	</g>
</g>
<g id="division-7">
	<g>
		<g id="guilford">
			<polygon points="197.8,32.1 220.3,32.1 219.9,51.8 210.2,51.5 207.6,51.2 197.2,50.6 			"/>
		</g>
		<g id="rockingham">
			<polygon points="198.5,14.4 220.8,14.9 220.3,32.1 197.8,32.1 			"/>
		</g>
		<g id="caswell">
			<polygon points="220.8,14.9 237.7,15 237.2,32.1 220.3,32.1 			"/>
		</g>
		<g id="alamance">
			<polygon points="234.1,54.5 219.9,54.7 220.3,32.1 232.6,32.1 232.3,49.5 233.1,50.8 233.4,52.8 			"/>
		</g>
		<g id="orange">
			<polygon points="232.3,49.5 232.6,32.1 237.2,32.1 246,32.8 243.9,53.7 240.2,53.7 233.4,52.8 233.1,50.8 			"/>
		</g>
	</g>
	<g>
		<polygon points="237.7,15 237.2,32.1 246,32.8 243.9,53.7 240.2,53.7 233.4,52.8 234.1,54.5 219.9,54.7 219.9,51.8 210.2,51.5 
			197.2,50.6 197.8,32.1 198.5,14.4 220.8,14.9 		"/>
	</g>
</g>
<g id="division-6">
	<g>
		<g id="harnett">
			<polygon points="260.8,88.6 263.7,84.5 265.3,83.2 264.1,81.1 263.4,80.1 262.3,77.6 259.8,73.9 259.5,73.6 258.3,71.9 
				247.9,69.3 235.5,86.5 238.6,88.9 239,89.4 239.1,89.9 240.2,90.6 241,90.9 250,88.8 250.9,88.2 256.9,86.8 			"/>
		</g>
		<g id="cumberland">
			<polygon points="265.8,110.1 268.1,108.6 267.2,107 266.4,105.9 265.1,104.7 262.8,102.8 262.2,102 261.9,101.3 261.6,100.6 
				260.8,99.2 260.5,96.9 260.5,95.4 261.4,94.5 261.2,93.5 261.7,92.6 261.6,91.5 261.7,90.9 261.6,89.8 261.7,88.9 260.8,88.6 
				256.9,86.8 250.9,88.2 250,88.8 241,90.9 240.8,95.8 242,100.6 243.6,103.7 243.1,104.4 245.1,105.7 246.8,106.9 247.7,107.9 
				248.3,108.8 248.3,110.1 249.2,111.1 252.3,109.9 			"/>
		</g>
		<g id="robeson">
			<polygon points="243.3,140 243.8,138.5 244.4,137.9 245,136.5 245.2,135.7 246.1,134.9 246.6,134.6 247.6,132 250.9,131.2 
				252.1,130.6 252.5,126.2 252.3,125.5 252.2,124.9 252.7,123.5 253.8,121.3 254.1,118.8 253.9,117.9 253.4,117.2 252.5,115.8 
				250.7,112.9 248.3,110.1 248.3,108.8 247.7,107.9 246.8,106.9 245.7,106 243.1,104.4 237.4,110.6 229.4,110.8 230.2,114.6 
				225.3,121.3 			"/>
		</g>
		<g id="bladen">
			<polygon points="254.2,131 259.1,130.4 260.1,130.5 261.2,130.8 262.5,130.9 271.3,135.3 276.9,135.6 278.5,134.6 279.3,134.2 
				279.8,134.1 283.5,130.2 279.8,127.9 279.4,124.4 278,123.1 277.4,122.7 277.2,122.2 276.9,120.6 276.3,119.7 276.1,119.1 
				275,117.8 274.7,117.6 274.3,117.4 273.2,115.5 273,114.9 272.3,114.3 272.2,113.6 270.1,110.9 268.1,108.6 265.8,110.1 
				252.3,109.9 249.2,111.1 250.5,112.7 253.9,117.9 254.1,118.8 253.8,121.3 252.7,123.5 252.2,124.9 252.5,126.2 252.1,130.6 			
				"/>
		</g>
		<g id="columbus">
			<polygon points="261.9,158.9 262.9,158.3 263.1,157.8 263.1,156.7 263.3,156 265.2,154.5 265.4,154 266.2,153.4 266.2,152.5 
				266.7,149.4 267.6,147.8 268.5,147.1 272.5,148.6 273.5,147.7 274.3,146.6 275,144.8 280.5,143.8 284.2,135.9 283.2,136.5 
				282.4,136.6 281.8,135.4 280.9,135.1 280.7,134.4 279.8,134.1 278.9,134.4 276.9,135.6 271.3,135.3 262.5,130.9 261.2,130.8 
				260.1,130.5 259.1,130.4 254.2,131 252.1,130.6 250.9,131.2 247.6,132 246.6,134.6 246.1,134.9 245.2,135.7 245,136.5 
				244.4,137.9 243.8,138.5 243.3,140 			"/>
		</g>
	</g>
	<g>
		<polygon points="258.3,71.9 259.5,73.6 262.3,77.6 263.6,80.5 265.3,83.2 263.7,84.5 260.8,88.6 261.7,88.9 261.6,89.8 
			261.7,90.9 261.6,91.5 261.7,92.6 261.2,93.5 261.4,94.5 260.5,95.4 260.8,99.2 261.6,100.6 262.2,102 262.8,102.8 266.4,105.9 
			267.2,107 268.1,108.6 272.2,113.6 272.3,114.3 273,114.9 273.2,115.5 274.3,117.4 275,117.8 276.1,119.1 276.3,119.7 
			276.9,120.6 277.2,122.2 277.4,122.7 278,123.1 279.4,124.4 279.5,125.5 279.8,127.9 283.5,130.2 279.8,134.1 280.7,134.4 
			280.9,135.1 281.8,135.4 282.4,136.6 283.2,136.5 284.2,135.9 280.5,143.8 275,144.8 274.3,146.6 273.5,147.7 272.5,148.6 
			268.5,147.1 267.6,147.8 266.7,149.4 266.2,152.5 266.2,153.4 265.4,154 265.2,154.5 263.3,156 263.1,156.7 263.1,157.8 
			262.9,158.3 261.9,158.9 243.3,140 225.3,121.3 230.2,114.6 229.4,110.8 237.4,110.6 243.1,104.4 243.6,103.7 242,100.6 
			240.8,95.8 241,90.9 239.1,89.9 238.6,88.9 235.5,86.5 247.9,69.3 		"/>
	</g>
</g>
<g id="division-5">
	<g>
		<g id="person">
			<polygon points="251.5,15.1 251.7,32.8 246,32.8 237.2,32.1 237.7,15 			"/>
		</g>
		<g id="durham">
			<polygon points="251.7,39 254.2,40.3 256.4,42.2 256.9,44.6 254.9,49.8 252.2,49.7 250.4,53.7 248,53.7 243.9,53.7 246,32.8 
				251.7,32.8 			"/>
		</g>
		<g id="wake">
			<polygon points="243.9,68.1 248,53.7 250.4,53.7 252.2,49.7 254.9,49.8 256.9,44.6 256.1,40.9 256.9,40.8 258.8,41.3 263.2,44.1 
				268.6,46.3 269.1,46.5 270.1,47.8 270.8,49.1 271.8,49.3 273.1,50.7 273.6,51.1 275.5,52.2 275.7,52.5 276.4,53.6 277.3,54.7 
				267.6,62.2 258.3,71.9 247.9,69.3 			"/>
		</g>
		<g id="granville">
			<polygon points="266.4,15.4 266.5,17 266.1,17.6 265.7,18.8 267.4,34.5 263.9,38.7 263.5,39.8 263.3,41.2 263.2,44.1 258.8,41.3 
				256.9,40.8 256.1,40.9 256.4,42.2 254.2,40.3 251.7,39 251.5,15.1 			"/>
		</g>
		<g id="franklin">
			<polygon points="282.8,32.8 282,31.8 281.4,31.1 279.9,30.6 278.9,30.4 274.1,29.8 271.1,32.7 270.8,35 267.4,34.5 263.9,38.7 
				263.5,39.8 263.3,41.2 263.2,44.1 269.1,46.5 270.1,47.8 270.8,49.1 271.8,49.3 273.1,50.7 275.5,52.2 275.7,52.5 276.4,53.6 
				277.3,54.7 287.8,33.6 285.9,32.6 			"/>
		</g>
		<g id="warren">
			<polygon points="285.5,14 293.2,13.5 292,16.9 291.3,25.7 287.8,33.6 285.9,32.6 282.8,32.8 281.4,31.1 279.9,30.6 274.1,29.8 
				275.7,28.1 276.1,27.4 273,15.3 284,14.2 			"/>
		</g>
		<g id="vance">
			<polygon points="273,15.3 276.1,27.4 275.7,28.1 274.1,29.8 271.1,32.7 270.8,35 267.4,34.5 265.7,18.8 266.1,17.6 266.5,17 
				266.4,15.4 			"/>
		</g>
	</g>
	<g>
		<polygon points="251.5,15.1 266.4,15.4 273,15.3 285.5,14 293.2,13.5 292,16.9 291.3,25.7 287.8,33.6 277.3,54.7 267.6,62.2 
			258.3,71.9 247.9,69.3 243.9,68.1 248,53.7 243.9,53.7 246,32.8 237.2,32.1 237.7,15 		"/>
	</g>
</g>
<g id="division-4">
	<g>
		<g id="johnston">
			<polygon points="258.3,71.9 260.1,70.1 267.6,62.2 277.3,54.7 277,56.7 278.1,58.9 279.9,60.1 280.9,61.2 283.3,66.5 286,68 
				282.2,76.7 282.1,81.5 280.1,82.4 276.9,83.4 276.3,83.5 275.8,83.9 275.3,84.7 274.7,85.4 273.4,86.2 269.8,86 263.4,85.1 
				263.7,84.5 265.3,83.2 263.6,80.5 262.3,77.6 			"/>
		</g>
		<g id="nash">
			<polygon points="294.1,52.8 294.6,53.1 295.3,53.4 295.8,53.1 296.7,52.4 297.1,51.7 297.3,51 297.3,50.3 299.9,40.1 302.4,36.3 
				302.4,35.7 302,35.7 300.4,36.2 299.8,36 297.1,36.4 295.8,36 293.1,36.2 291.2,34.3 290.5,34.2 290.1,34.4 287.8,33.6 
				277.3,54.7 277,56.7 278.1,58.9 279.9,60.1 			"/>
		</g>
		<g id="wilson">
			<polygon points="290,68.1 297,67.4 304.1,61.8 301.5,58.7 300.6,57 299.7,53.8 299.1,53.1 298.3,52.7 296.9,52.2 295.8,53.1 
				295.3,53.4 294.6,53.1 294.1,52.8 279.9,60.1 280.9,61.2 283.3,66.5 286,68 			"/>
		</g>
		<g id="wayne">
			<polygon points="297.4,76.5 297.2,74.6 297,67.4 290,68.1 286,68 282.2,76.7 282.1,81.5 280.1,82.4 276.9,83.4 276.3,83.5 
				275.8,83.9 275.3,84.7 279,87.6 282.8,89.9 285,90.7 285.8,90.8 288.8,90 289.5,90.1 290.5,90.7 291.2,91.1 292,91.1 293.1,90.8 
				293.6,90.8 294.7,91.4 295.5,91.7 297.8,90.4 297.8,80.7 298,79.9 298.6,79 298.6,78.5 298.2,77.9 			"/>
		</g>
		<g id="edgecombe">
			<polygon points="318.2,49 315.4,43.2 312.8,42.2 310.1,41.5 309.6,41 309.2,38.9 308.6,38.3 305.9,37.7 304.3,36.1 303.1,36.3 
				302.4,36.3 299.9,40.1 297.3,50.3 297.3,51 297.1,51.7 296.9,52.2 298.3,52.7 299.1,53.1 299.7,53.8 300.6,57 301.5,58.7 
				304.1,61.8 312.4,55.4 316.5,52.8 317.8,53.1 			"/>
		</g>
		<g id="halifax">
			<polygon points="293.1,36.2 295.8,36 297.1,36.4 299.8,36 300.4,36.2 302,35.7 302.4,35.7 302.4,36.3 303.1,36.3 304.3,36.1 
				305.9,37.7 308.6,38.3 309.2,38.9 309.6,41 310.1,41.5 312.8,42.2 315.4,43.2 319.1,38.9 320.1,37.6 321.2,37.2 322.7,37.1 
				323.2,36.7 322.9,36.2 322.3,35.6 322.2,35.3 321.7,34.8 321.6,34.1 320.9,33.8 318.9,32.6 316.3,31.3 316.7,29.3 316.6,29.1 
				315,28.1 314.8,26.6 313.8,25.2 313.4,25 312.1,25.4 310,26 308.4,25.7 307.5,24.9 307.6,23.6 308.3,22 308.6,20.7 308.3,19.8 
				307.6,19.4 306.5,19.5 305.9,18.8 304.8,18.2 304.6,17.1 304.2,16.7 301.6,15.8 299.7,15 298.7,14.7 297.5,14.7 295.6,14.7 
				294.3,14.3 293.6,13.8 293.2,13.5 292,16.9 291.3,25.7 287.8,33.6 290.1,34.4 290.5,34.2 291.2,34.3 			"/>
		</g>
	</g>
	<g>
		<polygon points="295.6,14.7 298.7,14.7 299.7,15 301.6,15.8 304.2,16.7 304.6,17.1 304.8,18.2 305.9,18.8 306.5,19.5 307.6,19.4 
			308.3,19.8 308.6,20.7 308.3,22 307.6,23.6 307.5,24.9 308.4,25.7 310,26 313.4,25 313.8,25.2 314.8,26.6 315,28.1 316.6,29.1 
			316.7,29.3 316.3,31.3 318.9,32.6 320.9,33.8 321.6,34.1 321.7,34.8 322.2,35.3 322.3,35.6 322.9,36.2 323.2,36.7 322.7,37.1 
			321.2,37.2 320.1,37.6 319.1,38.9 315.4,43.2 318.2,49 317.8,53.1 316.5,52.8 312.4,55.4 304.1,61.8 297,67.4 297.2,74.6 
			297.4,76.5 298.2,77.9 298.6,78.5 298.6,79 298,79.9 297.8,80.7 297.8,90.4 295.5,91.7 293.6,90.8 293.1,90.8 292,91.1 
			291.2,91.1 289.5,90.1 288.8,90 285.8,90.8 285,90.7 282.8,89.9 279,87.6 275.3,84.7 274.7,85.4 273.4,86.2 269.8,86 263.4,85.1 
			263.7,84.5 265.3,83.2 263.6,80.5 262.3,77.6 258.3,71.9 267.6,62.2 277.3,54.7 287.8,33.6 291.3,25.7 292,16.9 293.2,13.5 
			294.3,14.3 		"/>
	</g>
</g>
<g id="division-3">
	<g>
		<g id="sampson">
			<polygon points="285.7,116.4 281.9,114.3 283.6,106.3 283.5,96.7 282.5,93.4 282.8,89.9 279,87.6 275.3,84.7 274.7,85.4 
				273.4,86.2 269.8,86 266.4,85.5 263.4,85.1 260.8,88.6 261.7,88.9 261.6,89.8 261.7,90.9 261.6,91.5 261.7,92.6 261.2,93.5 
				261.4,94.5 260.5,95.4 260.8,99.2 261.6,100.6 261.9,101.3 262.2,102 262.8,102.8 266.4,105.9 267.2,107 268.1,108.6 
				270.1,110.9 272.2,113.6 272.3,114.3 273,114.9 273.2,115.5 274.3,117.4 274.7,117.6 275,117.8 276.1,119.1 276.3,119.7 
				276.9,120.6 277.2,122.2 277.4,122.7 278,123.1 279.4,124.4 279.5,125.5 284.4,117.3 			"/>
		</g>
		<g id="duplin">
			<polygon points="304.9,101.8 305.3,102.8 305.7,104.3 306,106.4 306,108.6 306,110.3 305.8,114.7 292.2,115.4 291.7,115.4 
				291.2,115.2 286.4,115.3 286.2,115.5 286,116.2 285.7,116.4 281.9,114.3 283.6,106.3 283.5,96.7 282.5,93.4 282.8,89.9 285,90.7 
				285.8,90.8 288.8,90 289.5,90.1 290.5,90.7 291.2,91.1 292,91.1 293.1,90.8 293.6,90.8 294.7,91.4 295.5,91.7 297.8,90.4 
				298.4,90.5 299.2,90.8 299.8,91.1 300.4,91.5 300.9,92.3 301.2,93.6 301.3,95.1 301.3,97.9 301.4,98.3 302.5,99.3 303.2,99.9 
				304,100.7 			"/>
		</g>
		<g id="pender">
			<polygon points="306.1,134.3 306.7,134.9 307.9,134 309.6,132.3 309.4,131.5 309.4,131 309.7,131 310.3,131.6 311,131 312,130.4 
				312.8,128.9 310.9,126.7 305.8,114.7 291.7,115.4 291.2,115.2 286.4,115.3 286.2,115.5 286,116.2 284.4,117.3 279.5,125.5 
				279.8,127.9 283.5,130.2 279.8,134.1 280.7,134.4 280.9,135.1 281.8,135.4 282.4,136.6 283.2,136.5 284.2,135.9 285.9,135.4 
				286.7,136.2 288.3,136.5 288.6,137 289.1,136.7 289.7,137.4 291.4,137.4 292.2,135.1 294.3,135.4 295.6,134.6 296.6,135.3 
				297.8,134.4 299,134.6 299.4,134.4 300,133.6 300.3,133.5 300.5,133.6 300.7,134 301.3,135.7 303.8,138.1 304.6,137.2 305.5,136 
							"/>
		</g>
		<g id="new-hanover">
			<polygon points="293.6,164.3 293.8,164.5 294.3,164.7 294.8,161.2 296,158.4 296.6,154.9 297.2,153.3 296.8,152.3 297.2,149.8 
				298.2,147.4 298.9,145.9 298.5,144.7 302.7,140.1 303,138.5 303.8,138.1 301.3,135.7 300.5,133.6 300.3,133.5 300,133.6 
				299.4,134.4 299,134.6 297.8,134.4 296.6,135.3 295.6,134.6 294.3,135.4 292.2,135.1 291.4,137.4 291.3,138.8 292.2,139.9 
				291.6,140.9 292.5,141.4 293.6,143.1 293.4,145.1 293.6,145.3 295.1,148.6 295.6,149.8 295.6,153.4 295.5,158.4 295.2,158.9 
				294.3,161.3 294.2,162.4 293.8,161.8 293.5,161.7 293.2,162.2 292.5,162.6 291.8,163.2 291.7,163.6 291.9,163.9 292.5,164.1 			
				"/>
			<polygon points="294.3,164.7 294.8,161.2 296,158.4 296.6,154.9 297.2,153.3 296.8,152.3 297.2,149.8 298.2,147.4 298.9,145.9 
				298.5,144.7 302.7,140.1 303,138.5 303.8,138.1 301.3,135.7 300.5,133.6 300.3,133.5 300,133.6 299.4,134.4 299,134.6 
				297.8,134.4 296.6,135.3 295.6,134.6 294.3,135.4 292.2,135.1 291.4,137.4 291.3,138.8 292.2,139.9 291.6,140.9 292.5,141.4 
				293.6,143.1 293.4,145.3 294.5,151.7 294.3,152.7 294.3,153.7 294.2,153.9 293.6,156.8 292.7,158.9 291.5,160.3 291.2,161 
				291.2,162 291.7,163.6 292.5,164.1 293.6,164.3 293.8,164.5 			"/>
		</g>
		<g id="brunswick">
			<polygon points="293,153.7 291.8,154.5 292.5,152.9 294.5,151.7 293.9,147.8 293.4,145.3 293.6,143.1 292.5,141.4 291.6,140.9 
				292.2,139.9 291.3,138.8 291.4,137.4 289.7,137.4 289.1,136.7 288.6,137 288.3,136.5 286.7,136.2 285.9,135.4 284.2,135.9 
				280.5,143.8 275,144.8 274.3,146.6 273.5,147.7 272.5,148.6 268.5,147.1 267.6,147.8 266.7,149.4 266.2,152.5 266.2,153.4 
				265.4,154 265.2,154.5 263.3,156 263.1,156.7 263.1,157.8 262.9,158.3 261.9,158.9 266.8,164.1 268.1,163.1 274.1,161.6 
				275,159.6 275.6,160.1 275.2,161.4 279.3,161.1 281.6,159.9 281.6,158.9 283.2,160.1 282.9,160.5 282,160.8 281.8,161 
				286.5,161.3 289.7,161.9 291.2,162 291.2,161 291.5,160.3 292.6,159.1 293.6,156.8 294.2,153.9 294.3,153.7 294.3,152.7 
				293.9,153.4 			"/>
			<polygon points="270.3,164 274.1,162.2 271.4,162.8 			"/>
		</g>
		<g id="onslow">
			<polygon points="316.8,113.1 317.8,114.3 318.8,113.9 319.5,114 318.7,114.7 318.7,115.2 320,116 319.5,116.7 319.8,117.2 
				320.5,117.5 321.4,118.6 322.2,119.1 321.5,119.5 320.1,121 318.6,121.5 318.4,121.7 318.4,122.1 319.9,122.3 320.7,122.1 
				321.6,122.6 321.3,124.1 323.7,122.8 325.7,120.6 327.1,119.3 326.8,118.9 326.6,118.5 327.1,118.4 327.5,118.7 329.3,117.2 
				328.1,115.3 329,115.7 330.1,116.6 331.2,115.6 331,113.8 330.5,112.2 326.9,110 326.7,109.5 327.2,108.8 326.9,108.3 
				322.9,103.9 321.3,102.7 320.6,102.7 319.8,103.2 318.8,104.2 313.6,101.9 312.9,101.5 312.1,101.3 311.3,101.3 310.8,101.5 
				309.9,101.4 308.2,101.1 306.7,100.8 306.3,100.8 306,100.9 305.4,101.3 304.9,101.8 305.3,102.8 305.7,104.3 306,106.4 
				306,108.6 306,110.3 305.8,114.7 310.9,126.7 312.8,128.9 314,128.5 314.7,127.9 315.5,127.7 315.6,127 316.9,127.3 317.8,126.4 
				318,125.9 320,125.5 319.5,124.6 320.2,124.2 319.3,123.4 319.2,122.9 318.1,123.3 316.9,122.1 316.9,121.4 315.9,121 
				316.4,120.6 318.9,120.4 319.8,119.1 319.7,118.4 318.6,117.2 318.2,116.1 317.8,116 316.3,116.4 316.9,115.2 			"/>
			<polygon points="320,125.5 321.3,124.1 323.7,122.8 325.7,120.6 327.1,119.3 327.5,118.7 329.3,117.2 330.1,116.6 331.2,115.6 
				331,113.8 330.5,112.2 328.2,110.8 326.9,110 326.7,109.5 327.2,108.8 326.9,108.3 322.9,103.9 321.3,102.7 320.6,102.7 
				319.8,103.2 318.8,104.2 313.6,101.9 312.9,101.5 312.1,101.3 310.8,101.5 309.9,101.4 306.7,100.8 306.3,100.8 306,100.9 
				305.4,101.3 304.9,101.8 305.3,102.8 305.7,104.3 306,106.4 306,108.6 306,110.3 305.8,114.7 310.9,126.7 312.8,128.9 314,128.5 
				314.7,127.9 315.5,127.7 316.9,127.3 317.8,126.4 318,125.9 			"/>
		</g>
	</g>
	<g>
		<polygon points="266.8,164.1 268.1,163.1 270.3,164 274.1,162.2 275.2,161.4 279.3,161.1 281.6,159.9 281.6,158.9 283.2,160.1 
			282.9,160.5 282,160.8 281.8,161 286.5,161.3 289.7,161.9 291.2,162 291.7,163.6 291.9,163.9 292.5,164.1 293.6,164.3 
			293.8,164.5 294.3,164.7 294.8,161.2 296,158.4 296.6,154.9 297.2,153.3 296.8,152.3 297.2,149.8 298.2,147.4 298.9,145.9 
			298.5,144.7 302.7,140.1 303,138.5 303.8,138.1 305.5,136 306.1,134.3 306.7,134.9 307.9,134 309.6,132.3 309.4,131.5 309.4,131 
			309.7,131 310.3,131.6 311,131 312,130.4 312.8,128.9 314,128.5 314.7,127.9 315.5,127.7 315.6,127 316.9,127.3 317.8,126.4 
			318,125.9 320,125.5 319.5,124.6 321.3,124.1 323.7,122.8 325.7,120.6 327.1,119.3 326.8,118.9 326.6,118.5 327.1,118.4 
			327.5,118.7 329.3,117.2 328.1,115.3 329,115.7 330.1,116.6 331.2,115.6 331,113.8 330.5,112.2 328.2,110.8 326.9,110 
			326.7,109.5 327.2,108.8 326.9,108.3 322.9,103.9 321.3,102.7 320.6,102.7 319.8,103.2 318.8,104.2 313.6,101.9 312.9,101.5 
			312.1,101.3 311.3,101.3 310.8,101.5 309.9,101.4 306.7,100.8 306.3,100.8 306,100.9 305.4,101.3 304.9,101.8 304,100.7 
			302.5,99.3 301.4,98.3 301.3,97.9 301.3,95.1 301.2,93.6 300.9,92.3 300.4,91.5 299.8,91.1 299.2,90.8 298.4,90.5 297.8,90.4 
			295.5,91.7 294.7,91.4 293.6,90.8 293.1,90.8 292,91.1 291.2,91.1 289.5,90.1 288.8,90 285.8,90.8 285,90.7 282.8,89.9 279,87.6 
			275.3,84.7 274.7,85.4 273.4,86.2 269.8,86 263.4,85.1 260.8,88.6 261.7,88.9 261.6,89.8 261.7,90.9 261.6,91.5 261.7,92.6 
			261.2,93.5 261.4,94.5 260.5,95.4 260.8,99.2 261.6,100.6 262.2,102 262.8,102.8 266.4,105.9 267.2,107 268.1,108.6 272.2,113.6 
			272.3,114.3 273,114.9 274.3,117.4 275,117.8 276.1,119.1 276.3,119.7 276.9,120.6 277.2,122.2 277.4,122.7 278,123.1 
			279.4,124.4 279.8,127.9 283.5,130.2 279.8,134.1 280.7,134.4 280.9,135.1 281.8,135.4 282.4,136.6 283.2,136.5 284.2,135.9 
			280.5,143.8 275,144.8 274.3,146.6 273.5,147.7 272.5,148.6 268.5,147.1 267.6,147.8 266.7,149.4 266.2,152.5 266.2,153.4 
			265.4,154 265.2,154.5 263.3,156 263.1,156.7 263.1,157.8 262.9,158.3 261.9,158.9 		"/>
	</g>
</g>
<g id="division-2">
	<g>
		<g id="jones">
			<polygon points="316.5,87.3 326.4,94 327,95.5 327.3,95.8 329,95.4 330,94.3 330.6,96.2 330.7,97.4 330.3,98.8 330.8,107.9 
				333.5,107.8 332,109.5 331.4,109.9 330.9,110.1 330.2,110.1 329.2,110.3 328.2,110.8 326.9,110 326.7,109.5 327.2,108.8 
				326.9,108.3 322.9,103.9 321.3,102.7 320.6,102.7 319.8,103.2 318.8,104.2 313.6,101.9 312.9,101.5 312.1,101.3 311.3,101.3 
				310.8,101.5 309.9,101.4 308.2,101.1 306.7,100.8 306.3,100.8 306,100.9 305.4,101.3 304.9,101.8 304,100.7 302.5,99.3 
				304.7,98.1 307.8,96 308.4,95.3 311.8,91.2 312,90.5 311.4,86.4 315.5,87 			"/>
		</g>
		<g id="lenoir">
			<polygon points="314.9,78.4 316,79.3 316.5,79.4 317.8,80.4 316.8,80.2 316.1,80.3 315.4,81.3 315,82.2 314.9,83.1 315.4,84.5 
				315.4,85 315.1,85.3 314.1,85.7 311.4,86.4 312,90.5 311.8,91.2 311,92.2 308.4,95.3 307.8,96 306.6,96.8 304.7,98.1 302.5,99.3 
				301.4,98.3 301.3,97.9 301.3,95.1 301.2,93.6 300.9,92.3 300.4,91.5 299.8,91.1 299.2,90.8 298.4,90.5 297.8,90.4 297.8,80.7 
				298,79.9 298.6,79 299.4,79 300.5,78.6 301,78.3 301.9,78.2 302.9,78.4 303.8,79 304.8,79.5 305.5,79.7 306.1,79.5 307.3,79 
				308.7,78.4 309.6,78.4 310.3,78.2 310.3,77.7 310.5,76.7 310.8,76.1 311.2,75.9 311.9,76 312.8,76.1 313.6,75.7 			"/>
		</g>
		<g id="greene">
			<polygon points="304.1,64.1 304.6,64.9 305.9,65.6 308.7,67.1 309.4,67.7 310.1,68.6 311.1,69 311.7,69.1 312.3,69.7 312.7,70 
				313,70.7 313,72 313.2,73.5 313.7,75.3 313.6,75.7 312.8,76.1 311.9,76 311.2,75.9 310.8,76.1 310.5,76.7 310.3,77.7 310.3,78.2 
				309.6,78.4 308.7,78.4 307.3,79 306.1,79.5 305.5,79.7 304.8,79.5 303.8,79 302.9,78.4 301.9,78.2 301,78.3 300.5,78.6 299.4,79 
				298.6,79 298.6,78.5 298.2,77.9 297.4,76.5 297.2,74.6 297,67.4 304.1,61.8 			"/>
		</g>
		<g id="pitt">
			<polygon points="321.9,55 321.9,55.4 321.9,56.2 322.3,56.5 323.4,56.7 326.2,57.7 325.5,60 325.9,60.9 326.3,61.7 326.4,62.8 
				328.2,66 330.2,67.5 329.7,67.8 328.6,68.1 328.2,68.2 327.1,69 326.3,70 326.4,71.7 326.2,72.1 326,75.5 324.3,77.4 324,78.1 
				323.5,79 323,79.4 322.4,78.6 321.9,78.1 321.4,78.3 320.5,79.4 319.4,80.8 317.8,80.4 316.5,79.4 316,79.3 314.9,78.4 
				313.6,75.7 313.7,75.3 313.2,73.5 313,72 313,70.7 312.7,70 312.3,69.7 311.7,69.1 310.1,68.6 309.4,67.7 308.7,67.1 305.9,65.6 
				304.6,64.9 304.1,64.1 304.1,61.8 312.4,55.4 316.5,52.8 317.8,53.1 			"/>
		</g>
		<g id="beaufort">
			<polygon points="349.8,66 351.5,67.5 353.3,66.7 354.9,67.4 355.7,66.4 356.1,67.3 357.3,67.6 357.8,67.4 357.9,66.4 356.5,65.2 
				356,64.9 353.6,63.7 352.7,62.8 350.5,58.2 341.2,58.5 335.2,62 326.2,57.7 325.5,60 326.3,61.7 326.4,62.8 328.2,66 330.2,67.5 
				329.7,67.8 328.6,68.1 328.2,68.2 327.1,69 326.3,70 326.4,71.7 326.2,72.1 326,75.5 339.5,84.1 342,85.9 351.9,83.8 352.5,80.4 
				352.7,80 350.9,79.5 351.4,78.7 349.9,78.3 348.1,79.8 347.9,79.5 348.3,78.7 346.8,79 345.4,80.2 344.8,79.7 347.1,78.2 
				348.5,78 348.7,77.6 348.2,77 346.8,77 345.4,76.3 344.2,76.5 343.5,76 343.1,77.1 342,77.3 341.2,77.3 342.9,75.9 343,75.5 
				342.3,74.7 341.4,74.3 340.5,74.5 339.7,74.2 339.2,74.5 338.4,75.1 338.6,74.4 337.5,73.4 336.9,73.7 336.5,75.7 335.9,74.6 
				335.3,72.6 331.6,70.1 331.5,69.7 332.3,69 336.1,71 336.2,70.3 337,71.5 339.6,72.3 339.9,72.7 341.2,72 340.9,72.8 342.5,72.5 
				342.6,70.6 343.5,69.6 343.3,71 344.6,71.5 343.2,72.3 343.7,73.6 345.3,73.9 345.7,74.2 347.3,73.7 347.6,73.2 348.1,74.1 
				348.4,74.3 349.7,74 348.9,72.8 349.9,73 350.6,72.4 350.7,73.1 351.7,74.2 350.2,74.7 353.2,75.5 353.9,75.5 354,75.3 
				353.1,74.4 352.3,73.9 352.8,73.1 352.1,71.8 352.6,71.6 351.7,70 350.5,69.7 348.8,70.3 348,70 347.2,69.1 347.4,68.6 
				348.6,69.6 350.1,69.2 350.6,68.7 351.3,68.7 351.4,68.3 350.8,67.7 349.1,67.6 348.1,67 349.6,66.8 			"/>
			<polygon points="335.2,62 341.2,58.5 350.5,58.2 352.7,62.8 353.6,63.7 356,64.9 357.9,66.4 357.8,67.4 357.3,67.6 356.1,67.3 
				355.7,66.4 354.9,67.4 353.3,66.7 352.7,68.3 354.9,75.1 353.3,79 352.5,80.4 351.9,83.8 342,85.9 339.5,84.1 326,75.5 
				326.2,72.1 326.4,71.7 326.3,70 327.1,69 328.2,68.2 329.7,67.8 330.2,67.5 328.2,66 326.4,62.8 326.3,61.7 325.5,60 326.2,57.7 
							"/>
		</g>
		<g id="craven">
			<polygon points="339.5,84.1 337.1,87 335.8,89.3 335.6,90.2 335.9,91.1 338.1,93.8 338,94.8 337.4,94.8 336.5,94.3 336.4,94.8 
				335.9,94.3 335.4,93.5 334,91.3 332.5,89.8 332,89.1 331.8,89.4 331.2,89.2 331.6,89.9 333.9,92.7 334.3,93.2 334.8,93.5 
				335.7,94.8 336.6,96.9 338.6,99.6 339.5,100.1 340.2,100.3 339.1,101.8 339.1,102.6 340.1,103.9 340.4,101.3 342.1,101.2 
				342.5,101.6 342.4,102.6 342.8,103.1 343.2,103 343.5,102 343.8,101.3 344.5,101.3 346.5,102.4 346.4,102.8 346,103.1 
				346.4,103.8 346.7,105.3 347.1,104.7 347.3,102.2 348.4,102.1 349.4,100.5 349.9,100.4 351.4,100.9 351.5,101.6 351.3,102.5 
				352.1,103.7 346.2,106.7 330.8,107.9 330.3,98.8 330.7,97.4 330,94.3 329,95.4 327.3,95.8 327,95.5 326.4,94 316.5,87.3 
				315.5,87 311.4,86.4 314.1,85.7 315.1,85.3 315.4,85 315.4,84.5 314.9,83.1 315,82.2 316.1,80.3 317.8,80.4 319.4,80.8 
				321.4,78.3 321.9,78.1 323,79.4 323.5,79 324.3,77.4 326,75.5 			"/>
			<polygon points="326,75.5 339.5,84.1 337.1,87 335.8,89.3 335.6,90.2 335.9,91.1 338.1,93.8 338,94.8 338.9,98.1 340.9,99.3 
				345.2,100.6 350.5,97.5 350.8,98.8 351,100 350.7,100.6 351.4,100.9 351.5,101.6 351.3,102.5 352.1,103.7 346.2,106.7 
				330.8,107.9 330.3,98.8 330.7,97.4 330,94.3 329,95.4 327.3,95.8 327,95.5 326.4,94 316.5,87.3 315.5,87 311.4,86.4 315.1,85.3 
				315.4,85 315.4,84.5 314.9,83.1 315,82.2 316.1,80.3 317.8,80.4 319.4,80.8 321.4,78.3 321.9,78.1 323,79.4 323.5,79 324.3,77.4 
							"/>
		</g>
		<g id="carteret">
			<polygon points="365.2,96 364.9,95.9 365,96.2 365.2,96.6 366.3,98.4 366.2,98.7 365.9,98.8 364.1,98.4 364.4,99.2 364.3,99.6 
				363.4,99.5 363.6,100.2 363.6,100.7 363.4,100.8 362.7,99.9 362.5,99.4 361,100.9 361.3,101.5 361.1,102.2 360.3,101.1 
				359.9,99.7 360.1,99.1 361,99.1 361.2,98.5 361.6,98.5 361.6,97.5 360.5,96.6 360.5,96.3 361.4,95.7 360.9,94.5 360.4,93.6 
				359.7,93.1 359.5,93.2 359.5,93.9 359.9,94.8 359.6,95.3 358.8,95.7 359.1,96.8 358.5,97 359.4,98.3 359,100 358.4,98.7 
				357.4,98.4 357.5,98 357.3,97.6 356.8,97.4 356.3,97.4 355.7,97.8 355.3,97.6 354.6,98 354.7,98.4 356.5,100.6 356.8,101.6 
				356.9,102.3 357.4,102.8 357,102.9 356.2,102.3 355.5,102.2 356.1,101.6 356,101.3 355.5,100.9 354.6,100.4 354.5,99.4 
				354.2,98.6 352.6,98.5 352,98.8 350.8,98.8 351,99.5 351,100 350.7,100.6 351.4,100.9 351.5,101.6 351.3,102.5 352.1,103.7 
				346.2,106.7 333.5,107.8 332,109.5 331.4,109.9 330.9,110.1 330.2,110.1 329.2,110.3 328.2,110.8 330.5,112.2 331,113.8 
				332.5,114.7 332.6,115 332.3,116.3 332.6,116.4 333,116.1 336.2,114.3 341.3,113.3 348.3,113.5 350.1,113.3 350.4,113 
				350.1,112.9 347.4,111.6 347.4,110.8 349.3,110.1 350.4,108.5 350.6,109.7 351.5,110.5 351.6,111.4 351.2,112.8 351.6,113.5 
				351.6,114 352.1,114.1 353.3,114 353.7,113.8 353.1,112.8 353.7,111.1 353.1,108.8 353.2,108.2 353.6,108.3 354.9,110.1 
				355.5,109.2 356,110 355.8,110.5 355,111.2 355.5,112.1 355.3,112.8 355.4,113 355.8,113.1 356.5,112.6 357.6,113 358.7,112.6 
				359.2,112.6 359,112.1 358.4,111.3 358.8,110.9 358.8,110.5 358.3,109.8 358.7,109.4 359.9,108.7 360,109 359.7,110.2 
				359.9,110.4 360.8,109.2 360.9,108.5 360.5,107.4 361.3,106.9 362.8,105.3 362.9,103.9 363,103.7 363.8,104.7 364.4,104 
				365.3,104.2 367.2,102.4 367.4,101.9 367.2,101.8 366.4,101.9 365.8,101.8 365.9,101.5 366.2,101.1 365.9,101 365.5,101.3 
				365.1,101.4 364.9,101.1 365,100.7 365.3,100.5 365.8,100.5 366.8,101 368.7,99.6 368.5,99.2 			"/>
			<polygon points="347.8,114.6 346.2,114.4 345.6,114.1 345.1,114.3 344.2,114.9 343.4,114.9 343,115.2 343,115.4 343.8,115.6 
				349.3,115 350.1,114.8 349.7,114.7 			"/>
			<polygon points="357.2,118 357.5,118.2 357.9,118.1 358.1,117.9 358.1,117.6 357.3,116.7 356,116.1 355.1,115.7 353.5,115.2 
				352.7,115.2 352.8,115.4 353.4,115.7 354.4,116.1 355.8,116.6 357.1,117.6 			"/>
			<polygon points="367,104.9 365,107 363.9,108.6 363.3,109.9 360.1,114.1 359.3,115.4 358.9,116.4 358.1,118.3 357.9,118.5 
				356.8,118.9 357,119.9 357.1,120.3 357.5,120.6 357.9,120.3 357.9,119.4 368.1,104.5 368.7,103.8 368.7,103.7 368.3,103.7 			"/>
			<polygon points="370.1,101.1 369.2,102.2 368.9,102.8 369.2,103.1 370.7,102 370.7,101.5 			"/>
			<polygon points="373.5,98.1 372.7,98.4 372.2,99.2 371.6,99.9 371.6,100.6 373.1,99.4 373.9,98.5 			"/>
			<polygon points="375,96.5 374.6,96.5 374.2,96.8 374,97.3 374.1,97.5 374.9,97.5 375.3,97.2 375.3,96.6 			"/>
			<polygon points="346.2,106.7 352.1,103.7 351.3,102.5 351.5,101.6 351.4,100.9 350.7,100.6 351,100 351,99.5 350.8,98.8 
				350.5,97.5 364.9,85.9 374.6,96.5 375,96.5 375.3,96.6 375.3,97.2 374.9,97.5 373.9,98.5 373.1,99.4 371.6,100.6 370.7,102 
				369.2,103.1 368.7,103.8 362.9,112.1 357.9,119.4 357.9,120.3 357.5,120.6 357.1,120.3 356.8,118.9 357.9,118.5 357.2,118 
				357.1,117.6 355.8,116.6 353.4,115.7 352.8,115.4 350.1,114.8 349.3,115 343.8,115.6 343,115.4 341.3,113.3 336.2,114.3 
				332.6,116.4 332.3,116.3 332.6,115 332.5,114.7 331,113.8 330.5,112.2 328.2,110.8 329.2,110.3 330.2,110.1 330.9,110.1 
				331.4,109.9 332,109.5 333.5,107.8 			"/>
		</g>
		<g id="pamlico">
			<polygon points="339,96.2 341.3,98 341.6,97.1 342.1,98.4 344.6,99.6 345.2,99.5 346.2,98.6 346.2,98.2 345.3,97.4 345.3,96.9 
				346.2,97.3 346.9,97.3 347,98.3 348.2,97.5 348.5,96.8 347.8,96.7 348,95.8 348.5,96.1 349,95.5 350.1,96.2 350.7,95.3 
				351.6,94.7 353.3,93.7 353.9,92.8 353.5,92.8 352.1,93.5 351.4,93 351.6,92.6 351.4,91.7 352.1,92.2 352.8,91.4 353.6,91.6 
				354.2,91.2 354.6,91.7 355.1,91.7 355.3,91.5 355.8,89.8 355.7,89.3 354.4,88.1 354.2,88.4 354.8,89.7 353.1,90.5 353.2,89.3 
				352.9,89.1 352.9,88.5 352,88.9 350.6,88.4 350.3,89.4 349.1,90.2 348.4,90.3 347.9,90 347.6,89.4 348.2,89.2 348.4,89.4 
				350.3,87.9 350.5,87.5 350.2,86.4 350.6,86.4 351.3,87.3 352.3,87.6 352.9,87.3 353.1,86.8 352.4,86.6 353.1,86.3 352.9,85.5 
				353.3,85.5 354.8,86.5 355.4,86.2 355.6,86.7 356.1,86.8 356.3,87.1 357.1,86.1 356.4,85.5 356,85.3 355,85.6 354.5,84.7 
				353.8,84.2 355.4,84 356,84.4 357.8,85.3 358,85.3 357.9,84.5 356,83.6 356.3,83.4 357.6,83.5 358.2,82.5 359,82.8 359.2,82.6 
				358.9,81.7 358.6,81.4 357.5,82 357.2,81.7 357.2,81 358.2,79.9 358.3,79.7 357.9,79.7 356.8,80.4 356,81.8 355.7,81.7 
				355.8,80.6 355.1,80.8 354.9,80.5 355.8,79.9 354.4,79.1 353.3,79 352.5,80.4 351.9,83.8 342,85.9 339.5,84.1 337.1,87 
				335.8,89.3 335.6,90.2 335.9,91.1 338.1,93.8 338,94.8 338.3,95.7 339.2,94.9 			"/>
			<polygon points="339.5,84.1 342,85.9 351.9,83.8 352.5,80.4 353.3,79 354.9,75.1 364.9,85.9 350.5,97.5 345.2,100.6 340.9,99.3 
				338.9,98.1 338.3,95.7 338,94.8 338.1,93.8 335.9,91.1 335.6,90.2 335.8,89.3 337.1,87 			"/>
		</g>
	</g>
	<g>
		<polygon points="332.6,116.4 336.2,114.3 341.3,113.3 343,115.4 343.8,115.6 349.3,115 350.1,114.8 352.8,115.4 353.4,115.7 
			355.8,116.6 357.1,117.6 357.2,118 357.5,118.2 357.9,118.5 356.8,118.9 357.1,120.3 357.5,120.6 357.9,120.3 357.9,119.4 
			368.1,104.5 368.7,103.8 368.7,103.7 369.2,103.1 370.7,102 371.6,100.6 373.1,99.4 373.9,98.5 374.1,97.5 374.9,97.5 375.3,97.2 
			375.3,96.6 375,96.5 374.6,96.5 354.9,75.1 352.7,68.3 353.3,66.7 354.9,67.4 355.7,66.4 356.1,67.3 357.3,67.6 357.8,67.4 
			357.9,66.4 356,64.9 353.6,63.7 352.7,62.8 350.5,58.2 341.2,58.5 335.2,62 326.2,57.7 323.4,56.7 322.3,56.5 321.9,56.2 
			321.9,55 317.8,53.1 316.5,52.8 312.4,55.4 304.1,61.8 297,67.4 297.2,74.6 297.4,76.5 298.2,77.9 298.6,78.5 298.6,79 298,79.9 
			297.8,80.7 297.8,90.4 298.4,90.5 299.2,90.8 299.8,91.1 300.4,91.5 300.9,92.3 301.2,93.6 301.3,95.1 301.3,97.9 301.4,98.3 
			302.5,99.3 304,100.7 304.9,101.8 305.4,101.3 306,100.9 306.3,100.8 306.7,100.8 310.8,101.5 311.3,101.3 312.1,101.3 
			312.9,101.5 313.6,101.9 318.8,104.2 319.8,103.2 320.6,102.7 321.3,102.7 322.9,103.9 326.9,108.3 327.2,108.8 326.7,109.5 
			326.9,110 328.2,110.8 330.5,112.2 331,113.8 332.5,114.7 332.6,115 332.3,116.3 		"/>
	</g>
</g>
<g id="division-1">
	<g>
		<g id="northampton">
			<polygon points="293.2,13.5 303.3,12.7 325.1,11.5 326.2,12.8 328.2,13.8 328.9,13.7 329.1,13.8 329.6,14.9 329.6,15.2 
				329.4,15.6 329.1,15.9 328.1,16.3 326.7,17.2 323.7,29.2 322.9,30.5 321.5,30.5 321.1,30.7 320.9,33.8 318.9,32.6 316.3,31.3 
				316.7,29.3 316.6,29.1 315,28.1 314.8,26.6 313.8,25.2 313.4,25 310,26 308.4,25.7 307.5,24.9 307.6,23.6 308.3,22 308.6,20.7 
				308.3,19.8 307.6,19.4 306.5,19.5 305.9,18.8 304.8,18.2 304.6,17.1 304.2,16.7 301.6,15.8 299.7,15 298.7,14.7 295.6,14.7 
				294.3,14.3 			"/>
		</g>
		<g id="bertie">
			<polygon points="325,42.5 325.1,46 326.8,46 327.7,45.8 328.1,46 328.5,46.3 329.2,46 329.7,46.3 330.3,46 331.1,45.8 332.1,46 
				332.5,46.3 332.7,46.9 332.7,48.4 332.8,48.7 332.2,50 332.2,50.3 332.8,50.5 334.2,49.9 334.6,49 335,48.6 336.9,47.9 
				337.3,48.1 337.8,48.6 338.4,49.6 338.5,50.2 338.3,52.1 338.9,52 340.8,51 341.3,48.5 341.8,48.2 342.2,48.5 342.7,48.9 
				343.6,49.3 344.6,48 344.7,47.5 345.7,46.7 346.9,46.1 346.9,45.1 346,45.2 345.5,45 345.9,44.4 347.1,42.7 347.4,42.2 
				347.1,41.9 346.6,41.6 346.4,40.3 346.3,40 346,39.6 345.4,38.9 345.4,38 345.4,36.7 345.2,36.2 344.8,35.5 344.3,33.2 
				344.1,32.3 344,31.3 344.4,29.4 344.8,29 345.7,28.5 323.7,29.2 322.9,30.5 321.5,30.5 321.1,30.7 320.9,33.8 321.6,34.1 
				321.7,34.8 322.2,35.3 322.3,35.6 322.9,36.2 323.2,36.7 322.7,37.1 321.2,37.2 320.1,37.6 319.1,38.9 319.7,39.6 320.7,40.4 			
				"/>
		</g>
		<g id="martin">
			<polygon points="335.2,62 341.2,58.5 343.6,49.3 342.7,48.9 342.2,48.5 341.8,48.2 341.3,48.5 340.8,51 338.9,52 338.3,52.1 
				338.5,50.2 338.4,49.6 337.8,48.6 337.3,48.1 336.9,47.9 335,48.6 334.6,49 334.2,49.9 332.8,50.5 332.2,50.3 332.2,50 
				332.8,48.7 332.7,48.4 332.7,46.9 332.5,46.3 332.1,46 331.1,45.8 330.3,46 329.7,46.3 329.2,46 328.5,46.3 328.1,46 327.7,45.8 
				326.8,46 325.1,46 325,42.5 320.7,40.4 319.7,39.6 319.1,38.9 315.4,43.2 318.2,49 317.8,53.1 321.9,55 321.9,56.2 322.3,56.5 
				323.4,56.7 326.2,57.7 			"/>
		</g>
		<g id="hyde">
			<polygon points="377.2,92.6 377.2,93.1 376.7,94.1 375.5,95.2 375.4,95.6 376,95.6 376.7,95.2 378.2,94.1 379.1,93.4 379.4,92.9 
							"/>
			<polygon points="390.5,84.8 386,87.3 383.3,89.3 382.6,89.6 381.5,89.3 381.1,89.6 380.5,91.7 380.3,92.4 381.3,91.8 386.3,88.1 
				390.7,85.3 390.7,85 			"/>
			<polygon points="381.4,68.3 380.3,67.5 381.2,67.3 382.4,66.5 382.8,66.5 383.7,65.8 383.7,65.6 382.8,65.5 383.3,65.1 
				383.7,64.4 384.3,63.6 384.4,63.2 384,62.5 384.2,61.3 383.6,58.6 378.3,58.5 377.8,59.1 377.4,59.3 376.4,58.8 375.2,58.7 
				373.8,58.2 373.3,57.4 372.9,57 372.3,57.2 371.5,58.5 369.9,63 365.8,62.7 366.5,58.3 350.5,58.2 352.7,62.8 353.6,63.7 
				356,64.9 357.5,65.1 358.6,65.8 359.4,65.7 358.9,66.6 359,68.3 359.7,69.3 359.7,69.7 358.4,68.8 358.1,68.9 357.7,70 
				356.8,69.1 353.7,69.1 354.7,71.3 355.5,70.5 356.4,70.7 357.6,71.8 357.5,72.1 357.1,72.1 356.1,71.4 354.7,72.5 355.8,73.1 
				356,72.9 356.8,73.2 357.2,73.7 355.8,74 356.4,75.1 356.8,75.4 356.8,74.9 357.4,75 357.3,76.1 358.1,76.6 358.8,76.8 
				358.8,76.3 358.4,75.3 358.7,74.7 358.7,74 359,73.5 359.7,73.7 359.7,74.2 359.2,74.3 359.2,74.8 359.6,75.1 360.1,74.9 
				360.9,74 360.6,73.4 361.3,72.3 362.2,73.7 362.4,75 363.2,76.2 363.2,76.6 361.6,76.2 361.1,76.3 361.7,77 363.6,77.5 
				364.6,77.3 364,76.4 363.9,75.6 364.1,74.9 363.6,74.5 363.8,74.2 364.5,74.4 366.4,76.2 366.3,77 367.4,77.8 368,77.6 
				368.1,77.1 367.8,74.4 368.8,75.4 369.3,76.5 369.6,76.3 369.7,77 370.6,77.3 370.8,78.1 371.9,77.3 372.5,77.3 372.7,78.3 
				373.8,77 373.6,76.4 375,76.4 376.5,75.3 377.2,74.8 376.1,74.6 376.7,73.3 376.7,72.3 377.9,72 377.7,72.9 378.2,73.1 
				379.1,72.6 379.1,71.6 379.7,71.1 379.3,69.6 			"/>
			<polygon points="369.9,63 371.5,58.5 372.3,57.2 372.9,57 373.3,57.4 373.8,58.2 375.2,58.7 376.4,58.8 377.4,59.3 377.8,59.1 
				378.3,58.5 383.6,58.6 384.1,60.9 391.6,84.5 392,85.2 390.7,85.3 386.3,88.1 381.3,91.8 380.3,92.4 379.4,92.9 379.1,93.4 
				376.7,95.2 376,95.6 375.3,96.6 375,96.5 374.6,96.5 354.9,75.1 352.7,68.3 353.3,66.7 354.9,67.4 355.7,66.4 356.1,67.3 
				357.3,67.6 357.8,67.4 357.9,66.4 356,64.9 353.6,63.7 352.7,62.8 350.5,58.2 360.4,58.2 366.5,58.3 365.8,62.7 			"/>
		</g>
		<g id="washington">
			<polygon points="352.3,44.9 360.3,42.5 361.6,43.3 361.6,44.6 361.1,45.7 361.4,47.1 361.9,48.5 362.2,49.5 361.9,50.8 
				361.2,52.2 360.8,52.8 360.4,54.3 360.3,56 360.4,58.2 350.5,58.2 341.2,58.5 343.6,49.3 344.6,48 344.7,47.5 345.7,46.7 
				346.9,46.1 346.9,45.1 347.4,44.9 347.9,45.1 349.8,45.2 			"/>
		</g>
		<g id="chowan">
			<polygon points="350,39.4 349,37.6 351.9,40.5 354.6,40.5 357,39.9 359.1,38.6 359.1,37.1 357.3,36.6 356.8,36.3 356.3,36.2 
				355,36.4 352.1,35 351.8,33.8 351.4,31.4 351.5,27.9 352.1,26.5 352.1,22.1 349.6,23.7 348.6,23.5 345.9,25.3 346.5,26.1 
				346.7,26.7 346.5,27.4 346,28.5 345.9,34.3 346.1,35 347.4,35.8 347.6,38.3 347.9,38.9 349.5,39.6 			"/>
		</g>
		<g id="hertford">
			<polygon points="330.5,11.3 332.2,11.3 338,10.9 337,12.6 336.9,13.5 336.4,13.9 335.3,16.1 335.2,17.3 335.4,18.4 335.8,19.7 
				336.1,20.2 336.8,20.1 337.8,20.2 338.4,20.5 339,20.9 340.2,21.4 342.5,22.2 343.6,23 344.3,23.7 346.2,25.7 346.5,26.1 
				346.7,26.7 346.5,27.4 346,28.5 323.7,29.2 326.7,17.2 328.1,16.3 329.1,15.9 329.4,15.6 329.6,15.2 329.6,14.9 329.1,13.8 
				328.9,13.7 328.2,13.8 326.2,12.8 325.1,11.5 			"/>
		</g>
		<g id="gates">
			<polygon points="354.9,12.6 354.8,16.2 356.3,20.1 352.5,21.8 349.6,23.7 348.6,23.5 345.9,25.3 344.3,23.7 343.6,23 342.5,22.2 
				340.2,21.4 339,20.9 338.4,20.5 337.8,20.2 336.8,20.1 336.1,20.2 335.8,19.7 335.4,18.4 335.2,17.3 335.3,16.1 336.4,13.9 
				336.9,13.5 337,12.6 338,10.9 345.6,9.7 351.6,9.3 			"/>
		</g>
		<g id="currituck">
			<polygon points="382.4,7.8 383.2,11.1 384.9,16.9 385.4,19.9 385.4,20.2 384.6,19 383.8,17.2 384.1,16.7 383.4,15.7 383.3,14 
				382.6,13.2 382.2,11.7 382.5,10.4 381.7,9.9 381,9.1 380.2,8.8 380.1,9.1 381.4,13 381,13.2 379.8,12.8 378.1,13.2 377.9,12.6 
				378.2,11.1 377.7,10.8 376.2,9.1 375.2,9.2 375.6,10.2 375.6,11 374.9,11 374.7,11.6 373.2,12 375.1,13.1 377.1,15.7 377.9,15.4 
				378.2,15.4 378.7,16.7 377.6,16.5 377.7,17 379,18.9 379.8,19.5 379.7,18.3 380.2,18.1 379.6,16.8 380.1,15.7 380.8,18.2 
				380.9,19.2 380.7,20 381.7,21.8 382.8,24.1 385.8,31.6 386.8,34.3 387,35.2 386.8,35.5 386.3,35.2 385.4,34.2 384.4,32.7 
				383.3,29.6 381.4,27.4 381.3,26.2 380.5,26 380.1,25.3 380.4,23.6 378.8,22.2 378,22.9 376.4,21.4 375.3,20.6 374.6,20.5 
				373,21.1 372.3,20.6 371.6,19.5 370.3,18.7 369.8,16.7 363.6,9.1 370.4,8.7 			"/>
			<polygon points="386.8,35.5 387.9,36.7 389.6,35.2 388.6,32.6 388.7,29.6 385.4,19.9 384.9,16.9 382.4,7.8 363.6,9.1 369.8,16.7 
				370.3,18.7 371.6,19.5 372.3,20.6 373,21.1 374.6,20.5 375.3,20.6 376.4,21.4 378,22.9 379.6,24.2 379.8,24.4 380.1,25.3 
				380.5,26 381.3,26.2 381.4,27.4 383.3,29.6 384.4,32.7 385.4,34.2 386.3,35.2 			"/>
		</g>
		<g id="camden">
			<polygon points="363.6,9.1 369.8,16.7 370.3,18.7 371.6,19.5 372.3,20.6 373,21.1 374.6,20.5 375.3,20.6 376.4,21.4 378,22.9 
				379.6,24.2 379.8,24.4 378.8,25.3 379.4,27.1 380.2,28 379.7,28.3 379.3,28.3 378.4,28.1 377.9,28.9 378.3,29.2 380.4,29.8 
				380.6,30.3 381.6,30.7 381.6,31.1 381,31.3 379.8,31.1 377.7,29.8 375.1,27.7 373.8,26.5 373,25.4 372.6,24.9 370.8,24.2 
				369.2,24.1 368.7,23.7 369.9,22.7 367.9,22.3 366.6,20.1 365.7,20.5 365.7,19.5 365.1,19.1 364,19.1 362.6,17.3 361,17 
				360.6,16.2 358.9,15.6 357.6,14.8 354.9,12.6 351.6,9.3 			"/>
		</g>
		<g id="pasquotank">
			<polygon points="360.6,16.2 361,17 362.6,17.3 364,19.1 365.1,19.1 365.7,19.5 365.7,20.5 366.6,20.1 367.9,22.3 369.9,22.7 
				368.7,23.7 368.1,23.7 367.8,24.1 369.1,25.3 371.4,26.5 371.7,27.1 371.5,27.7 370.8,28.8 371,29.1 372.6,28.8 373.5,29.1 
				374.2,29.7 374.2,30 373.7,30.6 373.8,30.9 374.6,30.6 375.1,31.9 374.5,32.4 373,33 370.8,31.9 371.1,32.7 372.4,33.5 372,33.8 
				369.9,34 369.2,33.8 367.9,32.2 367.6,30.2 366.8,31.1 366.5,30.6 364.2,29.2 363.4,28.2 362,27.5 358.2,22.7 356.3,20.1 
				354.8,16.2 354.9,12.6 357.6,14.8 358.9,15.6 			"/>
		</g>
		<g id="perquimans">
			<polygon points="358.2,22.7 362,27.5 363.4,28.2 365.1,30.3 364.9,30.8 364.3,31.3 366,31.1 366.6,31.5 367.1,33.2 369.2,34.9 
				369,35.1 367.6,35.4 367.1,35.2 365.7,33.6 365,34.4 362.4,33 361.4,33.3 360.5,31.3 359.1,31 357.2,30.2 358.6,31.8 361.3,34.1 
				361.9,34.4 363,35.3 364.2,35.5 364.4,35.7 363.1,36.2 360.2,36.7 359.4,35.7 359.1,35 358.8,34.9 359.1,37.1 357.3,36.6 
				356.8,36.3 356.3,36.2 355,36.4 352.1,35 351.8,33.8 351.4,31.4 351.5,27.9 352.1,26.5 352.1,22.1 352.5,21.8 356.3,20.1 			"/>
		</g>
		<g id="tyrrell">
			<polygon points="365.8,62.7 369.9,63 371.5,58.5 372.3,57.2 372.9,57 373.3,57.4 373.6,57.3 376.8,58.2 377.3,57.7 377.4,57 
				376.1,57 375.9,53.9 373.5,52.9 373.2,52.5 373.3,52.1 373.7,51.8 375,52.9 375.4,53.1 376.2,52.5 376.4,51.8 376,51.1 
				376.1,49.4 375.4,48.9 374.8,48.5 374.4,47.9 374,47.2 374.1,46.7 374.4,46.7 374.8,47.3 375,47.7 375.2,47.9 375.8,48 
				376.7,47.7 376.9,47.1 377.7,44.3 377.2,44.3 375.3,45.7 375,45.5 373.5,43.6 373.2,43 374.8,43.9 375.3,44 375.8,44.2 
				375.7,43.1 376.9,43 377.5,42.5 377.4,41.9 377,41.5 376.4,41.2 374.9,41.2 372.9,41.2 371.7,41 369,41.4 366.4,42.2 364.8,43 
				364.5,43.4 364.7,43.8 366.6,44.9 366.7,45.3 366.2,45.3 364.9,44.8 364.5,45.1 361.6,44.6 361.1,45.7 361.4,47.1 361.9,48.5 
				362.2,49.5 361.9,50.8 361.2,52.2 360.8,52.8 360.4,54.3 360.3,56 360.4,58.2 366.5,58.3 			"/>
			<polygon points="361.6,44.6 364.8,43 366.4,42.2 369,41.4 371.7,41 372.9,41.2 376.4,41.2 379.2,42.4 378.3,47 377.7,54.5 
				378.3,58.5 377.8,59.1 377.4,59.3 376.4,58.8 375.2,58.7 373.8,58.2 372.9,57 372.3,57.2 371.5,58.5 369.9,63 365.8,62.7 
				366.5,58.3 360.4,58.2 360.3,56 360.4,54.3 360.8,52.8 361.2,52.2 361.9,50.8 362.2,49.5 361.9,48.5 361.4,47.1 361.1,45.7 			
				"/>
		</g>
		<g id="dare">
			<polygon points="403.7,60.5 403.4,59 402,54.9 401.5,53.4 400.9,52 400.2,51.3 399.9,52.1 400.5,53.3 400.4,53.7 401.5,55.9 
				401.5,56.4 402,58.2 402.7,59.6 403,61.2 403,63.9 402.7,64.8 402.6,65.7 402.2,66.4 402.8,68 402.9,69.4 402.6,70.9 402.3,72.3 
				402.3,74.1 401.7,74.8 401.4,75.5 401.8,76.7 402.2,78.1 401.8,79.8 401.4,79.9 399.6,80.2 398.4,80.6 397.9,81.5 397.1,82.1 
				395.5,82.7 394.9,82.7 394.1,82.6 393.5,83.3 392,84.4 391.6,84.5 392,85.2 392.8,85.2 394.6,84.2 397.1,82.9 398,82.6 399,82.4 
				399.9,82.4 400.8,82.4 401.8,82.2 402.3,81.1 402.7,79.4 402.9,76.1 403.4,69.6 403.5,68.2 404,64.9 404,63.9 			"/>
			<polygon points="388.6,32.6 389.2,34 389.6,35.2 389.6,36.1 389.9,36.6 390.7,36.7 391.5,36.9 391.8,37.5 392.2,38.5 392.2,39.3 
				393,40.2 393.1,40.6 394.1,41.5 395.3,43.1 396,44.4 396.2,45.2 396.2,46.4 396.6,47.6 397.4,48.5 397.6,49.3 397.9,50.2 
				398.7,50.7 399.5,50.9 399.5,50.2 397.8,46.6 395.8,42.4 392.8,37.1 388.7,29.6 389.4,32.1 389.7,32.7 389.7,33.5 			"/>
			<polygon points="394.7,49.6 395.6,49.6 395.8,49 395.3,47.7 395.3,47 395.2,46.4 394.9,45.5 394.8,44.9 394.3,44.6 394.1,44.8 
				393.5,44.9 393.4,44.6 393.5,43.9 393,43.5 392,43.1 391.1,43.4 391.9,44.5 392.2,45.2 393.4,46.4 393.9,47.2 394.1,48.1 
				394.1,48.9 			"/>
			<polygon points="382.5,43.6 382.8,43.2 382.9,42.9 384.2,41.9 384.2,41.7 383.9,41.5 383.2,41.9 382.5,41.3 381.6,41.7 381,42.5 
							"/>
			<polygon points="389.9,56.7 390.8,57.6 391.9,56.4 391.9,55.8 391,53.8 391,51.6 391.3,50.9 391.2,49.6 390.3,48.9 389.8,46.1 
				389.4,45.6 388.1,44 387.9,43.6 386.7,43.1 386.8,41.9 385.7,41.2 385.1,41.2 385.3,41.7 385.4,42.2 384.5,43.5 385.6,43.6 
				386.8,44.4 386.5,44.5 385.4,44.4 384.7,44.7 383.9,44 383.2,43.9 382.8,44.6 383.2,45.2 384,45.8 385.1,46.1 385.6,46.1 
				384.9,47.4 383.9,46.7 382.8,47.2 382.9,46.1 382.2,45.4 381.6,44.6 380.9,45.2 379.8,46.1 379.5,46.6 379.7,48.5 379.6,49.3 
				378.9,50.9 379.2,52.3 379.4,54.1 378.9,55.6 378.6,57.2 378.3,58.5 383.6,58.6 384.1,60.9 384.5,60.8 384.8,61.1 385.4,62.6 
				385.8,63 386.3,63 387.3,62.6 387.4,63.3 387,63.8 388.4,63.9 389.1,63.6 389.2,62.9 389.9,62 390.5,62.3 391.2,60.7 390.6,59.4 
				390.3,59.3 390,59.4 389.8,59.2 389.5,57.8 389.5,56.8 			"/>
			<polygon points="391.6,84.5 384.1,60.9 383.6,58.6 378.3,58.5 377.7,54.5 378.3,47 379.2,42.4 381.6,41.7 382.5,41.3 389.6,35.2 
				388.6,32.6 388.7,29.6 395.8,42.4 399.5,50.2 400.9,52 402,54.9 403.4,59 403.7,60.5 404,64.9 403.4,69.6 402.7,79.4 402.3,81.1 
				401.8,82.2 400.8,82.4 399,82.4 398,82.6 392.8,85.2 392,85.2 			"/>
		</g>
	</g>
	<g>
		<polygon points="325.1,11.5 330.5,11.3 332.2,11.3 338,10.9 345.6,9.7 351.6,9.3 363.6,9.1 382.4,7.8 384.9,16.9 385.4,19.9 
			388.7,29.6 395.8,42.4 399.5,50.2 399.5,50.9 400.2,51.3 400.9,52 401.5,53.4 403.4,59 403.7,60.5 404,64.9 403.4,69.6 
			402.7,79.4 402.3,81.1 401.8,82.2 400.8,82.4 399,82.4 398,82.6 397.1,82.9 392.8,85.2 392,85.2 390.7,85.3 386.3,88.1 
			381.3,91.8 380.3,92.4 379.4,92.9 379.1,93.4 376.7,95.2 376,95.6 375.4,95.6 375.3,96.6 375,96.5 374.6,96.5 354.9,75.1 
			352.7,68.3 353.3,66.7 354.9,67.4 355.7,66.4 356.1,67.3 357.3,67.6 357.8,67.4 357.9,66.4 356,64.9 353.6,63.7 352.7,62.8 
			350.5,58.2 341.2,58.5 335.2,62 326.2,57.7 323.4,56.7 322.3,56.5 321.9,56.2 321.9,55 317.8,53.1 318.2,49 315.4,43.2 
			319.1,38.9 320.1,37.6 321.2,37.2 322.7,37.1 323.2,36.7 322.9,36.2 322.3,35.6 322.2,35.3 321.7,34.8 321.6,34.1 320.9,33.8 
			318.9,32.6 316.3,31.3 316.7,29.3 316.6,29.1 315,28.1 314.8,26.6 313.8,25.2 313.4,25 310,26 308.4,25.7 307.5,24.9 307.6,23.6 
			308.3,22 308.6,20.7 308.3,19.8 307.6,19.4 306.5,19.5 305.9,18.8 304.8,18.2 304.6,17.1 304.2,16.7 301.6,15.8 299.7,15 
			298.7,14.7 295.6,14.7 294.3,14.3 293.2,13.5 303.3,12.7 		"/>
	</g>
</g>
</svg>
