<?xml version="1.0" encoding="UTF-8" standalone="no"?>
<svg width="929px" height="365px" viewBox="0 0 929 365" version="1.1" xmlns="http://www.w3.org/2000/svg" xmlns:xlink="http://www.w3.org/1999/xlink">
    <!-- Generator: Sketch 41.2 (35397) - http://www.bohemiancoding.com/sketch -->
    <title>Slice 1</title>
    <desc>Created with Sketch.</desc>
    <defs></defs>
    <g id="Page-1" stroke="none" stroke-width="1" fill="none" fill-rule="evenodd">
        <g id="ncstatemap" fill="#000000">
            <rect id="side-display" x="4.5" y="250.721" width="481" height="108.383"></rect>
            <polygon id="state-outline" points="878.037 0.05 834.305 3.239 806.42 3.704 792.629 4.632 774.813 7.266 761.428 8.188 757.504 8.188 694.193 11.487 670.701 13.463 652.756 14.448 623.76 17.492 608.27 17.802 573.719 17.027 541.65 16.872 502.301 16.716 450.558 15.478 407.18 14.549 370.082 13.961 360.713 13.671 312.225 11.658 282.636 9.024 281.55 9.799 278.917 17.547 279.427 21.9 278.917 22.813 278.317 23.355 277.546 25.128 276.703 29.523 274.829 32.974 274.829 33.881 276.284 37.996 277.372 40.629 274.427 42.024 269.159 39.08 266.371 39.854 255.62 48.925 246.231 68.671 242.977 68.515 237.189 71.758 234.434 70.937 228.821 64.275 227.468 64.408 224.094 65.979 220.744 68.135 217.232 68.575 214.328 68.147 213.019 68.135 207.159 71.091 204.721 74.299 199.955 78.904 195.157 86.73 187.373 89.466 185.026 88.55 185.026 84.625 185.327 80.669 181.236 76.113 166.288 83.708 166.626 87.848 162.383 92.095 158.034 88.304 151.963 91.832 152.84 99.28 150.373 100.625 150.373 103.785 145.724 110.902 144.127 112.144 136.29 110.374 132.098 113.214 129.029 113.46 125.86 114.736 124.11 116.786 116.367 119.034 115.042 123.14 111.145 126.685 105.755 126.105 101.315 129.751 98.209 130.947 91.281 137.504 89.355 138.097 76.742 136.598 70.885 138.038 61.902 137.507 56.06 142.064 49.488 144.289 46.055 147.794 40.437 151.174 34.117 156.786 34.117 161.508 32.686 164.417 32.686 170.734 32.074 173.759 28.83 174.787 25.587 177.687 16.542 179.052 12.274 175.469 4.424 180.759 0.497 210.329 34.466 210.968 84.476 213.027 127.944 213.177 139.34 210.307 165.421 202.986 172.514 202.494 172.382 199.378 173.071 198.523 175.662 198.732 181.766 197.154 185.026 195.813 189.554 194.784 199.472 191.509 204.049 188.385 206.703 189.594 213.875 191.35 217.232 190.38 247.822 191.509 267.104 192.943 291.28 194.627 303.206 195.539 315.457 196.18 338.86 198.354 346.278 198.762 347.238 203.563 346.278 205.457 343.222 209.044 347.102 212.311 357.309 205.368 366.498 217.618 371.601 225.988 370.579 242.322 419.169 242.117 462.862 242.525 489.607 242.322 512.883 263.963 554.736 307.449 597.814 351.55 609.248 363.596 612.244 361.146 617.414 363.188 626.195 359.104 628.848 357.266 638.33 356.611 643.752 353.796 643.752 351.55 647.406 354.202 646.713 355.134 644.623 355.806 644.158 356.244 655.113 356.918 662.592 358.446 666.004 358.694 667.135 362.319 667.756 363.005 668.961 363.596 671.516 364.005 672.166 364.574 673.355 364.819 674.375 356.859 677.232 350.324 678.662 342.16 679.887 338.485 679.07 336.035 679.887 330.226 682.258 324.689 683.971 321.332 683.031 318.418 692.734 307.818 693.361 303.979 695.43 303.15 699.313 298.211 700.725 294.331 702.135 295.742 704.852 293.591 708.834 289.51 708.271 287.713 708.365 286.572 709.072 286.572 710.482 287.98 712.127 286.572 714.479 285.159 716.244 281.633 719.09 280.85 720.65 279.455 722.625 278.906 722.848 277.261 725.688 277.971 727.938 275.873 728.348 274.777 732.957 273.761 731.895 271.585 735.975 270.521 741.555 267.521 746.143 262.461 749.592 259.322 748.697 258.459 748.389 257.574 749.592 257.229 750.518 257.93 754.596 254.561 751.936 250.124 753.926 251.014 756.547 253.139 759.031 250.657 758.67 246.693 762.051 248.779 762.398 249.413 761.656 252.402 762.344 252.607 770.736 247.818 782.619 245.336 786.533 250.316 788.232 250.721 801.234 249.411 802.998 248.857 809.309 250.295 810.648 251.053 816.316 253.094 819.244 255.346 819.535 256.41 821.107 257.539 818.594 258.357 819.348 261.791 820.164 262.461 821.191 261.762 821.107 259.525 844.871 224.939 846.205 223.447 846.205 222.992 847.5 221.667 850.9 219.084 852.926 215.917 856.387 213.084 858.428 211.051 858.883 208.803 860.561 208.663 861.643 207.953 861.643 206.711 861.721 204.189 863.166 204.219 864.871 203.371 870.398 199.121 871.119 197.982 873.248 196.918 875.508 195.495 887.08 186.809 897.473 180.429 900.357 180.097 902.158 180.069 912.309 174.781 914.355 173.947 916.602 173.646 920.947 173.564 923.23 173.125 924.328 170.589 925.252 166.718 926.809 143.889 928.355 132.8 927.68 122.688 926.988 119.235 922.523 106.177 921.135 102.917 919.379 101.384 917.941 100.409 917.941 98.662 909.184 80.642 892.756 50.775 885.113 28.19 883.889 21.332"></polygon>
            <g id="division-14" transform="translate(0.000000, 110.000000)">
                <g id="Group">
                    <g id="cherokee" transform="translate(0.000000, 63.000000)">
                        <polygon id="Shape" points="0.497 37.329 34.466 37.968 37.027 35.919 38.05 32.504 41.976 29.773 47.438 23.971 50.108 20.23 53.069 20.725 58.75 18.966 61.902 19.171 65.264 13.314 65.264 11.417 66.841 5.225 61.249 7.396 52.271 6.562 38.048 10.318 33.669 5.007 32.074 0.759 28.83 1.787 25.587 4.687 16.542 6.052 12.274 2.469 4.424 7.759"></polygon>
                    </g>
                    <g id="graham" transform="translate(32.000000, 40.000000)">
                        <polygon id="Shape" points="0.074 23.759 0.686 20.734 0.686 14.417 2.117 11.508 2.117 6.786 8.437 1.174 13.642 2.378 18.009 0.348 20.785 1.747 23.169 1.73 39.835 5.766 44.855 5.503 48.045 6.186 47.473 10.747 43.274 17.28 37.193 19.529 36.355 26.343 34.841 28.225 29.239 30.396 20.271 29.562 6.048 33.318 1.674 28.013"></polygon>
                    </g>
                    <g id="clay" transform="translate(34.000000, 81.000000)">
                        <polygon id="Shape" points="18.665 21.128 50.476 22.027 50.134 19.466 47.063 15.712 46.209 13.15 40.858 6.277 35.584 1.583 29.167 1.448 27.902 1.171 24.75 0.966 19.069 2.725 16.108 2.23 13.438 5.971 7.976 11.773 4.05 14.504 3.027 17.919 0.466 19.968"></polygon>
                    </g>
                    <g id="macon" transform="translate(61.000000, 60.000000)">
                        <polygon id="Shape" points="23.476 43.027 66.944 43.177 62.068 35.114 63.129 32.188 61.569 28.98 56.065 21.234 56.576 16.337 55.479 12.884 52.093 13.438 46.667 9.063 46.794 7.63 46.113 3.706 43.199 0.168 33.829 1.735 30.814 4.041 15.623 5.196 7.355 6.343 5.841 8.225 4.264 14.417 4.264 16.314 0.902 22.171 2.167 22.448 8.584 22.583 13.858 27.277 19.209 34.15 20.063 36.712 23.134 40.466"></polygon>
                    </g>
                    <g id="swain" transform="translate(40.000000, 13.000000)">
                        <polygon id="Shape" points="6.055 24.794 9.488 21.289 16.06 19.064 21.902 14.507 30.885 15.038 36.742 13.598 49.355 15.097 51.281 14.504 58.209 7.947 61.315 6.751 65.755 3.105 71.145 3.685 75.042 0.14 79.931 0.878 82.67 3.302 82.133 6.881 83.554 9.365 82.845 13.09 85.86 18.588 82.845 23.732 76.107 22.839 70.142 27.611 65.204 30.077 63.728 31.615 63.322 33.966 65.928 42.967 66.104 45.221 64.199 47.168 54.829 48.735 51.814 51.041 36.623 52.196 28.355 53.343 29.193 46.529 35.274 44.28 39.473 37.747 40.045 33.186 36.855 32.503 31.835 32.766 15.169 28.73 12.785 28.747 10.009 27.348 5.642 29.378 0.437 28.174"></polygon>
                    </g>
                    <g id="jackson" transform="translate(103.000000, 35.000000)">
                        <polygon id="Shape" points="24.944 68.177 36.34 65.307 31.553 62.114 39.799 52.805 38.975 47.943 42.817 41.59 44.718 39.715 46.184 35.779 46.447 29.578 45.03 30.111 42.072 29.008 41.483 25.675 40.062 24.434 38.112 21.242 34.754 19.016 32.438 11.842 24.457 9.181 22.86 2.797 19.845 1.732 13.107 0.839 7.142 5.611 2.204 8.077 0.728 9.615 0.322 11.966 2.928 20.967 3.104 23.221 1.199 25.168 4.113 28.706 4.794 32.63 4.667 34.063 10.093 38.438 13.479 37.884 14.576 41.337 14.065 46.234 19.569 53.98 21.129 57.188 20.068 60.114"></polygon>
                    </g>
                    <g id="haywood" transform="translate(115.000000, 0.000000)">
                        <polygon id="Shape" points="1.367 9.034 9.11 6.786 10.86 4.736 14.029 3.46 17.098 3.214 21.29 0.374 29.127 2.144 30.724 0.902 32.591 3.512 32.591 8.083 36.324 7.718 39.004 17.18 42.927 24.314 44.497 22.729 46.327 23.521 47.635 27.485 51.035 30.92 48.419 41.488 48.419 44.394 52.604 50.735 47.27 56.368 45.8 60.854 44.789 61.278 44.56 63.336 41.011 62.626 40.25 64.442 37.64 63.868 36.751 65.111 34.447 64.578 33.03 65.111 30.072 64.008 29.483 60.675 28.062 59.434 26.112 56.242 22.754 54.016 20.438 46.842 12.457 44.181 10.86 37.797 7.845 36.732 10.86 31.588 7.845 26.09 8.554 22.365 7.133 19.881 7.67 16.302 4.931 13.878 0.042 13.14"></polygon>
                    </g>
                    <g id="transylvania" transform="translate(134.000000, 50.000000)">
                        <polygon id="Shape" points="31.421 42.986 38.514 42.494 38.382 39.378 39.071 38.523 41.662 38.732 47.766 37.154 51.026 35.813 48.851 31.049 47.041 16.689 33.867 0.166 28.27 6.368 26.8 10.854 25.789 11.278 25.56 13.336 22.011 12.626 21.25 14.442 18.64 13.868 17.751 15.111 15.447 14.578 15.184 20.779 13.718 24.715 11.817 26.59 7.975 32.943 8.799 37.805 0.553 47.114 5.34 50.307"></polygon>
                    </g>
                    <g id="henderson" transform="translate(167.000000, 43.000000)">
                        <polygon id="Shape" points="22.554 41.784 32.472 38.509 37.049 35.385 39.703 36.594 41.935 25.271 44.641 23.049 50.232 13.928 48.676 11.776 49.102 5.479 50.028 3.243 44.013 0.073 39.829 1.922 39.045 4.034 35.907 1.922 33.815 1.922 27.277 4.829 21.001 4.299 17.339 5.357 12.371 4.829 10.54 2.715 8.448 2.449 4.264 4.299 0.867 7.488 14.041 23.689 15.851 38.049 18.026 42.813"></polygon>
                    </g>
                    <g id="polk" transform="translate(206.000000, 54.000000)">
                        <polygon id="Shape" points="0.703 25.594 2.935 14.271 5.641 12.049 11.232 2.928 12.38 1.695 13.766 1.011 17.157 1.832 23.642 0.799 25.939 2.466 33.174 11.368 41.822 19.699 41.822 27.509 11.232 26.38 7.875 27.35"></polygon>
                    </g>
                </g>
                <polygon id="Shape" points="0.497 100.329 34.466 100.968 84.476 103.027 127.944 103.177 139.34 100.307 165.421 92.986 172.514 92.494 172.382 89.378 173.071 88.523 175.662 88.732 181.766 87.154 185.026 85.813 189.554 84.784 199.472 81.509 204.049 78.385 206.703 79.594 213.875 81.35 217.232 80.38 247.822 81.509 247.822 73.699 239.174 65.368 231.939 56.466 229.642 54.799 223.157 55.832 219.766 55.011 218.38 55.695 217.232 56.928 215.676 54.776 215.924 49.465 217.059 46.446 211.013 43.073 206.829 44.922 206.045 47.034 202.907 44.922 200.815 44.922 194.277 47.829 188.001 47.299 184.339 48.357 179.371 47.829 177.54 45.715 175.448 45.449 171.264 47.299 167.867 50.488 163.419 44.394 163.419 41.488 166.035 30.92 162.635 27.485 161.327 23.521 159.497 22.729 157.927 24.314 154.004 17.18 151.324 7.718 147.591 8.083 147.591 3.512 145.724 0.902 144.127 2.144 136.29 0.374 132.098 3.214 129.029 3.46 125.86 4.736 124.11 6.786 116.367 9.034 115.042 13.14 111.145 16.685 105.755 16.105 103.322 18.104 101.315 19.751 98.209 20.947 91.281 27.504 89.355 28.097 76.742 26.598 70.885 28.038 61.902 27.507 56.06 32.064 49.488 34.289 46.055 37.794 40.437 41.174 34.117 46.786 34.117 51.508 32.686 54.417 32.686 60.734 32.074 63.759 28.83 64.787 25.587 67.687 16.542 69.052 12.274 65.469 4.424 70.759"></polygon>
            </g>
            <g id="division-13" transform="translate(145.000000, 64.000000)">
                <g id="Group">
                    <g id="buncombe" transform="translate(9.000000, 45.000000)">
                        <polygon id="Shape" points="60.343 19.231 62.416 25.847 61.378 31.141 64.747 36.171 72.53 39.74 68.52 40.902 66.951 41.958 66.245 45.052 63.059 47.446 57.013 44.073 52.829 45.922 52.045 48.034 48.907 45.922 46.815 45.922 40.277 48.829 34.001 48.299 30.339 49.357 25.371 48.829 23.54 46.715 21.448 46.449 17.264 48.299 13.867 51.488 9.419 45.394 9.419 42.488 12.035 31.92 8.635 28.485 7.327 24.521 5.497 23.729 3.927 25.314 0.004 18.18 4.024 14.388 8.627 15.65 17.579 12.442 20.44 9.925 23.309 10.883 39.245 2.433 43.346 2.509 45.301 0.841 49.43 0.48 54.66 2.594 56.491 9.726 58.844 10.52 62.505 13.953 65.785 15.261"></polygon>
                    </g>
                    <g id="madison" transform="translate(0.000000, 12.000000)">
                        <polygon id="Shape" points="5.373 27.785 5.373 24.625 7.84 23.28 6.963 15.832 13.034 12.304 17.383 16.095 21.626 11.848 21.288 7.708 29.596 3.56 36.236 0.113 40.327 4.669 40.026 8.625 40.026 12.55 42.373 13.466 50.157 10.73 52.07 15.67 51.121 20.09 51.752 21.728 57.883 25.332 58.445 26.19 58.43 33.48 54.301 33.841 52.346 35.509 48.245 35.433 32.309 43.883 29.44 42.925 26.579 45.442 17.627 48.65 13.024 47.388 9.004 51.18 6.324 41.718 2.591 42.083 2.591 37.512 0.724 34.902"></polygon>
                    </g>
                    <g id="rutherford" transform="translate(70.000000, 75.000000)">
                        <polygon id="Shape" points="43.811 53.326 32.822 52.509 32.822 44.699 24.174 36.368 16.939 27.466 14.642 25.799 8.157 26.832 4.766 26.011 3.38 26.695 2.232 27.928 0.676 25.776 0.634 23.347 0.924 20.465 1.102 19.479 2.059 17.446 5.245 15.052 5.951 11.958 7.52 10.902 11.704 9.69 13.854 10.583 18.259 9.965 26.811 9.17 29.404 8.023 33.206 10.67 38.993 10.493 46.421 8.552 47.372 7.406 47.804 4.847 48.322 3.701 49.008 3.48 50.528 3.15 53.26 2.727 56.27 1.402 58.309 0.228 60.87 0.228 61.669 0.711 62.392 2.419 62.684 3.893 62.734 6.256 62.091 16.104 61.742 23.403 61.594 30.053 56.754 46.92 52.104 53.943"></polygon>
                    </g>
                    <g id="mcdowell" transform="translate(69.000000, 27.000000)">
                        <polygon id="Shape" points="46.731 34.408 47.421 36.525 46.903 38.377 50.008 51.48 49.322 51.701 48.804 52.847 48.372 55.406 47.421 56.552 39.993 58.493 34.206 58.67 31.958 56.906 30.404 56.023 27.811 57.17 19.259 57.965 14.854 58.583 9.326 56.287 4.747 54.171 1.378 49.141 2.416 43.847 0.343 37.231 5.785 33.261 10.104 32.025 11.572 30.26 13.04 29.642 15.286 25.495 15.286 22.132 16.879 19.97 23.555 14.767 27.27 14.262 30.808 12.15 34.154 10.332 34.339 8.856 36.416 6.076 36.445 4.42 37.962 0.289 38.87 3.086 40.511 6.705 40.511 11.645 39.474 15.615 38.178 17.731 34.463 19.85 33.341 20.643 33.341 21.653 36.131 24.501 41.807 29.555 45.348 32.378"></polygon>
                    </g>
                    <g id="yancey" transform="translate(50.000000, 10.000000)">
                        <polygon id="Shape" points="0.157 12.73 4.955 4.904 9.721 0.299 15.879 1.222 16.755 6.275 18.859 8.368 20.789 6.451 24.122 11.856 25.699 13.077 27.103 12.206 27.803 10.636 30.436 11.506 31.487 12.729 30.259 18.481 30.436 20.573 33.593 21.794 34.994 22.666 35.879 36.97 34.286 39.132 34.286 42.495 32.04 46.642 30.572 47.26 29.104 49.025 24.785 50.261 21.505 48.953 19.988 47.542 17.844 45.52 15.491 44.726 13.66 37.594 8.43 35.48 8.445 28.19 7.883 27.332 1.752 23.728 1.121 22.09 1.516 19.375 2.07 17.67"></polygon>
                    </g>
                    <g id="mitchell" transform="translate(59.000000, 0.000000)">
                        <polygon id="Shape" points="0.721 10.299 3.159 7.091 9.019 4.135 10.328 4.147 13.232 4.575 16.744 4.135 20.094 1.979 23.468 0.408 24.821 0.275 26.925 2.681 30.434 6.937 33.189 7.758 34.065 11.259 36.332 17.884 36.821 20.568 35.732 25.062 42.586 35.287 44.339 35.856 44.154 37.332 40.875 39.005 37.27 41.262 33.555 41.767 26.879 46.97 25.994 32.666 21.436 30.573 21.259 28.481 22.487 22.729 21.436 21.506 18.803 20.636 18.103 22.206 16.699 23.077 15.122 21.856 11.789 16.451 9.859 18.368 7.755 16.275 6.879 11.222"></polygon>
                    </g>
                    <g id="burke" transform="translate(102.000000, 24.000000)">
                        <polygon id="Shape" points="23.088 8.866 25.025 9.158 26.342 9.95 29.13 15.682 36.073 19.719 38.116 22.653 40.904 22.963 44.312 27.61 57.313 28.627 60.424 31.018 63.521 31.639 65.228 36.131 64.439 37.526 58.611 41.691 47.101 56.426 43.726 56.426 39.329 55.737 38.267 55.858 37.204 56.949 35.947 57.184 32.622 56.08 30.684 54.893 30.392 53.419 29.669 51.711 28.87 51.228 26.309 51.228 21.26 53.727 17.21 54.076 13.903 41.377 14.421 39.525 13.731 37.408 12.348 35.378 8.608 32.379 0.341 24.306 0.341 23.643 5.178 20.731 6.474 18.615 7.511 14.645 7.511 9.705 5.87 6.086 4.962 3.289 6.123 2.398 8.565 1.539 9.454 0.345 10.416 0.345 15.129 2.328 19.681 4.372"></polygon>
                    </g>
                </g>
                <polygon id="Shape" points="102.822 127.509 122.104 128.943 126.755 121.924 131.593 105.057 131.593 96.488 132.734 83.056 132.684 78.898 137.583 81.143 139.714 80.426 140.852 79.714 149.101 80.426 160.611 65.691 166.439 61.526 167.228 60.131 165.521 55.639 162.424 55.018 159.313 52.316 146.312 51.61 142.904 46.963 140.116 46.653 138.073 43.719 131.13 39.682 128.342 33.95 127.025 33.158 125.088 32.866 121.681 28.372 111.455 24.349 110.216 25.742 106.961 27.292 105.445 31.42 105.416 33.076 103.339 35.856 101.586 35.287 94.725 25.279 95.808 20.786 95.332 17.889 93.065 11.265 92.189 7.758 89.434 6.937 83.821 0.275 82.468 0.408 79.094 1.979 75.744 4.135 72.232 4.575 69.328 4.147 68.019 4.135 62.159 7.091 59.721 10.299 54.955 14.904 50.157 22.73 42.373 25.466 40.026 24.55 40.026 20.625 40.327 16.669 36.236 12.113 21.288 19.708 21.626 23.848 17.383 28.095 13.034 24.304 6.963 27.832 7.84 35.28 5.373 36.625 5.373 39.785 0.724 46.902 2.591 49.512 2.591 54.083 6.324 53.718 9.004 63.18 12.927 70.314 14.497 68.729 16.327 69.521 17.635 73.485 21.035 76.92 18.419 87.488 18.419 90.394 22.867 96.488 26.264 93.299 30.448 91.449 32.54 91.715 34.371 93.829 39.339 94.357 43.001 93.299 49.277 93.829 55.815 90.922 57.907 90.922 61.045 93.034 61.829 90.922 66.013 89.073 72.059 92.446 70.924 95.465 70.676 100.776 72.232 102.928 73.38 101.695 74.766 101.011 78.157 101.832 84.642 100.799 86.939 102.466 94.174 111.368 102.822 119.699"></polygon>
            </g>
            <g id="division-12" transform="translate(267.000000, 81.000000)">
                <g id="Group">
                    <g id="cleveland" transform="translate(0.000000, 61.000000)">
                        <polygon id="Shape" points="0.104 50.943 24.28 52.627 36.206 53.539 48.457 54.18 47.917 44.943 46.839 42.008 44.575 32.947 38.043 25.598 36.206 21.906 30.489 9.264 29.263 2.426 27.101 2.426 18.852 1.714 15.583 3.143 10.684 0.898 10.734 5.056 9.593 18.488 9.593 27.057 4.755 43.924"></polygon>
                    </g>
                    <g id="gaston" transform="translate(36.000000, 82.000000)">
                        <polygon id="Shape" points="36.516 35.414 44.713 35.834 45.482 34.342 45.583 31.424 45.325 22.357 45.641 21.748 48.526 9.361 48.686 8.067 51.042 2.76 0.206 0.906 1.629 3.849 2.043 4.598 8.575 11.947 10.839 21.008 11.434 22.357 11.917 23.943 12.457 33.18"></polygon>
                    </g>
                    <g id="lincoln" transform="translate(29.000000, 63.000000)">
                        <polygon id="Shape" points="1.775 0.426 56.152 3.056 57.125 3.678 58.655 8.285 57.855 9.894 58.042 11.143 58.978 12.539 59.885 14.954 59.676 16.043 57.688 18.984 57.634 19.309 58.042 21.76 7.206 19.906 1.489 7.264 1.104 5.67 0.263 0.527"></polygon>
                    </g>
                    <g id="catawba" transform="translate(27.000000, 29.000000)">
                        <polygon id="Shape" points="22.098 3.906 28.04 3.029 33.241 2.613 38.898 0.95 40.677 0.908 41.52 2.072 41.966 4.494 42.071 5.401 44.86 7.413 48.33 12.896 48.155 14.504 48.618 15.609 51.064 16.16 54.889 17.174 61.885 24.904 62.903 27.672 62.856 29.598 62.448 30.955 58.152 37.056 3.775 34.426 0.101 34.426 11.611 19.691 17.439 15.526 18.228 14.131 16.521 9.639"></polygon>
                    </g>
                    <g id="alexander" transform="translate(46.000000, 1.000000)">
                        <polygon id="Shape" points="12.846 2.262 16.682 2.91 18.734 2.883 21.875 1.564 24.438 2.239 27.564 3.036 29.729 2.063 31.848 0.402 33.607 0.402 36.705 8.304 32.676 24.879 25.86 35.413 23.071 33.401 22.52 29.697 21.677 28.908 20.104 28.908 14.241 30.613 3.098 31.906 2.915 30.737 0.464 27.257 0.497 25.842 1.813 22.375 1.295 20.694 0.497 19.241 0.928 14.09 2.457 6.809"></polygon>
                    </g>
                    <g id="iredell" transform="translate(71.000000, 0.000000)">
                        <polygon id="Shape" points="42.157 26.056 43.639 0.623 24.326 0.582 20.968 0.582 19.566 0.811 17.885 0.464 8.607 1.402 11.705 8.555 7.847 25.183 7.676 25.879 0.86 36.413 4.33 41.896 4.155 43.504 4.618 44.609 9.88 45.908 11.164 46.212 17.885 53.904 18.903 56.672 18.903 59.288 14.152 66.056 15.125 66.678 16.655 71.285 34.826 70.876 40.395 71.124 36.082 49.178 37.574 42.646 41.2 29.43"></polygon>
                    </g>
                </g>
                <polygon id="Shape" points="0.104 111.943 24.28 113.627 36.206 114.539 48.457 115.18 71.86 117.354 79.278 117.762 80.713 117.834 81.482 116.342 81.353 105.313 84.776 89.493 87.042 84.76 86.634 82.309 88.676 79.043 88.885 77.954 87.978 75.539 87.042 74.143 86.855 72.894 87.655 71.285 105.826 70.876 111.395 71.124 107.082 49.178 113.157 26.056 114.639 0.623 91.717 0.623 90.566 0.811 87.508 0.459 79.607 1.402 77.848 1.402 76.222 2.676 73.564 4.036 67.875 2.564 64.734 3.883 62.682 3.91 58.846 3.262 48.457 7.809 46.928 15.09 46.497 20.241 47.813 23.375 46.497 26.842 46.464 28.257 48.915 31.737 49.098 32.906 43.521 38.639 45.228 43.131 44.439 44.526 38.611 48.691 27.101 63.426 18.852 62.714 15.583 64.143 10.684 61.898 10.734 66.056 9.593 79.488 9.593 88.057 4.755 104.924"></polygon>
            </g>
            <g id="division-11" transform="translate(237.000000, 9.000000)">
                <g id="Group">
                    <g id="avery" transform="translate(0.000000, 39.000000)">
                        <polygon id="Shape" points="9.231 20.671 18.62 0.925 20.3 3.392 20.541 4.248 20.085 10.332 20.229 11.221 26.426 16.953 28.318 23.782 28.75 24.542 31.074 25.936 35.059 29.44 35.688 30.748 29.681 44.372 19.455 40.349 18.216 41.742 14.961 43.292 13.445 47.42 13.416 49.076 11.339 51.856 9.586 51.287 2.725 41.279 3.808 36.786 3.332 33.889 1.065 27.265 0.189 23.758 5.977 20.515"></polygon>
                    </g>
                    <g id="caldwell" transform="translate(29.000000, 63.000000)">
                        <polygon id="Shape" points="49.457 16.809 47.928 24.09 47.497 29.241 48.813 32.375 47.497 35.842 47.464 37.257 49.915 40.737 50.098 41.906 44.521 47.639 41.424 47.018 38.313 44.316 25.312 43.61 21.904 38.963 19.116 38.653 17.073 35.719 10.13 31.682 7.342 25.95 6.025 25.158 4.088 24.866 0.681 20.372 6.688 6.748 6.059 5.44 2.074 1.936 5.173 0.697 29.03 0.542 30.735 2.71 36.565 4.332 43.299 9.582"></polygon>
                    </g>
                    <g id="watauga" transform="translate(18.000000, 28.000000)">
                        <polygon id="Shape" points="0.62 11.925 11.371 2.854 14.159 2.08 19.427 5.024 22.372 3.629 21.284 0.996 28.101 4.093 32.909 9.945 37.086 14.319 43.585 18.474 46.227 20.515 46.847 21.444 47.5 23.439 47.518 25.101 47.251 26.353 46.415 28.182 43.295 33.263 42.092 34.702 40.03 35.542 16.173 35.697 13.074 36.936 10.75 35.542 10.318 34.782 8.426 27.953 2.229 22.221 2.085 21.332 2.541 15.248 2.3 14.392"></polygon>
                    </g>
                    <g id="ashe" transform="translate(37.000000, 0.000000)">
                        <polygon id="Shape" points="5.427 12.9 4.917 8.547 7.55 0.799 8.636 0.024 38.225 2.658 39.553 6.985 42.517 12.738 43.184 14.743 48.967 23.546 49.224 28.221 51.084 31.165 47.15 33.112 46.151 32.64 44.797 31.165 43.463 30.126 42.719 30.08 40.95 30.959 38.821 32.942 38.373 41.071 37.916 42.938 36.107 41.29 34.97 40.769 34.041 42.292 31.253 45.573 27.227 48.515 24.585 46.474 18.086 42.319 13.909 37.945 9.101 32.093 2.284 28.996 0.829 24.881 2.703 20.523 3.546 16.128"></polygon>
                    </g>
                    <g id="wilkes" transform="translate(58.000000, 23.000000)">
                        <polygon id="Shape" points="16.916 19.938 15.107 18.29 13.97 17.769 13.041 19.292 10.253 22.573 6.227 25.515 6.847 26.444 7.5 28.439 7.518 30.101 7.251 31.353 6.415 33.182 3.295 38.263 2.092 39.702 0.03 40.542 1.735 42.71 7.565 44.332 14.299 49.582 20.457 56.809 30.846 52.262 34.682 52.91 36.734 52.883 39.875 51.564 45.564 53.036 47.729 52.063 49.848 50.402 51.607 50.402 59.508 49.459 61.448 49.582 62.566 49.811 67.326 49.582 68.448 13.417 65.287 9.065 60.877 5.472 59.508 2.86 57.348 6.614 52.855 7.389 50.687 4.598 49.771 2.252 45.085 0.237 44.313 0.75 42.482 0.782 39.559 1.951 37.806 1.389 35.969 1.498 33.181 3.98 30.084 8.165 26.15 10.112 25.151 9.64 23.797 8.165 22.463 7.126 21.719 7.08 19.95 7.959 17.821 9.942 17.373 18.071"></polygon>
                    </g>
                    <g id="yadkin" transform="translate(125.000000, 42.000000)">
                        <polygon id="Shape" points="19.639 30.623 39.907 31.563 39.513 25.096 40.926 23.809 46.176 21.178 46.558 19.887 45.31 18.081 46.558 14.702 46.327 12.89 45.729 10.552 46.765 8.048 46.188 6.589 44.966 5.534 43.741 4.561 43.631 3.981 37.895 3.39 36.813 3.054 35.063 0.441 31.238 1.348 29.095 0.685 27.63 0.459 24.222 4.022 20.238 1.813 16.333 1.521 13.533 2.938 11.982 2.473 10.685 4.022 8.082 4.833 6.383 4.833 2.689 6.19 1.087 6.016 0.326 30.582"></polygon>
                    </g>
                    <g id="surry" transform="translate(115.000000, 4.000000)">
                        <polygon id="Shape" points="18.082 0.961 55.18 1.549 53.631 41.981 52.518 41.447 47.895 41.39 46.813 41.054 45.459 38.709 44.8 38.265 41.238 39.348 39.095 38.685 37.63 38.459 34.222 42.022 30.238 39.813 26.333 39.521 25.081 40.01 23.533 40.938 21.982 40.473 20.685 42.022 18.082 42.833 16.383 42.833 12.689 44.19 11.087 44.016 11.448 32.417 8.287 28.065 3.877 24.472 2.508 21.86 2.863 20.27 0.969 16.319 1.99 13.961 5.82 9.015 6.609 5.933 8.715 0.673"></polygon>
                    </g>
                    <g id="alleghany" transform="translate(75.000000, 2.000000)">
                        <polygon id="Shape" points="10.967 21.543 11.224 26.217 13.083 29.16 16.18 24.977 18.969 22.498 20.806 22.389 22.559 22.951 25.482 21.782 27.313 21.75 28.131 21.228 32.771 23.252 33.687 25.598 35.854 28.386 40.347 27.612 42.488 23.901 42.863 22.27 40.968 18.318 41.99 15.961 45.82 11.015 46.609 7.933 48.713 2.671 0.225 0.658 1.553 4.981 4.516 10.734 5.182 12.739"></polygon>
                    </g>
                </g>
                <polygon id="Shape" points="73.521 110.639 79.098 104.906 78.915 103.737 76.464 100.257 76.497 98.842 77.813 95.375 76.497 92.241 76.928 87.09 78.457 79.809 88.846 75.262 92.682 75.91 94.734 75.883 97.875 74.564 103.564 76.036 105.729 75.063 107.848 73.402 109.607 73.402 117.508 72.459 120.566 72.811 125.326 72.582 144.639 72.623 164.907 73.563 164.513 67.096 165.926 65.809 171.176 63.178 171.558 61.887 170.291 59.774 171.393 57.543 171.458 55.931 170.729 52.552 171.765 50.048 171.188 48.589 168.741 46.561 168.631 45.981 170.18 5.549 133.082 4.961 123.713 4.671 101.716 3.744 75.225 2.658 45.636 0.024 44.55 0.799 41.917 8.547 42.427 12.9 41.917 13.813 41.317 14.355 40.546 16.128 39.703 20.523 37.829 23.974 37.829 24.881 39.284 28.996 40.372 31.629 37.427 33.024 32.159 30.08 29.371 30.854 18.62 39.925 9.231 59.671 5.977 59.515 0.189 62.758 1.065 66.265 3.332 72.889 3.808 75.786 2.725 80.279 9.259 90.148 11.339 90.28 13.416 88.076 13.445 86.42 14.961 82.292 18.216 80.742 19.455 79.349 29.681 83.372 33.088 87.866 35.025 88.158 36.342 88.95 39.13 94.682 46.073 98.719 48.116 101.653 50.904 101.963 54.312 106.61 67.313 107.316 70.424 110.018"></polygon>
            </g>
            <g id="division-10" transform="translate(343.000000, 151.000000)">
                <g id="Group">
                    <g id="mecklenburg">
                        <polygon id="Shape" points="14.309 54.368 23.498 66.618 27.622 64.109 31.459 62.33 52.078 40.688 45.313 34.73 40.706 29.807 39.214 24.459 37.678 21.446 35.021 19.109 30.69 15.379 30.691 14.042 32.072 11.697 29.213 4.551 29.826 0.876 11.655 1.285 10.855 2.894 11.042 4.143 11.978 5.539 12.885 7.954 12.676 9.043 11.042 11.276 10.634 12.309 11.042 14.76 8.776 19.493 5.641 33.748 5.353 35.313 5.482 46.342 4.713 47.834 3.278 47.762 3.977 50.373 4.238 52.563 3.278 54.457 0.222 58.044 4.102 61.311"></polygon>
                    </g>
                    <g id="union" transform="translate(23.000000, 40.000000)">
                        <polygon id="Shape" points="51.663 5.402 56.926 2.596 53.169 51.117 4.579 51.322 5.601 34.988 0.498 26.618 5.335 23.779 8.459 22.33 29.078 0.688 35.202 3.959 37.531 4.384 40.089 5.879 40.922 5.997 43.833 5.18 46.229 5.18 48.475 4.568 50.258 4.938"></polygon>
                    </g>
                    <g id="cabarrus" transform="translate(29.000000, 0.000000)">
                        <polygon id="Shape" points="50.23 2.513 31.538 38.51 31.04 39.469 29.611 41.509 29.202 43.959 27.431 43.035 23.078 40.688 16.313 34.73 11.706 29.807 10.214 24.459 8.678 21.446 1.69 15.379 1.691 14.042 3.072 11.697 0.213 4.551 0.826 0.876 6.395 1.124 37.309 2.085 44.629 2.327"></polygon>
                    </g>
                    <g id="stanly" transform="translate(58.000000, 1.000000)">
                        <polygon id="Shape" points="34.298 0.902 34.298 2.381 35.843 3.956 38.586 4.576 40.615 4.845 42.762 5.927 42.875 7.843 43.088 9.386 43.962 12.377 45.323 14.454 46.956 17.437 46.956 19.225 45.323 21.828 43.69 26.219 44.099 36.018 46.956 42.346 45.326 46.02 43.285 44.383 43.02 42.959 41.854 41.729 40.598 42.331 39.608 43.771 37.729 42.959 36.423 44.043 36.635 46.02 35.934 47.447 34.867 47.082 34.184 44.882 33.076 44.18 30.42 45.406 27.44 42.818 27.57 41.324 25.93 38.668 21.926 41.324 16.663 44.402 15.258 43.938 13.475 43.568 11.229 44.18 8.833 44.18 5.922 44.997 4.25 44.391 2.531 43.384 0.202 42.959 0.611 40.509 1.76 38.866 21.23 1.513"></polygon>
                    </g>
                    <g id="anson" transform="translate(76.000000, 39.000000)">
                        <polygon id="Shape" points="43.862 52.525 0.169 52.117 3.926 3.596 7.93 0.668 9.57 3.324 9.44 4.818 12.42 7.406 14.748 6.451 16.184 6.882 16.867 9.082 17.934 9.447 18.635 8.02 18.423 6.043 19.729 4.959 21.608 5.771 22.598 4.331 23.854 3.729 25.02 4.959 25.285 6.383 26.162 7.25 27.326 8.02 27.732 10.875 30.264 16.048 32.521 16.574 34.755 16.66 38.061 14.4 41.493 12.984 43.153 13.816 44.68 15.368 45.355 18.074 47.402 21.83 46.676 27.005 47.131 28.639 48.623 32.232 48.623 34.102 49.682 40.246 49.658 42.385 49.262 43.207 45.087 47.422"></polygon>
                    </g>
                </g>
                <polygon id="Shape" points="0.222 58.044 4.102 61.311 14.309 54.368 23.498 66.618 28.601 74.988 27.579 91.322 76.169 91.117 119.862 91.525 121.087 86.422 124.271 83.207 125.658 81.385 124.623 73.102 124.623 71.232 122.676 66.005 123.402 60.83 121.291 56.813 120.68 54.368 119.153 52.816 117.493 51.984 114.061 53.4 110.755 55.66 106.264 55.048 103.732 49.875 103.529 48.447 103.326 47.02 104.956 43.346 102.099 37.018 101.69 27.219 103.323 22.828 104.956 20.225 104.956 18.437 101.962 13.377 101.088 10.386 100.762 6.927 98.615 5.845 93.843 4.956 92.298 3.381 92.298 1.902 79.23 2.513 35.395 1.124 29.826 0.876 11.655 1.285 10.855 2.894 11.042 4.143 11.978 5.539 12.885 7.954 12.676 9.043 10.634 12.309 11.042 14.76 8.776 19.493 5.353 35.313 5.482 46.342 4.713 47.834 3.278 47.762 3.977 50.373 4.238 52.563 3.278 54.457"></polygon>
            </g>
            <g id="division-9" transform="translate(374.000000, 14.000000)">
                <g id="Group">
                    <g id="rowan" transform="translate(0.000000, 93.000000)">
                        <polygon id="Shape" points="4.395 45.124 48.23 46.513 61.298 45.902 58.475 39.049 58.756 37.426 58.278 36.306 55.543 35.341 55.143 34.737 49.265 28.467 45.543 21.414 40.645 18.476 35.452 16.519 32.498 15.835 31.63 13.575 28.104 11.225 26.025 11.398 24.185 10.638 14.066 2.782 12.537 2.134 10.534 2.115 9.096 0.448 6.157 0.056 0.082 23.178"></polygon>
                    </g>
                    <g id="davie" transform="translate(6.000000, 67.000000)">
                        <polygon id="Shape" points="10.954 31.144 18.185 36.638 20.025 37.398 22.104 37.225 24.322 38.639 25.63 39.575 26.53 38.639 26.415 37.029 23.632 34.604 23.669 33.698 25.041 31.936 23.515 28.442 23.669 27.428 25.15 28.211 26.806 29.583 27.729 28.348 28.828 28.159 29.548 26.448 31.268 27.519 32.488 27.232 32.56 25.521 31.116 21.942 31.729 21.472 34.838 20.375 35.337 15.09 35.036 14.104 32.56 10.92 31.704 9.987 31.302 8.666 27.729 3.136 25.826 0.779 22.495 1.955 21.907 1.563 1.639 0.623 0.157 26.056 3.096 26.448 4.534 28.115 6.537 28.134 8.066 28.782"></polygon>
                    </g>
                    <g id="stokes" transform="translate(31.000000, 0.000000)">
                        <polygon id="Shape" points="2.18 0.549 45.558 1.478 43.977 42.534 0.631 40.981"></polygon>
                    </g>
                    <g id="forsyth" transform="translate(27.000000, 40.000000)">
                        <polygon id="Shape" points="20.339 34.692 30.183 34.199 29.917 31.804 37.899 31.535 46.942 34.199 47.977 2.534 4.631 0.981 4.741 1.561 6.783 3.19 7.188 3.589 7.765 5.048 6.729 7.552 7.458 10.931 7.393 12.543 6.291 14.774 7.558 16.887 7.176 18.178 1.926 20.809 0.513 22.096 0.682 24.837 0.907 28.563 1.495 28.955 4.15 27.843 4.826 27.779 6.729 30.136 9.135 34.05 10.302 35.666 10.704 36.987 11.56 37.92 16.083 34.994"></polygon>
                    </g>
                    <g id="davidson" transform="translate(29.000000, 71.000000)">
                        <polygon id="Shape" points="43.323 67.902 44.942 3.199 35.899 0.535 27.917 0.804 28.183 3.199 14.083 3.994 9.56 6.92 12.036 10.104 12.337 11.616 11.838 16.375 8.729 17.472 8.116 17.942 9.56 21.521 9.488 23.232 8.268 23.519 6.548 22.448 5.828 24.159 4.729 24.348 3.806 25.583 2.15 24.211 0.669 23.428 0.515 24.442 2.041 27.936 1.046 29.214 0.632 30.604 3.415 33.029 3.53 34.639 2.63 35.575 3.498 37.835 5.939 38.326 11.645 40.476 15.25 42.642 16.543 43.414 19.23 48.039 20.265 50.467 23.789 54.014 26.143 56.737 26.543 57.341 29.278 58.306 29.756 59.426 29.475 61.049 30.259 63.009 32.298 67.902"></polygon>
                    </g>
                </g>
                <polygon id="Shape" points="61.298 138.902 72.329 138.694 73.548 85.614 74.977 42.534 76.558 1.478 33.18 0.549 31.631 40.981 34.188 43.589 34.765 45.048 33.729 47.552 34.458 50.931 34.393 52.543 33.291 54.774 34.558 56.887 34.176 58.178 28.926 60.809 27.513 62.096 27.907 68.563 7.639 67.623 6.157 93.056 0.082 116.178 4.395 138.124 48.23 139.513"></polygon>
            </g>
            <g id="division-8" transform="translate(435.000000, 99.000000)">
                <g id="Group">
                    <g id="montgomery" transform="translate(0.000000, 53.000000)">
                        <polygon id="Shape" points="42.766 0.902 49.299 26.422 49.502 31.322 53.791 36.223 55.016 40.509 58.283 42.753 53.586 44.794 49.377 43.883 41.207 43.77 38.617 42.753 36.504 42.331 32.824 43.511 27.251 44.997 22.882 44.997 19.774 46.02 15.613 48.059 11.529 47.447 11.326 46.02 12.956 42.346 10.099 36.018 9.69 26.219 11.323 21.828 12.956 19.225 12.956 17.437 9.962 12.377 9.088 9.386 8.762 5.927 6.615 4.845 1.843 3.956 0.298 2.381 0.298 0.902"></polygon>
                    </g>
                    <g id="richmond" transform="translate(11.000000, 95.000000)">
                        <polygon id="Shape" points="29.951 48.426 43.607 48.322 47.896 46.891 48.711 40.768 53.814 37.092 51.773 30.559 52.762 26.338 55.246 23.559 64.434 19.127 60.145 15.654 54.02 14.953 51.773 13.613 52.301 9.219 52.182 7.081 49.119 3.814 47.283 0.753 42.586 2.794 37.883 1.729 30.207 1.77 27.617 0.753 25.504 0.331 16.251 2.997 11.882 2.997 8.774 4.02 4.613 6.059 0.529 5.447 0.732 6.875 3.264 12.048 5.521 12.574 7.755 12.66 11.061 10.4 14.493 8.984 16.153 9.816 17.68 11.368 18.291 13.813 20.402 17.83 19.676 23.005 21.623 28.232 21.623 30.102 22.682 36.246 22.658 38.385 21.271 40.207 18.087 43.422 16.862 48.525"></polygon>
                    </g>
                    <g id="scotland" transform="translate(54.000000, 114.000000)">
                        <polygon id="Shape" points="23.883 50.963 0.607 29.322 4.896 27.891 5.711 21.768 10.814 18.092 8.773 11.559 9.762 7.338 12.246 4.559 15.748 2.859 21.434 0.127 22.861 1.555 26.748 4.005 32.459 10.945 32.867 17.275 34.457 21.564 34.533 23.012 33.988 24.588 33.273 26.668 35.316 35.445"></polygon>
                    </g>
                    <g id="hoke" transform="translate(75.000000, 91.000000)">
                        <polygon id="Shape" points="38.791 9.389 38.791 14.793 41.707 25.881 43.082 28.428 45.35 33.133 44.127 34.764 30.854 49.259 12.273 49.668 13.533 46.012 13.457 44.564 11.867 40.275 11.459 33.945 6.559 27.82 1.861 24.555 0.434 23.127 13.732 8.02 25.34 0.264 34.467 4.117 37.34 4.331 39.223 3.324"></polygon>
                    </g>
                    <g id="moore" transform="translate(42.000000, 52.000000)">
                        <polygon id="Shape" points="21.182 50.081 21.301 52.219 20.773 56.613 23.02 57.953 27.098 58.413 29.145 58.654 31.936 60.646 33.434 62.127 36.943 58.141 45.934 47.518 58.34 39.264 67.467 43.117 70.34 43.331 72.223 42.324 69.773 41.141 68.018 40.059 66.82 37.598 59.564 32.119 62.625 27.863 60.178 25.379 56.762 22.931 53.848 21.501 51.109 18.616 48.336 13.944 42.211 4.965 44.734 1.902 45.477 1.288 45.682 0.471 27.02 1.124 11.59 1.492 0.766 1.902 7.299 27.422 7.502 32.322 11.791 37.223 13.016 41.509 16.283 43.753 18.119 46.814"></polygon>
                    </g>
                    <g id="randolph" transform="translate(11.000000, 0.000000)">
                        <polygon id="Shape" points="53.814 53.288 31.766 53.902 0.329 53.694 1.657 0.612 30.203 2.494 54.352 3.472"></polygon>
                    </g>
                    <g id="chatham" transform="translate(64.000000, 5.000000)">
                        <polygon id="Shape" points="14.496 47.753 23.682 47.471 23.271 46.247 26.949 43.797 27.139 42.373 28.377 41.959 32.256 43.388 33.428 41.755 33.945 40.27 36.137 39.305 37.359 40.122 38.586 37.672 40.654 36.002 44.854 32.278 47.16 31.343 50.793 32.999 52.85 34.688 54.598 38.218 56.525 40.972 57.857 42.174 59.387 42.769 62.268 44.818 66.305 38.696 57.162 36.241 66.555 2.758 56.959 2.964 48.385 2.964 32.664 0.718 34.299 4.801 1.223 5.21 0.814 48.288"></polygon>
                    </g>
                    <g id="lee" transform="translate(84.000000, 36.000000)">
                        <polygon id="Shape" points="17.359 9.122 18.586 6.672 20.654 5.002 22.699 3.256 26.037 0.731 27.16 0.343 30.793 1.999 32.85 3.688 33.672 5.584 35.324 8.508 36.959 10.504 37.857 11.174 39.387 11.769 42.268 13.818 20.625 43.863 18.178 41.379 16.746 40.133 11.848 37.501 10.373 36.365 8.098 33.212 6.336 29.944 1.867 23.534 0.211 20.965 2.734 17.902 3.477 17.288 3.271 15.247 5.047 14.225 6.949 12.797 7.139 11.373 8.377 10.959 12.256 12.388 13.428 10.755 13.945 9.27 16.137 8.305"></polygon>
                    </g>
                </g>
                <polygon id="Shape" points="54.607 143.322 77.883 164.963 89.316 149.445 87.273 140.668 105.854 140.259 119.127 125.764 120.35 124.133 116.707 116.881 113.791 105.793 114.223 94.324 110.018 92.059 108.82 89.598 101.564 84.119 104.626 79.863 130.352 44.101 121.162 41.241 130.555 7.758 120.959 7.964 112.385 7.964 96.664 5.718 98.299 9.801 65.223 10.21 65.352 3.472 42.766 2.636 12.548 0.614 11.329 53.694 0.298 53.902 0.298 55.381 1.843 56.956 6.615 57.845 8.762 58.927 9.088 62.386 9.962 65.377 12.956 70.437 12.956 72.225 11.323 74.828 9.69 79.219 10.099 89.018 12.956 95.346 11.326 99.02 11.732 101.875 14.264 107.048 18.755 107.66 22.061 105.4 25.493 103.984 27.153 104.816 28.68 106.368 29.291 108.813 31.402 112.83 30.676 118.005 32.623 123.232 32.623 125.102 33.658 133.385 29.087 138.422 27.862 143.525"></polygon>
            </g>
            <g id="division-7" transform="translate(447.000000, 15.000000)">
                <g id="Group">
                    <g id="guilford" transform="translate(0.000000, 41.000000)">
                        <polygon id="Shape" points="1.977 0.534 54.244 0.534 53.352 46.472 30.766 45.636 24.678 45.08 0.548 43.614"></polygon>
                    </g>
                    <g id="rockingham" transform="translate(1.000000, 0.000000)">
                        <polygon id="Shape" points="2.558 0.478 54.301 1.716 53.244 41.534 0.977 41.534"></polygon>
                    </g>
                    <g id="caswell" transform="translate(54.000000, 1.000000)">
                        <polygon id="Shape" points="1.301 0.716 40.65 0.872 39.596 40.689 0.244 40.534"></polygon>
                    </g>
                    <g id="alamance" transform="translate(53.000000, 41.000000)">
                        <polygon id="Shape" points="33.299 52.801 0.223 53.21 1.244 0.534 29.84 0.536 29.01 41.164 31.051 44.022 31.664 48.718"></polygon>
                    </g>
                    <g id="orange" transform="translate(82.000000, 41.000000)">
                        <polygon id="Shape" points="0.01 41.164 0.84 0.536 11.596 0.689 32.064 2.167 26.959 50.964 18.385 50.964 2.664 48.718 2.051 44.022"></polygon>
                    </g>
                </g>
                <polygon id="Shape" points="94.65 1.872 93.596 41.689 114.064 43.167 108.959 91.964 100.385 91.964 84.664 89.718 86.299 93.801 53.223 94.21 53.352 87.472 30.766 86.636 0.548 84.614 1.977 41.534 3.558 0.478 55.301 1.716"></polygon>
            </g>
            <g id="division-6" transform="translate(512.000000, 143.000000)">
                <g id="Group">
                    <g id="harnett" transform="translate(24.000000, 0.000000)">
                        <polygon id="Shape" points="59.363 45.018 66.156 35.456 69.777 32.359 66.918 27.664 65.473 25.212 62.891 19.389 57.117 10.719 56.406 10.049 53.648 6.225 29.352 0.101 0.564 40.119 7.82 45.598 8.617 46.961 9.018 48.059 11.469 49.566 13.223 50.324 34.266 45.404 36.297 43.994 50.383 40.73"></polygon>
                    </g>
                    <g id="cumberland" transform="translate(36.000000, 40.000000)">
                        <polygon id="Shape" points="59.047 54.994 64.309 51.564 62.27 47.688 60.33 45.152 57.289 42.385 52.096 37.9 50.559 36.143 49.814 34.416 49.23 32.79 47.363 29.723 46.75 24.208 46.75 20.736 48.793 18.695 48.385 16.447 49.406 14.202 49.252 11.753 49.545 10.324 49.201 7.875 49.406 5.629 47.363 5.018 38.383 0.73 24.297 3.994 22.266 5.404 1.223 10.324 0.791 21.793 3.707 32.881 7.35 40.133 6.127 41.764 10.848 44.663 14.861 47.509 16.955 49.904 18.201 51.928 18.34 54.917 20.416 57.404 27.561 54.628"></polygon>
                    </g>
                    <g id="robeson" transform="translate(0.000000, 81.000000)">
                        <polygon id="Shape" points="42.736 83.449 43.873 80.125 45.324 78.597 46.645 75.345 47.141 73.605 49.119 71.604 50.291 70.875 52.764 64.959 60.266 63.053 63.152 61.605 63.979 51.506 63.699 49.761 63.428 48.284 64.449 45.25 67.168 39.963 67.855 34.314 67.406 32.188 66.248 30.395 64.172 27.262 59.885 20.566 54.34 13.917 54.201 10.928 52.955 8.904 50.861 6.509 48.215 4.503 42.127 0.764 28.854 15.259 10.273 15.668 12.316 24.445 0.883 39.963"></polygon>
                    </g>
                    <g id="bladen" transform="translate(56.000000, 91.000000)">
                        <polygon id="Shape" points="12.053 52.625 23.449 51.288 25.707 51.385 28.352 52.115 31.244 52.422 51.66 62.631 64.727 63.242 68.492 60.863 70.457 59.965 71.463 59.771 80.244 50.79 71.463 45.275 70.648 37.314 67.457 34.092 66.041 33.229 65.559 32.107 64.727 28.333 63.508 26.293 63.029 24.922 60.428 21.838 59.623 21.391 58.842 20.898 56.115 16.438 55.623 15.15 54.205 13.633 53.766 12.078 48.955 5.787 44.309 0.564 39.047 3.994 7.561 3.628 0.416 6.404 3.34 9.912 11.406 22.188 11.855 24.314 11.168 29.963 8.449 35.25 7.428 38.284 7.979 41.506 7.152 51.605"></polygon>
                    </g>
                    <g id="columbus" transform="translate(42.000000, 142.000000)">
                        <polygon id="Shape" points="43.814 66.55 46.313 65.015 46.783 63.955 46.783 61.258 47.285 59.813 51.58 56.264 52.088 55.074 54.023 53.686 54.023 51.482 55.145 44.368 57.283 40.664 59.277 38.973 68.518 42.457 70.977 40.498 72.807 37.763 74.439 33.68 87.098 31.434 95.877 12.855 93.469 14.387 91.59 14.692 90.158 11.833 88.117 11.016 87.584 9.383 85.463 8.771 83.385 9.383 78.727 12.242 65.66 11.631 45.244 1.422 42.352 1.115 39.707 0.385 37.449 0.288 26.053 1.625 21.152 0.605 18.266 2.053 10.764 3.959 8.291 9.875 7.119 10.604 5.141 12.605 4.645 14.345 3.324 17.597 1.873 19.125 0.736 22.449"></polygon>
                    </g>
                </g>
                <polygon id="Shape" points="77.648 6.225 80.406 10.049 86.891 19.389 89.945 26.105 93.777 32.359 90.156 35.456 83.363 45.018 85.406 45.629 85.201 47.875 85.545 50.324 85.252 51.753 85.406 54.202 84.385 56.447 84.793 58.695 82.75 60.736 83.363 69.723 85.23 72.79 86.559 76.143 88.096 77.9 96.33 85.152 98.27 87.688 100.309 91.564 109.766 103.078 110.205 104.633 111.623 106.15 112.115 107.438 114.842 111.898 116.428 112.838 119.029 115.922 119.508 117.293 120.727 119.333 121.559 123.107 122.041 124.229 123.457 125.092 126.648 128.314 126.9 130.761 127.463 136.275 136.244 141.79 127.463 150.771 129.584 151.383 130.117 153.016 132.158 153.833 133.59 156.692 135.469 156.387 137.877 154.855 129.098 173.434 116.439 175.68 114.807 179.763 112.977 182.498 110.518 184.457 101.277 180.973 99.283 182.664 97.145 186.368 96.023 193.482 96.023 195.686 94.088 197.074 93.58 198.264 89.285 201.813 88.783 203.258 88.783 205.955 88.313 207.015 85.814 208.55 42.736 164.449 0.883 120.963 12.316 105.445 10.273 96.668 28.854 96.259 42.127 81.764 43.35 80.133 39.707 72.881 36.791 61.793 37.223 50.324 33.018 48.059 31.82 45.598 24.564 40.119 53.352 0.101"></polygon>
            </g>
            <g id="division-5" transform="translate(540.000000, 13.000000)">
                <g id="Group">
                    <g id="person" transform="translate(0.000000, 3.000000)">
                        <polygon id="Shape" points="33.719 1.027 34.129 42.167 21.064 42.167 0.596 40.689 1.65 0.872"></polygon>
                    </g>
                    <g id="durham" transform="translate(15.000000, 45.000000)">
                        <polygon id="Shape" points="19.129 14.664 25.051 17.727 30.199 22.218 31.379 27.73 26.684 39.777 20.355 39.571 16.068 48.758 10.555 48.758 0.959 48.964 6.064 0.167 19.129 0.167"></polygon>
                    </g>
                    <g id="wake" transform="translate(16.000000, 63.000000)">
                        <polygon id="Shape" points="0.162 64.241 9.555 30.758 15.068 30.758 19.355 21.571 25.684 21.777 30.379 9.73 28.543 1.155 30.379 0.878 34.732 2.023 44.877 8.504 57.393 13.619 58.66 14.036 61.068 17.165 62.637 20.142 64.885 20.551 67.947 23.817 69.004 24.801 73.455 27.441 74.07 28.106 75.666 30.565 77.742 33.21 55.084 50.562 33.648 73.225 9.352 67.101"></polygon>
                    </g>
                    <g id="granville" transform="translate(33.000000, 4.000000)">
                        <polygon id="Shape" points="35.27 0.802 35.578 4.519 34.67 5.942 33.643 8.621 37.592 45.108 29.51 55.051 28.652 57.52 28.139 60.893 27.877 67.504 17.732 61.023 13.379 59.878 11.543 60.155 12.199 63.218 7.051 58.727 1.129 55.664 0.719 0.027"></polygon>
                    </g>
                    <g id="franklin" transform="translate(60.000000, 38.000000)">
                        <polygon id="Shape" points="46.607 7.167 44.547 4.857 43.34 3.288 39.721 2.089 37.463 1.785 26.396 0.227 19.252 6.964 18.637 12.273 10.592 11.108 2.51 21.051 1.652 23.52 1.139 26.893 0.877 33.504 14.66 39.036 17.068 42.165 18.637 45.142 20.885 45.551 23.947 48.817 29.455 52.441 30.07 53.106 31.666 55.565 33.742 58.21 58.041 9.21 53.754 6.759"></polygon>
                    </g>
                    <g id="warren" transform="translate(83.000000, 0.000000)">
                        <polygon id="Shape" points="29.756 1.448 47.701 0.463 44.889 8.288 43.207 28.814 35.041 47.21 30.754 44.759 23.607 45.167 20.34 41.288 16.721 40.089 3.396 38.227 6.932 34.256 7.916 32.754 0.76 4.492 26.41 1.918"></polygon>
                    </g>
                    <g id="vance" transform="translate(66.000000, 4.000000)">
                        <polygon id="Shape" points="17.76 0.492 24.916 28.754 23.932 30.256 20.396 34.227 13.252 40.964 12.637 46.273 4.592 45.108 0.643 8.621 1.67 5.942 2.578 4.519 2.27 0.802"></polygon>
                    </g>
                </g>
                <polygon id="Shape" points="33.719 4.027 68.27 4.802 83.76 4.492 112.756 1.448 130.701 0.463 127.889 8.288 126.207 28.814 118.041 47.21 93.742 96.21 71.084 113.562 49.648 136.225 25.352 130.101 16.162 127.241 25.555 93.758 15.959 93.964 21.064 45.167 0.596 43.689 1.65 3.872"></polygon>
            </g>
            <g id="division-4" transform="translate(589.000000, 13.000000)">
                <g id="Group">
                    <g id="johnston" transform="translate(0.000000, 96.000000)">
                        <polygon id="Shape" points="0.648 40.225 4.617 35.935 22.084 17.562 44.742 0.21 44.135 4.906 46.496 9.858 50.721 12.751 53.117 15.317 58.629 27.568 64.959 31.039 56.178 51.249 55.975 62.481 51.211 64.61 43.684 66.925 42.508 67.176 41.156 68.129 40.004 69.99 38.621 71.668 35.764 73.303 27.393 72.893 12.488 70.851 13.156 69.456 16.777 66.359 12.945 60.105 9.891 53.389"></polygon>
                    </g>
                    <g id="nash" transform="translate(44.000000, 47.000000)">
                        <polygon id="Shape" points="39.896 44.796 40.891 45.401 42.504 46.259 43.787 45.53 45.893 43.774 46.752 42.317 47.152 40.528 47.152 39.058 53.352 15.276 59.145 6.307 59.145 5.092 58.078 5.092 54.422 6.186 52.971 5.671 46.752 6.698 43.746 5.671 37.395 6.136 33.021 1.696 31.357 1.423 30.402 2 25.041 0.21 0.742 49.21 0.135 53.906 2.496 58.858 6.721 61.751"></polygon>
                    </g>
                    <g id="wilson" transform="translate(50.000000, 90.000000)">
                        <polygon id="Shape" points="24.262 37.283 40.441 35.662 57.068 22.736 50.938 15.53 48.91 11.503 46.781 3.998 45.328 2.521 43.445 1.477 40.188 0.273 37.787 2.53 36.504 3.259 34.891 2.401 33.896 1.796 0.721 18.751 3.117 21.317 8.629 33.568 14.959 37.039"></polygon>
                    </g>
                    <g id="wayne" transform="translate(40.000000, 125.000000)">
                        <polygon id="Shape" points="51.502 21.943 51.043 17.531 50.441 0.662 34.262 2.283 24.959 2.039 16.178 22.249 15.975 33.481 11.211 35.61 3.684 37.925 2.508 38.176 1.156 39.129 0.004 40.99 8.682 47.669 17.521 53.1 22.578 54.98 24.588 55.083 31.514 53.336 33.09 53.59 35.479 54.88 37.037 55.807 38.895 55.861 41.506 55.1 42.645 55.198 45.275 56.48 47.033 57.1 52.441 54.275 52.441 31.703 52.746 29.79 54.322 27.705 54.17 26.512 53.428 25.005"></polygon>
                    </g>
                    <g id="edgecombe" transform="translate(90.000000, 52.000000)">
                        <polygon id="Shape" points="49.701 31 43.291 17.402 37.314 15.022 30.877 13.548 29.879 12.36 28.848 7.412 27.504 6.006 21.137 4.699 17.574 0.825 14.703 1.434 13.145 1.307 7.352 10.276 1.152 34.058 1.152 35.528 0.752 37.317 0.188 38.273 3.445 39.477 5.328 40.521 6.781 41.998 8.91 49.503 10.938 53.53 17.068 60.736 36.229 45.837 45.799 39.692 48.814 40.401"></polygon>
                    </g>
                    <g id="halifax" transform="translate(69.000000, 0.000000)">
                        <polygon id="Shape" points="12.395 53.136 18.746 52.671 21.752 53.698 27.971 52.671 29.422 53.186 33.078 52.092 34.145 52.092 34.145 53.307 35.703 53.434 38.574 52.825 42.137 56.699 48.504 58.006 49.848 59.412 50.879 64.36 51.877 65.548 58.314 67.022 64.291 69.402 72.832 59.412 75.24 56.492 77.814 55.582 81.348 55.193 82.482 54.328 81.844 53.159 80.441 51.674 80.096 51.123 78.975 49.883 78.654 48.368 76.996 47.559 72.348 44.771 66.307 41.672 67.346 37.149 67.08 36.561 63.33 34.235 62.898 30.888 60.531 27.578 59.625 27.234 56.689 27.995 51.828 29.339 47.916 28.85 46.043 26.82 46.117 23.892 47.771 20.172 48.582 17.019 47.703 15.091 46.15 14.037 43.684 14.407 42.287 12.737 39.66 11.309 39.08 8.796 38.195 7.759 32.207 5.834 27.773 3.795 25.445 3.136 22.666 3.199 18.268 3.193 15.348 2.222 13.689 1.152 12.701 0.463 9.889 8.288 8.207 28.814 0.041 47.21 5.402 49 6.357 48.423 8.021 48.696"></polygon>
                    </g>
                </g>
                <polygon id="Shape" points="87.268 3.193 94.445 3.136 96.773 3.795 101.207 5.834 107.195 7.759 108.08 8.796 108.66 11.309 111.287 12.737 112.684 14.407 115.15 14.037 116.703 15.091 117.582 17.019 116.771 20.172 115.117 23.892 115.043 26.82 116.916 28.85 120.828 29.339 128.625 27.234 129.531 27.578 131.898 30.888 132.33 34.235 136.08 36.561 136.346 37.149 135.307 41.672 141.348 44.771 145.996 47.559 147.654 48.368 147.975 49.883 149.096 51.123 149.441 51.674 150.844 53.159 151.482 54.328 150.348 55.193 146.814 55.582 144.24 56.492 141.832 59.412 133.291 69.402 139.701 83 138.814 92.401 135.799 91.692 126.229 97.837 107.068 112.736 90.441 125.662 91.043 142.531 91.502 146.943 93.428 150.005 94.17 151.512 94.322 152.705 92.746 154.79 92.441 156.703 92.441 179.275 87.033 182.1 82.645 180.198 81.506 180.1 78.895 180.861 77.037 180.807 73.09 178.59 71.514 178.336 64.588 180.083 62.578 179.98 57.521 178.1 48.682 172.669 40.004 165.99 38.621 167.668 35.764 169.303 27.393 168.893 12.488 166.851 13.156 165.456 16.777 162.359 12.945 156.105 9.891 149.389 0.648 136.225 22.084 113.562 44.742 96.21 69.041 47.21 77.207 28.814 78.889 8.288 81.701 0.463 84.348 2.222"></polygon>
            </g>
            <g id="division-3" transform="translate(594.000000, 178.000000)">
                <g id="Group">
                    <g id="sampson">
                        <polygon id="Shape" points="59.225 74.593 50.523 69.771 54.285 51.195 54.049 28.738 51.889 21.271 52.521 13.1 43.682 7.669 35.004 0.99 33.621 2.668 30.764 4.303 22.393 3.893 14.33 2.68 7.488 1.851 1.363 10.018 3.406 10.629 3.201 12.875 3.545 15.324 3.252 16.753 3.406 19.202 2.385 21.447 2.793 23.695 0.75 25.736 1.363 34.723 3.23 37.79 3.814 39.416 4.559 41.143 6.096 42.9 14.33 50.152 16.27 52.688 18.309 56.564 22.955 61.787 27.766 68.078 28.205 69.633 29.623 71.15 30.115 72.438 32.842 76.898 33.623 77.391 34.428 77.838 37.029 80.922 37.508 82.293 38.727 84.333 39.559 88.107 40.041 89.229 41.457 90.092 44.648 93.314 44.9 95.761 56.168 76.826"></polygon>
                    </g>
                    <g id="duplin" transform="translate(50.000000, 13.000000)">
                        <polygon id="Shape" points="53.838 27.732 54.818 29.907 55.811 33.525 56.406 38.374 56.406 43.564 56.406 47.55 55.9 57.594 24.418 59.225 23.111 59.225 22.129 58.943 10.869 59.006 10.316 59.594 9.93 61.121 9.225 61.593 0.523 56.771 4.285 38.195 4.049 15.738 1.889 8.271 2.521 0.1 7.578 1.98 9.588 2.083 16.514 0.336 18.09 0.59 20.479 1.88 22.037 2.807 23.895 2.861 26.506 2.1 27.645 2.198 30.275 3.48 32.033 4.1 37.441 1.275 38.846 1.527 40.658 2.089 42.15 2.813 43.438 3.798 44.613 5.627 45.252 8.585 45.561 12.18 45.436 18.678 45.834 19.539 48.279 21.957 49.904 23.371 51.795 25.041"></polygon>
                    </g>
                    <g id="pender" transform="translate(44.000000, 70.000000)">
                        <polygon id="Shape" points="62.725 46.331 64.135 47.742 66.852 45.591 70.834 41.51 70.271 39.713 70.365 38.572 71.072 38.572 72.482 39.98 74.127 38.572 76.479 37.159 78.244 33.633 73.775 28.577 61.9 0.594 29.111 2.225 28.129 1.943 16.869 2.006 16.316 2.594 15.93 4.121 12.168 6.826 0.9 25.761 1.463 31.275 10.244 36.79 1.463 45.771 3.584 46.383 4.117 48.016 6.158 48.833 7.59 51.692 9.469 51.387 11.877 49.855 15.828 48.855 17.592 50.671 21.266 51.285 21.883 52.51 23.104 51.895 24.533 53.529 28.414 53.529 30.252 48.223 35.15 48.833 38.213 46.996 40.662 48.631 43.318 46.588 46.195 46.834 47.145 46.383 48.504 44.701 49.236 44.343 49.736 44.651 50.203 45.591 51.543 49.438 57.43 55.15 59.121 53.004 61.313 50.211"></polygon>
                    </g>
                    <g id="new-hanover" transform="translate(72.000000, 114.000000)">
                        <polygon id="Shape" points="5.516 72.005 6.166 72.574 7.355 72.819 8.375 64.859 11.232 58.324 12.662 50.16 13.887 46.485 13.07 44.035 13.887 38.226 16.258 32.689 17.971 29.332 17.031 26.418 26.734 15.818 27.361 11.979 29.43 11.15 23.543 5.438 21.736 0.651 21.236 0.343 20.504 0.701 19.145 2.383 18.195 2.834 15.318 2.588 12.662 4.631 10.213 2.996 7.15 4.833 2.252 4.223 0.414 9.529 0.207 12.594 2.252 15.248 1.025 17.491 3.068 18.717 5.516 22.801 5.162 27.258 5.713 27.906 9.012 35.492 10.314 38.226 10.352 46.756 10.121 58.22 9.416 59.55 7.285 65.01 6.947 67.51 6.088 66.203 5.313 65.879 4.738 67.104 2.961 68.065 1.398 69.424 1.135 70.319 1.756 71.005 2.961 71.596"></polygon>
                        <polygon id="Shape" points="7.355 72.819 8.375 64.859 11.232 58.324 12.662 50.16 13.887 46.485 13.07 44.035 13.887 38.226 16.258 32.689 17.971 29.332 17.031 26.418 26.734 15.818 27.361 11.979 29.43 11.15 23.543 5.438 21.736 0.651 21.236 0.343 20.504 0.701 19.145 2.383 18.195 2.834 15.318 2.588 12.662 4.631 10.213 2.996 7.15 4.833 2.252 4.223 0.414 9.529 0.207 12.594 2.252 15.248 1.025 17.491 3.068 18.717 5.516 22.801 5.107 27.906 7.764 42.809 7.355 45.054 7.289 47.365 6.947 47.914 5.516 54.444 3.537 59.55 0.713 62.691 0.004 64.404 0.004 66.694 1.135 70.319 2.961 71.596 5.516 72.005 6.166 72.574"></polygon>
                    </g>
                    <g id="brunswick" transform="translate(3.000000, 118.000000)">
                        <polygon id="Shape" points="73.307 43.359 70.434 45.137 71.961 41.559 76.764 38.809 75.424 29.6 74.107 23.906 74.516 18.801 72.068 14.717 70.025 13.491 71.252 11.248 69.207 8.594 69.414 5.529 65.533 5.529 64.104 3.895 62.883 4.51 62.266 3.285 58.592 2.671 56.828 0.855 52.877 1.855 44.098 20.434 31.439 22.68 29.807 26.763 27.977 29.498 25.518 31.457 16.277 27.973 14.283 29.664 12.145 33.368 11.023 40.482 11.023 42.686 9.088 44.074 8.58 45.264 4.285 48.813 3.783 50.258 3.783 52.955 3.313 54.015 0.814 55.55 12.248 67.596 15.244 65.146 29.195 61.676 31.439 56.979 32.797 58.314 31.848 61.266 41.33 60.611 46.752 57.796 46.752 55.55 50.406 58.202 49.713 59.134 47.623 59.806 47.158 60.244 58.113 60.918 65.592 62.446 69.004 62.694 69.004 60.404 69.713 58.691 72.389 55.932 74.516 50.444 75.947 43.914 76.289 43.365 76.355 41.054 75.309 42.702"></polygon>
                        <polygon id="Shape" points="20.414 67.188 29.195 63.104 23.068 64.531"></polygon>
                    </g>
                    <g id="onslow" transform="translate(103.000000, 38.000000)">
                        <polygon id="Shape" points="28.508 28.982 30.994 31.643 33.316 30.902 34.895 30.934 32.941 32.708 32.955 33.754 36.006 35.773 34.895 37.316 35.639 38.452 37.199 39.221 39.166 41.65 41.172 42.936 39.494 43.822 36.33 47.227 32.797 48.395 32.234 48.846 32.346 49.902 35.781 50.268 37.686 49.902 39.682 50.973 38.975 54.521 44.555 51.521 49.143 46.461 52.592 43.322 51.697 42.459 51.389 41.574 52.592 41.229 53.518 41.93 57.596 38.561 54.936 34.124 56.926 35.014 59.547 37.139 62.031 34.657 61.67 30.693 60.434 26.854 52.098 21.71 51.674 20.618 52.805 19.051 52.072 17.697 42.709 7.461 39.133 4.785 37.496 4.755 35.529 5.846 33.299 8.23 21.084 2.809 19.475 1.896 17.711 1.46 15.859 1.629 14.561 1.893 12.551 1.689 8.469 0.98 5.156 0.463 4.107 0.428 3.406 0.678 2.025 1.535 0.838 2.732 1.818 4.907 2.811 8.525 3.406 13.374 3.406 18.564 3.406 22.55 2.9 32.594 14.775 60.577 19.244 65.633 22.09 64.85 23.65 63.455 25.625 62.906 25.848 61.261 28.688 61.971 30.938 59.873 31.348 58.777 35.957 57.761 34.895 55.585 36.492 54.697 34.361 52.925 34.029 51.764 31.494 52.557 28.809 49.902 28.863 48.314 26.381 47.428 27.58 46.461 33.521 45.879 35.602 42.993 35.254 41.229 32.773 38.452 31.701 35.898 30.945 35.637 27.418 36.593 28.688 33.771"></polygon>
                        <polygon id="Shape" points="35.957 57.761 38.975 54.521 44.555 51.521 49.143 46.461 52.592 43.322 53.518 41.93 57.596 38.561 59.547 37.139 62.031 34.657 61.67 30.693 60.434 26.854 55.092 23.68 52.098 21.71 51.674 20.618 52.805 19.051 52.072 17.697 42.709 7.461 39.133 4.785 37.496 4.755 35.529 5.846 33.299 8.23 21.084 2.809 19.475 1.896 17.711 1.46 14.561 1.893 12.551 1.689 5.156 0.463 4.107 0.428 3.406 0.678 2.025 1.535 0.838 2.732 1.818 4.907 2.811 8.525 3.406 13.374 3.406 18.564 3.406 22.55 2.9 32.594 14.775 60.577 19.244 65.633 22.09 64.85 23.65 63.455 25.625 62.906 28.688 61.971 30.938 59.873 31.348 58.777"></polygon>
                    </g>
                </g>
                <polygon id="Shape" points="15.248 185.596 18.244 183.146 23.414 185.188 32.195 181.104 34.848 179.266 44.33 178.611 49.752 175.796 49.752 173.55 53.406 176.202 52.713 177.134 50.623 177.806 50.158 178.244 61.113 178.918 68.592 180.446 72.004 180.694 73.135 184.319 73.756 185.005 74.961 185.596 77.516 186.005 78.166 186.574 79.355 186.819 80.375 178.859 83.232 172.324 84.662 164.16 85.887 160.485 85.07 158.035 85.887 152.226 88.258 146.689 89.971 143.332 89.031 140.418 98.734 129.818 99.361 125.979 101.43 125.15 105.313 120.211 106.725 116.331 108.135 117.742 110.852 115.591 114.834 111.51 114.271 109.713 114.365 108.572 115.072 108.572 116.482 109.98 118.127 108.572 120.479 107.159 122.244 103.633 125.09 102.85 126.65 101.455 128.625 100.906 128.848 99.261 131.688 99.971 133.938 97.873 134.348 96.777 138.957 95.761 137.895 93.585 141.975 92.521 147.555 89.521 152.143 84.461 155.592 81.322 154.697 80.459 154.389 79.574 155.592 79.229 156.518 79.93 160.596 76.561 157.936 72.124 159.926 73.014 162.547 75.139 165.031 72.657 164.67 68.693 163.434 64.854 158.092 61.68 155.098 59.71 154.674 58.618 155.805 57.051 155.072 55.697 145.709 45.461 142.133 42.785 140.496 42.755 138.529 43.846 136.299 46.23 124.084 40.809 122.475 39.896 120.711 39.46 118.859 39.629 117.561 39.893 115.551 39.689 108.156 38.463 107.107 38.428 106.406 38.678 105.025 39.535 103.838 40.732 101.795 38.041 98.279 34.957 95.834 32.539 95.436 31.678 95.561 25.18 95.252 21.585 94.613 18.627 93.438 16.798 92.15 15.813 90.658 15.089 88.846 14.527 87.441 14.275 82.033 17.1 80.275 16.48 77.645 15.198 76.506 15.1 73.895 15.861 72.037 15.807 68.09 13.59 66.514 13.336 59.588 15.083 57.578 14.98 52.521 13.1 43.682 7.669 35.004 0.99 33.621 2.668 30.764 4.303 22.393 3.893 7.488 1.851 1.363 10.018 3.406 10.629 3.201 12.875 3.545 15.324 3.252 16.753 3.406 19.202 2.385 21.447 2.793 23.695 0.75 25.736 1.363 34.723 3.23 37.79 4.559 41.143 6.096 42.9 14.33 50.152 16.27 52.688 18.309 56.564 27.766 68.078 28.205 69.633 29.623 71.15 32.842 76.898 34.428 77.838 37.029 80.922 37.508 82.293 38.727 84.333 39.559 88.107 40.041 89.229 41.457 90.092 44.648 93.314 45.463 101.275 54.244 106.79 45.463 115.771 47.584 116.383 48.117 118.016 50.158 118.833 51.59 121.692 53.469 121.387 55.877 119.855 47.098 138.434 34.439 140.68 32.807 144.763 30.977 147.498 28.518 149.457 19.277 145.973 17.283 147.664 15.145 151.368 14.023 158.482 14.023 160.686 12.088 162.074 11.58 163.264 7.285 166.813 6.783 168.258 6.783 170.955 6.313 172.015 3.814 173.55"></polygon>
            </g>
            <g id="division-2" transform="translate(679.000000, 104.000000)">
                <g id="Group">
                    <g id="jones" transform="translate(13.000000, 78.000000)">
                        <polygon id="Shape" points="32.875 2.99 55.789 18.473 57.373 22.088 57.988 22.62 61.865 21.805 64.336 19.33 65.578 23.58 65.947 26.348 64.926 29.795 66.217 50.957 72.35 50.566 68.963 54.48 67.475 55.58 66.408 55.885 64.723 55.887 62.471 56.479 60.092 57.68 57.098 55.71 56.674 54.618 57.805 53.051 57.072 51.697 47.709 41.461 44.133 38.785 42.496 38.755 40.529 39.846 38.299 42.23 26.084 36.809 24.475 35.896 22.711 35.46 20.859 35.629 19.561 35.893 17.551 35.689 13.469 34.98 10.156 34.463 9.107 34.428 8.406 34.678 7.025 35.535 5.838 36.732 3.795 34.041 0.279 30.957 5.334 28.006 12.568 23.1 14.133 21.68 21.822 11.98 22.479 10.395 20.951 0.871 30.549 2.32"></polygon>
                    </g>
                    <g id="lenoir" transform="translate(2.000000, 53.000000)">
                        <polygon id="Shape" points="40.08 7.178 42.803 9.353 43.785 9.63 46.945 11.904 44.469 11.48 43.004 11.763 41.336 14.041 40.314 16.139 40.08 18.265 41.375 21.444 41.352 22.717 40.682 23.365 38.385 24.188 31.951 25.871 33.479 35.395 32.822 36.98 31.117 39.467 25.133 46.68 23.568 48.1 20.836 50.089 16.334 53.006 11.279 55.957 8.834 53.539 8.436 52.678 8.561 46.18 8.252 42.585 7.613 39.627 6.438 37.798 5.15 36.813 3.658 36.089 1.846 35.527 0.441 35.275 0.441 12.703 0.746 10.79 2.322 8.705 4.207 8.574 6.732 7.639 7.936 7.107 9.945 6.873 12.35 7.365 14.258 8.574 16.688 9.883 18.264 10.194 19.68 9.944 22.463 8.574 25.711 7.283 27.865 7.308 29.434 6.93 29.479 5.64 29.848 3.3 30.51 1.962 31.553 1.49 33.219 1.622 35.287 1.962 37.061 0.897"></polygon>
                    </g>
                    <g id="greene" transform="translate(0.000000, 21.000000)">
                        <polygon id="Shape" points="17.068 6.118 18.26 7.932 21.285 9.56 27.672 13.021 29.305 14.295 31.07 16.576 33.34 17.387 34.629 17.749 36.004 19.089 37.027 19.755 37.666 21.321 37.818 24.386 38.287 27.795 39.414 32.012 39.061 32.897 37.287 33.962 35.219 33.622 33.553 33.49 32.51 33.962 31.848 35.3 31.479 37.64 31.434 38.93 29.865 39.308 27.711 39.283 24.463 40.574 21.68 41.944 20.264 42.194 18.688 41.883 16.258 40.574 14.35 39.365 11.945 38.873 9.936 39.107 8.732 39.639 6.207 40.574 4.322 40.705 4.17 39.512 3.428 38.005 1.502 34.943 1.043 30.531 0.441 13.662 17.068 0.736"></polygon>
                    </g>
                    <g id="pitt" transform="translate(17.000000, 0.000000)">
                        <polygon id="Shape" points="41.336 5.931 41.504 6.722 41.42 8.593 42.361 9.44 44.879 9.83 51.502 12.043 49.754 17.612 50.666 19.483 51.682 21.444 51.951 24.027 56.104 31.371 60.689 34.897 59.469 35.686 57.008 36.386 55.986 36.542 53.395 38.375 51.635 40.776 51.887 44.649 51.502 45.702 51.049 53.592 47.018 57.868 46.297 59.485 45.055 61.753 43.996 62.645 42.564 60.68 41.531 59.485 40.311 60.107 38.264 62.645 35.527 65.82 31.945 64.904 28.785 62.63 27.803 62.353 25.08 60.178 22.061 53.897 22.414 53.012 21.287 48.795 20.818 45.386 20.666 42.321 20.027 40.755 19.004 40.089 17.629 38.749 14.07 37.576 12.305 35.295 10.672 34.021 4.285 30.56 1.26 28.932 0.068 27.118 0.068 21.736 19.229 6.837 28.799 0.692 31.814 1.401"></polygon>
                    </g>
                    <g id="beaufort" transform="translate(66.000000, 12.000000)">
                        <polygon id="Shape" points="57.191 19.371 61.188 23.014 65.344 21.056 69.184 22.778 71.064 20.428 72.008 22.426 74.82 23.193 75.973 22.662 76.184 20.422 72.844 17.601 71.771 16.966 66.203 14.082 63.959 11.934 58.84 1.263 37.32 1.969 23.33 10.083 2.502 0.043 0.754 5.612 2.682 9.444 2.951 12.027 7.104 19.371 11.689 22.897 10.469 23.686 8.008 24.386 6.986 24.542 4.395 26.375 2.635 28.776 2.887 32.649 2.502 33.702 2.049 41.592 33.381 61.522 39.082 65.695 62.246 60.873 63.541 52.879 64.045 52.008 59.789 50.767 61.029 48.994 57.572 48.107 53.434 51.575 52.926 50.802 53.758 48.994 50.25 49.574 46.973 52.407 45.639 51.396 50.92 47.752 54.291 47.396 54.732 46.499 53.58 45.092 50.387 45.092 47.02 43.494 44.357 43.849 42.584 42.784 41.695 45.268 39.178 45.711 37.262 45.624 41.322 42.569 41.465 41.592 39.959 39.637 37.658 38.791 35.664 39.239 33.766 38.501 32.646 39.264 30.701 40.657 31.195 38.949 28.574 36.757 27.277 37.439 26.27 41.897 24.875 39.543 23.633 34.684 14.918 28.952 14.771 27.984 16.605 26.389 25.33 31.128 25.682 29.482 27.563 32.186 33.473 34.091 34.383 35.008 37.203 33.361 36.615 35.241 40.26 34.654 40.508 30.052 42.611 27.834 42.26 31.126 45.225 32.175 41.906 34.184 43.197 37.166 46.822 37.77 47.686 38.562 51.373 37.351 52.176 36.213 53.273 38.252 54.078 38.642 57.016 38.03 55.123 35.313 57.545 35.712 59.072 34.418 59.428 35.948 61.68 38.496 58.318 39.593 65.154 41.468 66.832 41.592 67.037 41.048 65.068 39.004 63.188 37.829 64.193 35.847 62.719 32.965 63.773 32.42 61.68 28.703 58.84 28.038 54.988 29.458 53.133 28.793 51.246 26.629 51.645 25.42 54.523 27.831 57.867 26.99 59.191 25.719 60.719 25.719 60.971 24.811 59.541 23.484 55.664 23.251 53.43 21.838 56.844 21.255"></polygon>
                        <polygon id="Shape" points="23.33 10.083 37.32 1.969 58.84 1.263 63.959 11.934 66.203 14.082 71.771 16.966 76.184 20.422 75.973 22.662 74.82 23.193 72.008 22.426 71.064 20.428 69.184 22.778 65.344 21.056 64.096 24.74 69.25 40.5 65.433 49.568 63.545 52.871 62.254 60.867 39.09 65.688 33.385 61.516 2.049 41.592 2.502 33.702 2.887 32.649 2.635 28.776 4.395 26.375 6.986 24.542 10.469 23.686 11.689 22.897 7.104 19.371 2.951 12.027 2.682 9.444 0.754 5.612 2.502 0.043"></polygon>
                    </g>
                    <g id="craven" transform="translate(33.000000, 53.000000)">
                        <polygon id="Shape" points="66.381 20.522 60.682 27.281 57.816 32.543 57.271 34.688 58.059 36.715 63.148 43.038 62.914 45.389 61.502 45.506 59.27 44.33 59.152 45.389 57.959 44.289 56.893 42.38 53.508 37.159 50.1 33.864 48.805 32.104 48.453 32.809 47.043 32.336 47.982 34.102 53.271 40.568 54.152 41.656 55.508 42.332 57.416 45.506 59.49 50.316 64.207 56.676 66.381 57.816 67.969 58.203 65.42 61.789 65.383 63.493 67.617 66.551 68.441 60.555 72.457 60.256 73.332 61.227 73.025 63.493 73.938 64.627 74.906 64.553 75.6 62.1 76.305 60.631 77.879 60.482 82.668 63.023 82.289 64.014 81.49 64.788 82.314 66.434 83.135 69.844 83.959 68.434 84.43 62.67 87.135 62.316 89.25 58.674 90.414 58.346 94.072 59.613 94.287 61.18 93.838 63.261 95.719 66.082 81.844 73.018 46.217 75.957 44.926 54.795 45.947 51.348 44.336 44.33 41.865 46.805 37.988 47.62 37.373 47.088 35.789 43.473 12.875 27.99 10.549 27.32 0.951 25.871 7.385 24.188 9.682 23.365 10.352 22.717 10.375 21.444 9.08 18.265 9.314 16.139 12.004 11.763 15.945 11.904 19.527 12.82 24.311 7.107 25.531 6.485 27.996 9.645 29.055 8.753 31.018 4.868 35.049 0.592"></polygon>
                        <polygon id="Shape" points="35.049 0.592 66.385 20.516 60.686 27.271 57.826 32.537 57.279 34.682 58.064 36.711 63.16 43.029 62.926 45.381 64.834 53.042 69.501 55.979 79.501 58.917 91.84 51.667 92.684 54.641 93.154 57.389 92.332 59.01 94.072 59.613 94.287 61.18 93.838 63.261 95.719 66.082 81.844 73.018 46.217 75.957 44.926 54.795 45.947 51.348 44.336 44.33 41.865 46.805 37.988 47.62 37.373 47.088 35.789 43.473 12.875 27.99 10.549 27.32 0.951 25.871 9.682 23.365 10.352 22.717 10.375 21.444 9.08 18.265 9.314 16.139 12.004 11.763 15.945 11.904 19.527 12.82 24.311 7.107 25.531 6.485 27.996 9.645 29.055 8.753 31.018 4.868"></polygon>
                    </g>
                    <g id="carteret" transform="translate(73.000000, 77.000000)">
                        <polygon id="Shape" points="86.051 24.2 85.496 23.898 85.555 24.673 86.037 25.682 88.672 29.695 88.426 30.43 87.727 30.639 83.488 29.809 84.309 31.602 84.004 32.588 81.797 32.322 82.453 33.979 82.4 35.195 81.875 35.25 80.273 33.369 79.746 32.059 76.254 35.477 77.023 37.091 76.553 38.619 74.607 36.115 73.734 32.872 74.25 31.348 76.379 31.348 76.732 30.107 77.795 29.93 77.617 27.623 75.129 25.68 75.219 24.871 77.172 23.41 76.104 20.701 75.029 18.691 73.367 17.369 72.83 17.691 72.756 19.266 73.746 21.471 73.184 22.48 71.1 23.41 71.943 26.027 70.439 26.57 72.652 29.576 71.59 33.477 70.352 30.568 68.041 29.751 68.299 28.965 67.744 27.836 66.594 27.408 65.379 27.393 63.904 28.479 63.143 28.008 61.443 28.965 61.781 29.667 65.785 34.93 66.67 37.215 66.822 38.832 67.891 39.941 67.049 40.213 65.082 38.826 63.605 38.619 64.852 37.296 64.686 36.51 63.615 35.632 61.479 34.541 61.266 32.053 60.457 30.199 56.719 29.982 55.34 30.785 52.684 30.641 53.158 32.266 53.154 33.389 52.332 35.01 54.072 35.613 54.287 37.18 53.838 39.261 55.719 42.082 41.844 49.018 12.35 51.566 8.963 55.48 7.475 56.58 6.408 56.885 4.723 56.887 2.471 57.479 0.092 58.68 5.434 61.854 6.67 65.693 10.051 67.779 10.398 68.413 9.656 71.402 10.344 71.607 11.271 70.902 18.736 66.818 30.619 64.336 46.758 64.869 51.002 64.336 51.725 63.807 51.002 63.443 44.809 60.434 44.604 58.68 49.064 57.064 51.725 53.34 52.254 56.002 54.277 57.842 54.57 60.079 53.498 63.273 54.57 64.807 54.385 66.111 55.719 66.379 58.506 65.966 59.35 65.58 57.969 63.18 59.264 59.314 57.934 53.939 58.109 52.452 59.008 52.896 62.188 56.887 63.443 54.945 64.758 56.762 64.316 57.951 62.482 59.637 63.594 61.727 63 63.248 63.201 63.836 64.283 63.977 65.797 62.747 68.398 63.613 71.07 62.771 72.137 62.713 71.633 61.559 70.17 59.725 71.262 58.922 71.32 57.91 70.145 56.202 71.008 55.254 73.879 53.729 74.107 54.34 73.33 57.285 73.717 57.775 75.957 54.83 76.115 53.352 75.24 50.744 76.984 49.445 80.455 45.891 80.729 42.521 81.082 41.992 82.762 44.473 84.15 42.75 86.354 43.295 90.783 39.023 91.275 37.912 90.631 37.755 88.807 37.953 87.549 37.732 87.783 36.915 88.326 36.115 87.701 35.783 86.891 36.605 85.957 36.846 85.445 36.115 85.516 35.184 86.324 34.723 87.488 34.723 89.725 35.788 94.205 32.516 93.799 31.602"></polygon>
                        <polygon id="Shape" points="45.584 67.417 42 66.893 40.414 66.354 39.402 66.732 37.213 68.15 35.318 68.15 34.533 68.754 34.533 69.316 36.232 69.721 49.234 68.411 50.998 67.857 50.01 67.568"></polygon>
                        <polygon id="Shape" points="67.535 75.41 68.209 75.854 69.141 75.551 69.693 75.025 69.693 74.307 67.826 72.303 64.787 70.943 62.555 69.979 58.967 68.947 57.096 68.754 57.309 69.295 58.648 70.053 61.016 70.989 64.316 72.094 67.244 74.346"></polygon>
                        <polygon id="Shape" points="90.35 44.852 85.738 49.868 83.014 53.568 81.717 56.607 74.186 66.354 72.295 69.334 71.439 71.607 69.637 76.044 69.107 76.539 66.594 77.357 67.004 79.652 67.348 80.791 68.164 81.461 69.191 80.762 69.107 78.525 92.871 43.939 94.205 42.447 94.205 41.992 93.307 41.992"></polygon>
                        <polygon id="Shape" points="97.586 36.115 95.412 38.559 94.666 39.896 95.5 40.667 98.9 38.084 98.9 37.023"></polygon>
                        <polygon id="Shape" points="105.465 29.042 103.609 29.764 102.26 31.639 100.926 33.186 100.926 34.917 104.387 32.084 106.428 30.051"></polygon>
                        <polygon id="Shape" points="108.932 25.305 107.91 25.305 107.121 25.991 106.438 27.186 106.883 27.803 108.561 27.663 109.643 26.953 109.643 25.711"></polygon>
                        <polygon id="Shape" points="41.844 49.018 55.719 42.082 53.838 39.261 54.287 37.18 54.072 35.613 52.332 35.01 53.154 33.389 53.158 32.266 52.684 30.641 51.84 27.667 85.333 0.695 107.91 25.305 108.932 25.305 109.643 25.711 109.643 26.953 108.561 27.663 106.428 30.051 104.387 32.084 100.926 34.917 98.9 38.084 95.5 40.667 94.205 42.447 80.649 61.727 69.107 78.525 69.191 80.762 68.164 81.461 67.348 80.791 66.594 77.357 69.107 76.539 67.535 75.41 67.244 74.346 64.316 72.094 58.648 70.053 57.309 69.295 50.998 67.857 49.234 68.411 36.232 69.721 34.533 69.316 30.619 64.336 18.736 66.818 10.344 71.607 9.656 71.402 10.398 68.413 10.051 67.779 6.67 65.693 5.434 61.854 0.092 58.68 2.471 57.479 4.723 56.887 6.408 56.885 7.475 56.58 8.963 55.48 12.35 51.566"></polygon>
                    </g>
                    <g id="pamlico" transform="translate(90.000000, 52.000000)">
                        <polygon id="Shape" points="8.159 49.68 13.566 53.911 14.271 51.676 15.332 54.729 21.121 57.509 22.521 57.259 24.926 55.268 24.867 54.271 22.739 52.376 22.857 51.205 24.971 52.256 26.617 52.256 26.734 54.486 29.554 52.605 30.378 51.076 28.731 50.725 29.086 48.725 30.158 49.414 31.32 48.018 33.896 49.682 35.424 47.68 37.42 46.15 41.535 43.799 42.709 41.684 41.779 41.684 38.594 43.445 36.948 42.27 37.536 41.21 37.054 39.271 38.595 40.389 40.362 38.508 42.153 38.916 43.536 38.152 44.358 39.211 45.587 39.271 46.003 38.626 47.157 34.865 46.969 33.544 43.885 30.868 43.625 31.619 44.827 34.512 40.948 36.456 41.271 33.54 40.473 33.216 40.592 31.688 38.475 32.749 35.172 31.423 34.485 33.809 31.604 35.707 30.146 35.984 28.959 35.275 28.275 33.854 29.544 33.331 30.146 33.809 34.446 30.408 34.835 29.438 34.304 26.867 35.249 26.867 36.84 28.982 39.081 29.723 40.561 28.994 40.958 27.923 39.427 27.337 40.99 26.632 40.479 24.813 41.385 24.813 44.93 27.207 46.373 26.467 46.733 27.613 47.866 27.699 48.455 28.549 50.316 26.286 48.655 24.885 47.675 24.383 45.337 25.084 44.232 22.974 42.539 21.759 46.302 21.243 47.745 22.179 51.867 24.305 52.3 24.267 52.054 22.568 47.594 20.31 48.428 19.884 51.307 20.049 52.847 17.806 54.602 18.608 55.249 18.117 54.435 15.911 53.682 15.257 51.079 16.684 50.524 16.041 50.571 14.243 52.926 11.791 52.945 11.252 52.113 11.252 49.602 12.815 47.663 16.236 47.106 15.989 47.19 13.506 45.584 13.947 45.163 13.196 47.169 11.728 43.985 9.844 41.433 9.568 39.545 12.871 38.254 20.867 15.09 25.688 9.385 21.516 3.686 28.271 0.826 33.537 0.279 35.682 1.064 37.711 6.16 44.029 5.926 46.381 6.629 48.616 8.744 46.621"></polygon>
                        <polygon id="Shape" points="9.385 21.516 15.09 25.688 38.254 20.867 39.545 12.871 41.433 9.568 45.25 0.5 68.342 25.688 34.84 52.667 22.501 59.917 12.501 56.979 7.834 54.042 6.629 48.616 5.926 46.381 6.16 44.029 1.064 37.711 0.279 35.682 0.826 33.537 3.686 28.271"></polygon>
                    </g>
                </g>
                <polygon id="Shape" points="83.344 148.607 91.736 143.818 103.619 141.336 107.533 146.316 109.232 146.721 122.234 145.411 123.998 144.857 130.309 146.295 131.648 147.053 137.316 149.094 140.244 151.346 140.535 152.41 141.209 152.854 142.107 153.539 139.594 154.357 140.348 157.791 141.164 158.461 142.191 157.762 142.107 155.525 165.871 120.939 167.205 119.447 167.205 118.992 168.5 117.667 171.9 115.084 173.926 111.917 177.387 109.084 179.428 107.051 179.883 104.803 181.561 104.663 182.643 103.953 182.643 102.711 181.932 102.305 180.91 102.305 135.25 52.5 130.096 36.74 131.344 33.056 135.184 34.778 137.064 32.428 138.008 34.426 140.82 35.193 141.973 34.662 142.184 32.422 137.771 28.966 132.203 26.082 129.959 23.934 124.84 13.263 103.32 13.969 89.33 22.083 68.502 12.043 61.879 9.83 59.361 9.44 58.42 8.593 58.336 5.931 48.814 1.401 45.799 0.692 36.229 6.837 17.068 21.736 0.441 34.662 1.043 51.531 1.502 55.943 3.428 59.005 4.17 60.512 4.322 61.705 2.746 63.79 2.441 65.703 2.441 88.275 3.846 88.527 5.658 89.089 7.15 89.813 8.438 90.798 9.613 92.627 10.252 95.585 10.561 99.18 10.436 105.678 10.834 106.539 13.279 108.957 16.795 112.041 18.838 114.732 20.025 113.535 21.406 112.678 22.107 112.428 23.156 112.463 32.561 113.893 33.859 113.629 35.711 113.46 37.475 113.896 39.084 114.809 51.299 120.23 53.529 117.846 55.496 116.755 57.133 116.785 60.709 119.461 70.072 129.697 70.805 131.051 69.674 132.618 70.098 133.71 73.092 135.68 78.434 138.854 79.67 142.693 83.051 144.779 83.398 145.413 82.656 148.402"></polygon>
            </g>
            <g id="division-1" transform="translate(670.000000, 0.000000)">
                <g id="Group">
                    <g id="northampton" transform="translate(0.000000, 8.000000)">
                        <polygon id="Shape" points="0.701 5.463 24.193 3.487 74.91 0.815 77.389 3.759 81.953 6.06 83.584 5.93 84.051 6.082 85.291 8.562 85.268 9.297 84.902 10.26 84.203 11.041 81.943 11.795 78.627 13.983 71.502 41.87 69.797 44.968 66.414 44.896 65.459 45.278 64.996 52.559 60.348 49.771 54.307 46.672 55.346 42.149 55.08 41.561 51.33 39.235 50.898 35.888 48.531 32.578 47.625 32.234 39.828 34.339 35.916 33.85 34.043 31.82 34.117 28.892 35.771 25.172 36.582 22.019 35.703 20.091 34.15 19.037 31.684 19.407 30.287 17.737 27.66 16.309 27.08 13.796 26.195 12.759 20.207 10.834 15.773 8.795 13.445 8.136 6.268 8.193 3.348 7.222"></polygon>
                    </g>
                    <g id="bertie" transform="translate(60.000000, 48.000000)">
                        <polygon id="Shape" points="14.664 32.75 14.842 40.906 18.811 40.906 20.803 40.432 21.746 40.906 22.805 41.593 24.285 40.906 25.488 41.593 27.008 40.841 28.9 40.417 31.178 40.94 32.002 41.593 32.533 43.026 32.533 46.524 32.754 47.113 31.406 50.253 31.336 51.016 32.754 51.356 35.973 49.943 36.834 47.823 37.873 46.96 42.326 45.458 43.209 45.767 44.338 47.012 45.848 49.304 46.053 50.708 45.523 55.096 46.938 54.96 51.27 52.537 52.619 46.76 53.586 46.156 54.631 46.698 55.742 47.625 57.762 48.534 60.127 45.598 60.514 44.454 62.727 42.504 65.566 41.261 65.566 38.778 63.496 39.125 62.371 38.601 63.135 37.21 66.113 33.361 66.631 32.039 66.113 31.395 64.855 30.62 64.436 27.661 64.148 26.895 63.496 26.107 61.977 24.412 61.947 22.457 61.998 19.382 61.486 18.204 60.65 16.597 59.533 11.111 59.148 9.041 58.906 6.864 59.734 2.458 60.66 1.375 62.777 0.186 11.502 1.87 9.797 4.968 6.414 4.896 5.459 5.278 4.996 12.559 6.654 13.368 6.975 14.883 8.096 16.123 8.441 16.674 9.844 18.159 10.482 19.328 9.348 20.193 5.814 20.582 3.24 21.492 0.832 24.412 2.246 26.019 4.555 27.958"></polygon>
                    </g>
                    <g id="martin" transform="translate(52.000000, 72.000000)">
                        <polygon id="Shape" points="46.33 54.083 60.32 45.969 65.762 24.534 63.742 23.625 62.631 22.698 61.586 22.156 60.619 22.76 59.27 28.537 54.938 30.96 53.523 31.096 54.053 26.708 53.848 25.304 52.338 23.012 51.209 21.767 50.326 21.458 45.873 22.96 44.834 23.823 43.973 25.943 40.754 27.356 39.336 27.016 39.406 26.253 40.754 23.113 40.533 22.524 40.533 19.026 40.002 17.593 39.178 16.94 36.9 16.417 35.008 16.841 33.488 17.593 32.285 16.906 30.805 17.593 29.746 16.906 28.803 16.432 26.811 16.906 22.842 16.906 22.664 8.75 12.555 3.958 10.246 2.019 8.832 0.412 0.291 10.402 6.701 24 5.814 33.401 15.336 37.931 15.42 40.593 16.361 41.44 18.879 41.83 25.502 44.043"></polygon>
                    </g>
                    <g id="hyde" transform="translate(133.000000, 114.000000)">
                        <polygon id="Shape" points="62.996 83.229 62.996 84.369 61.717 86.818 58.922 89.371 58.721 90.189 60.166 90.219 61.871 89.371 65.328 86.818 67.398 85.121 68.119 83.982"></polygon>
                        <polygon id="Shape" points="93.958 65.25 83.496 70.881 77.141 75.543 75.508 76.232 72.971 75.723 72.047 76.261 70.57 81.275 70.248 82.918 72.508 81.495 84.08 72.809 94.473 66.429 94.473 65.602"></polygon>
                        <polygon id="Shape" points="72.732 26.694 70.248 24.922 72.377 24.566 74.973 22.527 75.924 22.527 78.051 21.046 78.051 20.488 75.924 20.311 77.201 19.347 78.057 17.744 79.504 15.945 79.656 14.956 78.814 13.298 79.295 10.557 77.875 4.349 65.461 3.995 64.428 5.295 63.51 5.767 61.139 4.769 58.414 4.381 55.094 3.306 53.977 1.5 53.039 0.583 51.529 0.995 49.834 3.969 45.949 14.458 36.549 13.747 38.145 3.64 0.84 3.263 5.959 13.934 8.203 16.082 13.771 18.966 17.219 19.423 19.701 21.021 21.652 20.665 20.545 22.79 20.678 26.741 22.404 29.229 22.363 30.065 19.361 27.955 18.637 28.292 17.75 30.774 15.623 28.647 8.35 28.65 10.656 33.789 12.605 31.839 14.557 32.371 17.506 34.87 17.283 35.586 16.219 35.635 14.025 33.967 10.725 36.553 13.174 37.853 13.672 37.514 15.598 38.26 16.51 39.466 13.174 39.972 14.68 42.646 15.445 43.366 15.623 42.126 17.041 42.481 16.793 45.042 18.564 46.115 20.234 46.559 20.219 45.306 19.363 43.159 20.057 41.593 19.879 39.998 20.666 38.946 22.336 39.355 22.232 40.49 21.238 40.845 21.137 41.891 22.131 42.588 23.225 42.183 25.025 39.998 24.311 38.757 25.949 36.005 28.213 39.288 28.568 42.302 30.426 45.128 30.344 46.027 26.617 45.267 25.549 45.455 26.975 47.092 31.391 48.072 33.773 47.613 32.295 45.672 32.117 43.721 32.643 42.149 31.391 41.151 31.932 40.528 33.535 41.063 37.871 45.152 37.623 47.094 40.248 48.917 41.516 48.511 41.889 47.213 41.162 41.063 43.469 43.189 44.58 45.861 45.418 45.318 45.596 47.092 47.547 47.802 48.08 49.574 50.566 47.729 52.158 47.802 52.512 50.107 54.998 46.915 54.648 45.672 57.834 45.672 61.322 43.151 62.977 41.947 60.518 41.359 61.912 38.402 61.912 36.095 64.574 35.386 64.096 37.446 65.283 37.87 67.41 36.772 67.41 34.499 68.764 33.399 67.941 29.889"></polygon>
                        <polygon id="Shape" points="45.949 14.458 49.834 3.969 51.529 0.995 53.039 0.583 53.977 1.5 55.094 3.306 58.414 4.381 61.139 4.769 63.51 5.767 64.428 5.295 65.461 3.995 77.875 4.349 79.061 9.532 96.568 64.535 97.357 66.097 94.473 66.429 84.08 72.809 72.508 81.495 70.248 82.918 68.119 83.982 67.398 85.121 61.871 89.371 60.166 90.219 58.643 92.711 57.932 92.305 56.91 92.305 11.25 42.5 6.096 26.74 7.344 23.056 11.184 24.778 13.064 22.428 14.008 24.426 16.82 25.193 17.973 24.662 18.184 22.422 13.771 18.966 8.203 16.082 5.959 13.934 0.84 3.263 23.955 3.284 38.145 3.64 36.549 13.747"></polygon>
                    </g>
                    <g id="washington" transform="translate(112.000000, 80.000000)">
                        <polygon id="Shape" points="26.205 6.339 44.779 0.75 47.617 2.582 47.795 5.715 46.555 8.199 47.215 11.572 48.52 14.743 49.037 17.065 48.441 20.008 46.869 23.284 45.906 24.692 44.883 28.295 44.693 32.308 44.955 37.284 21.84 37.263 0.32 37.969 5.762 16.534 8.127 13.598 8.514 12.454 10.727 10.504 13.566 9.261 13.566 6.778 14.631 6.303 15.871 6.955 20.301 7.125"></polygon>
                    </g>
                    <g id="chowan" transform="translate(123.000000, 33.000000)">
                        <polygon id="Shape" points="9.693 40.573 7.525 36.392 14.188 43.207 20.499 43.207 25.999 41.666 30.9 38.666 30.908 35.308 26.619 33.983 25.656 33.447 24.418 33.209 21.475 33.601 14.66 30.467 13.883 27.559 13.109 21.959 13.279 13.769 14.66 10.671 14.66 0.295 8.883 4.146 6.447 3.702 0.135 7.928 1.715 9.755 1.977 11.141 1.592 12.75 0.404 15.166 0.293 28.657 0.707 30.35 3.648 32.208 4.24 38.106 4.773 39.417 8.598 41.177"></polygon>
                    </g>
                    <g id="hertford" transform="translate(71.000000, 7.000000)">
                        <polygon id="Shape" points="16.504 1.188 20.428 1.188 33.813 0.266 31.488 4.294 31.195 6.463 30.064 7.345 27.498 12.49 27.363 15.216 27.758 17.787 28.711 20.716 29.473 21.954 30.971 21.734 33.434 21.954 34.816 22.577 36.193 23.586 38.861 24.727 44.346 26.604 46.977 28.479 48.57 30.004 52.844 34.708 53.715 35.755 53.977 37.141 53.592 38.75 52.404 41.166 0.502 42.87 7.627 14.983 10.943 12.795 13.203 12.041 13.902 11.26 14.268 10.297 14.291 9.562 13.051 7.082 12.584 6.93 10.953 7.06 6.389 4.759 3.91 1.815"></polygon>
                    </g>
                    <g id="gates" transform="translate(98.000000, 3.000000)">
                        <polygon id="Shape" points="46.164 8.294 45.85 16.632 49.418 25.645 40.588 29.672 33.883 34.146 31.447 33.702 25.135 37.928 21.57 34.004 19.977 32.479 17.346 30.604 11.861 28.727 9.193 27.586 7.816 26.577 6.434 25.954 3.971 25.734 2.473 25.954 1.711 24.716 0.758 21.787 0.363 19.216 0.498 16.49 3.064 11.345 4.195 10.463 4.488 8.294 6.813 4.266 24.629 1.632 38.42 0.704"></polygon>
                    </g>
                    <g id="currituck" transform="translate(164.000000, 0.000000)">
                        <polygon id="Shape" points="44.037 0.05 45.979 7.815 49.889 21.332 51.113 28.19 50.955 28.958 49.25 26.137 47.291 21.983 48.072 20.749 46.445 18.423 46.174 14.504 44.527 12.771 43.557 9.088 44.217 6.257 42.441 5.017 40.938 3.239 39.035 2.54 38.717 3.065 41.742 12.128 40.748 12.577 37.941 11.693 34.104 12.644 33.637 11.294 34.287 7.751 33.041 7.145 29.67 3.242 27.371 3.329 28.17 5.813 28.193 7.577 26.645 7.577 26.18 8.97 22.771 9.9 27.109 12.38 31.703 18.568 33.727 17.729 34.389 17.802 35.473 20.745 32.998 20.279 33.139 21.486 36.141 25.995 37.953 27.407 37.797 24.617 38.881 24.152 37.643 21.054 38.729 18.42 40.395 24.268 40.588 26.631 40.125 28.568 42.455 32.704 45.111 38.141 52.064 55.479 54.377 61.706 54.795 63.738 54.375 64.587 53.121 63.917 51.014 61.523 48.797 58.08 46.066 50.803 41.668 45.688 41.605 42.858 39.568 42.429 38.783 40.73 39.502 36.855 35.629 33.604 33.938 35.273 30.195 31.813 27.551 29.993 25.957 29.658 22.303 30.971 20.701 29.875 19.051 27.251 15.951 25.547 14.713 20.9 0.305 3.239 16.244 2.208"></polygon>
                        <polygon id="Shape" points="54.375 64.587 56.768 67.396 60.885 63.899 58.58 57.869 58.756 50.775 51.113 28.19 49.889 21.332 44.037 0.05 0.305 3.239 14.713 20.9 15.951 25.547 19.051 27.251 20.701 29.875 22.303 30.971 25.957 29.658 27.551 29.993 30.195 31.813 33.938 35.273 37.639 38.185 37.951 38.715 38.783 40.73 39.568 42.429 41.605 42.858 41.668 45.688 46.066 50.803 48.797 58.08 51.014 61.523 53.121 63.917"></polygon>
                    </g>
                    <g id="camden" transform="translate(136.000000, 3.000000)">
                        <polygon id="Shape" points="28.305 0.239 42.713 17.9 43.951 22.547 47.051 24.251 48.701 26.875 50.303 27.971 53.957 26.658 55.551 26.993 58.195 28.813 61.938 32.273 65.639 35.185 65.951 35.715 63.613 37.73 65.211 42.056 66.996 43.991 65.795 44.7 64.783 44.7 62.697 44.235 61.613 46.095 62.461 46.87 67.346 48.265 67.938 49.532 70.182 50.307 70.182 51.264 68.746 51.864 66.125 51.371 61.096 48.3 55.184 43.436 51.988 40.586 50.303 38.04 49.242 36.985 45.121 35.315 41.473 35.107 40.234 34.167 43.023 31.843 38.375 30.912 35.275 25.8 33.262 26.73 33.314 24.334 31.787 23.323 29.391 23.322 25.98 19.293 22.264 18.519 21.369 16.562 17.549 15.24 14.309 13.425 8.164 8.294 0.42 0.704"></polygon>
                    </g>
                    <g id="pasquotank" transform="translate(143.000000, 11.000000)">
                        <polygon id="Shape" points="14.369 8.562 15.264 10.519 18.98 11.293 22.391 15.322 24.787 15.323 26.314 16.334 26.262 18.73 28.275 17.8 31.375 22.912 36.023 23.843 33.234 26.167 31.787 26.206 31.043 27.129 34.08 29.928 39.553 32.653 40.145 33.962 39.758 35.442 38.025 38.063 38.553 38.773 42.346 37.996 44.5 38.773 46.041 40.134 46.041 40.775 44.867 42.076 45.07 42.859 46.918 42.176 48.184 45.192 46.611 46.368 43.127 47.819 38.066 45.192 38.848 46.943 41.861 48.889 40.873 49.559 36.023 50.153 34.48 49.559 31.357 45.777 30.578 41.302 28.873 43.197 28.146 42.176 22.697 38.87 20.855 36.646 17.588 34.84 8.723 23.687 4.418 17.645 0.85 8.632 1.164 0.294 7.309 5.425 10.549 7.24"></polygon>
                    </g>
                    <g id="perquimans" transform="translate(136.000000, 28.000000)">
                        <polygon id="Shape" points="15.723 6.687 24.588 17.84 27.855 19.646 31.906 24.532 31.318 25.664 30.01 26.672 34.051 26.305 35.439 27.19 36.516 31.164 41.473 35.037 40.896 35.549 37.6 36.276 36.479 35.954 33.354 32.215 31.559 33.953 25.488 30.659 23.193 31.474 21.178 26.672 17.908 26.149 13.588 24.192 16.811 27.9 22.945 33.169 24.391 33.9 26.91 36.123 29.813 36.597 30.166 37.051 27.191 38.281 20.559 39.375 18.623 37.063 17.908 35.317 17.15 35.037 17.908 40.308 13.619 38.983 12.656 38.447 11.418 38.209 8.475 38.601 1.66 35.467 0.883 32.559 0.109 26.959 0.279 18.769 1.66 15.671 1.66 5.295 2.588 4.672 11.418 0.645"></polygon>
                    </g>
                    <g id="tyrrell" transform="translate(156.000000, 77.000000)">
                        <polygon id="Shape" points="13.549 50.747 22.949 51.458 26.834 40.969 28.529 37.995 30.039 37.583 30.977 38.5 31.643 38.334 39.158 40.306 40.268 39.043 40.531 37.583 37.494 37.446 36.961 30.352 31.393 28.095 30.68 27.082 30.834 26.096 31.746 25.48 34.826 28.039 35.76 28.401 37.67 26.98 38.152 25.48 37.139 23.79 37.494 19.888 35.83 18.679 34.48 17.669 33.406 16.365 32.646 14.839 32.705 13.682 33.486 13.682 34.396 14.858 34.979 15.799 35.365 16.339 36.813 16.512 38.736 15.808 39.221 14.605 41.041 8.005 40.074 8.005 35.545 11.199 34.932 10.848 31.455 6.426 30.754 4.989 34.371 6.962 35.688 7.21 36.674 7.727 36.607 5.167 39.248 4.989 40.613 3.75 40.359 2.425 39.596 1.572 38.219 0.856 34.713 0.772 30.096 0.772 27.295 0.301 20.896 1.345 14.93 3.231 11.244 4.989 10.512 5.991 10.863 6.757 15.348 9.427 15.502 10.312 14.352 10.327 11.418 9.169 10.357 9.778 3.795 8.715 2.555 11.199 3.215 14.572 4.52 17.743 5.037 20.065 4.441 23.008 2.869 26.284 1.906 27.692 0.883 31.295 0.693 35.308 0.955 40.284 15.145 40.64"></polygon>
                        <polygon id="Shape" points="3.795 8.715 11.244 4.989 14.93 3.231 20.896 1.345 27.295 0.301 30.096 0.772 38.219 0.856 44.75 3.659 42.461 14.25 41.041 31.625 42.461 40.995 41.428 42.295 40.51 42.767 38.139 41.769 35.414 41.381 32.094 40.306 30.039 37.583 28.529 37.995 26.834 40.969 22.949 51.458 13.549 50.747 15.145 40.64 0.955 40.284 0.693 35.308 0.883 31.295 1.906 27.692 2.869 26.284 4.441 23.008 5.037 20.065 4.52 17.743 3.215 14.572 2.555 11.199"></polygon>
                    </g>
                    <g id="dare" transform="translate(197.000000, 50.000000)">
                        <polygon id="Shape" points="60.68 72.688 59.988 69.235 56.727 59.724 55.523 56.177 54.135 52.917 52.379 51.384 51.832 53.096 53.07 55.933 53.043 56.835 55.598 61.932 55.555 63.206 56.602 67.306 58.213 70.476 59.01 74.25 58.934 80.61 58.24 82.649 58.037 84.842 57.15 86.439 58.404 90.011 58.76 93.431 58.111 96.906 57.436 100.213 57.328 104.352 56.016 105.989 55.199 107.543 56.246 110.386 57.055 113.485 56.262 117.476 55.203 117.821 51.117 118.456 48.283 119.428 47.221 121.375 45.268 122.797 41.584 124.337 40.125 124.393 38.344 124.06 36.797 125.63 33.357 128.28 32.568 128.535 33.357 130.097 35.158 130.069 39.402 127.804 45.309 124.781 47.355 123.947 49.602 123.646 51.857 123.571 53.947 123.564 56.23 123.125 57.328 120.589 58.252 116.718 58.809 108.928 59.809 93.889 60.223 90.662 61.355 82.8 61.355 80.61"></polygon>
                        <polygon id="Shape" points="25.58 7.869 26.947 11.153 27.885 13.899 27.855 15.825 28.596 17.091 30.412 17.313 32.143 17.801 32.992 19.277 33.818 21.48 33.916 23.3 35.611 25.562 35.984 26.43 38.35 28.477 41.127 32.293 42.805 35.188 43.232 37.125 43.195 39.959 44.023 42.631 45.979 44.708 46.498 46.648 47.217 48.662 48.885 49.85 50.941 50.409 50.941 48.662 46.961 40.311 42.184 30.642 35.262 18.308 25.756 0.775 27.352 6.626 28.072 7.917 28.064 9.82"></polygon>
                        <polygon id="Shape" points="39.592 47.243 41.854 47.304 42.254 46 41.025 43.018 41.025 41.299 40.871 39.959 40.129 37.848 39.855 36.37 38.705 35.715 38.262 36.052 36.797 36.37 36.754 35.715 36.797 33.989 35.689 33.054 33.357 32.293 31.258 32.875 33.207 35.537 33.818 37.125 36.756 39.798 37.865 41.669 38.352 43.873 38.344 45.777"></polygon>
                        <polygon id="Shape" points="11.217 33.407 12.094 32.402 12.279 31.636 15.295 29.452 15.295 28.976 14.551 28.594 12.988 29.329 11.391 27.911 9.182 29.065 7.844 30.926"></polygon>
                        <polygon id="Shape" points="28.416 63.737 30.723 65.867 33.207 63.21 33.207 61.785 31.113 56.972 31.098 52.032 31.809 50.409 31.434 47.243 29.344 45.781 28.287 39.131 27.465 38.052 24.277 34.289 23.764 33.407 20.969 32.167 21.322 29.507 18.709 27.856 17.422 27.732 17.77 29.03 18.133 30.216 16.002 33.054 18.484 33.407 21.322 35.181 20.576 35.501 18.105 35.146 16.535 35.891 14.52 34.201 12.988 34.116 11.947 35.809 12.965 37.125 14.752 38.438 17.334 39.154 18.484 39.086 16.889 42.098 14.488 40.495 12.102 41.746 12.279 39.261 10.684 37.665 9.254 35.796 7.492 37.125 4.936 39.182 4.297 40.326 4.844 44.698 4.465 46.544 2.922 50.409 3.537 53.567 4.219 57.859 2.883 61.224 2.148 64.919 1.461 67.995 13.875 68.349 15.061 73.532 16.002 73.314 16.645 73.956 18.162 77.461 19.02 78.458 20.057 78.458 22.566 77.53 22.646 79.173 21.855 80.409 25.096 80.61 26.646 79.875 26.998 78.281 28.416 76.153 29.979 76.78 31.434 73.136 30.115 70.19 29.371 69.793 28.643 70.112 28.305 69.619 27.678 66.42 27.674 63.98"></polygon>
                        <polygon id="Shape" points="32.568 128.535 15.061 73.532 13.875 68.349 1.461 67.995 0.041 58.625 1.461 41.25 3.75 30.659 9.182 29.065 11.391 27.911 27.885 13.899 25.58 7.869 25.756 0.775 42.184 30.642 50.941 48.662 54.135 52.917 56.727 59.724 59.988 69.235 60.68 72.688 61.355 82.8 59.809 93.889 58.252 116.718 57.328 120.589 56.23 123.125 53.947 123.564 49.602 123.646 47.355 123.947 35.158 130.069 33.357 130.097"></polygon>
                    </g>
                </g>
                <polygon id="Shape" points="74.91 8.815 87.504 8.188 91.428 8.188 104.813 7.266 122.629 4.632 136.42 3.704 164.305 3.239 208.037 0.05 213.889 21.332 215.113 28.19 222.756 50.775 239.184 80.642 247.941 98.662 247.941 100.409 249.379 101.384 251.135 102.917 252.523 106.177 256.988 119.235 257.68 122.688 258.355 132.8 256.809 143.889 255.252 166.718 254.328 170.589 253.23 173.125 250.947 173.564 246.602 173.646 244.355 173.947 242.309 174.781 232.158 180.069 230.357 180.097 227.473 180.429 217.08 186.809 205.508 195.495 203.248 196.918 201.119 197.982 200.398 199.121 194.871 203.371 193.166 204.219 191.721 204.189 191.643 206.711 190.932 206.305 189.91 206.305 144.25 156.5 139.096 140.74 140.344 137.056 144.184 138.778 146.064 136.428 147.008 138.426 149.82 139.193 150.973 138.662 151.184 136.422 146.771 132.966 141.203 130.082 138.959 127.934 133.84 117.263 112.32 117.969 98.33 126.083 77.502 116.043 70.879 113.83 68.361 113.44 67.42 112.593 67.336 109.931 57.814 105.401 58.701 96 52.291 82.402 60.832 72.412 63.24 69.492 65.814 68.582 69.348 68.193 70.482 67.328 69.844 66.159 68.441 64.674 68.096 64.123 66.975 62.883 66.654 61.368 64.996 60.559 60.348 57.771 54.307 54.672 55.346 50.149 55.08 49.561 51.33 47.235 50.898 43.888 48.531 40.578 47.625 40.234 39.828 42.339 35.916 41.85 34.043 39.82 34.117 36.892 35.771 33.172 36.582 30.019 35.703 28.091 34.15 27.037 31.684 27.407 30.287 25.737 27.66 24.309 27.08 21.796 26.195 20.759 20.207 18.834 15.773 16.795 13.445 16.136 6.268 16.193 3.348 15.222 0.701 13.463 24.193 11.487"></polygon>
            </g>
        </g>
        <text id="1" font-family="ITCFranklinGothicStd-Med, ITC Franklin Gothic Std" font-size="36" font-weight="400" fill="#FFFFFF">
            <tspan x="830" y="82">1</tspan>
        </text>
    </g>
</svg>