<?xml version="1.0" encoding="utf-8"?>
<!-- Generator: Adobe Illustrator 21.1.0, SVG Export Plug-In . SVG Version: 6.00 Build 0)  -->
<svg version="1.1" id="Layer_1" xmlns="http://www.w3.org/2000/svg" xmlns:xlink="http://www.w3.org/1999/xlink" x="0px" y="0px"
	 viewBox="0 0 41.4 41.3" style="enable-background:new 0 0 41.4 41.3;" xml:space="preserve">
<style type="text/css">
	.st0{opacity:0.24;}
	.st1{fill:#3F7D97;stroke:#000000;stroke-width:0.5;stroke-miterlimit:10;}
	.st2{fill:#FFFFFF;}
</style>
<title>Slice 1</title>
<desc>Created with Sketch.</desc>
<g id="Page-1_1_">
	<g id="passengerAirport" transform="translate(4.000000, 2.000000)">
		<g id="Page-1">
			<g id="pin-shadow-01" transform="translate(9.000000, 68.000000)" class="st0">
				<path id="Shape" d="M14.9-37.6c-9.7-0.7-19.8,0.2-22.5,2.1c-2.7,1.9-0.3,3.8,9.4,6.9l0.6,0c15.8-1.2,22.8-2.5,25.4-4.4
					C30.5-34.9,24.6-37,14.9-37.6L14.9-37.6L14.9-37.6z"/>
			</g>
			<g id="pin">
				<path id="Shape_1_" class="st1" d="M11.6-1.8C3.1-1.8-3.8,5-3.8,13.5c0,8.4,4,14.8,15.1,25.5h0.5C22.9,28.2,27,21.9,27,13.5
					C27,5,20-1.8,11.6-1.8L11.6-1.8L11.6-1.8z"/>
			</g>
		</g>
	</g>
	<g id="bluestar-01" transform="translate(20.000000, 17.000000)">
		<polygon id="Shape_2_" class="st2" points="-4.4,-9.4 -2.6,-3.8 3.3,-3.8 -1.5,-0.3 0.4,5.3 -4.4,1.8 -9.2,5.3 -7.4,-0.3 
			-12.2,-3.8 -6.3,-3.8 		"/>
	</g>
</g>
</svg>
