<?xml version="1.0" encoding="utf-8"?>
<!-- Generator: Adobe Illustrator 21.1.0, SVG Export Plug-In . SVG Version: 6.00 Build 0)  -->
<svg version="1.1" id="Layer_1" xmlns="http://www.w3.org/2000/svg" xmlns:xlink="http://www.w3.org/1999/xlink" x="0px" y="0px"
	 viewBox="0 0 41.4 41.3" style="enable-background:new 0 0 41.4 41.3;" xml:space="preserve">
<style type="text/css">
	.st0{opacity:0.24;}
	.st1{fill:#C05411;stroke:#000000;stroke-width:0.5;stroke-miterlimit:10;}
	.st2{fill:#FFFFFF;}
</style>
<title>Slice 1</title>
<desc>Created with Sketch.</desc>
<g id="Page-1_1_">
	<g id="passengerAirport" transform="translate(4.000000, 2.000000)">
		<g id="Page-1">
			<g id="pin-shadow-01" transform="translate(9.000000, 68.000000)" class="st0">
				<path id="Shape" d="M14.9-37.6c-9.7-0.7-19.8,0.2-22.5,2.1c-2.7,1.9-0.3,3.8,9.4,6.9l0.6,0c15.8-1.2,22.8-2.5,25.4-4.4
					C30.5-34.9,24.6-37,14.9-37.6L14.9-37.6L14.9-37.6z"/>
			</g>
			<g id="pin">
				<path id="Shape_1_" class="st1" d="M11.6-1.8C3.1-1.8-3.8,5-3.8,13.5c0,8.4,4,14.8,15.1,25.5h0.5C22.9,28.2,27,21.9,27,13.5
					C27,5,20-1.8,11.6-1.8L11.6-1.8L11.6-1.8z"/>
			</g>
			<g id="bridge" transform="translate(14.000000, 25.000000)">
				<path id="Shape_2_" class="st2" d="M-6.7-9.7V-12c-0.5-0.2-1.1-0.6-1.5-0.9v3.3H-6.7L-6.7-9.7z M-8.3-6.6h-1.5v-1.5h-1.5v-1.5
					h1.5V-15h1.5v1.1c1.5,1.3,3.4,2,5.4,2c2,0,3.9-0.7,5.4-2V-15H4v5.4h1.5v1.5H4v1.5H2.5v-1.5H-8.3V-6.6L-8.3-6.6z M0.9-12v2.4h1.5
					V-13C2-12.6,1.5-12.3,0.9-12L0.9-12z M0.2-9.7v-2.1c-0.5,0.2-1,0.3-1.5,0.4v1.7H0.2L0.2-9.7z M-2.1-9.7v-1.5h-0.8h-0.8v1.5H-2.1
					L-2.1-9.7z M-4.4-9.7v-1.7c-0.5-0.1-1-0.2-1.5-0.4v2.1H-4.4L-4.4-9.7z"/>
			</g>
		</g>
	</g>
</g>
</svg>
