<?xml version="1.0" encoding="utf-8"?>
<!-- Generator: Adobe Illustrator 21.1.0, SVG Export Plug-In . SVG Version: 6.00 Build 0)  -->
<svg version="1.1" id="Layer_1" xmlns="http://www.w3.org/2000/svg" xmlns:xlink="http://www.w3.org/1999/xlink" x="0px" y="0px"
	 viewBox="0 0 44.2 44.1" style="enable-background:new 0 0 44.2 44.1;" xml:space="preserve">
<style type="text/css">
	.st0{opacity:0.24;}
	.st1{fill:#3F7D97;stroke:#000000;stroke-width:0.5;stroke-miterlimit:10;}
	.st2{fill:#FFFFFF;}
</style>
<title>Slice 1</title>
<desc>Created with Sketch.</desc>
<g id="Page-1_1_">
	<g id="passengerAirport" transform="translate(1.000000, 1.000000)">
		<g id="Page-1">
			<g id="pin-shadow-01" transform="translate(9.000000, 68.000000)" class="st0">
				<path id="Shape" d="M19.7-34.5c-10.4-0.7-21.1,0.2-24,2.2c-2.9,2-0.3,4.1,10,7.3l0.7,0c16.9-1.3,24.3-2.7,27.1-4.7
					S30.1-33.8,19.7-34.5L19.7-34.5L19.7-34.5z"/>
			</g>
			<g id="pin">
				<path id="Shape_1_" class="st1" d="M15.6-0.8c-9,0-16.4,7.2-16.4,16.2c0,9,4.3,15.8,16.1,27.2h0.5C27.7,31.2,32,24.5,32,15.5
					C32,6.4,24.6-0.8,15.6-0.8L15.6-0.8L15.6-0.8z"/>
			</g>
		</g>
	</g>
	<path id="Shape_2_" class="st2" d="M11.2,11.8H22v3.6l-5.4-1.8l-5.4,1.8V11.8z M9.3,23.4L9.3,23.4c1.5,0,2.8-0.8,3.7-1.8
		c0.9,1,2.2,1.8,3.6,1.8s2.7-0.8,3.6-1.8c0.9,1,2.2,1.8,3.6,1.8h0l1.7-6c0.1-0.2,0-0.5-0.1-0.7c-0.1-0.2-0.3-0.4-0.5-0.5l-1.2-0.4
		v-4.2c0-1-0.8-1.8-1.8-1.8h-2.7V7.2h-5.4v2.7h-2.7c-1,0-1.8,0.8-1.8,1.8v4.2l-1.2,0.4c-0.2,0.1-0.4,0.2-0.5,0.5
		c-0.1,0.2-0.1,0.5-0.1,0.7L9.3,23.4z M23.8,25.2c-1.3,0-2.5-0.4-3.6-1.2c-2.2,1.5-5,1.5-7.2,0c-1.1,0.8-2.3,1.2-3.6,1.2H7.6V27h1.8
		c1.2,0,2.5-0.3,3.6-0.9c2.2,1.2,5,1.2,7.2,0c1.1,0.6,2.4,0.9,3.6,0.9h1.8v-1.8H23.8L23.8,25.2z"/>
</g>
</svg>
