<?xml version="1.0" encoding="utf-8"?>
<!-- Generator: Adobe Illustrator 21.1.0, SVG Export Plug-In . SVG Version: 6.00 Build 0)  -->
<svg version="1.1" id="Layer_1" xmlns="http://www.w3.org/2000/svg" xmlns:xlink="http://www.w3.org/1999/xlink" x="0px" y="0px"
	 viewBox="0 0 44.2 44.1" style="enable-background:new 0 0 44.2 44.1;" xml:space="preserve">
<style type="text/css">
	.st0{opacity:0.24;}
	.st1{fill:#588023;stroke:#000000;stroke-width:0.5;stroke-miterlimit:10;}
	.st2{fill:#FFFFFF;}
</style>
<title>Slice 1</title>
<desc>Created with Sketch.</desc>
<g id="Page-1_1_">
	<g id="passengerAirport" transform="translate(1.000000, 1.000000)">
		<g id="Page-1">
			<g id="pin-shadow-01" transform="translate(9.000000, 68.000000)" class="st0">
				<path id="Shape" d="M19.7-34.5c-10.4-0.7-21.1,0.2-24,2.2c-2.9,2-0.3,4.1,10,7.3l0.7,0c16.9-1.3,24.3-2.7,27.1-4.7
					S30.1-33.8,19.7-34.5L19.7-34.5L19.7-34.5z"/>
			</g>
			<g id="pin">
				<path id="Shape_1_" class="st1" d="M15.6-0.8c-9,0-16.4,7.2-16.4,16.2c0,9,4.3,15.8,16.1,27.2h0.5C27.7,31.2,32,24.5,32,15.5
					C32,6.4,24.6-0.8,15.6-0.8L15.6-0.8L15.6-0.8z"/>
			</g>
		</g>
	</g>
	<path id="Shape_2_" class="st2" d="M7.6,9.2h18v9H22v7.2h-1.8v-7.2H13v7.2h-1.8v-7.2H7.6V9.2L7.6,9.2z M22.9,16.5l0.9-0.9V13
		l-3.5,3.5H22.9L22.9,16.5z M17.8,16.5l5.4-5.4h-2.5l-5.4,5.4H17.8L17.8,16.5z M12.7,16.5l5.4-5.4h-2.5l-5.4,5.4H12.7L12.7,16.5z
		 M10.5,11.1l-1.1,1.1v2.5l3.6-3.6H10.5L10.5,11.1z"/>
</g>
</svg>
