<?xml version="1.0" encoding="utf-8"?>
<!-- Generator: Adobe Illustrator 21.1.0, SVG Export Plug-In . SVG Version: 6.00 Build 0)  -->
<svg version="1.1" id="Layer_1" xmlns="http://www.w3.org/2000/svg" xmlns:xlink="http://www.w3.org/1999/xlink" x="0px" y="0px"
	 viewBox="0 0 44.3 44.2" style="enable-background:new 0 0 44.3 44.2;" xml:space="preserve">
<style type="text/css">
	.st0{opacity:0.24;}
	.st1{fill:#3F7D97;stroke:#000000;stroke-width:0.75;stroke-miterlimit:10;}
</style>
<title>Untitled</title>
<desc>Created with Sketch.</desc>
<g id="Page-1_1_">
	<g id="passengerAirport" transform="translate(1.000000, 0.000000)">
		<g id="Page-1">
			<g id="pin-shadow-01" transform="translate(9.000000, 68.000000)" class="st0">
				<path id="Shape" d="M19.8-33.4c-10.4-0.8-21.1,0.2-24,2.2s-0.3,4,10,7.3l0.6,0.1c16.9-1.3,24.3-2.7,27.1-4.7
					C36.5-30.5,30.2-32.7,19.8-33.4L19.8-33.4z"/>
			</g>
			<g id="pin">
				<path id="Shape_1_" class="st1" d="M15.7,0.4c-9,0-16.4,7.2-16.4,16.2c0,9,4.3,15.8,16.1,27.2H16c11.8-11.5,16.1-18.2,16.1-27.2
					C32.1,7.6,24.7,0.4,15.7,0.4L15.7,0.4z"/>
			</g>
		</g>
	</g>
</g>
</svg>
