<?xml version="1.0" encoding="utf-8"?>
<!-- Generator: Adobe Illustrator 21.1.0, SVG Export Plug-In . SVG Version: 6.00 Build 0)  -->
<svg version="1.1" id="Layer_1" xmlns="http://www.w3.org/2000/svg" xmlns:xlink="http://www.w3.org/1999/xlink" x="0px" y="0px"
	 viewBox="0 0 44.2 44.1" style="enable-background:new 0 0 44.2 44.1;" xml:space="preserve">
<style type="text/css">
	.st0{opacity:0.24;}
	.st1{fill:#A83338;stroke:#000000;stroke-width:0.5;stroke-miterlimit:10;}
	.st2{fill:#FFFFFF;}
</style>
<title>Slice 1</title>
<desc>Created with Sketch.</desc>
<g id="Page-1">
	<g id="pin-shadow-01" transform="translate(10.000000, 69.000000)" class="st0">
		<path id="Shape" d="M19.7-34.5c-10.4-0.7-21.1,0.2-24,2.2c-2.9,2-0.3,4.1,10,7.3l0.7,0c16.9-1.3,24.3-2.7,27.1-4.7
			S30.1-33.8,19.7-34.5L19.7-34.5z"/>
	</g>
	<g id="pin" transform="translate(1.000000, 1.000000)">
		<path id="Shape_1_" class="st1" d="M15.6-0.8c-9,0-16.4,7.2-16.4,16.2c0,9,4.3,15.8,16.1,27.2h0.5C27.7,31.2,32,24.5,32,15.5
			C32,6.4,24.6-0.8,15.6-0.8L15.6-0.8z"/>
	</g>
	<g id="largeplane" transform="translate(15.000000, 16.000000)">
		<path id="Shape_2_" class="st2" d="M6.2,9.8l1.5-1.5L5.5-1.4l4.1-4.1c0.4-0.4,0.6-1,0.5-1.5s-0.6-1-1.1-1.1
			c-0.6-0.1-1.2,0-1.5,0.5L3.2-3.7l-9.6-2.2l-1.5,1.5l7.8,4.1l-4.1,4.1l-2.6-0.4l-1.1,1.1l3.3,1.9l1.9,3.3l1.1-1.1L-1.9,6l4.1-4.1
			L6.2,9.8z"/>
	</g>
</g>
</svg>
