<svg id="Layer_1" data-name="Layer 1" xmlns="http://www.w3.org/2000/svg" viewBox="0 0 43.23 43"><title>pin-1</title><g id="Page-1"><g id="passengerAirport"><g id="Page-1-2" data-name="Page-1"><g id="pin-shadow-01" style="opacity:0.23999999463558197"><path id="Shape" d="M29,33.8c-10.1-.8-20.6.2-23.4,2s-.3,4,9.8,7.1H16c16.5-1.3,23.8-2.6,26.5-4.6,2.8-1.8-3.3-3.8-13.5-4.5Z" transform="translate(0.05 0.05)"/></g><g id="pin"><path id="Shape-2" data-name="Shape" d="M16.2.2A15.9,15.9,0,0,0,.2,16.1c0,8.8,4.2,15.4,15.7,26.6h.5c11.7-11.2,16-17.7,16-26.6A16.07,16.07,0,0,0,16.2.2Z" transform="translate(0.05 0.05)" style="fill:#3f7d97;stroke:#000;stroke-miterlimit:10;stroke-width:0.5px"/></g></g></g></g><g style="isolation:isolate"><path d="M17.9,25.8H15.51V12.16H12.46V10.4a8.37,8.37,0,0,0,1.27-.2,3,3,0,0,0,1.17-.55,2.25,2.25,0,0,0,.74-1A5.39,5.39,0,0,0,16,7.49H17.9Z" transform="translate(0.05 0.05)" style="fill:#fff"/></g></svg>