<svg id="Layer_1" data-name="Layer 1" xmlns="http://www.w3.org/2000/svg" viewBox="0 0 43.23 43"><title>pin-3</title><g id="Page-1"><g id="passengerAirport"><g id="Page-1-2" data-name="Page-1"><g id="pin-shadow-01" style="opacity:0.23999999463558197"><path id="Shape" d="M29,33.8c-10.1-.8-20.6.2-23.4,2s-.3,4,9.8,7.1H16c16.5-1.3,23.8-2.6,26.5-4.6,2.8-1.8-3.3-3.8-13.5-4.5Z" transform="translate(0.05 0.05)"/></g><g id="pin"><path id="Shape-2" data-name="Shape" d="M16.2.2A15.9,15.9,0,0,0,.2,16.1c0,8.8,4.2,15.4,15.7,26.6h.5c11.7-11.2,16-17.7,16-26.6A16.07,16.07,0,0,0,16.2.2Z" transform="translate(0.05 0.05)" style="fill:#3f7d97;stroke:#000;stroke-miterlimit:10;stroke-width:0.5px"/></g></g></g></g><g style="isolation:isolate"><path d="M22.31,20.21a7,7,0,0,1-.4,2.43,5.39,5.39,0,0,1-1.13,1.87A5.07,5.07,0,0,1,19,25.71a6,6,0,0,1-2.31.43,9.33,9.33,0,0,1-2.24-.26,5.63,5.63,0,0,1-1.88-.83,5,5,0,0,1-1.41-1.5,6.66,6.66,0,0,1-.83-2.26l2.3-.54a5.88,5.88,0,0,0,.5,1.23,4.1,4.1,0,0,0,.77,1,3.62,3.62,0,0,0,1,.69,3.26,3.26,0,0,0,1.34.26,4.52,4.52,0,0,0,1.34-.2,3.37,3.37,0,0,0,1.16-.61,3.11,3.11,0,0,0,.82-1,3.38,3.38,0,0,0,.32-1.52,3.33,3.33,0,0,0-.39-1.72,2.61,2.61,0,0,0-1-1,3.28,3.28,0,0,0-1.2-.4,9,9,0,0,0-1-.07l-.49,0V15.49a7.74,7.74,0,0,0,1.31-.12A4,4,0,0,0,18.41,15a2.55,2.55,0,0,0,.93-.86,2.83,2.83,0,0,0,.36-1.56,3.17,3.17,0,0,0-.82-2.36,3.67,3.67,0,0,0-2.65-.81,3.18,3.18,0,0,0-2.29.77A4.4,4.4,0,0,0,12.78,12l-2.16-.54A5.52,5.52,0,0,1,12.76,8.2a6.85,6.85,0,0,1,3.92-1,6.07,6.07,0,0,1,2.22.39,5.42,5.42,0,0,1,1.72,1.06,4.7,4.7,0,0,1,1.13,1.57,4.8,4.8,0,0,1,.4,2,6.75,6.75,0,0,1-.11,1.2,3.6,3.6,0,0,1-.4,1.12,3.81,3.81,0,0,1-.79,1,4.12,4.12,0,0,1-1.27.75,7.19,7.19,0,0,1,2.1,1.9A3.78,3.78,0,0,1,22.31,20.21Z" transform="translate(0.05 0.05)" style="fill:#fff"/></g></svg>