<svg id="Layer_1" data-name="Layer 1" xmlns="http://www.w3.org/2000/svg" viewBox="0 0 43.23 43"><title>pin-2</title><g id="Page-1"><g id="passengerAirport"><g id="Page-1-2" data-name="Page-1"><g id="pin-shadow-01" style="opacity:0.23999999463558197"><path id="Shape" d="M29,33.8c-10.1-.8-20.6.2-23.4,2s-.3,4,9.8,7.1H16c16.5-1.3,23.8-2.6,26.5-4.6,2.8-1.8-3.3-3.8-13.5-4.5Z" transform="translate(0.05 0.05)"/></g><g id="pin"><path id="Shape-2" data-name="Shape" d="M16.2.2A15.9,15.9,0,0,0,.2,16.1c0,8.8,4.2,15.4,15.7,26.6h.5c11.7-11.2,16-17.7,16-26.6A16.07,16.07,0,0,0,16.2.2Z" transform="translate(0.05 0.05)" style="fill:#3f7d97;stroke:#000;stroke-miterlimit:10;stroke-width:0.5px"/></g></g></g></g><g style="isolation:isolate"><path d="M22.6,25.8H11.25V23.47q1.17-.75,2.58-1.76t2.6-2q.47-.4,1.1-1a10.32,10.32,0,0,0,1.21-1.41,8.29,8.29,0,0,0,1-1.81,6,6,0,0,0,.4-2.21,5.85,5.85,0,0,0-.16-1.4,3.61,3.61,0,0,0-.53-1.2,2.62,2.62,0,0,0-1-.84,3.28,3.28,0,0,0-1.53-.32,3.51,3.51,0,0,0-1.61.34,3,3,0,0,0-1.09.92A3.34,3.34,0,0,0,13.65,12a5.84,5.84,0,0,0-.15,1.3v.33H11.22v-.35a7.46,7.46,0,0,1,.35-2.32,5.28,5.28,0,0,1,1.07-1.89A4.88,4.88,0,0,1,14.39,7.8a5.93,5.93,0,0,1,2.37-.45,5.71,5.71,0,0,1,4.33,1.56,6.33,6.33,0,0,1,1.49,4.54,6.18,6.18,0,0,1-.47,2.38A10.46,10.46,0,0,1,20.9,18a14.56,14.56,0,0,1-1.64,1.9q-.9.88-1.77,1.58l-.56.46-.61.47-.73.55-.94.7h8Z" transform="translate(0.05 0.05)" style="fill:#fff"/></g></svg>