<?xml version="1.0" encoding="utf-8"?>
<!-- Generator: Adobe Illustrator 21.1.0, SVG Export Plug-In . SVG Version: 6.00 Build 0)  -->
<svg version="1.1" id="Layer_1" xmlns="http://www.w3.org/2000/svg" xmlns:xlink="http://www.w3.org/1999/xlink" x="0px" y="0px"
	 viewBox="0 0 44.2 44.1" style="enable-background:new 0 0 44.2 44.1;" xml:space="preserve">
<style type="text/css">
	.st0{opacity:0.24;}
	.st1{fill:#397AAC;stroke:#000000;stroke-width:0.5;stroke-miterlimit:10;}
	.st2{fill:#FFFFFF;}
</style>
<title>Slice 1</title>
<desc>Created with Sketch.</desc>
<g id="Page-1">
	<g id="pin-shadow-01" transform="translate(10.000000, 69.000000)" class="st0">
		<path id="Shape" d="M19.7-34.5c-10.4-0.7-21.1,0.2-24,2.2c-2.9,2-0.3,4.1,10,7.3l0.7,0c16.9-1.3,24.3-2.7,27.1-4.7
			S30.1-33.8,19.7-34.5L19.7-34.5z"/>
	</g>
	<g id="pin" transform="translate(1.000000, 1.000000)">
		<path id="Shape_1_" class="st1" d="M15.6-0.8c-9,0-16.4,7.2-16.4,16.2c0,9,4.3,15.8,16.1,27.2h0.5C27.7,31.2,32,24.5,32,15.5
			C32,6.4,24.6-0.8,15.6-0.8L15.6-0.8z"/>
	</g>
	
		<g id="smallplane" transform="translate(34.001364, 33.420000) scale(-1, 1) translate(-34.001364, -33.420000) translate(16.000000, 15.000000)">
		<g id="Group">
			
				<rect id="Rectangle-path" x="40.1" y="-4.9" transform="matrix(0.7071 -0.7071 0.7071 0.7071 16.2765 28.3698)" class="st2" width="4.6" height="-1"/>
			<path id="Shape_2_" class="st2" d="M41.8,8.1c0.2,0.2,0.5,0.2,0.7,0L44,6.6c0.2-0.2,0.2-0.5,0.1-0.8l-4.4-5.7
				c-0.1-0.1-0.2-0.2-0.2-0.4s0.1-0.3,0.2-0.4l2.1-2L42.1-3c0-0.2-0.1-0.4-0.2-0.5l-1.4-1.3C40.4-5,40.2-5.1,40-5.2l-0.5,0.5l-2.1,2
				c-0.2,0.2-0.5,0.2-0.8,0.1L31-7c-0.1-0.1-0.2-0.2-0.4-0.2S30.3-7.1,30.2-7l-1.4,1.4c-0.1,0.1-0.2,0.2-0.2,0.4s0.1,0.3,0.2,0.4
				l4.8,5.3c0.2,0.2,0.2,0.5,0,0.7L31,3.7c-0.2,0.2-0.5,0.2-0.8,0.1l-1.7-1.2c-0.3-0.1-0.6-0.1-0.9,0.1l-1.1,1.1
				c-0.1,0.1-0.2,0.2-0.2,0.4c0,0.1,0.1,0.3,0.2,0.4l2.5,2.6l0.7,0.7l2.5,2.5c0.1,0.1,0.2,0.2,0.4,0.2s0.3-0.1,0.4-0.2l1.1-1.1
				c0.2-0.2,0.2-0.5,0.1-0.8l-1.2-1.7c-0.2-0.2-0.2-0.6,0.1-0.8l2.5-2.5c0.1-0.1,0.2-0.2,0.4-0.2c0.1,0,0.3,0.1,0.4,0.2L41.8,8.1z"
				/>
		</g>
	</g>
</g>
</svg>
