<?xml version="1.0" encoding="utf-8"?>
<!-- Generator: Adobe Illustrator 21.1.0, SVG Export Plug-In . SVG Version: 6.00 Build 0)  -->
<svg version="1.1" id="Layer_1" xmlns="http://www.w3.org/2000/svg" xmlns:xlink="http://www.w3.org/1999/xlink" x="0px" y="0px"
	 viewBox="0 0 40.2 40.1" style="enable-background:new 0 0 40.2 40.1;" xml:space="preserve">
<style type="text/css">
	.st0{opacity:0.24;}
	.st1{fill:#3F7D97;stroke:#000000;stroke-width:0.5;stroke-miterlimit:10;}
	.st2{fill:#FFFFFF;}
</style>
<title>Slice 1</title>
<desc>Created with Sketch.</desc>
<g id="Page-1_2_">
	<g id="restarea-pin" transform="translate(4.000000, 3.000000)">
		<g id="Page-1_1_">
			<g id="passengerAirport">
				<g id="Page-1">
					<g id="pin-shadow-01" transform="translate(9.000000, 68.000000)" class="st0">
						<path id="Shape" d="M14-39.6c-9.4-0.7-19.2,0.2-21.8,2s-0.3,3.7,9.1,6.6l0.6,0c15.3-1.2,22.1-2.4,24.7-4.2
							C29.2-37,23.5-38.9,14-39.6L14-39.6L14-39.6L14-39.6z"/>
					</g>
					<g id="pin">
						<path id="Shape_1_" class="st1" d="M11.1-2.8C2.9-2.8-3.8,3.8-3.8,12c0,8.1,3.9,14.3,14.6,24.8h0.5C22.1,26.3,26,20.2,26,12
							C26,3.8,19.3-2.8,11.1-2.8L11.1-2.8L11.1-2.8L11.1-2.8z"/>
					</g>
				</g>
			</g>
			<g id="restarea" transform="translate(14.000000, 20.000000)">
				<g id="Group">
					<path id="Shape_2_" class="st2" d="M5.8-8.4H1.9l-1.6-3.4h2.1v-1.9H-8.2v1.9h2.1l-1.6,3.4h-3.8v1.9h2.9l-1.8,3.7h2.1l1.8-3.7
						h7.1l1.8,3.7h2.1L2.8-6.4h2.9V-8.4L5.8-8.4L5.8-8.4z M-5.6-8.4l1.6-3.4h2.2l1.6,3.4H-5.6L-5.6-8.4L-5.6-8.4z"/>
				</g>
			</g>
		</g>
	</g>
</g>
</svg>
