<?xml version="1.0" encoding="utf-8"?>
<!-- Generator: Adobe Illustrator 21.1.0, SVG Export Plug-In . SVG Version: 6.00 Build 0)  -->
<svg version="1.1" id="Layer_1" xmlns="http://www.w3.org/2000/svg" xmlns:xlink="http://www.w3.org/1999/xlink" x="0px" y="0px"
	 viewBox="0 0 44.2 44.1" style="enable-background:new 0 0 44.2 44.1;" xml:space="preserve">
<style type="text/css">
	.st0{opacity:0.24;}
	.st1{fill:#3F7D97;stroke:#000000;stroke-width:0.5;stroke-miterlimit:10;}
	.st2{fill:#FFFFFF;}
</style>
<title>Slice 1</title>
<desc>Created with Sketch.</desc>
<g id="Page-1_1_">
	<g id="passengerAirport" transform="translate(1.000000, 1.000000)">
		<g id="Page-1">
			<g id="pin-shadow-01" transform="translate(9.000000, 68.000000)" class="st0">
				<path id="Shape" d="M19.7-34.5c-10.4-0.7-21.1,0.2-24,2.2c-2.9,2-0.3,4.1,10,7.3l0.7,0c16.9-1.3,24.3-2.7,27.1-4.7
					S30.1-33.8,19.7-34.5L19.7-34.5z"/>
			</g>
			<g id="pin">
				<path id="Shape_1_" class="st1" d="M15.6-0.8c-9,0-16.4,7.2-16.4,16.2c0,9,4.3,15.8,16.1,27.2h0.5C27.7,31.2,32,24.5,32,15.5
					C32,6.4,24.6-0.8,15.6-0.8L15.6-0.8z"/>
			</g>
		</g>
	</g>
	<g id="Group" transform="translate(15.000000, 21.000000)">
		<g id="scenic-tiny">
			<path id="Shape_2_" class="st2" d="M1.1-6.1c-0.9,0-1.5,0.6-1.5,1.5s0.6,1.5,1.5,1.5s1.5-0.6,1.5-1.5S2-6.1,1.1-6.1"/>
			<path id="Shape_3_" class="st2" d="M1.1-10.5c-3.9,0-7.5,2.5-8.8,5.8c1.3,3.4,4.8,5.8,8.8,5.8s7.5-2.5,8.8-5.8
				C8.6-8,5.2-10.5,1.1-10.5z M1.1-1c-1.9,0-3.7-1.6-3.7-3.7s1.6-3.7,3.7-3.7s3.7,1.6,3.7,3.7S3.1-1,1.1-1z"/>
		</g>
	</g>
</g>
</svg>
