<?xml version="1.0" encoding="utf-8"?>
<!-- Generator: Adobe Illustrator 21.1.0, SVG Export Plug-In . SVG Version: 6.00 Build 0)  -->
<svg version="1.1" id="Layer_1" xmlns="http://www.w3.org/2000/svg" xmlns:xlink="http://www.w3.org/1999/xlink" x="0px" y="0px"
	 viewBox="0 0 44.4 44.3" style="enable-background:new 0 0 44.4 44.3;" xml:space="preserve">
<style type="text/css">
	.st0{opacity:0.24;}
	.st1{stroke:#000000;stroke-width:0.5;stroke-miterlimit:10;}
	.st2{fill:#3F7D97;stroke:#000000;stroke-width:0.5;stroke-miterlimit:10;}
	.st3{fill:#FFFFFF;}
</style>
<g id="Layer_1_1_">
	<title>Slice 1</title>
	<desc>Created with Sketch.</desc>
	<g id="Page-1_1_">
		<g id="passengerAirport" transform="translate(1.000000, 1.000000)">
			<g id="Page-1">
				<g id="pin-shadow-01" transform="translate(9.000000, 68.000000)" class="st0">
					<path id="Shape" class="st1" d="M19.7-34.5c-10.4-0.8-21.1,0.2-24,2.2s-0.3,4,10,7.3l0.6,0c16.9-1.3,24.3-2.7,27.1-4.7
						C36.3-31.6,30.1-33.8,19.7-34.5L19.7-34.5L19.7-34.5z"/>
				</g>
				<g id="pin">
					<path id="Shape_1_" class="st2" d="M15.6-0.8c-9,0-16.4,7.2-16.4,16.2c0,9,4.3,15.8,16.1,27.2h0.5C27.7,31.2,32,24.5,32,15.5
						C32,6.4,24.6-0.8,15.6-0.8L15.6-0.8L15.6-0.8z"/>
				</g>
			</g>
		</g>
	</g>
</g>
<g id="Layer_2">
	<path class="st3" d="M8.6,21.6c0,1.9,1.6,3.5,3.4,3.5l-1.5,1.5v0.5h11.9v-0.5l-1.5-1.5c1.9,0,3.5-1.5,3.5-3.5V11.2
		c0-3.4-3.5-3.9-7.9-3.9s-7.9,0.5-7.9,3.9L8.6,21.6L8.6,21.6z M16.5,23.1c-1.1,0-2-0.9-2-2s0.9-2,2-2s2,0.9,2,2S17.6,23.1,16.5,23.1
		z M22.4,16.1H10.6v-4.9h11.9L22.4,16.1L22.4,16.1z"/>
</g>
</svg>
