<?xml version="1.0" encoding="utf-8"?>
<!-- Generator: Adobe Illustrator 21.1.0, SVG Export Plug-In . SVG Version: 6.00 Build 0)  -->
<svg version="1.1" id="Layer_1" xmlns="http://www.w3.org/2000/svg" xmlns:xlink="http://www.w3.org/1999/xlink" x="0px" y="0px"
	 viewBox="0 0 40.4 40.3" style="enable-background:new 0 0 40.4 40.3;" xml:space="preserve">
<style type="text/css">
	.st0{opacity:0.24;}
	.st1{stroke:#000000;stroke-width:0.5;stroke-miterlimit:10;}
	.st2{fill:#588023;stroke:#000000;stroke-width:0.5;stroke-miterlimit:10;}
	.st3{fill:#FFFFFF;}
</style>
<title>Slice 1</title>
<desc>Created with Sketch.</desc>
<g id="Page-1_2_">
	<g id="restarea-pin" transform="translate(4.000000, 3.000000)">
		<g id="Page-1_1_">
			<g id="passengerAirport">
				<g id="Page-1">
					<g id="pin-shadow-01" transform="translate(9.000000, 68.000000)" class="st0">
						<path id="Shape" class="st1" d="M14-39.6c-9.4-0.7-19.2,0.2-21.8,2s-0.3,3.7,9.1,6.6l0.6,0c15.3-1.2,22.1-2.4,24.7-4.2
							C29.2-37,23.5-38.9,14-39.6L14-39.6L14-39.6L14-39.6z"/>
					</g>
					<g id="pin">
						<path id="Shape_1_" class="st2" d="M11.1-2.8C2.9-2.8-3.8,3.8-3.8,12c0,8.1,3.9,14.3,14.6,24.8h0.5C22.1,26.3,26,20.2,26,12
							C26,3.8,19.3-2.8,11.1-2.8L11.1-2.8L11.1-2.8L11.1-2.8z"/>
					</g>
				</g>
			</g>
		</g>
	</g>
	<path id="Shape_2_" class="st3" d="M17.4,21l-4.5-1.6v-9l4.5,1.6V21z M21.6,8.9h-0.1l-4,1.6l-4.5-1.6l-4.3,1.4
		c-0.2,0.1-0.3,0.2-0.3,0.4v11.5c0,0.2,0.2,0.4,0.4,0.4c0,0,0.1,0,0.1,0l4-1.6l4.5,1.6l4.3-1.4c0.2-0.1,0.3-0.2,0.3-0.4V9.3
		C21.9,9.1,21.8,8.9,21.6,8.9L21.6,8.9z"/>
</g>
</svg>
