<?xml version="1.0" encoding="utf-8"?>
<!-- Generator: Adobe Illustrator 21.1.0, SVG Export Plug-In . SVG Version: 6.00 Build 0)  -->
<svg version="1.1" id="Layer_1" xmlns="http://www.w3.org/2000/svg" xmlns:xlink="http://www.w3.org/1999/xlink" x="0px" y="0px"
	 viewBox="0 0 41 40.9" style="enable-background:new 0 0 41 40.9;" xml:space="preserve">
<style type="text/css">
	.st0{opacity:0.24;}
	.st1{fill:#C05411;stroke:#000000;stroke-width:0.5;stroke-miterlimit:10;}
	.st2{fill:#FFFFFF;}
</style>
<title>Slice 1</title>
<desc>Created with Sketch.</desc>
<g id="Page-1_1_">
	<g id="passengerAirport" transform="translate(6.000000, 4.000000)">
		<g id="Page-1">
			<g id="pin-shadow-01" transform="translate(9.000000, 68.000000)" class="st0">
				<path id="Shape" d="M12.6-40C2.9-40.7-7-39.8-9.7-37.9s-0.3,3.8,9.3,6.8l0.6,0c15.6-1.2,22.5-2.5,25.2-4.3
					C28-37.3,22.2-39.3,12.6-40L12.6-40L12.6-40z"/>
			</g>
			<g id="pin">
				<path id="Shape_1_" class="st1" d="M9.4-3.8C1.1-3.8-5.8,2.9-5.8,11.3c0,8.3,4,14.6,14.9,25.3h0.5
					c10.9-10.7,14.9-16.9,14.9-25.3C24.6,2.9,17.8-3.8,9.4-3.8L9.4-3.8L9.4-3.8z"/>
			</g>
		</g>
	</g>
	<g id="welcomecenter" transform="translate(21.000000, 20.000000)">
		<rect id="Rectangle-path" x="-2.3" y="-12.3" class="st2" width="0.8" height="5.1"/>
		<polygon id="Shape_2_" class="st2" points="1.3,-11.8 -0.1,-12.3 -1.5,-12.3 -1.5,-9.4 -0.1,-9.4 1.3,-8.8 2.7,-8.8 2.7,-11.8 		
			"/>
		<polygon id="Shape_3_" class="st2" points="-5.6,-11.2 -13.9,-3.7 -11.4,-3.7 -11.4,3 -7.2,3 -7.2,-2.1 -4,-2.1 -4,3 0.3,3 
			0.3,-3.7 2.8,-3.7 		"/>
	</g>
</g>
</svg>
